M48
; DRILL file {KiCad 9.0.8-1.fc43} date 2026-03-25T11:55:52+0100
; FORMAT={-:-/ absolute / inch / decimal}
; #@! TF.CreationDate,2026-03-25T11:55:52+01:00
; #@! TF.GenerationSoftware,Kicad,Pcbnew,9.0.8-1.fc43
; #@! TF.FileFunction,Plated,1,2,PTH
FMAT,2
INCH
; #@! TA.AperFunction,Plated,PTH,ViaDrill
T1C0.0118
; #@! TA.AperFunction,Plated,PTH,ComponentDrill
T2C0.0394
; #@! TA.AperFunction,Plated,PTH,ComponentDrill
T3C0.0787
%
G90
G05
T1
X5.9449Y-2.5157
X6.2283Y-2.3346
X6.2303Y-2.5197
X6.2717Y-2.2953
X6.2717Y-2.3346
X6.315Y-2.2953
X6.3583Y-2.2402
X6.3583Y-2.2953
T2
X5.7627Y-3.0568
X5.8334Y-3.1275
X5.8691Y-2.9495
X5.8982Y-2.1837
X5.9041Y-3.1982
X5.9398Y-2.8788
X5.9748Y-3.2689
X5.9982Y-2.1837
X6.0105Y-2.8081
X6.0812Y-2.7374
X6.0982Y-2.1837
X6.1982Y-2.1837
X6.6142Y-2.5918
X6.7142Y-2.5918
X6.8142Y-2.5918
X6.9142Y-2.5918
X7.0142Y-2.5918
X7.1142Y-2.5918
X7.2142Y-2.5918
X7.3142Y-2.5918
X7.3143Y-3.2
X8.4526Y-2.1445
X8.5526Y-2.1445
T3
X8.4941Y-2.9724
M30
