%TF.GenerationSoftware,KiCad,Pcbnew,9.0.8-1.fc43*%
%TF.CreationDate,2026-03-25T11:55:50+01:00*%
%TF.ProjectId,DCF77-Addon,44434637-372d-4416-9464-6f6e2e6b6963,rev?*%
%TF.SameCoordinates,Original*%
%TF.FileFunction,Profile,NP*%
%FSLAX46Y46*%
G04 Gerber Fmt 4.6, Leading zero omitted, Abs format (unit mm)*
G04 Created by KiCad (PCBNEW 9.0.8-1.fc43) date 2026-03-25 11:55:50*
%MOMM*%
%LPD*%
G01*
G04 APERTURE LIST*
%TA.AperFunction,Profile*%
%ADD10C,0.050000*%
%TD*%
%ADD11C,0.050000*%
G04 APERTURE END LIST*
D10*
X182246852Y-99001898D02*
X182246853Y-99001898D01*
X153196853Y-99001981D02*
X153196852Y-99001981D01*
X142999984Y-75500018D02*
X143100000Y-75400000D01*
X143000001Y-78999999D02*
G75*
G02*
X142999984Y-75500018I1749999J1749999D01*
G01*
X143000001Y-78999999D02*
X143000000Y-79000000D01*
X143100000Y-79100000D02*
X143000000Y-79000000D01*
X143100000Y-79100000D02*
X151050000Y-87050000D01*
X146929299Y-71570701D02*
X143100000Y-75400000D01*
X147500000Y-54000000D02*
X147500000Y-70300000D01*
X147500000Y-54000000D02*
G75*
G02*
X149000000Y-52500000I1500000J0D01*
G01*
X147500000Y-70300000D02*
G75*
G02*
X146929300Y-71570702I-1700000J0D01*
G01*
X149000000Y-52500000D02*
X217250000Y-52499999D01*
X153000000Y-89000000D02*
X151050000Y-87050000D01*
D11*
X153000000Y-89000000D02*
X153003658Y-89003714D01*
X153007299Y-89007525D01*
X153010923Y-89011434D01*
X153014530Y-89015441D01*
X153018120Y-89019549D01*
X153021692Y-89023758D01*
X153025247Y-89028070D01*
X153028785Y-89032487D01*
X153032305Y-89037009D01*
X153035807Y-89041638D01*
X153039291Y-89046375D01*
X153042757Y-89051222D01*
X153046204Y-89056180D01*
X153049632Y-89061251D01*
X153053041Y-89066436D01*
X153056431Y-89071737D01*
X153059801Y-89077155D01*
X153063150Y-89082691D01*
X153066479Y-89088347D01*
X153069787Y-89094125D01*
X153073074Y-89100025D01*
X153076338Y-89106050D01*
X153079580Y-89112201D01*
X153082799Y-89118479D01*
X153085994Y-89124886D01*
X153089166Y-89131424D01*
X153092313Y-89138093D01*
X153095434Y-89144895D01*
X153098529Y-89151831D01*
X153101598Y-89158904D01*
X153104640Y-89166114D01*
X153107654Y-89173462D01*
X153110639Y-89180950D01*
X153113594Y-89188580D01*
X153116520Y-89196351D01*
X153119414Y-89204267D01*
X153122276Y-89212326D01*
X153125106Y-89220532D01*
X153127903Y-89228884D01*
X153130665Y-89237384D01*
X153133391Y-89246033D01*
X153136082Y-89254831D01*
X153138735Y-89263779D01*
X153141350Y-89272877D01*
X153143925Y-89282126D01*
X153146461Y-89291527D01*
X153148955Y-89301079D01*
X153151407Y-89310783D01*
X153153815Y-89320639D01*
X153156179Y-89330646D01*
X153158497Y-89340803D01*
X153160768Y-89351111D01*
X153162991Y-89361568D01*
X153165164Y-89372172D01*
X153167287Y-89382923D01*
X153169357Y-89393818D01*
X153171374Y-89404856D01*
X153173337Y-89416032D01*
X153175243Y-89427345D01*
X153177092Y-89438791D01*
X153178882Y-89450364D01*
X153180611Y-89462061D01*
X153182278Y-89473874D01*
X153183881Y-89485797D01*
X153185419Y-89497823D01*
X153186890Y-89509942D01*
X153188293Y-89522143D01*
X153189625Y-89534414D01*
X153190884Y-89546740D01*
X153192070Y-89559104D01*
X153193179Y-89571487D01*
X153194211Y-89583863D01*
X153195162Y-89596204D01*
X153196032Y-89608476D01*
X153196817Y-89620634D01*
X153197516Y-89632626D01*
X153198126Y-89644381D01*
X153198645Y-89655808D01*
X153199072Y-89666782D01*
X153199403Y-89677118D01*
X153199637Y-89686525D01*
X153199774Y-89694465D01*
X153199821Y-89700000D01*
D10*
X153199821Y-89700000D02*
X153196852Y-99001981D01*
D11*
X153199821Y-89700000D02*
X153199821Y-89700000D01*
D10*
X154128971Y-87999130D02*
X157328971Y-87999130D01*
X157328971Y-89399130D01*
X154128971Y-89399130D01*
X154128971Y-87999130D01*
X154128971Y-97999130D02*
X157328971Y-97999130D01*
X157328971Y-99399130D01*
X154128971Y-99399130D01*
X154128971Y-97999130D01*
X154198458Y-100003147D02*
G75*
G02*
X153196853Y-99001981I-758J1000847D01*
G01*
X154198458Y-100003147D02*
X157192927Y-100000880D01*
X158196852Y-88998015D02*
X158200000Y-98999685D01*
X158196852Y-88998015D02*
G75*
G02*
X159197803Y-87996852I1000848J315D01*
G01*
X158200000Y-98999685D02*
G75*
G02*
X157192927Y-100000881I-1000900J-315D01*
G01*
X159197803Y-87996852D02*
X181250103Y-87999130D01*
X177978533Y-81830000D02*
G75*
G02*
X167141467Y-81830000I-5418533J0D01*
G01*
X167141467Y-81830000D02*
G75*
G02*
X177978533Y-81830000I5418533J0D01*
G01*
X181250103Y-87999130D02*
G75*
G02*
X182250870Y-89000402I-103J-1000870D01*
G01*
X182246853Y-99001898D02*
X182250870Y-89000402D01*
X183200000Y-88000000D02*
X186400000Y-88000000D01*
X186400000Y-89400000D01*
X183200000Y-89400000D01*
X183200000Y-88000000D01*
X183200000Y-98000000D02*
X186400000Y-98000000D01*
X186400000Y-99400000D01*
X183200000Y-99400000D01*
X183200000Y-98000000D01*
X183247700Y-100003148D02*
G75*
G02*
X182246852Y-99001898I0J1000848D01*
G01*
X183247700Y-100003148D02*
X186272300Y-100003148D01*
X187271164Y-89505624D02*
X187273148Y-99002091D01*
X187271164Y-89505624D02*
G75*
G02*
X200750000Y-75250000I13478836J755624D01*
G01*
X187273148Y-99002091D02*
G75*
G02*
X186272300Y-100003148I-1000848J-209D01*
G01*
X200750000Y-75250001D02*
G75*
G02*
X211238087Y-80250000I0J-13499999D01*
G01*
X211238087Y-80250000D02*
X218250000Y-80250000D01*
X217250000Y-52499999D02*
G75*
G02*
X219250001Y-54500000I0J-2000001D01*
G01*
X219250001Y-54500000D02*
X219250000Y-54500000D01*
X219250000Y-54500000D02*
X219250000Y-79250000D01*
X219250000Y-79250000D02*
G75*
G02*
X218250000Y-80250000I-1000000J0D01*
G01*
M02*
