%TF.GenerationSoftware,KiCad,Pcbnew,9.0.8-1.fc43*%
%TF.CreationDate,2026-03-25T11:55:49+01:00*%
%TF.ProjectId,DCF77-Addon,44434637-372d-4416-9464-6f6e2e6b6963,rev?*%
%TF.SameCoordinates,Original*%
%TF.FileFunction,Copper,L2,Bot*%
%TF.FilePolarity,Positive*%
%FSLAX46Y46*%
G04 Gerber Fmt 4.6, Leading zero omitted, Abs format (unit mm)*
G04 Created by KiCad (PCBNEW 9.0.8-1.fc43) date 2026-03-25 11:55:49*
%MOMM*%
%LPD*%
G01*
G04 APERTURE LIST*
G04 Aperture macros list*
%AMRotRect*
0 Rectangle, with rotation*
0 The origin of the aperture is its center*
0 $1 length*
0 $2 width*
0 $3 Rotation angle, in degrees counterclockwise*
0 Add horizontal line*
21,1,$1,$2,0,0,$3*%
G04 Aperture macros list end*
%TA.AperFunction,ComponentPad*%
%ADD10C,3.600000*%
%TD*%
%TA.AperFunction,ComponentPad*%
%ADD11R,1.700000X1.700000*%
%TD*%
%TA.AperFunction,ComponentPad*%
%ADD12O,1.700000X1.700000*%
%TD*%
%TA.AperFunction,ComponentPad*%
%ADD13C,1.700000*%
%TD*%
%TA.AperFunction,ComponentPad*%
%ADD14RotRect,1.700000X1.700000X225.000000*%
%TD*%
%TA.AperFunction,ComponentPad*%
%ADD15RotRect,1.700000X1.700000X315.000000*%
%TD*%
%TA.AperFunction,ViaPad*%
%ADD16C,0.600000*%
%TD*%
G04 APERTURE END LIST*
D10*
%TO.P,H1,1,1*%
%TO.N,GND*%
X215750000Y-75500000D03*
%TD*%
D11*
%TO.P,J2,1,Pin_1*%
%TO.N,GND*%
X185782500Y-81280000D03*
%TD*%
%TO.P,J8,1,Pin_1*%
%TO.N,VDD*%
X217237221Y-54470640D03*
D12*
%TO.P,J8,2,Pin_2*%
%TO.N,GND*%
X214697221Y-54470640D03*
%TD*%
D11*
%TO.P,J5,1,Pin_1*%
%TO.N,+3V3*%
X157435061Y-55465611D03*
D13*
%TO.P,J5,2,Pin_2*%
%TO.N,/SCL*%
X154895061Y-55465611D03*
%TO.P,J5,3,Pin_3*%
%TO.N,/SDA*%
X152355061Y-55465611D03*
%TO.P,J5,4,Pin_4*%
%TO.N,GND*%
X149815061Y-55465611D03*
%TD*%
D11*
%TO.P,J4,1,Pin_1*%
%TO.N,+3V3*%
X185779999Y-65831050D03*
D13*
%TO.P,J4,2,Pin_2*%
%TO.N,GND*%
X183239999Y-65831050D03*
%TO.P,J4,3,Pin_3*%
%TO.N,/PF0*%
X180699999Y-65831050D03*
%TO.P,J4,4,Pin_4*%
%TO.N,/A1*%
X178159999Y-65831050D03*
%TO.P,J4,5,Pin_5*%
%TO.N,/PF1*%
X175619999Y-65831050D03*
%TO.P,J4,6,Pin_6*%
%TO.N,/A2*%
X173079999Y-65831050D03*
%TO.P,J4,7,Pin_7*%
%TO.N,/A3*%
X170539999Y-65831050D03*
%TO.P,J4,8,Pin_8*%
%TO.N,/A4*%
X167999999Y-65831050D03*
%TD*%
D14*
%TO.P,J1,1,Pin_1*%
%TO.N,/D0*%
X146372896Y-77642896D03*
D13*
%TO.P,J1,2,Pin_2*%
%TO.N,/D1*%
X148168947Y-79438947D03*
%TO.P,J1,3,Pin_3*%
%TO.N,GND*%
X149964998Y-81234998D03*
%TO.P,J1,4,Pin_4*%
X151761050Y-83031050D03*
%TD*%
D15*
%TO.P,J6,1,Pin_1*%
%TO.N,/SWCLK*%
X149074044Y-74918056D03*
D13*
%TO.P,J6,2,Pin_2*%
%TO.N,/SWDIO*%
X150870095Y-73122005D03*
%TO.P,J6,3,Pin_3*%
%TO.N,GND*%
X152666146Y-71325954D03*
%TO.P,J6,4,Pin_4*%
%TO.N,+3V3*%
X154462198Y-69529902D03*
%TD*%
D16*
%TO.N,GND*%
X159300000Y-59300000D03*
X158200000Y-59300000D03*
X151000000Y-63900000D03*
X159300000Y-58300000D03*
X161500000Y-56900000D03*
X160400000Y-58300000D03*
X158250000Y-64000000D03*
X161500000Y-58300000D03*
%TD*%
%TA.AperFunction,Conductor*%
%TO.N,GND*%
G36*
X214159446Y-53020184D02*
G01*
X214205201Y-53072988D01*
X214215145Y-53142146D01*
X214186120Y-53205702D01*
X214148702Y-53234984D01*
X213989663Y-53316019D01*
X213817761Y-53440912D01*
X213817756Y-53440916D01*
X213667497Y-53591175D01*
X213667493Y-53591180D01*
X213542600Y-53763082D01*
X213446125Y-53952422D01*
X213380463Y-54154510D01*
X213380463Y-54154513D01*
X213369990Y-54220640D01*
X214264209Y-54220640D01*
X214231296Y-54277647D01*
X214197221Y-54404814D01*
X214197221Y-54536466D01*
X214231296Y-54663633D01*
X214264209Y-54720640D01*
X213369990Y-54720640D01*
X213380463Y-54786766D01*
X213380463Y-54786769D01*
X213446125Y-54988857D01*
X213542600Y-55178197D01*
X213667493Y-55350099D01*
X213667497Y-55350104D01*
X213817756Y-55500363D01*
X213817761Y-55500367D01*
X213989663Y-55625260D01*
X214179003Y-55721735D01*
X214381092Y-55787397D01*
X214447221Y-55797871D01*
X214447221Y-54903652D01*
X214504228Y-54936565D01*
X214631395Y-54970640D01*
X214763047Y-54970640D01*
X214890214Y-54936565D01*
X214947221Y-54903652D01*
X214947221Y-55797870D01*
X215013347Y-55787397D01*
X215013350Y-55787397D01*
X215215438Y-55721735D01*
X215404778Y-55625260D01*
X215576679Y-55500368D01*
X215690354Y-55386693D01*
X215751677Y-55353208D01*
X215821369Y-55358192D01*
X215877303Y-55400063D01*
X215894218Y-55431041D01*
X215943423Y-55562968D01*
X215943427Y-55562975D01*
X216029673Y-55678184D01*
X216029676Y-55678187D01*
X216144885Y-55764433D01*
X216144892Y-55764437D01*
X216279738Y-55814731D01*
X216279737Y-55814731D01*
X216286665Y-55815475D01*
X216339348Y-55821140D01*
X218135093Y-55821139D01*
X218194704Y-55814731D01*
X218329552Y-55764436D01*
X218444767Y-55678186D01*
X218526234Y-55569360D01*
X218582167Y-55527490D01*
X218651859Y-55522506D01*
X218713182Y-55555991D01*
X218746666Y-55617315D01*
X218749500Y-55643672D01*
X218749500Y-79243040D01*
X218748720Y-79256923D01*
X218738541Y-79347265D01*
X218732362Y-79374337D01*
X218704649Y-79453535D01*
X218692602Y-79478552D01*
X218647957Y-79549604D01*
X218630644Y-79571313D01*
X218571313Y-79630644D01*
X218549604Y-79647957D01*
X218478552Y-79692602D01*
X218453535Y-79704649D01*
X218374337Y-79732362D01*
X218347265Y-79738541D01*
X218256923Y-79748720D01*
X218243040Y-79749500D01*
X211535815Y-79749500D01*
X211468776Y-79729815D01*
X211439478Y-79703571D01*
X211409040Y-79666011D01*
X211409028Y-79665998D01*
X211409024Y-79665993D01*
X210947176Y-79150439D01*
X210460419Y-78658334D01*
X210007894Y-78243946D01*
X209949947Y-78190882D01*
X209417008Y-77749230D01*
X209416968Y-77749199D01*
X209057575Y-77480174D01*
X208877257Y-77345196D01*
X208862894Y-77334444D01*
X208862882Y-77334436D01*
X208862873Y-77334429D01*
X208288935Y-76947524D01*
X207957178Y-76746979D01*
X207696583Y-76589450D01*
X207696577Y-76589447D01*
X207087255Y-76261077D01*
X206462480Y-75963228D01*
X206462450Y-75963214D01*
X206077454Y-75802510D01*
X205823702Y-75696589D01*
X205823694Y-75696586D01*
X205823677Y-75696579D01*
X205823674Y-75696578D01*
X205172576Y-75461855D01*
X205172549Y-75461846D01*
X204804108Y-75349256D01*
X213450000Y-75349256D01*
X213450000Y-75650743D01*
X213450001Y-75650759D01*
X213489353Y-75949667D01*
X213567389Y-76240901D01*
X213682765Y-76519443D01*
X213682770Y-76519454D01*
X213833512Y-76780545D01*
X213833523Y-76780561D01*
X213956115Y-76940328D01*
X213956117Y-76940328D01*
X214887425Y-76009019D01*
X214973249Y-76137463D01*
X215112537Y-76276751D01*
X215240978Y-76362573D01*
X214309670Y-77293881D01*
X214309670Y-77293882D01*
X214469438Y-77416476D01*
X214469454Y-77416487D01*
X214730545Y-77567229D01*
X214730556Y-77567234D01*
X215009098Y-77682610D01*
X215300332Y-77760646D01*
X215599240Y-77799998D01*
X215599257Y-77800000D01*
X215900743Y-77800000D01*
X215900759Y-77799998D01*
X216199667Y-77760646D01*
X216490901Y-77682610D01*
X216769443Y-77567234D01*
X216769454Y-77567229D01*
X217030545Y-77416487D01*
X217030553Y-77416481D01*
X217190328Y-77293881D01*
X216259020Y-76362573D01*
X216387463Y-76276751D01*
X216526751Y-76137463D01*
X216612573Y-76009020D01*
X217543881Y-76940328D01*
X217666481Y-76780553D01*
X217666487Y-76780545D01*
X217817229Y-76519454D01*
X217817234Y-76519443D01*
X217932610Y-76240901D01*
X218010646Y-75949667D01*
X218049998Y-75650759D01*
X218050000Y-75650743D01*
X218050000Y-75349256D01*
X218049998Y-75349240D01*
X218010646Y-75050332D01*
X217932610Y-74759098D01*
X217817234Y-74480556D01*
X217817229Y-74480545D01*
X217666487Y-74219454D01*
X217666476Y-74219438D01*
X217543881Y-74059670D01*
X216612573Y-74990978D01*
X216526751Y-74862537D01*
X216387463Y-74723249D01*
X216259019Y-74637425D01*
X217190328Y-73706117D01*
X217190328Y-73706115D01*
X217030561Y-73583523D01*
X217030545Y-73583512D01*
X216769454Y-73432770D01*
X216769443Y-73432765D01*
X216490901Y-73317389D01*
X216199667Y-73239353D01*
X215900759Y-73200001D01*
X215900743Y-73200000D01*
X215599257Y-73200000D01*
X215599240Y-73200001D01*
X215300332Y-73239353D01*
X215009098Y-73317389D01*
X214730556Y-73432765D01*
X214730545Y-73432770D01*
X214469442Y-73583520D01*
X214309670Y-73706116D01*
X214309670Y-73706117D01*
X215240979Y-74637426D01*
X215112537Y-74723249D01*
X214973249Y-74862537D01*
X214887426Y-74990979D01*
X213956117Y-74059670D01*
X213956116Y-74059670D01*
X213833520Y-74219442D01*
X213682770Y-74480545D01*
X213682765Y-74480556D01*
X213567389Y-74759098D01*
X213489353Y-75050332D01*
X213450001Y-75349240D01*
X213450000Y-75349256D01*
X204804108Y-75349256D01*
X204510596Y-75259563D01*
X204510578Y-75259558D01*
X203839460Y-75090233D01*
X203160774Y-74954270D01*
X203160761Y-74954268D01*
X202476243Y-74852012D01*
X202476214Y-74852009D01*
X202476215Y-74852009D01*
X202476201Y-74852007D01*
X201869079Y-74791792D01*
X201787411Y-74783692D01*
X201746743Y-74781680D01*
X201096085Y-74749493D01*
X201096069Y-74749493D01*
X200823794Y-74749497D01*
X200823794Y-74749498D01*
X200814963Y-74749498D01*
X200814082Y-74749266D01*
X200749022Y-74749500D01*
X200748855Y-74749501D01*
X200748854Y-74749500D01*
X200748850Y-74749501D01*
X200678350Y-74749501D01*
X200674403Y-74749766D01*
X200413658Y-74750694D01*
X200381175Y-74750810D01*
X200381171Y-74750810D01*
X199648280Y-74791792D01*
X199648256Y-74791794D01*
X198996414Y-74862537D01*
X198918534Y-74870989D01*
X198918531Y-74870989D01*
X198918526Y-74870990D01*
X198918516Y-74870991D01*
X198193937Y-74988181D01*
X198193903Y-74988188D01*
X197476415Y-75143059D01*
X196767959Y-75335198D01*
X196070517Y-75564065D01*
X196070502Y-75564070D01*
X195385988Y-75829036D01*
X194716203Y-76129404D01*
X194063027Y-76464333D01*
X193428257Y-76832902D01*
X193299958Y-76916648D01*
X192899412Y-77178102D01*
X192813557Y-77234143D01*
X192220696Y-77666901D01*
X191651211Y-78130054D01*
X191106708Y-78622297D01*
X191106665Y-78622337D01*
X190588642Y-79142310D01*
X190588641Y-79142311D01*
X190098438Y-79688671D01*
X190098431Y-79688679D01*
X190098428Y-79688683D01*
X189681508Y-80205274D01*
X189637417Y-80259906D01*
X189206882Y-80854398D01*
X188807963Y-81470588D01*
X188807960Y-81470593D01*
X188441780Y-82106743D01*
X188441768Y-82106764D01*
X188109308Y-82761168D01*
X188109299Y-82761186D01*
X187811472Y-83432046D01*
X187811464Y-83432064D01*
X187549070Y-84117574D01*
X187549052Y-84117626D01*
X187322816Y-84815893D01*
X187322812Y-84815907D01*
X187133345Y-85525055D01*
X186981165Y-86243136D01*
X186866689Y-86968205D01*
X186863537Y-86998307D01*
X186822628Y-87388918D01*
X186821690Y-87391201D01*
X186822042Y-87393647D01*
X186808479Y-87423345D01*
X186796069Y-87453540D01*
X186794043Y-87454954D01*
X186793017Y-87457203D01*
X186765546Y-87474857D01*
X186738787Y-87493546D01*
X186735673Y-87494054D01*
X186734239Y-87494977D01*
X186699304Y-87500000D01*
X186477816Y-87500000D01*
X186470187Y-87499500D01*
X186465892Y-87499500D01*
X183265892Y-87499500D01*
X183134108Y-87499500D01*
X183129813Y-87499500D01*
X183122184Y-87500000D01*
X181375859Y-87500000D01*
X181373033Y-87499968D01*
X181365581Y-87499798D01*
X181357555Y-87498643D01*
X181316050Y-87498637D01*
X181316047Y-87498637D01*
X181314668Y-87498636D01*
X181314631Y-87498636D01*
X181261009Y-87498631D01*
X181260998Y-87498631D01*
X181260996Y-87498630D01*
X181250156Y-87498630D01*
X181250155Y-87498629D01*
X181250155Y-87498630D01*
X181184262Y-87498623D01*
X181184260Y-87498623D01*
X181184258Y-87498622D01*
X174966839Y-87497980D01*
X174899802Y-87478289D01*
X174854052Y-87425480D01*
X174844116Y-87356320D01*
X174873147Y-87292768D01*
X174919397Y-87259421D01*
X175039973Y-87209477D01*
X175454397Y-86998317D01*
X175850976Y-86755293D01*
X176227265Y-86481903D01*
X176580944Y-86179833D01*
X176909833Y-85850944D01*
X177211903Y-85497265D01*
X177485293Y-85120976D01*
X177728317Y-84724397D01*
X177939477Y-84309973D01*
X178117470Y-83880259D01*
X178261200Y-83437905D01*
X178369780Y-82985637D01*
X178442540Y-82526245D01*
X178479033Y-82062559D01*
X178479033Y-81597441D01*
X178469049Y-81470588D01*
X178459230Y-81345826D01*
X178442540Y-81133755D01*
X178369780Y-80674363D01*
X178299627Y-80382155D01*
X184432500Y-80382155D01*
X184432500Y-81030000D01*
X185349488Y-81030000D01*
X185316575Y-81087007D01*
X185282500Y-81214174D01*
X185282500Y-81345826D01*
X185316575Y-81472993D01*
X185349488Y-81530000D01*
X184432500Y-81530000D01*
X184432500Y-82177844D01*
X184438901Y-82237372D01*
X184438903Y-82237379D01*
X184489145Y-82372086D01*
X184489149Y-82372093D01*
X184575309Y-82487187D01*
X184575312Y-82487190D01*
X184690406Y-82573350D01*
X184690413Y-82573354D01*
X184825120Y-82623596D01*
X184825127Y-82623598D01*
X184884655Y-82629999D01*
X184884672Y-82630000D01*
X185532500Y-82630000D01*
X185532500Y-81713012D01*
X185589507Y-81745925D01*
X185716674Y-81780000D01*
X185848326Y-81780000D01*
X185975493Y-81745925D01*
X186032500Y-81713012D01*
X186032500Y-82630000D01*
X186680328Y-82630000D01*
X186680344Y-82629999D01*
X186739872Y-82623598D01*
X186739879Y-82623596D01*
X186874586Y-82573354D01*
X186874593Y-82573350D01*
X186989687Y-82487190D01*
X186989690Y-82487187D01*
X187075850Y-82372093D01*
X187075854Y-82372086D01*
X187126096Y-82237379D01*
X187126098Y-82237372D01*
X187132499Y-82177844D01*
X187132500Y-82177827D01*
X187132500Y-81530000D01*
X186215512Y-81530000D01*
X186248425Y-81472993D01*
X186282500Y-81345826D01*
X186282500Y-81214174D01*
X186248425Y-81087007D01*
X186215512Y-81030000D01*
X187132500Y-81030000D01*
X187132500Y-80382172D01*
X187132499Y-80382155D01*
X187126098Y-80322627D01*
X187126096Y-80322620D01*
X187075854Y-80187913D01*
X187075850Y-80187906D01*
X186989690Y-80072812D01*
X186989687Y-80072809D01*
X186874593Y-79986649D01*
X186874586Y-79986645D01*
X186739879Y-79936403D01*
X186739872Y-79936401D01*
X186680344Y-79930000D01*
X186032500Y-79930000D01*
X186032500Y-80846988D01*
X185975493Y-80814075D01*
X185848326Y-80780000D01*
X185716674Y-80780000D01*
X185589507Y-80814075D01*
X185532500Y-80846988D01*
X185532500Y-79930000D01*
X184884655Y-79930000D01*
X184825127Y-79936401D01*
X184825120Y-79936403D01*
X184690413Y-79986645D01*
X184690406Y-79986649D01*
X184575312Y-80072809D01*
X184575309Y-80072812D01*
X184489149Y-80187906D01*
X184489145Y-80187913D01*
X184438903Y-80322620D01*
X184438901Y-80322627D01*
X184432500Y-80382155D01*
X178299627Y-80382155D01*
X178261200Y-80222095D01*
X178133192Y-79828128D01*
X178117472Y-79779746D01*
X178100404Y-79738541D01*
X177939477Y-79350027D01*
X177728317Y-78935603D01*
X177719083Y-78920535D01*
X177603013Y-78731126D01*
X177485293Y-78539024D01*
X177211903Y-78162735D01*
X176909833Y-77809056D01*
X176580944Y-77480167D01*
X176410315Y-77334436D01*
X176227271Y-77178102D01*
X176227257Y-77178091D01*
X175909917Y-76947530D01*
X175850976Y-76904707D01*
X175733801Y-76832902D01*
X175454413Y-76661692D01*
X175454402Y-76661686D01*
X175454401Y-76661685D01*
X175454397Y-76661683D01*
X175039973Y-76450523D01*
X174747353Y-76329316D01*
X174610253Y-76272527D01*
X174295513Y-76170262D01*
X174167905Y-76128800D01*
X173715637Y-76020220D01*
X173685425Y-76015435D01*
X173256245Y-75947460D01*
X172792564Y-75910967D01*
X172792559Y-75910967D01*
X172327441Y-75910967D01*
X172327435Y-75910967D01*
X171863754Y-75947460D01*
X171863753Y-75947460D01*
X171404368Y-76020219D01*
X171404365Y-76020219D01*
X171404363Y-76020220D01*
X171267558Y-76053064D01*
X170952106Y-76128797D01*
X170952100Y-76128798D01*
X170952095Y-76128800D01*
X170950236Y-76129404D01*
X170509746Y-76272527D01*
X170080029Y-76450522D01*
X169665597Y-76661686D01*
X169665586Y-76661692D01*
X169269033Y-76904701D01*
X169269022Y-76904708D01*
X168892742Y-77178091D01*
X168892728Y-77178102D01*
X168539062Y-77480161D01*
X168539048Y-77480174D01*
X168210174Y-77809048D01*
X168210161Y-77809062D01*
X167908102Y-78162728D01*
X167908091Y-78162742D01*
X167634708Y-78539022D01*
X167634701Y-78539033D01*
X167391692Y-78935586D01*
X167391686Y-78935597D01*
X167180522Y-79350029D01*
X167002527Y-79779746D01*
X166869909Y-80187906D01*
X166864266Y-80205274D01*
X166858804Y-80222083D01*
X166858797Y-80222106D01*
X166750219Y-80674368D01*
X166677460Y-81133753D01*
X166677460Y-81133754D01*
X166640967Y-81597435D01*
X166640967Y-82062564D01*
X166677460Y-82526245D01*
X166677460Y-82526246D01*
X166707343Y-82714920D01*
X166750220Y-82985637D01*
X166858800Y-83437905D01*
X166858804Y-83437916D01*
X167002527Y-83880253D01*
X167077301Y-84060773D01*
X167180523Y-84309973D01*
X167391683Y-84724397D01*
X167391686Y-84724402D01*
X167391692Y-84724413D01*
X167601353Y-85066547D01*
X167634707Y-85120976D01*
X167908097Y-85497265D01*
X168210167Y-85850944D01*
X168539056Y-86179833D01*
X168892735Y-86481903D01*
X169269024Y-86755293D01*
X169488053Y-86889514D01*
X169665586Y-86998307D01*
X169665592Y-86998310D01*
X169665603Y-86998317D01*
X170080027Y-87209477D01*
X170197313Y-87258058D01*
X170199398Y-87258922D01*
X170253801Y-87302763D01*
X170275866Y-87369057D01*
X170258587Y-87436757D01*
X170207449Y-87484367D01*
X170151932Y-87497483D01*
X159268871Y-87496358D01*
X159268871Y-87496357D01*
X159204891Y-87496352D01*
X159204873Y-87496351D01*
X159126421Y-87496344D01*
X159126359Y-87496346D01*
X159090440Y-87496345D01*
X159090438Y-87496345D01*
X159090437Y-87496345D01*
X159090436Y-87496345D01*
X159073781Y-87498739D01*
X159056140Y-87500000D01*
X157413395Y-87500000D01*
X157397208Y-87498939D01*
X157394864Y-87498630D01*
X157394863Y-87498630D01*
X154194863Y-87498630D01*
X154063079Y-87498630D01*
X154063077Y-87498630D01*
X154060734Y-87498939D01*
X154044547Y-87500000D01*
X152259176Y-87500000D01*
X152192137Y-87480315D01*
X152171495Y-87463681D01*
X143407573Y-78699759D01*
X143407314Y-78699500D01*
X143400502Y-78692688D01*
X143400500Y-78692684D01*
X143356776Y-78648960D01*
X143351233Y-78643042D01*
X143277670Y-78559160D01*
X143188980Y-78458029D01*
X143179109Y-78445165D01*
X143163683Y-78422079D01*
X143044659Y-78243946D01*
X143036549Y-78229899D01*
X142929512Y-78012852D01*
X142923305Y-77997867D01*
X142894474Y-77912935D01*
X142845514Y-77768704D01*
X142841317Y-77753039D01*
X142840559Y-77749230D01*
X142819407Y-77642896D01*
X144665168Y-77642896D01*
X144685648Y-77785351D01*
X144685649Y-77785355D01*
X144745435Y-77916266D01*
X144745436Y-77916267D01*
X144745437Y-77916269D01*
X144783056Y-77962952D01*
X144783059Y-77962955D01*
X144783064Y-77962961D01*
X145870644Y-79050538D01*
X146052840Y-79232734D01*
X146052844Y-79232737D01*
X146052846Y-79232739D01*
X146099522Y-79270355D01*
X146230436Y-79330142D01*
X146230437Y-79330142D01*
X146230439Y-79330143D01*
X146372896Y-79350624D01*
X146515353Y-79330143D01*
X146565352Y-79307309D01*
X146642935Y-79271878D01*
X146712094Y-79261934D01*
X146775649Y-79290959D01*
X146813424Y-79349737D01*
X146818447Y-79384672D01*
X146818447Y-79545233D01*
X146850799Y-79749500D01*
X146851701Y-79755190D01*
X146910580Y-79936401D01*
X146917391Y-79957361D01*
X147013898Y-80146767D01*
X147138837Y-80318733D01*
X147289160Y-80469056D01*
X147461126Y-80593995D01*
X147461128Y-80593996D01*
X147461131Y-80593998D01*
X147650535Y-80690504D01*
X147852704Y-80756193D01*
X148062660Y-80789447D01*
X148062661Y-80789447D01*
X148275233Y-80789447D01*
X148275234Y-80789447D01*
X148485190Y-80756193D01*
X148495127Y-80752963D01*
X148564968Y-80750967D01*
X148624801Y-80787047D01*
X148655631Y-80849747D01*
X148651379Y-80909209D01*
X148648241Y-80918867D01*
X148648240Y-80918871D01*
X148637767Y-80984998D01*
X149531986Y-80984998D01*
X149499073Y-81042005D01*
X149464998Y-81169172D01*
X149464998Y-81300824D01*
X149499073Y-81427991D01*
X149531986Y-81484998D01*
X148637767Y-81484998D01*
X148648240Y-81551124D01*
X148648240Y-81551127D01*
X148713902Y-81753215D01*
X148810377Y-81942555D01*
X148935270Y-82114457D01*
X148935274Y-82114462D01*
X149085533Y-82264721D01*
X149085538Y-82264725D01*
X149257440Y-82389618D01*
X149446780Y-82486093D01*
X149648869Y-82551755D01*
X149714998Y-82562229D01*
X149714998Y-81668010D01*
X149772005Y-81700923D01*
X149899172Y-81734998D01*
X150030824Y-81734998D01*
X150157991Y-81700923D01*
X150214998Y-81668010D01*
X150214998Y-82562228D01*
X150281123Y-82551756D01*
X150291368Y-82548427D01*
X150361209Y-82546430D01*
X150421043Y-82582508D01*
X150451873Y-82645208D01*
X150447623Y-82704670D01*
X150444292Y-82714922D01*
X150444292Y-82714923D01*
X150433819Y-82781050D01*
X151328038Y-82781050D01*
X151295125Y-82838057D01*
X151261050Y-82965224D01*
X151261050Y-83096876D01*
X151295125Y-83224043D01*
X151328038Y-83281050D01*
X150433819Y-83281050D01*
X150444292Y-83347176D01*
X150444292Y-83347179D01*
X150509954Y-83549267D01*
X150606429Y-83738607D01*
X150731322Y-83910509D01*
X150731326Y-83910514D01*
X150881585Y-84060773D01*
X150881590Y-84060777D01*
X151053492Y-84185670D01*
X151242832Y-84282145D01*
X151444921Y-84347807D01*
X151511050Y-84358281D01*
X151511050Y-83464062D01*
X151568057Y-83496975D01*
X151695224Y-83531050D01*
X151826876Y-83531050D01*
X151954043Y-83496975D01*
X152011050Y-83464062D01*
X152011050Y-84358280D01*
X152077176Y-84347807D01*
X152077179Y-84347807D01*
X152279267Y-84282145D01*
X152468607Y-84185670D01*
X152640509Y-84060777D01*
X152640514Y-84060773D01*
X152790773Y-83910514D01*
X152790777Y-83910509D01*
X152915670Y-83738607D01*
X153012145Y-83549267D01*
X153077807Y-83347179D01*
X153077807Y-83347176D01*
X153088281Y-83281050D01*
X152194062Y-83281050D01*
X152226975Y-83224043D01*
X152261050Y-83096876D01*
X152261050Y-82965224D01*
X152226975Y-82838057D01*
X152194062Y-82781050D01*
X153088281Y-82781050D01*
X153077807Y-82714923D01*
X153077807Y-82714920D01*
X153012145Y-82512832D01*
X152915670Y-82323492D01*
X152790777Y-82151590D01*
X152790773Y-82151585D01*
X152640514Y-82001326D01*
X152640509Y-82001322D01*
X152468607Y-81876429D01*
X152279265Y-81779953D01*
X152077174Y-81714291D01*
X152011050Y-81703818D01*
X152011050Y-82598038D01*
X151954043Y-82565125D01*
X151826876Y-82531050D01*
X151695224Y-82531050D01*
X151568057Y-82565125D01*
X151511050Y-82598038D01*
X151511050Y-81748634D01*
X151372419Y-81721359D01*
X151368849Y-81719501D01*
X151364831Y-81719616D01*
X151338126Y-81703511D01*
X151310441Y-81689103D01*
X151308442Y-81685610D01*
X151304999Y-81683534D01*
X151291238Y-81655545D01*
X151275740Y-81628459D01*
X151275947Y-81624440D01*
X151274173Y-81620832D01*
X151278427Y-81561371D01*
X151281754Y-81551130D01*
X151281755Y-81551124D01*
X151292229Y-81484998D01*
X150398010Y-81484998D01*
X150430923Y-81427991D01*
X150464998Y-81300824D01*
X150464998Y-81169172D01*
X150430923Y-81042005D01*
X150398010Y-80984998D01*
X151292229Y-80984998D01*
X151281755Y-80918871D01*
X151281755Y-80918868D01*
X151216093Y-80716780D01*
X151119618Y-80527440D01*
X150994725Y-80355538D01*
X150994721Y-80355533D01*
X150844462Y-80205274D01*
X150844457Y-80205270D01*
X150672555Y-80080377D01*
X150483213Y-79983901D01*
X150281122Y-79918239D01*
X150214998Y-79907766D01*
X150214998Y-80801986D01*
X150157991Y-80769073D01*
X150030824Y-80734998D01*
X149899172Y-80734998D01*
X149772005Y-80769073D01*
X149714998Y-80801986D01*
X149714998Y-79952452D01*
X149576805Y-79925086D01*
X149573308Y-79923260D01*
X149569367Y-79923373D01*
X149542593Y-79907227D01*
X149514866Y-79892753D01*
X149512911Y-79889327D01*
X149509535Y-79887291D01*
X149495739Y-79859231D01*
X149480241Y-79832067D01*
X149480448Y-79828128D01*
X149478709Y-79824590D01*
X149482963Y-79765129D01*
X149486193Y-79755190D01*
X149519447Y-79545234D01*
X149519447Y-79332660D01*
X149486193Y-79122704D01*
X149420504Y-78920535D01*
X149323998Y-78731131D01*
X149323996Y-78731128D01*
X149323995Y-78731126D01*
X149199056Y-78559160D01*
X149048733Y-78408837D01*
X148876767Y-78283898D01*
X148687361Y-78187391D01*
X148687360Y-78187390D01*
X148687359Y-78187390D01*
X148485190Y-78121701D01*
X148485188Y-78121700D01*
X148485187Y-78121700D01*
X148323904Y-78096155D01*
X148275234Y-78088447D01*
X148114672Y-78088447D01*
X148047633Y-78068762D01*
X148001878Y-78015958D01*
X147991934Y-77946800D01*
X148001878Y-77912935D01*
X148060142Y-77785355D01*
X148060141Y-77785355D01*
X148060143Y-77785353D01*
X148080624Y-77642896D01*
X148060143Y-77500439D01*
X148055641Y-77490582D01*
X148000356Y-77369525D01*
X148000355Y-77369524D01*
X148000355Y-77369523D01*
X147962736Y-77322840D01*
X147962731Y-77322835D01*
X147962727Y-77322830D01*
X146692955Y-76053061D01*
X146692949Y-76053056D01*
X146692945Y-76053052D01*
X146646269Y-76015436D01*
X146515355Y-75955649D01*
X146515351Y-75955648D01*
X146372896Y-75935168D01*
X146230440Y-75955648D01*
X146230436Y-75955649D01*
X146099525Y-76015435D01*
X146052830Y-76053064D01*
X144783061Y-77322836D01*
X144783052Y-77322846D01*
X144745436Y-77369522D01*
X144685649Y-77500436D01*
X144685648Y-77500440D01*
X144665168Y-77642896D01*
X142819407Y-77642896D01*
X142794102Y-77515681D01*
X142791986Y-77499602D01*
X142776158Y-77258126D01*
X142776157Y-77241907D01*
X142776666Y-77234143D01*
X142791985Y-77000404D01*
X142794099Y-76984341D01*
X142841313Y-76746974D01*
X142845510Y-76731311D01*
X142923303Y-76502136D01*
X142929499Y-76487176D01*
X143036546Y-76270103D01*
X143044650Y-76256069D01*
X143179100Y-76054849D01*
X143188966Y-76041989D01*
X143351236Y-75856952D01*
X143356736Y-75851079D01*
X143376267Y-75831549D01*
X143457554Y-75750260D01*
X144289758Y-74918056D01*
X147366316Y-74918056D01*
X147386796Y-75060511D01*
X147386797Y-75060515D01*
X147446583Y-75191426D01*
X147446584Y-75191427D01*
X147446585Y-75191429D01*
X147484204Y-75238112D01*
X147484207Y-75238115D01*
X147484212Y-75238121D01*
X148575410Y-76329316D01*
X148753988Y-76507894D01*
X148753992Y-76507897D01*
X148753994Y-76507899D01*
X148800670Y-76545515D01*
X148931584Y-76605302D01*
X148931585Y-76605302D01*
X148931587Y-76605303D01*
X149074044Y-76625784D01*
X149216501Y-76605303D01*
X149347417Y-76545515D01*
X149394100Y-76507896D01*
X150663882Y-75238112D01*
X150701503Y-75191429D01*
X150761291Y-75060513D01*
X150781772Y-74918056D01*
X150761291Y-74775599D01*
X150761290Y-74775596D01*
X150703026Y-74648017D01*
X150693082Y-74578858D01*
X150722107Y-74515303D01*
X150780885Y-74477528D01*
X150815820Y-74472505D01*
X150976381Y-74472505D01*
X150976382Y-74472505D01*
X151186338Y-74439251D01*
X151388507Y-74373562D01*
X151577911Y-74277056D01*
X151657194Y-74219454D01*
X151749881Y-74152114D01*
X151749883Y-74152111D01*
X151749887Y-74152109D01*
X151900199Y-74001797D01*
X151900201Y-74001793D01*
X151900204Y-74001791D01*
X151954994Y-73926376D01*
X152025146Y-73829821D01*
X152121652Y-73640417D01*
X152187341Y-73438248D01*
X152220595Y-73228292D01*
X152220595Y-73015718D01*
X152187341Y-72805762D01*
X152184110Y-72795821D01*
X152182116Y-72725981D01*
X152218197Y-72666148D01*
X152280898Y-72635320D01*
X152340365Y-72639574D01*
X152350022Y-72642712D01*
X152416146Y-72653185D01*
X152416146Y-71758966D01*
X152473153Y-71791879D01*
X152600320Y-71825954D01*
X152731972Y-71825954D01*
X152859139Y-71791879D01*
X152916146Y-71758966D01*
X152916146Y-72653184D01*
X152982272Y-72642711D01*
X152982275Y-72642711D01*
X153184363Y-72577049D01*
X153373703Y-72480574D01*
X153545605Y-72355681D01*
X153545610Y-72355677D01*
X153695869Y-72205418D01*
X153695873Y-72205413D01*
X153820766Y-72033511D01*
X153917241Y-71844171D01*
X153982903Y-71642083D01*
X153982903Y-71642080D01*
X153993377Y-71575954D01*
X153099158Y-71575954D01*
X153132071Y-71518947D01*
X153166146Y-71391780D01*
X153166146Y-71260128D01*
X153132071Y-71132961D01*
X153099158Y-71075954D01*
X153993377Y-71075954D01*
X153982903Y-71009827D01*
X153982903Y-71009824D01*
X153979765Y-71000166D01*
X153977770Y-70930325D01*
X154013851Y-70870492D01*
X154076552Y-70839664D01*
X154136012Y-70843917D01*
X154145955Y-70847148D01*
X154355911Y-70880402D01*
X154355912Y-70880402D01*
X154568484Y-70880402D01*
X154568485Y-70880402D01*
X154778441Y-70847148D01*
X154980610Y-70781459D01*
X155170014Y-70684953D01*
X155242093Y-70632585D01*
X155341984Y-70560011D01*
X155341986Y-70560008D01*
X155341990Y-70560006D01*
X155492302Y-70409694D01*
X155492304Y-70409690D01*
X155492307Y-70409688D01*
X155617246Y-70237722D01*
X155617245Y-70237722D01*
X155617249Y-70237718D01*
X155713755Y-70048314D01*
X155779444Y-69846145D01*
X155812698Y-69636189D01*
X155812698Y-69423615D01*
X155779444Y-69213659D01*
X155713755Y-69011490D01*
X155617249Y-68822086D01*
X155617247Y-68822083D01*
X155617246Y-68822081D01*
X155492307Y-68650115D01*
X155341984Y-68499792D01*
X155170018Y-68374853D01*
X154980612Y-68278346D01*
X154980611Y-68278345D01*
X154980610Y-68278345D01*
X154778441Y-68212656D01*
X154778439Y-68212655D01*
X154778438Y-68212655D01*
X154617155Y-68187110D01*
X154568485Y-68179402D01*
X154355911Y-68179402D01*
X154307240Y-68187110D01*
X154145958Y-68212655D01*
X153943783Y-68278346D01*
X153754377Y-68374853D01*
X153582411Y-68499792D01*
X153432088Y-68650115D01*
X153307149Y-68822081D01*
X153210642Y-69011487D01*
X153144951Y-69213662D01*
X153111698Y-69423615D01*
X153111698Y-69636188D01*
X153144951Y-69846142D01*
X153144951Y-69846143D01*
X153148183Y-69856089D01*
X153148649Y-69872440D01*
X153154079Y-69887872D01*
X153149625Y-69906645D01*
X153150176Y-69925930D01*
X153141728Y-69939938D01*
X153137953Y-69955855D01*
X153124058Y-69969239D01*
X153114095Y-69985762D01*
X153099413Y-69992979D01*
X153087633Y-70004328D01*
X153054339Y-70016042D01*
X152916146Y-70043408D01*
X152916146Y-70892942D01*
X152859139Y-70860029D01*
X152731972Y-70825954D01*
X152600320Y-70825954D01*
X152473153Y-70860029D01*
X152416146Y-70892942D01*
X152416146Y-69998722D01*
X152416145Y-69998722D01*
X152350021Y-70009195D01*
X152147930Y-70074857D01*
X151958588Y-70171333D01*
X151786686Y-70296226D01*
X151786681Y-70296230D01*
X151636422Y-70446489D01*
X151636418Y-70446494D01*
X151511525Y-70618396D01*
X151415050Y-70807736D01*
X151349388Y-71009824D01*
X151349388Y-71009827D01*
X151338915Y-71075954D01*
X152233134Y-71075954D01*
X152200221Y-71132961D01*
X152166146Y-71260128D01*
X152166146Y-71391780D01*
X152200221Y-71518947D01*
X152233134Y-71575954D01*
X151338915Y-71575954D01*
X151349388Y-71642080D01*
X151349388Y-71642083D01*
X151352526Y-71651739D01*
X151354521Y-71721581D01*
X151318440Y-71781413D01*
X151255739Y-71812241D01*
X151196282Y-71807990D01*
X151195756Y-71807819D01*
X151186338Y-71804759D01*
X151186336Y-71804758D01*
X151186334Y-71804758D01*
X151038938Y-71781413D01*
X150976382Y-71771505D01*
X150763808Y-71771505D01*
X150715137Y-71779213D01*
X150553855Y-71804758D01*
X150351680Y-71870449D01*
X150162274Y-71966956D01*
X149990308Y-72091895D01*
X149839985Y-72242218D01*
X149715046Y-72414184D01*
X149618539Y-72603590D01*
X149552848Y-72805765D01*
X149519595Y-73015718D01*
X149519595Y-73176279D01*
X149499910Y-73243318D01*
X149447106Y-73289073D01*
X149377948Y-73299017D01*
X149344084Y-73289073D01*
X149216507Y-73230810D01*
X149216499Y-73230808D01*
X149074044Y-73210328D01*
X148931588Y-73230808D01*
X148931584Y-73230809D01*
X148800673Y-73290595D01*
X148753978Y-73328224D01*
X147484209Y-74597996D01*
X147484200Y-74598006D01*
X147446584Y-74644682D01*
X147386797Y-74775596D01*
X147386796Y-74775600D01*
X147366316Y-74918056D01*
X144289758Y-74918056D01*
X147270584Y-71937228D01*
X147275707Y-71932389D01*
X147361569Y-71855835D01*
X147536990Y-71656712D01*
X147687305Y-71438016D01*
X147810352Y-71202894D01*
X147904360Y-70954731D01*
X147967976Y-70697096D01*
X148000284Y-70433697D01*
X148000393Y-70366290D01*
X148000500Y-70365892D01*
X148000500Y-70300515D01*
X148000632Y-70235119D01*
X148000631Y-70235116D01*
X148000645Y-70228357D01*
X148000500Y-70226105D01*
X148000500Y-65724763D01*
X166649499Y-65724763D01*
X166649499Y-65937336D01*
X166682752Y-66147289D01*
X166748443Y-66349464D01*
X166844950Y-66538870D01*
X166969889Y-66710836D01*
X167120212Y-66861159D01*
X167292178Y-66986098D01*
X167292180Y-66986099D01*
X167292183Y-66986101D01*
X167481587Y-67082607D01*
X167683756Y-67148296D01*
X167893712Y-67181550D01*
X167893713Y-67181550D01*
X168106285Y-67181550D01*
X168106286Y-67181550D01*
X168316242Y-67148296D01*
X168518411Y-67082607D01*
X168707815Y-66986101D01*
X168794137Y-66923385D01*
X168879785Y-66861159D01*
X168879787Y-66861156D01*
X168879791Y-66861154D01*
X169030103Y-66710842D01*
X169030105Y-66710838D01*
X169030108Y-66710836D01*
X169155047Y-66538870D01*
X169155046Y-66538870D01*
X169155050Y-66538866D01*
X169159513Y-66530104D01*
X169207487Y-66479309D01*
X169275307Y-66462513D01*
X169341443Y-66485049D01*
X169380485Y-66530106D01*
X169384950Y-66538870D01*
X169509889Y-66710836D01*
X169660212Y-66861159D01*
X169832178Y-66986098D01*
X169832180Y-66986099D01*
X169832183Y-66986101D01*
X170021587Y-67082607D01*
X170223756Y-67148296D01*
X170433712Y-67181550D01*
X170433713Y-67181550D01*
X170646285Y-67181550D01*
X170646286Y-67181550D01*
X170856242Y-67148296D01*
X171058411Y-67082607D01*
X171247815Y-66986101D01*
X171334137Y-66923385D01*
X171419785Y-66861159D01*
X171419787Y-66861156D01*
X171419791Y-66861154D01*
X171570103Y-66710842D01*
X171570105Y-66710838D01*
X171570108Y-66710836D01*
X171695047Y-66538870D01*
X171695046Y-66538870D01*
X171695050Y-66538866D01*
X171699513Y-66530104D01*
X171747487Y-66479309D01*
X171815307Y-66462513D01*
X171881443Y-66485049D01*
X171920485Y-66530106D01*
X171924950Y-66538870D01*
X172049889Y-66710836D01*
X172200212Y-66861159D01*
X172372178Y-66986098D01*
X172372180Y-66986099D01*
X172372183Y-66986101D01*
X172561587Y-67082607D01*
X172763756Y-67148296D01*
X172973712Y-67181550D01*
X172973713Y-67181550D01*
X173186285Y-67181550D01*
X173186286Y-67181550D01*
X173396242Y-67148296D01*
X173598411Y-67082607D01*
X173787815Y-66986101D01*
X173874137Y-66923385D01*
X173959785Y-66861159D01*
X173959787Y-66861156D01*
X173959791Y-66861154D01*
X174110103Y-66710842D01*
X174110105Y-66710838D01*
X174110108Y-66710836D01*
X174235047Y-66538870D01*
X174235046Y-66538870D01*
X174235050Y-66538866D01*
X174239513Y-66530104D01*
X174287487Y-66479309D01*
X174355307Y-66462513D01*
X174421443Y-66485049D01*
X174460485Y-66530106D01*
X174464950Y-66538870D01*
X174589889Y-66710836D01*
X174740212Y-66861159D01*
X174912178Y-66986098D01*
X174912180Y-66986099D01*
X174912183Y-66986101D01*
X175101587Y-67082607D01*
X175303756Y-67148296D01*
X175513712Y-67181550D01*
X175513713Y-67181550D01*
X175726285Y-67181550D01*
X175726286Y-67181550D01*
X175936242Y-67148296D01*
X176138411Y-67082607D01*
X176327815Y-66986101D01*
X176414137Y-66923385D01*
X176499785Y-66861159D01*
X176499787Y-66861156D01*
X176499791Y-66861154D01*
X176650103Y-66710842D01*
X176650105Y-66710838D01*
X176650108Y-66710836D01*
X176775047Y-66538870D01*
X176775046Y-66538870D01*
X176775050Y-66538866D01*
X176779513Y-66530104D01*
X176827487Y-66479309D01*
X176895307Y-66462513D01*
X176961443Y-66485049D01*
X177000485Y-66530106D01*
X177004950Y-66538870D01*
X177129889Y-66710836D01*
X177280212Y-66861159D01*
X177452178Y-66986098D01*
X177452180Y-66986099D01*
X177452183Y-66986101D01*
X177641587Y-67082607D01*
X177843756Y-67148296D01*
X178053712Y-67181550D01*
X178053713Y-67181550D01*
X178266285Y-67181550D01*
X178266286Y-67181550D01*
X178476242Y-67148296D01*
X178678411Y-67082607D01*
X178867815Y-66986101D01*
X178954137Y-66923385D01*
X179039785Y-66861159D01*
X179039787Y-66861156D01*
X179039791Y-66861154D01*
X179190103Y-66710842D01*
X179190105Y-66710838D01*
X179190108Y-66710836D01*
X179315047Y-66538870D01*
X179315046Y-66538870D01*
X179315050Y-66538866D01*
X179319513Y-66530104D01*
X179367487Y-66479309D01*
X179435307Y-66462513D01*
X179501443Y-66485049D01*
X179540485Y-66530106D01*
X179544950Y-66538870D01*
X179669889Y-66710836D01*
X179820212Y-66861159D01*
X179992178Y-66986098D01*
X179992180Y-66986099D01*
X179992183Y-66986101D01*
X180181587Y-67082607D01*
X180383756Y-67148296D01*
X180593712Y-67181550D01*
X180593713Y-67181550D01*
X180806285Y-67181550D01*
X180806286Y-67181550D01*
X181016242Y-67148296D01*
X181218411Y-67082607D01*
X181407815Y-66986101D01*
X181494137Y-66923385D01*
X181579785Y-66861159D01*
X181579787Y-66861156D01*
X181579791Y-66861154D01*
X181730103Y-66710842D01*
X181730105Y-66710838D01*
X181730108Y-66710836D01*
X181797514Y-66618057D01*
X181855050Y-66538866D01*
X181859792Y-66529558D01*
X181907762Y-66478761D01*
X181975582Y-66461961D01*
X182041718Y-66484495D01*
X182080762Y-66529550D01*
X182085372Y-66538597D01*
X182124727Y-66592766D01*
X182757036Y-65960458D01*
X182774074Y-66024043D01*
X182839900Y-66138057D01*
X182932992Y-66231149D01*
X183047006Y-66296975D01*
X183110589Y-66314012D01*
X182478281Y-66946319D01*
X182478281Y-66946320D01*
X182532448Y-66985674D01*
X182721781Y-67082145D01*
X182923869Y-67147807D01*
X183133753Y-67181050D01*
X183346245Y-67181050D01*
X183556126Y-67147807D01*
X183556129Y-67147807D01*
X183758216Y-67082145D01*
X183947553Y-66985672D01*
X184001715Y-66946320D01*
X184001716Y-66946320D01*
X183369407Y-66314012D01*
X183432992Y-66296975D01*
X183547006Y-66231149D01*
X183640098Y-66138057D01*
X183705924Y-66024043D01*
X183722961Y-65960458D01*
X184393180Y-66630678D01*
X184426665Y-66692001D01*
X184429499Y-66718350D01*
X184429499Y-66728915D01*
X184429500Y-66728926D01*
X184435907Y-66788533D01*
X184486201Y-66923378D01*
X184486205Y-66923385D01*
X184572451Y-67038594D01*
X184572454Y-67038597D01*
X184687663Y-67124843D01*
X184687670Y-67124847D01*
X184822516Y-67175141D01*
X184822515Y-67175141D01*
X184829443Y-67175885D01*
X184882126Y-67181550D01*
X186677871Y-67181549D01*
X186737482Y-67175141D01*
X186872330Y-67124846D01*
X186987545Y-67038596D01*
X187073795Y-66923381D01*
X187124090Y-66788533D01*
X187130499Y-66728923D01*
X187130498Y-64933178D01*
X187124090Y-64873567D01*
X187073795Y-64738719D01*
X187073794Y-64738718D01*
X187073792Y-64738714D01*
X186987546Y-64623505D01*
X186987543Y-64623502D01*
X186872334Y-64537256D01*
X186872327Y-64537252D01*
X186737481Y-64486958D01*
X186737482Y-64486958D01*
X186677882Y-64480551D01*
X186677880Y-64480550D01*
X186677872Y-64480550D01*
X186677863Y-64480550D01*
X184882128Y-64480550D01*
X184882122Y-64480551D01*
X184822515Y-64486958D01*
X184687670Y-64537252D01*
X184687663Y-64537256D01*
X184572454Y-64623502D01*
X184572451Y-64623505D01*
X184486205Y-64738714D01*
X184486201Y-64738721D01*
X184435907Y-64873567D01*
X184429500Y-64933166D01*
X184429500Y-64933173D01*
X184429499Y-64933185D01*
X184429499Y-64943740D01*
X184409814Y-65010779D01*
X184393180Y-65031421D01*
X183722961Y-65701640D01*
X183705924Y-65638057D01*
X183640098Y-65524043D01*
X183547006Y-65430951D01*
X183432992Y-65365125D01*
X183369408Y-65348087D01*
X184001715Y-64715778D01*
X183947549Y-64676425D01*
X183758216Y-64579954D01*
X183556128Y-64514292D01*
X183346245Y-64481050D01*
X183133753Y-64481050D01*
X182923871Y-64514292D01*
X182923868Y-64514292D01*
X182721781Y-64579954D01*
X182532438Y-64676430D01*
X182478281Y-64715777D01*
X182478281Y-64715778D01*
X183110590Y-65348087D01*
X183047006Y-65365125D01*
X182932992Y-65430951D01*
X182839900Y-65524043D01*
X182774074Y-65638057D01*
X182757036Y-65701641D01*
X182124727Y-65069332D01*
X182124726Y-65069332D01*
X182085379Y-65123490D01*
X182085375Y-65123496D01*
X182080759Y-65132555D01*
X182032780Y-65183347D01*
X181964958Y-65200137D01*
X181898825Y-65177593D01*
X181859793Y-65132543D01*
X181855050Y-65123234D01*
X181855048Y-65123231D01*
X181855047Y-65123229D01*
X181730108Y-64951263D01*
X181579785Y-64800940D01*
X181407819Y-64676001D01*
X181218413Y-64579494D01*
X181218412Y-64579493D01*
X181218411Y-64579493D01*
X181016242Y-64513804D01*
X181016240Y-64513803D01*
X181016239Y-64513803D01*
X180854956Y-64488258D01*
X180806286Y-64480550D01*
X180593712Y-64480550D01*
X180545041Y-64488258D01*
X180383759Y-64513803D01*
X180181584Y-64579494D01*
X179992178Y-64676001D01*
X179820212Y-64800940D01*
X179669889Y-64951263D01*
X179544948Y-65123232D01*
X179540483Y-65131996D01*
X179492508Y-65182792D01*
X179424687Y-65199586D01*
X179358552Y-65177048D01*
X179319515Y-65131996D01*
X179315049Y-65123232D01*
X179190108Y-64951263D01*
X179039785Y-64800940D01*
X178867819Y-64676001D01*
X178678413Y-64579494D01*
X178678412Y-64579493D01*
X178678411Y-64579493D01*
X178476242Y-64513804D01*
X178476240Y-64513803D01*
X178476239Y-64513803D01*
X178314956Y-64488258D01*
X178266286Y-64480550D01*
X178053712Y-64480550D01*
X178005041Y-64488258D01*
X177843759Y-64513803D01*
X177641584Y-64579494D01*
X177452178Y-64676001D01*
X177280212Y-64800940D01*
X177129889Y-64951263D01*
X177004948Y-65123232D01*
X177000483Y-65131996D01*
X176952508Y-65182792D01*
X176884687Y-65199586D01*
X176818552Y-65177048D01*
X176779515Y-65131996D01*
X176775049Y-65123232D01*
X176650108Y-64951263D01*
X176499785Y-64800940D01*
X176327819Y-64676001D01*
X176138413Y-64579494D01*
X176138412Y-64579493D01*
X176138411Y-64579493D01*
X175936242Y-64513804D01*
X175936240Y-64513803D01*
X175936239Y-64513803D01*
X175774956Y-64488258D01*
X175726286Y-64480550D01*
X175513712Y-64480550D01*
X175465041Y-64488258D01*
X175303759Y-64513803D01*
X175101584Y-64579494D01*
X174912178Y-64676001D01*
X174740212Y-64800940D01*
X174589889Y-64951263D01*
X174464948Y-65123232D01*
X174460483Y-65131996D01*
X174412508Y-65182792D01*
X174344687Y-65199586D01*
X174278552Y-65177048D01*
X174239515Y-65131996D01*
X174235049Y-65123232D01*
X174110108Y-64951263D01*
X173959785Y-64800940D01*
X173787819Y-64676001D01*
X173598413Y-64579494D01*
X173598412Y-64579493D01*
X173598411Y-64579493D01*
X173396242Y-64513804D01*
X173396240Y-64513803D01*
X173396239Y-64513803D01*
X173234956Y-64488258D01*
X173186286Y-64480550D01*
X172973712Y-64480550D01*
X172925041Y-64488258D01*
X172763759Y-64513803D01*
X172561584Y-64579494D01*
X172372178Y-64676001D01*
X172200212Y-64800940D01*
X172049889Y-64951263D01*
X171924948Y-65123232D01*
X171920483Y-65131996D01*
X171872508Y-65182792D01*
X171804687Y-65199586D01*
X171738552Y-65177048D01*
X171699515Y-65131996D01*
X171695049Y-65123232D01*
X171570108Y-64951263D01*
X171419785Y-64800940D01*
X171247819Y-64676001D01*
X171058413Y-64579494D01*
X171058412Y-64579493D01*
X171058411Y-64579493D01*
X170856242Y-64513804D01*
X170856240Y-64513803D01*
X170856239Y-64513803D01*
X170694956Y-64488258D01*
X170646286Y-64480550D01*
X170433712Y-64480550D01*
X170385041Y-64488258D01*
X170223759Y-64513803D01*
X170021584Y-64579494D01*
X169832178Y-64676001D01*
X169660212Y-64800940D01*
X169509889Y-64951263D01*
X169384948Y-65123232D01*
X169380483Y-65131996D01*
X169332508Y-65182792D01*
X169264687Y-65199586D01*
X169198552Y-65177048D01*
X169159515Y-65131996D01*
X169155049Y-65123232D01*
X169030108Y-64951263D01*
X168879785Y-64800940D01*
X168707819Y-64676001D01*
X168518413Y-64579494D01*
X168518412Y-64579493D01*
X168518411Y-64579493D01*
X168316242Y-64513804D01*
X168316240Y-64513803D01*
X168316239Y-64513803D01*
X168154956Y-64488258D01*
X168106286Y-64480550D01*
X167893712Y-64480550D01*
X167845041Y-64488258D01*
X167683759Y-64513803D01*
X167481584Y-64579494D01*
X167292178Y-64676001D01*
X167120212Y-64800940D01*
X166969889Y-64951263D01*
X166844950Y-65123229D01*
X166748443Y-65312635D01*
X166682752Y-65514810D01*
X166649499Y-65724763D01*
X148000500Y-65724763D01*
X148000500Y-55359364D01*
X148465061Y-55359364D01*
X148465061Y-55571857D01*
X148498303Y-55781738D01*
X148498303Y-55781741D01*
X148563965Y-55983828D01*
X148660436Y-56173161D01*
X148699789Y-56227327D01*
X149332098Y-55595019D01*
X149349136Y-55658604D01*
X149414962Y-55772618D01*
X149508054Y-55865710D01*
X149622068Y-55931536D01*
X149685651Y-55948573D01*
X149053343Y-56580880D01*
X149053343Y-56580881D01*
X149107510Y-56620235D01*
X149296843Y-56716706D01*
X149498931Y-56782368D01*
X149708815Y-56815611D01*
X149921307Y-56815611D01*
X150131188Y-56782368D01*
X150131191Y-56782368D01*
X150333278Y-56716706D01*
X150522615Y-56620233D01*
X150576777Y-56580881D01*
X150576778Y-56580881D01*
X149944469Y-55948573D01*
X150008054Y-55931536D01*
X150122068Y-55865710D01*
X150215160Y-55772618D01*
X150280986Y-55658604D01*
X150298023Y-55595019D01*
X150930331Y-56227328D01*
X150930331Y-56227327D01*
X150969683Y-56173166D01*
X150974293Y-56164118D01*
X151022266Y-56113320D01*
X151090086Y-56096523D01*
X151156222Y-56119058D01*
X151195265Y-56164115D01*
X151200010Y-56173428D01*
X151324951Y-56345397D01*
X151475274Y-56495720D01*
X151647240Y-56620659D01*
X151647242Y-56620660D01*
X151647245Y-56620662D01*
X151836649Y-56717168D01*
X152038818Y-56782857D01*
X152248774Y-56816111D01*
X152248775Y-56816111D01*
X152461347Y-56816111D01*
X152461348Y-56816111D01*
X152671304Y-56782857D01*
X152873473Y-56717168D01*
X153062877Y-56620662D01*
X153149199Y-56557946D01*
X153234847Y-56495720D01*
X153234849Y-56495717D01*
X153234853Y-56495715D01*
X153385165Y-56345403D01*
X153385167Y-56345399D01*
X153385170Y-56345397D01*
X153510109Y-56173431D01*
X153510111Y-56173428D01*
X153510112Y-56173427D01*
X153514575Y-56164665D01*
X153562549Y-56113870D01*
X153630369Y-56097074D01*
X153696505Y-56119610D01*
X153735547Y-56164667D01*
X153740012Y-56173431D01*
X153864951Y-56345397D01*
X154015274Y-56495720D01*
X154187240Y-56620659D01*
X154187242Y-56620660D01*
X154187245Y-56620662D01*
X154376649Y-56717168D01*
X154578818Y-56782857D01*
X154788774Y-56816111D01*
X154788775Y-56816111D01*
X155001347Y-56816111D01*
X155001348Y-56816111D01*
X155211304Y-56782857D01*
X155413473Y-56717168D01*
X155602877Y-56620662D01*
X155774853Y-56495715D01*
X155888390Y-56382177D01*
X155949709Y-56348695D01*
X156019401Y-56353679D01*
X156075335Y-56395550D01*
X156092250Y-56426528D01*
X156141263Y-56557939D01*
X156141267Y-56557946D01*
X156227513Y-56673155D01*
X156227516Y-56673158D01*
X156342725Y-56759404D01*
X156342732Y-56759408D01*
X156477578Y-56809702D01*
X156477577Y-56809702D01*
X156484505Y-56810446D01*
X156537188Y-56816111D01*
X158332933Y-56816110D01*
X158392544Y-56809702D01*
X158527392Y-56759407D01*
X158642607Y-56673157D01*
X158728857Y-56557942D01*
X158779152Y-56423094D01*
X158785561Y-56363484D01*
X158785560Y-54567739D01*
X158779152Y-54508128D01*
X158777871Y-54504694D01*
X158728858Y-54373282D01*
X158728854Y-54373275D01*
X158642608Y-54258066D01*
X158642605Y-54258063D01*
X158527396Y-54171817D01*
X158527389Y-54171813D01*
X158392543Y-54121519D01*
X158392544Y-54121519D01*
X158332944Y-54115112D01*
X158332942Y-54115111D01*
X158332934Y-54115111D01*
X158332925Y-54115111D01*
X156537190Y-54115111D01*
X156537184Y-54115112D01*
X156477577Y-54121519D01*
X156342732Y-54171813D01*
X156342725Y-54171817D01*
X156227516Y-54258063D01*
X156227513Y-54258066D01*
X156141267Y-54373275D01*
X156141264Y-54373280D01*
X156092250Y-54504694D01*
X156050378Y-54560627D01*
X155984914Y-54585044D01*
X155916641Y-54570192D01*
X155888387Y-54549041D01*
X155774847Y-54435501D01*
X155602881Y-54310562D01*
X155413475Y-54214055D01*
X155413474Y-54214054D01*
X155413473Y-54214054D01*
X155211304Y-54148365D01*
X155211302Y-54148364D01*
X155211301Y-54148364D01*
X155050018Y-54122819D01*
X155001348Y-54115111D01*
X154788774Y-54115111D01*
X154740103Y-54122819D01*
X154578821Y-54148364D01*
X154376646Y-54214055D01*
X154187240Y-54310562D01*
X154015274Y-54435501D01*
X153864951Y-54585824D01*
X153740010Y-54757793D01*
X153735545Y-54766557D01*
X153687570Y-54817353D01*
X153619749Y-54834147D01*
X153553614Y-54811609D01*
X153514577Y-54766557D01*
X153510111Y-54757793D01*
X153385170Y-54585824D01*
X153234847Y-54435501D01*
X153062881Y-54310562D01*
X152873475Y-54214055D01*
X152873474Y-54214054D01*
X152873473Y-54214054D01*
X152671304Y-54148365D01*
X152671302Y-54148364D01*
X152671301Y-54148364D01*
X152510018Y-54122819D01*
X152461348Y-54115111D01*
X152248774Y-54115111D01*
X152200103Y-54122819D01*
X152038821Y-54148364D01*
X151836646Y-54214055D01*
X151647240Y-54310562D01*
X151475274Y-54435501D01*
X151324951Y-54585824D01*
X151200010Y-54757793D01*
X151195263Y-54767110D01*
X151147288Y-54817904D01*
X151079466Y-54834698D01*
X151013332Y-54812159D01*
X150974295Y-54767106D01*
X150969687Y-54758063D01*
X150930331Y-54703893D01*
X150930330Y-54703893D01*
X150298023Y-55336201D01*
X150280986Y-55272618D01*
X150215160Y-55158604D01*
X150122068Y-55065512D01*
X150008054Y-54999686D01*
X149944470Y-54982648D01*
X150576777Y-54350339D01*
X150522611Y-54310986D01*
X150333278Y-54214515D01*
X150131190Y-54148853D01*
X149921307Y-54115611D01*
X149708815Y-54115611D01*
X149498933Y-54148853D01*
X149498930Y-54148853D01*
X149296843Y-54214515D01*
X149107500Y-54310991D01*
X149053343Y-54350338D01*
X149053343Y-54350339D01*
X149685652Y-54982648D01*
X149622068Y-54999686D01*
X149508054Y-55065512D01*
X149414962Y-55158604D01*
X149349136Y-55272618D01*
X149332098Y-55336202D01*
X148699789Y-54703893D01*
X148699788Y-54703893D01*
X148660441Y-54758050D01*
X148563965Y-54947393D01*
X148498303Y-55149480D01*
X148498303Y-55149483D01*
X148465061Y-55359364D01*
X148000500Y-55359364D01*
X148000500Y-54005413D01*
X148000972Y-53994606D01*
X148011254Y-53877085D01*
X148014739Y-53837242D01*
X148018490Y-53815966D01*
X148057969Y-53668627D01*
X148065362Y-53648318D01*
X148129823Y-53510081D01*
X148140629Y-53491366D01*
X148228119Y-53366417D01*
X148242007Y-53349865D01*
X148349865Y-53242007D01*
X148366417Y-53228119D01*
X148491366Y-53140629D01*
X148510081Y-53129823D01*
X148648320Y-53065361D01*
X148668627Y-53057969D01*
X148815966Y-53018490D01*
X148837242Y-53014739D01*
X148969885Y-53003134D01*
X148994606Y-53000972D01*
X149005412Y-53000500D01*
X149065892Y-53000500D01*
X149065892Y-53000499D01*
X149117254Y-53000499D01*
X214092407Y-53000499D01*
X214159446Y-53020184D01*
G37*
%TD.AperFunction*%
%TD*%
M02*
