%TF.GenerationSoftware,KiCad,Pcbnew,9.0.8-1.fc43*%
%TF.CreationDate,2026-03-25T11:55:50+01:00*%
%TF.ProjectId,DCF77-Addon,44434637-372d-4416-9464-6f6e2e6b6963,rev?*%
%TF.SameCoordinates,Original*%
%TF.FileFunction,Soldermask,Top*%
%TF.FilePolarity,Negative*%
%FSLAX46Y46*%
G04 Gerber Fmt 4.6, Leading zero omitted, Abs format (unit mm)*
G04 Created by KiCad (PCBNEW 9.0.8-1.fc43) date 2026-03-25 11:55:50*
%MOMM*%
%LPD*%
G01*
G04 APERTURE LIST*
G04 Aperture macros list*
%AMRoundRect*
0 Rectangle with rounded corners*
0 $1 Rounding radius*
0 $2 $3 $4 $5 $6 $7 $8 $9 X,Y pos of 4 corners*
0 Add a 4 corners polygon primitive as box body*
4,1,4,$2,$3,$4,$5,$6,$7,$8,$9,$2,$3,0*
0 Add four circle primitives for the rounded corners*
1,1,$1+$1,$2,$3*
1,1,$1+$1,$4,$5*
1,1,$1+$1,$6,$7*
1,1,$1+$1,$8,$9*
0 Add four rect primitives between the rounded corners*
20,1,$1+$1,$2,$3,$4,$5,0*
20,1,$1+$1,$4,$5,$6,$7,0*
20,1,$1+$1,$6,$7,$8,$9,0*
20,1,$1+$1,$8,$9,$2,$3,0*%
%AMRotRect*
0 Rectangle, with rotation*
0 The origin of the aperture is its center*
0 $1 length*
0 $2 width*
0 $3 Rotation angle, in degrees counterclockwise*
0 Add horizontal line*
21,1,$1,$2,0,0,$3*%
G04 Aperture macros list end*
%ADD10RoundRect,0.240000X0.560000X-0.760000X0.560000X0.760000X-0.560000X0.760000X-0.560000X-0.760000X0*%
%ADD11RoundRect,0.300000X0.700000X-0.700000X0.700000X0.700000X-0.700000X0.700000X-0.700000X-0.700000X0*%
%ADD12C,3.600000*%
%ADD13RoundRect,0.250000X-0.350000X-0.450000X0.350000X-0.450000X0.350000X0.450000X-0.350000X0.450000X0*%
%ADD14RoundRect,0.250000X-1.500000X-0.550000X1.500000X-0.550000X1.500000X0.550000X-1.500000X0.550000X0*%
%ADD15RoundRect,0.250000X-0.450000X0.325000X-0.450000X-0.325000X0.450000X-0.325000X0.450000X0.325000X0*%
%ADD16RoundRect,0.250000X0.475000X-0.337500X0.475000X0.337500X-0.475000X0.337500X-0.475000X-0.337500X0*%
%ADD17R,1.700000X1.700000*%
%ADD18RoundRect,0.250000X0.337500X0.475000X-0.337500X0.475000X-0.337500X-0.475000X0.337500X-0.475000X0*%
%ADD19RoundRect,0.250000X0.450000X-0.325000X0.450000X0.325000X-0.450000X0.325000X-0.450000X-0.325000X0*%
%ADD20RoundRect,0.250000X-0.450000X0.350000X-0.450000X-0.350000X0.450000X-0.350000X0.450000X0.350000X0*%
%ADD21RoundRect,0.100000X-0.287500X-0.100000X0.287500X-0.100000X0.287500X0.100000X-0.287500X0.100000X0*%
%ADD22R,1.500000X2.300000*%
%ADD23O,1.700000X1.700000*%
%ADD24C,1.700000*%
%ADD25RotRect,1.700000X1.700000X225.000000*%
%ADD26RotRect,1.700000X1.700000X315.000000*%
G04 APERTURE END LIST*
D10*
%TO.C,U2*%
X199900000Y-60225000D03*
X202466667Y-60225000D03*
X205033333Y-60225000D03*
X207600000Y-60225000D03*
D11*
X200300000Y-71825000D03*
X202933333Y-71825000D03*
X205566667Y-71825000D03*
X208200000Y-71825000D03*
%TD*%
D12*
%TO.C,H1*%
X215750000Y-75500000D03*
%TD*%
D13*
%TO.C,R2*%
X149000000Y-65000000D03*
X151000000Y-65000000D03*
%TD*%
D14*
%TO.C,C1*%
X153050000Y-62750000D03*
X158450000Y-62750000D03*
%TD*%
D15*
%TO.C,D2*%
X213400000Y-59075000D03*
X213400000Y-61125000D03*
%TD*%
D16*
%TO.C,C3*%
X211200000Y-61137500D03*
X211200000Y-59062500D03*
%TD*%
D17*
%TO.C,J2*%
X185782500Y-81280000D03*
%TD*%
D18*
%TO.C,C2*%
X165137500Y-59150000D03*
X163062500Y-59150000D03*
%TD*%
D19*
%TO.C,D1*%
X149750000Y-62275000D03*
X149750000Y-60225000D03*
%TD*%
D20*
%TO.C,R1*%
X215600000Y-59100000D03*
X215600000Y-61100000D03*
%TD*%
D21*
%TO.C,U1*%
X162737500Y-55275000D03*
X162737500Y-56225000D03*
X162737500Y-57175000D03*
X165712500Y-57175000D03*
X165712500Y-56225000D03*
X165712500Y-55275000D03*
D22*
X164225000Y-56225000D03*
%TD*%
D17*
%TO.C,J8*%
X217237221Y-54470640D03*
D23*
X214697221Y-54470640D03*
%TD*%
D17*
%TO.C,J5*%
X157435061Y-55465611D03*
D24*
X154895061Y-55465611D03*
X152355061Y-55465611D03*
X149815061Y-55465611D03*
%TD*%
D17*
%TO.C,J4*%
X185779999Y-65831050D03*
D24*
X183239999Y-65831050D03*
X180699999Y-65831050D03*
X178159999Y-65831050D03*
X175619999Y-65831050D03*
X173079999Y-65831050D03*
X170539999Y-65831050D03*
X167999999Y-65831050D03*
%TD*%
D25*
%TO.C,J1*%
X146372896Y-77642896D03*
D24*
X148168947Y-79438947D03*
X149964998Y-81234998D03*
X151761050Y-83031050D03*
%TD*%
D26*
%TO.C,J6*%
X149074044Y-74918056D03*
D24*
X150870095Y-73122005D03*
X152666146Y-71325954D03*
X154462198Y-69529902D03*
%TD*%
M02*
