%TF.GenerationSoftware,KiCad,Pcbnew,9.0.8-1.fc43*%
%TF.CreationDate,2026-03-25T11:55:49+01:00*%
%TF.ProjectId,DCF77-Addon,44434637-372d-4416-9464-6f6e2e6b6963,rev?*%
%TF.SameCoordinates,Original*%
%TF.FileFunction,Legend,Bot*%
%TF.FilePolarity,Positive*%
%FSLAX46Y46*%
G04 Gerber Fmt 4.6, Leading zero omitted, Abs format (unit mm)*
G04 Created by KiCad (PCBNEW 9.0.8-1.fc43) date 2026-03-25 11:55:49*
%MOMM*%
%LPD*%
G01*
G04 APERTURE LIST*
%ADD10C,0.150000*%
%ADD11C,0.010000*%
%ADD12C,0.120000*%
G04 APERTURE END LIST*
D10*
X219462040Y-54137306D02*
X220176325Y-54137306D01*
X220176325Y-54137306D02*
X220319182Y-54089687D01*
X220319182Y-54089687D02*
X220414421Y-53994449D01*
X220414421Y-53994449D02*
X220462040Y-53851592D01*
X220462040Y-53851592D02*
X220462040Y-53756354D01*
X219890611Y-54756354D02*
X219842992Y-54661116D01*
X219842992Y-54661116D02*
X219795373Y-54613497D01*
X219795373Y-54613497D02*
X219700135Y-54565878D01*
X219700135Y-54565878D02*
X219652516Y-54565878D01*
X219652516Y-54565878D02*
X219557278Y-54613497D01*
X219557278Y-54613497D02*
X219509659Y-54661116D01*
X219509659Y-54661116D02*
X219462040Y-54756354D01*
X219462040Y-54756354D02*
X219462040Y-54946830D01*
X219462040Y-54946830D02*
X219509659Y-55042068D01*
X219509659Y-55042068D02*
X219557278Y-55089687D01*
X219557278Y-55089687D02*
X219652516Y-55137306D01*
X219652516Y-55137306D02*
X219700135Y-55137306D01*
X219700135Y-55137306D02*
X219795373Y-55089687D01*
X219795373Y-55089687D02*
X219842992Y-55042068D01*
X219842992Y-55042068D02*
X219890611Y-54946830D01*
X219890611Y-54946830D02*
X219890611Y-54756354D01*
X219890611Y-54756354D02*
X219938230Y-54661116D01*
X219938230Y-54661116D02*
X219985849Y-54613497D01*
X219985849Y-54613497D02*
X220081087Y-54565878D01*
X220081087Y-54565878D02*
X220271563Y-54565878D01*
X220271563Y-54565878D02*
X220366801Y-54613497D01*
X220366801Y-54613497D02*
X220414421Y-54661116D01*
X220414421Y-54661116D02*
X220462040Y-54756354D01*
X220462040Y-54756354D02*
X220462040Y-54946830D01*
X220462040Y-54946830D02*
X220414421Y-55042068D01*
X220414421Y-55042068D02*
X220366801Y-55089687D01*
X220366801Y-55089687D02*
X220271563Y-55137306D01*
X220271563Y-55137306D02*
X220081087Y-55137306D01*
X220081087Y-55137306D02*
X219985849Y-55089687D01*
X219985849Y-55089687D02*
X219938230Y-55042068D01*
X219938230Y-55042068D02*
X219890611Y-54946830D01*
X159659880Y-55132277D02*
X160374165Y-55132277D01*
X160374165Y-55132277D02*
X160517022Y-55084658D01*
X160517022Y-55084658D02*
X160612261Y-54989420D01*
X160612261Y-54989420D02*
X160659880Y-54846563D01*
X160659880Y-54846563D02*
X160659880Y-54751325D01*
X159659880Y-56084658D02*
X159659880Y-55608468D01*
X159659880Y-55608468D02*
X160136070Y-55560849D01*
X160136070Y-55560849D02*
X160088451Y-55608468D01*
X160088451Y-55608468D02*
X160040832Y-55703706D01*
X160040832Y-55703706D02*
X160040832Y-55941801D01*
X160040832Y-55941801D02*
X160088451Y-56037039D01*
X160088451Y-56037039D02*
X160136070Y-56084658D01*
X160136070Y-56084658D02*
X160231308Y-56132277D01*
X160231308Y-56132277D02*
X160469403Y-56132277D01*
X160469403Y-56132277D02*
X160564641Y-56084658D01*
X160564641Y-56084658D02*
X160612261Y-56037039D01*
X160612261Y-56037039D02*
X160659880Y-55941801D01*
X160659880Y-55941801D02*
X160659880Y-55703706D01*
X160659880Y-55703706D02*
X160612261Y-55608468D01*
X160612261Y-55608468D02*
X160564641Y-55560849D01*
X188004818Y-65497716D02*
X188719103Y-65497716D01*
X188719103Y-65497716D02*
X188861960Y-65450097D01*
X188861960Y-65450097D02*
X188957199Y-65354859D01*
X188957199Y-65354859D02*
X189004818Y-65212002D01*
X189004818Y-65212002D02*
X189004818Y-65116764D01*
X188338151Y-66402478D02*
X189004818Y-66402478D01*
X187957199Y-66164383D02*
X188671484Y-65926288D01*
X188671484Y-65926288D02*
X188671484Y-66545335D01*
X144264411Y-75063006D02*
X144769487Y-75568082D01*
X144769487Y-75568082D02*
X144904174Y-75635426D01*
X144904174Y-75635426D02*
X145038861Y-75635426D01*
X145038861Y-75635426D02*
X145173548Y-75568082D01*
X145173548Y-75568082D02*
X145240892Y-75500739D01*
X144264411Y-76477220D02*
X144668472Y-76073159D01*
X144466441Y-76275189D02*
X143759334Y-75568082D01*
X143759334Y-75568082D02*
X143927693Y-75601754D01*
X143927693Y-75601754D02*
X144062380Y-75601754D01*
X144062380Y-75601754D02*
X144163395Y-75568082D01*
X147736561Y-76726943D02*
X147231485Y-77232019D01*
X147231485Y-77232019D02*
X147164141Y-77366706D01*
X147164141Y-77366706D02*
X147164141Y-77501393D01*
X147164141Y-77501393D02*
X147231485Y-77636080D01*
X147231485Y-77636080D02*
X147298828Y-77703424D01*
X147096798Y-76087179D02*
X147231485Y-76221866D01*
X147231485Y-76221866D02*
X147265156Y-76322882D01*
X147265156Y-76322882D02*
X147265156Y-76390225D01*
X147265156Y-76390225D02*
X147231485Y-76558584D01*
X147231485Y-76558584D02*
X147130469Y-76726943D01*
X147130469Y-76726943D02*
X146861095Y-76996317D01*
X146861095Y-76996317D02*
X146760080Y-77029988D01*
X146760080Y-77029988D02*
X146692737Y-77029988D01*
X146692737Y-77029988D02*
X146591721Y-76996317D01*
X146591721Y-76996317D02*
X146457034Y-76861630D01*
X146457034Y-76861630D02*
X146423363Y-76760614D01*
X146423363Y-76760614D02*
X146423363Y-76693271D01*
X146423363Y-76693271D02*
X146457034Y-76592256D01*
X146457034Y-76592256D02*
X146625393Y-76423897D01*
X146625393Y-76423897D02*
X146726408Y-76390225D01*
X146726408Y-76390225D02*
X146793752Y-76390225D01*
X146793752Y-76390225D02*
X146894767Y-76423897D01*
X146894767Y-76423897D02*
X147029454Y-76558584D01*
X147029454Y-76558584D02*
X147063126Y-76659599D01*
X147063126Y-76659599D02*
X147063126Y-76726943D01*
X147063126Y-76726943D02*
X147029454Y-76827958D01*
D11*
%TO.C,REF\u002A\u002A*%
X211082829Y-70651097D02*
X211142753Y-70673355D01*
X211167673Y-70690080D01*
X211192910Y-70714043D01*
X211210912Y-70744526D01*
X211222858Y-70786023D01*
X211229930Y-70843032D01*
X211233308Y-70920047D01*
X211234171Y-71021565D01*
X211234002Y-71074027D01*
X211233153Y-71145715D01*
X211231711Y-71202925D01*
X211229814Y-71240809D01*
X211227597Y-71254514D01*
X211213172Y-71249981D01*
X211184054Y-71237670D01*
X211183181Y-71237272D01*
X211168060Y-71229356D01*
X211157891Y-71218495D01*
X211151691Y-71199471D01*
X211148478Y-71167069D01*
X211147270Y-71116071D01*
X211147086Y-71041261D01*
X211146714Y-70993804D01*
X211142750Y-70904615D01*
X211133673Y-70839287D01*
X211118524Y-70794393D01*
X211096345Y-70766507D01*
X211066175Y-70752203D01*
X211061990Y-70751206D01*
X211005480Y-70750427D01*
X210961410Y-70775744D01*
X210930972Y-70826502D01*
X210925544Y-70841175D01*
X210913171Y-70873649D01*
X210906905Y-70888572D01*
X210894036Y-70886516D01*
X210865933Y-70875357D01*
X210839721Y-70856927D01*
X210827771Y-70822098D01*
X210831336Y-70797151D01*
X210853235Y-70746547D01*
X210888644Y-70699128D01*
X210930052Y-70666334D01*
X210947400Y-70658752D01*
X211013089Y-70646076D01*
X211082829Y-70651097D01*
G36*
X211082829Y-70651097D02*
G01*
X211142753Y-70673355D01*
X211167673Y-70690080D01*
X211192910Y-70714043D01*
X211210912Y-70744526D01*
X211222858Y-70786023D01*
X211229930Y-70843032D01*
X211233308Y-70920047D01*
X211234171Y-71021565D01*
X211234002Y-71074027D01*
X211233153Y-71145715D01*
X211231711Y-71202925D01*
X211229814Y-71240809D01*
X211227597Y-71254514D01*
X211213172Y-71249981D01*
X211184054Y-71237670D01*
X211183181Y-71237272D01*
X211168060Y-71229356D01*
X211157891Y-71218495D01*
X211151691Y-71199471D01*
X211148478Y-71167069D01*
X211147270Y-71116071D01*
X211147086Y-71041261D01*
X211146714Y-70993804D01*
X211142750Y-70904615D01*
X211133673Y-70839287D01*
X211118524Y-70794393D01*
X211096345Y-70766507D01*
X211066175Y-70752203D01*
X211061990Y-70751206D01*
X211005480Y-70750427D01*
X210961410Y-70775744D01*
X210930972Y-70826502D01*
X210925544Y-70841175D01*
X210913171Y-70873649D01*
X210906905Y-70888572D01*
X210894036Y-70886516D01*
X210865933Y-70875357D01*
X210839721Y-70856927D01*
X210827771Y-70822098D01*
X210831336Y-70797151D01*
X210853235Y-70746547D01*
X210888644Y-70699128D01*
X210930052Y-70666334D01*
X210947400Y-70658752D01*
X211013089Y-70646076D01*
X211082829Y-70651097D01*
G37*
X215031020Y-70617822D02*
X215098810Y-70649680D01*
X215154366Y-70704770D01*
X215165881Y-70722016D01*
X215175432Y-70741562D01*
X215182206Y-70766198D01*
X215186819Y-70800711D01*
X215189888Y-70849889D01*
X215192029Y-70918519D01*
X215193859Y-71011389D01*
X215198404Y-71269007D01*
X215160225Y-71254491D01*
X215125268Y-71241156D01*
X215099097Y-71228323D01*
X215082013Y-71211780D01*
X215072086Y-71186465D01*
X215067386Y-71147316D01*
X215065982Y-71089268D01*
X215065943Y-71007261D01*
X215065744Y-70941895D01*
X215064559Y-70879173D01*
X215061729Y-70836334D01*
X215056609Y-70808220D01*
X215048553Y-70789675D01*
X215036914Y-70775543D01*
X215008303Y-70755600D01*
X214960239Y-70748083D01*
X214912688Y-70767079D01*
X214909550Y-70769511D01*
X214899769Y-70780748D01*
X214892553Y-70798770D01*
X214887299Y-70828026D01*
X214883402Y-70872962D01*
X214880256Y-70938028D01*
X214877257Y-71027670D01*
X214870000Y-71267697D01*
X214808314Y-71240044D01*
X214746629Y-71212391D01*
X214746629Y-70993246D01*
X214746884Y-70933711D01*
X214749086Y-70850892D01*
X214754661Y-70789227D01*
X214764941Y-70743748D01*
X214781258Y-70709484D01*
X214804943Y-70681466D01*
X214837328Y-70654723D01*
X214883907Y-70627780D01*
X214957287Y-70610191D01*
X215031020Y-70617822D01*
G36*
X215031020Y-70617822D02*
G01*
X215098810Y-70649680D01*
X215154366Y-70704770D01*
X215165881Y-70722016D01*
X215175432Y-70741562D01*
X215182206Y-70766198D01*
X215186819Y-70800711D01*
X215189888Y-70849889D01*
X215192029Y-70918519D01*
X215193859Y-71011389D01*
X215198404Y-71269007D01*
X215160225Y-71254491D01*
X215125268Y-71241156D01*
X215099097Y-71228323D01*
X215082013Y-71211780D01*
X215072086Y-71186465D01*
X215067386Y-71147316D01*
X215065982Y-71089268D01*
X215065943Y-71007261D01*
X215065744Y-70941895D01*
X215064559Y-70879173D01*
X215061729Y-70836334D01*
X215056609Y-70808220D01*
X215048553Y-70789675D01*
X215036914Y-70775543D01*
X215008303Y-70755600D01*
X214960239Y-70748083D01*
X214912688Y-70767079D01*
X214909550Y-70769511D01*
X214899769Y-70780748D01*
X214892553Y-70798770D01*
X214887299Y-70828026D01*
X214883402Y-70872962D01*
X214880256Y-70938028D01*
X214877257Y-71027670D01*
X214870000Y-71267697D01*
X214808314Y-71240044D01*
X214746629Y-71212391D01*
X214746629Y-70993246D01*
X214746884Y-70933711D01*
X214749086Y-70850892D01*
X214754661Y-70789227D01*
X214764941Y-70743748D01*
X214781258Y-70709484D01*
X214804943Y-70681466D01*
X214837328Y-70654723D01*
X214883907Y-70627780D01*
X214957287Y-70610191D01*
X215031020Y-70617822D01*
G37*
X213207691Y-70666467D02*
X213212273Y-70669003D01*
X213249704Y-70698057D01*
X213283170Y-70735410D01*
X213289007Y-70743852D01*
X213300165Y-70763553D01*
X213308136Y-70786935D01*
X213313618Y-70819067D01*
X213317307Y-70865019D01*
X213319899Y-70929859D01*
X213322092Y-71018657D01*
X213322402Y-71033669D01*
X213323400Y-71130999D01*
X213321994Y-71199934D01*
X213318164Y-71240948D01*
X213311889Y-71254514D01*
X213292898Y-71250452D01*
X213260638Y-71238144D01*
X213253041Y-71234545D01*
X213241176Y-71226398D01*
X213232994Y-71213004D01*
X213227643Y-71189608D01*
X213224269Y-71151455D01*
X213222019Y-71093790D01*
X213220040Y-71011857D01*
X213219498Y-70987907D01*
X213217403Y-70912266D01*
X213214683Y-70859328D01*
X213210515Y-70824075D01*
X213204079Y-70801487D01*
X213194550Y-70786544D01*
X213181106Y-70774227D01*
X213141305Y-70752634D01*
X213092341Y-70748476D01*
X213048529Y-70764999D01*
X213017008Y-70799210D01*
X213004914Y-70848114D01*
X213004578Y-70861407D01*
X212997972Y-70885472D01*
X212978470Y-70889144D01*
X212940283Y-70874813D01*
X212931438Y-70870217D01*
X212907534Y-70843186D01*
X212907061Y-70802994D01*
X212929836Y-70747409D01*
X212950727Y-70717117D01*
X213004142Y-70674084D01*
X213070074Y-70649755D01*
X213140574Y-70646443D01*
X213207691Y-70666467D01*
G36*
X213207691Y-70666467D02*
G01*
X213212273Y-70669003D01*
X213249704Y-70698057D01*
X213283170Y-70735410D01*
X213289007Y-70743852D01*
X213300165Y-70763553D01*
X213308136Y-70786935D01*
X213313618Y-70819067D01*
X213317307Y-70865019D01*
X213319899Y-70929859D01*
X213322092Y-71018657D01*
X213322402Y-71033669D01*
X213323400Y-71130999D01*
X213321994Y-71199934D01*
X213318164Y-71240948D01*
X213311889Y-71254514D01*
X213292898Y-71250452D01*
X213260638Y-71238144D01*
X213253041Y-71234545D01*
X213241176Y-71226398D01*
X213232994Y-71213004D01*
X213227643Y-71189608D01*
X213224269Y-71151455D01*
X213222019Y-71093790D01*
X213220040Y-71011857D01*
X213219498Y-70987907D01*
X213217403Y-70912266D01*
X213214683Y-70859328D01*
X213210515Y-70824075D01*
X213204079Y-70801487D01*
X213194550Y-70786544D01*
X213181106Y-70774227D01*
X213141305Y-70752634D01*
X213092341Y-70748476D01*
X213048529Y-70764999D01*
X213017008Y-70799210D01*
X213004914Y-70848114D01*
X213004578Y-70861407D01*
X212997972Y-70885472D01*
X212978470Y-70889144D01*
X212940283Y-70874813D01*
X212931438Y-70870217D01*
X212907534Y-70843186D01*
X212907061Y-70802994D01*
X212929836Y-70747409D01*
X212950727Y-70717117D01*
X213004142Y-70674084D01*
X213070074Y-70649755D01*
X213140574Y-70646443D01*
X213207691Y-70666467D01*
G37*
X214278543Y-70449444D02*
X214325714Y-70469342D01*
X214325714Y-70866509D01*
X214325519Y-70969498D01*
X214324998Y-71062141D01*
X214324199Y-71140700D01*
X214323172Y-71201439D01*
X214321963Y-71240623D01*
X214320623Y-71254514D01*
X214320099Y-71254468D01*
X214302287Y-71249420D01*
X214269823Y-71238580D01*
X214224114Y-71222646D01*
X214224114Y-71018173D01*
X214223824Y-70937832D01*
X214222474Y-70879562D01*
X214219369Y-70839909D01*
X214213812Y-70813618D01*
X214205107Y-70795436D01*
X214192556Y-70780107D01*
X214183999Y-70771955D01*
X214137728Y-70749375D01*
X214086728Y-70751375D01*
X214039993Y-70778073D01*
X214033189Y-70784698D01*
X214022293Y-70798456D01*
X214014836Y-70816642D01*
X214010169Y-70844177D01*
X214007642Y-70885981D01*
X214006602Y-70946973D01*
X214006400Y-71032073D01*
X214006303Y-71075234D01*
X214005674Y-71146224D01*
X214004556Y-71203076D01*
X214003063Y-71240828D01*
X214001309Y-71254514D01*
X214000785Y-71254468D01*
X213982973Y-71249420D01*
X213950509Y-71238580D01*
X213904800Y-71222646D01*
X213904823Y-71017237D01*
X213904857Y-70998951D01*
X213906778Y-70903626D01*
X213912678Y-70831543D01*
X213924001Y-70777813D01*
X213942187Y-70737549D01*
X213968679Y-70705861D01*
X214004918Y-70677861D01*
X214040263Y-70660333D01*
X214096773Y-70646785D01*
X214152356Y-70646015D01*
X214195086Y-70659195D01*
X214198298Y-70661015D01*
X214208205Y-70660820D01*
X214214975Y-70645572D01*
X214219861Y-70610613D01*
X214224114Y-70551289D01*
X214231371Y-70429547D01*
X214278543Y-70449444D01*
G36*
X214278543Y-70449444D02*
G01*
X214325714Y-70469342D01*
X214325714Y-70866509D01*
X214325519Y-70969498D01*
X214324998Y-71062141D01*
X214324199Y-71140700D01*
X214323172Y-71201439D01*
X214321963Y-71240623D01*
X214320623Y-71254514D01*
X214320099Y-71254468D01*
X214302287Y-71249420D01*
X214269823Y-71238580D01*
X214224114Y-71222646D01*
X214224114Y-71018173D01*
X214223824Y-70937832D01*
X214222474Y-70879562D01*
X214219369Y-70839909D01*
X214213812Y-70813618D01*
X214205107Y-70795436D01*
X214192556Y-70780107D01*
X214183999Y-70771955D01*
X214137728Y-70749375D01*
X214086728Y-70751375D01*
X214039993Y-70778073D01*
X214033189Y-70784698D01*
X214022293Y-70798456D01*
X214014836Y-70816642D01*
X214010169Y-70844177D01*
X214007642Y-70885981D01*
X214006602Y-70946973D01*
X214006400Y-71032073D01*
X214006303Y-71075234D01*
X214005674Y-71146224D01*
X214004556Y-71203076D01*
X214003063Y-71240828D01*
X214001309Y-71254514D01*
X214000785Y-71254468D01*
X213982973Y-71249420D01*
X213950509Y-71238580D01*
X213904800Y-71222646D01*
X213904823Y-71017237D01*
X213904857Y-70998951D01*
X213906778Y-70903626D01*
X213912678Y-70831543D01*
X213924001Y-70777813D01*
X213942187Y-70737549D01*
X213968679Y-70705861D01*
X214004918Y-70677861D01*
X214040263Y-70660333D01*
X214096773Y-70646785D01*
X214152356Y-70646015D01*
X214195086Y-70659195D01*
X214198298Y-70661015D01*
X214208205Y-70660820D01*
X214214975Y-70645572D01*
X214219861Y-70610613D01*
X214224114Y-70551289D01*
X214231371Y-70429547D01*
X214278543Y-70449444D01*
G37*
X212253941Y-70649282D02*
X212285774Y-70661758D01*
X212322743Y-70678602D01*
X212322743Y-71165196D01*
X212276812Y-71211127D01*
X212266320Y-71221427D01*
X212237255Y-71244320D01*
X212207943Y-71251735D01*
X212164326Y-71248321D01*
X212146568Y-71246114D01*
X212100767Y-71241445D01*
X212068743Y-71239585D01*
X212059244Y-71239869D01*
X212020274Y-71242948D01*
X211973160Y-71248321D01*
X211958085Y-71250168D01*
X211920110Y-71250893D01*
X211892325Y-71239429D01*
X211860674Y-71211127D01*
X211814743Y-71165196D01*
X211814743Y-70905055D01*
X211815101Y-70828180D01*
X211816216Y-70754886D01*
X211817952Y-70696850D01*
X211820167Y-70658663D01*
X211822721Y-70644914D01*
X211823256Y-70644951D01*
X211841808Y-70651793D01*
X211873153Y-70666868D01*
X211915608Y-70688822D01*
X211919604Y-70917240D01*
X211923600Y-71145657D01*
X212010686Y-71145657D01*
X212014657Y-70895286D01*
X212015916Y-70827227D01*
X212017718Y-70754482D01*
X212019671Y-70696730D01*
X212021612Y-70658648D01*
X212023377Y-70644914D01*
X212023885Y-70644962D01*
X212041482Y-70650015D01*
X212073834Y-70660849D01*
X212119543Y-70676783D01*
X212119765Y-70896706D01*
X212119988Y-70934909D01*
X212121531Y-71009146D01*
X212124292Y-71071145D01*
X212127977Y-71115308D01*
X212132292Y-71136041D01*
X212147732Y-71147131D01*
X212179241Y-71150556D01*
X212213886Y-71145657D01*
X212217857Y-70895286D01*
X212219278Y-70831663D01*
X212222225Y-70756356D01*
X212226079Y-70697286D01*
X212230542Y-70658718D01*
X212235317Y-70644914D01*
X212253941Y-70649282D01*
G36*
X212253941Y-70649282D02*
G01*
X212285774Y-70661758D01*
X212322743Y-70678602D01*
X212322743Y-71165196D01*
X212276812Y-71211127D01*
X212266320Y-71221427D01*
X212237255Y-71244320D01*
X212207943Y-71251735D01*
X212164326Y-71248321D01*
X212146568Y-71246114D01*
X212100767Y-71241445D01*
X212068743Y-71239585D01*
X212059244Y-71239869D01*
X212020274Y-71242948D01*
X211973160Y-71248321D01*
X211958085Y-71250168D01*
X211920110Y-71250893D01*
X211892325Y-71239429D01*
X211860674Y-71211127D01*
X211814743Y-71165196D01*
X211814743Y-70905055D01*
X211815101Y-70828180D01*
X211816216Y-70754886D01*
X211817952Y-70696850D01*
X211820167Y-70658663D01*
X211822721Y-70644914D01*
X211823256Y-70644951D01*
X211841808Y-70651793D01*
X211873153Y-70666868D01*
X211915608Y-70688822D01*
X211919604Y-70917240D01*
X211923600Y-71145657D01*
X212010686Y-71145657D01*
X212014657Y-70895286D01*
X212015916Y-70827227D01*
X212017718Y-70754482D01*
X212019671Y-70696730D01*
X212021612Y-70658648D01*
X212023377Y-70644914D01*
X212023885Y-70644962D01*
X212041482Y-70650015D01*
X212073834Y-70660849D01*
X212119543Y-70676783D01*
X212119765Y-70896706D01*
X212119988Y-70934909D01*
X212121531Y-71009146D01*
X212124292Y-71071145D01*
X212127977Y-71115308D01*
X212132292Y-71136041D01*
X212147732Y-71147131D01*
X212179241Y-71150556D01*
X212213886Y-71145657D01*
X212217857Y-70895286D01*
X212219278Y-70831663D01*
X212222225Y-70756356D01*
X212226079Y-70697286D01*
X212230542Y-70658718D01*
X212235317Y-70644914D01*
X212253941Y-70649282D01*
G37*
X216865714Y-70935200D02*
X216865701Y-70950935D01*
X216864914Y-71021119D01*
X216862210Y-71070022D01*
X216856606Y-71104178D01*
X216847119Y-71130124D01*
X216832768Y-71154397D01*
X216829237Y-71159433D01*
X216791878Y-71199143D01*
X216749311Y-71229092D01*
X216727452Y-71238810D01*
X216648908Y-71255020D01*
X216571231Y-71244535D01*
X216499645Y-71208707D01*
X216439374Y-71148887D01*
X216434286Y-71140873D01*
X216417730Y-71094342D01*
X216406573Y-71029552D01*
X216401160Y-70954727D01*
X216401768Y-70885513D01*
X216548248Y-70885513D01*
X216549402Y-70981399D01*
X216549866Y-70987569D01*
X216556629Y-71040478D01*
X216568671Y-71074029D01*
X216589005Y-71097016D01*
X216623097Y-71118548D01*
X216656814Y-71119680D01*
X216691543Y-71094857D01*
X216697584Y-71088325D01*
X216709417Y-71068779D01*
X216716404Y-71040386D01*
X216719727Y-70996430D01*
X216720571Y-70930192D01*
X216719125Y-70868150D01*
X216711907Y-70809042D01*
X216697006Y-70771686D01*
X216672636Y-70752152D01*
X216637008Y-70746514D01*
X216623440Y-70747635D01*
X216585430Y-70768194D01*
X216560312Y-70814299D01*
X216548248Y-70885513D01*
X216401768Y-70885513D01*
X216401833Y-70878096D01*
X216408937Y-70807882D01*
X216422815Y-70752312D01*
X216440649Y-70715301D01*
X216490855Y-70657733D01*
X216558885Y-70621962D01*
X216642158Y-70609665D01*
X216664398Y-70610331D01*
X216729891Y-70623947D01*
X216783687Y-70658249D01*
X216833057Y-70717338D01*
X216835995Y-70721722D01*
X216849287Y-70745299D01*
X216857932Y-70771949D01*
X216862904Y-70808159D01*
X216865174Y-70860413D01*
X216865678Y-70930192D01*
X216865714Y-70935200D01*
G36*
X216865714Y-70935200D02*
G01*
X216865701Y-70950935D01*
X216864914Y-71021119D01*
X216862210Y-71070022D01*
X216856606Y-71104178D01*
X216847119Y-71130124D01*
X216832768Y-71154397D01*
X216829237Y-71159433D01*
X216791878Y-71199143D01*
X216749311Y-71229092D01*
X216727452Y-71238810D01*
X216648908Y-71255020D01*
X216571231Y-71244535D01*
X216499645Y-71208707D01*
X216439374Y-71148887D01*
X216434286Y-71140873D01*
X216417730Y-71094342D01*
X216406573Y-71029552D01*
X216401160Y-70954727D01*
X216401768Y-70885513D01*
X216548248Y-70885513D01*
X216549402Y-70981399D01*
X216549866Y-70987569D01*
X216556629Y-71040478D01*
X216568671Y-71074029D01*
X216589005Y-71097016D01*
X216623097Y-71118548D01*
X216656814Y-71119680D01*
X216691543Y-71094857D01*
X216697584Y-71088325D01*
X216709417Y-71068779D01*
X216716404Y-71040386D01*
X216719727Y-70996430D01*
X216720571Y-70930192D01*
X216719125Y-70868150D01*
X216711907Y-70809042D01*
X216697006Y-70771686D01*
X216672636Y-70752152D01*
X216637008Y-70746514D01*
X216623440Y-70747635D01*
X216585430Y-70768194D01*
X216560312Y-70814299D01*
X216548248Y-70885513D01*
X216401768Y-70885513D01*
X216401833Y-70878096D01*
X216408937Y-70807882D01*
X216422815Y-70752312D01*
X216440649Y-70715301D01*
X216490855Y-70657733D01*
X216558885Y-70621962D01*
X216642158Y-70609665D01*
X216664398Y-70610331D01*
X216729891Y-70623947D01*
X216783687Y-70658249D01*
X216833057Y-70717338D01*
X216835995Y-70721722D01*
X216849287Y-70745299D01*
X216857932Y-70771949D01*
X216862904Y-70808159D01*
X216865174Y-70860413D01*
X216865678Y-70930192D01*
X216865714Y-70935200D01*
G37*
X210740590Y-70952622D02*
X210740307Y-70991305D01*
X210736762Y-71067521D01*
X210727483Y-71123294D01*
X210710375Y-71164613D01*
X210683344Y-71197467D01*
X210644292Y-71227846D01*
X210619445Y-71241660D01*
X210579615Y-71250965D01*
X210523665Y-71250230D01*
X210492385Y-71247283D01*
X210454653Y-71238283D01*
X210424494Y-71218720D01*
X210389408Y-71182267D01*
X210384720Y-71176943D01*
X210353177Y-71135969D01*
X210338128Y-71100283D01*
X210334286Y-71057966D01*
X210334286Y-70995779D01*
X210377742Y-71012182D01*
X210409424Y-71031356D01*
X210436962Y-71076347D01*
X210442711Y-71090752D01*
X210474855Y-71131546D01*
X210518611Y-71152081D01*
X210566254Y-71150235D01*
X210610057Y-71123886D01*
X210625111Y-71107455D01*
X210638763Y-71082667D01*
X210634493Y-71060144D01*
X210609916Y-71036964D01*
X210562651Y-71010202D01*
X210490314Y-70976934D01*
X210341543Y-70911816D01*
X210337595Y-70847308D01*
X210339079Y-70806220D01*
X210436010Y-70806220D01*
X210443368Y-70831657D01*
X210476848Y-70858814D01*
X210537614Y-70889714D01*
X210547669Y-70894190D01*
X210595751Y-70915017D01*
X210631726Y-70929665D01*
X210648444Y-70935200D01*
X210650977Y-70931126D01*
X210651993Y-70906247D01*
X210648369Y-70866257D01*
X210639242Y-70827152D01*
X210610773Y-70777884D01*
X210569678Y-70750122D01*
X210520590Y-70746364D01*
X210468144Y-70769109D01*
X210453609Y-70780481D01*
X210436010Y-70806220D01*
X210339079Y-70806220D01*
X210339338Y-70799064D01*
X210361281Y-70738096D01*
X210388979Y-70704497D01*
X210446405Y-70666966D01*
X210514527Y-70648006D01*
X210584947Y-70649507D01*
X210649267Y-70673355D01*
X210663426Y-70682513D01*
X210695904Y-70710849D01*
X210718116Y-70746695D01*
X210731804Y-70795384D01*
X210738715Y-70862249D01*
X210739628Y-70906247D01*
X210740590Y-70952622D01*
G36*
X210740590Y-70952622D02*
G01*
X210740307Y-70991305D01*
X210736762Y-71067521D01*
X210727483Y-71123294D01*
X210710375Y-71164613D01*
X210683344Y-71197467D01*
X210644292Y-71227846D01*
X210619445Y-71241660D01*
X210579615Y-71250965D01*
X210523665Y-71250230D01*
X210492385Y-71247283D01*
X210454653Y-71238283D01*
X210424494Y-71218720D01*
X210389408Y-71182267D01*
X210384720Y-71176943D01*
X210353177Y-71135969D01*
X210338128Y-71100283D01*
X210334286Y-71057966D01*
X210334286Y-70995779D01*
X210377742Y-71012182D01*
X210409424Y-71031356D01*
X210436962Y-71076347D01*
X210442711Y-71090752D01*
X210474855Y-71131546D01*
X210518611Y-71152081D01*
X210566254Y-71150235D01*
X210610057Y-71123886D01*
X210625111Y-71107455D01*
X210638763Y-71082667D01*
X210634493Y-71060144D01*
X210609916Y-71036964D01*
X210562651Y-71010202D01*
X210490314Y-70976934D01*
X210341543Y-70911816D01*
X210337595Y-70847308D01*
X210339079Y-70806220D01*
X210436010Y-70806220D01*
X210443368Y-70831657D01*
X210476848Y-70858814D01*
X210537614Y-70889714D01*
X210547669Y-70894190D01*
X210595751Y-70915017D01*
X210631726Y-70929665D01*
X210648444Y-70935200D01*
X210650977Y-70931126D01*
X210651993Y-70906247D01*
X210648369Y-70866257D01*
X210639242Y-70827152D01*
X210610773Y-70777884D01*
X210569678Y-70750122D01*
X210520590Y-70746364D01*
X210468144Y-70769109D01*
X210453609Y-70780481D01*
X210436010Y-70806220D01*
X210339079Y-70806220D01*
X210339338Y-70799064D01*
X210361281Y-70738096D01*
X210388979Y-70704497D01*
X210446405Y-70666966D01*
X210514527Y-70648006D01*
X210584947Y-70649507D01*
X210649267Y-70673355D01*
X210663426Y-70682513D01*
X210695904Y-70710849D01*
X210718116Y-70746695D01*
X210731804Y-70795384D01*
X210738715Y-70862249D01*
X210739628Y-70906247D01*
X210740590Y-70952622D01*
G37*
X212830698Y-70949714D02*
X212829537Y-71006313D01*
X212821345Y-71083462D01*
X212803519Y-71141276D01*
X212773975Y-71185422D01*
X212730625Y-71221568D01*
X212689332Y-71242463D01*
X212619987Y-71254090D01*
X212550736Y-71241377D01*
X212488145Y-71205945D01*
X212438779Y-71149418D01*
X212432818Y-71138995D01*
X212424945Y-71120733D01*
X212419106Y-71097429D01*
X212414999Y-71065085D01*
X212412325Y-71019704D01*
X212410781Y-70957287D01*
X212410734Y-70951748D01*
X212511429Y-70951748D01*
X212511772Y-71004577D01*
X212513942Y-71052362D01*
X212519307Y-71083209D01*
X212529217Y-71103935D01*
X212545021Y-71121356D01*
X212548724Y-71124705D01*
X212596299Y-71149419D01*
X212646635Y-71146890D01*
X212693517Y-71117288D01*
X212707477Y-71101953D01*
X212719160Y-71081622D01*
X212725686Y-71053514D01*
X212728524Y-71010550D01*
X212729143Y-70945647D01*
X212728837Y-70896122D01*
X212726722Y-70847782D01*
X212721390Y-70816587D01*
X212711460Y-70795647D01*
X212695550Y-70778073D01*
X212686204Y-70770159D01*
X212637776Y-70748843D01*
X212587040Y-70752198D01*
X212542987Y-70780107D01*
X212533504Y-70791173D01*
X212521939Y-70812009D01*
X212515252Y-70841106D01*
X212512173Y-70885381D01*
X212511429Y-70951748D01*
X212410734Y-70951748D01*
X212410067Y-70873837D01*
X212409883Y-70765358D01*
X212409829Y-70428601D01*
X212457000Y-70448362D01*
X212469472Y-70453770D01*
X212489324Y-70465985D01*
X212500687Y-70484482D01*
X212506933Y-70516829D01*
X212511429Y-70570593D01*
X212515535Y-70618866D01*
X212520963Y-70650557D01*
X212528739Y-70662383D01*
X212540457Y-70659212D01*
X212570318Y-70648067D01*
X212623684Y-70645304D01*
X212681093Y-70655625D01*
X212730625Y-70677861D01*
X212757876Y-70698443D01*
X212792865Y-70738600D01*
X212815274Y-70790086D01*
X212827190Y-70858568D01*
X212830542Y-70945647D01*
X212830698Y-70949714D01*
G36*
X212830698Y-70949714D02*
G01*
X212829537Y-71006313D01*
X212821345Y-71083462D01*
X212803519Y-71141276D01*
X212773975Y-71185422D01*
X212730625Y-71221568D01*
X212689332Y-71242463D01*
X212619987Y-71254090D01*
X212550736Y-71241377D01*
X212488145Y-71205945D01*
X212438779Y-71149418D01*
X212432818Y-71138995D01*
X212424945Y-71120733D01*
X212419106Y-71097429D01*
X212414999Y-71065085D01*
X212412325Y-71019704D01*
X212410781Y-70957287D01*
X212410734Y-70951748D01*
X212511429Y-70951748D01*
X212511772Y-71004577D01*
X212513942Y-71052362D01*
X212519307Y-71083209D01*
X212529217Y-71103935D01*
X212545021Y-71121356D01*
X212548724Y-71124705D01*
X212596299Y-71149419D01*
X212646635Y-71146890D01*
X212693517Y-71117288D01*
X212707477Y-71101953D01*
X212719160Y-71081622D01*
X212725686Y-71053514D01*
X212728524Y-71010550D01*
X212729143Y-70945647D01*
X212728837Y-70896122D01*
X212726722Y-70847782D01*
X212721390Y-70816587D01*
X212711460Y-70795647D01*
X212695550Y-70778073D01*
X212686204Y-70770159D01*
X212637776Y-70748843D01*
X212587040Y-70752198D01*
X212542987Y-70780107D01*
X212533504Y-70791173D01*
X212521939Y-70812009D01*
X212515252Y-70841106D01*
X212512173Y-70885381D01*
X212511429Y-70951748D01*
X212410734Y-70951748D01*
X212410067Y-70873837D01*
X212409883Y-70765358D01*
X212409829Y-70428601D01*
X212457000Y-70448362D01*
X212469472Y-70453770D01*
X212489324Y-70465985D01*
X212500687Y-70484482D01*
X212506933Y-70516829D01*
X212511429Y-70570593D01*
X212515535Y-70618866D01*
X212520963Y-70650557D01*
X212528739Y-70662383D01*
X212540457Y-70659212D01*
X212570318Y-70648067D01*
X212623684Y-70645304D01*
X212681093Y-70655625D01*
X212730625Y-70677861D01*
X212757876Y-70698443D01*
X212792865Y-70738600D01*
X212815274Y-70790086D01*
X212827190Y-70858568D01*
X212830542Y-70945647D01*
X212830698Y-70949714D01*
G37*
X215762299Y-70894055D02*
X215757684Y-71004078D01*
X215755078Y-71027387D01*
X215735660Y-71110352D01*
X215700573Y-71173448D01*
X215647212Y-71221808D01*
X215644196Y-71223804D01*
X215576362Y-71252185D01*
X215505535Y-71254711D01*
X215437289Y-71233097D01*
X215377196Y-71189062D01*
X215330829Y-71124322D01*
X215330050Y-71122761D01*
X215314643Y-71082558D01*
X215303357Y-71036866D01*
X215297370Y-70993972D01*
X215297861Y-70962160D01*
X215306007Y-70949714D01*
X215313244Y-70950471D01*
X215347851Y-70964235D01*
X215387078Y-70989546D01*
X215420448Y-71018845D01*
X215437483Y-71044572D01*
X215455192Y-71079471D01*
X215491485Y-71111212D01*
X215533630Y-71123886D01*
X215549077Y-71120221D01*
X215579569Y-71101774D01*
X215606128Y-71076166D01*
X215617486Y-71052934D01*
X215617482Y-71052848D01*
X215604596Y-71042179D01*
X215570241Y-71022933D01*
X215519593Y-70997813D01*
X215457829Y-70969524D01*
X215457489Y-70969374D01*
X215390388Y-70939498D01*
X215345411Y-70917973D01*
X215318145Y-70901437D01*
X215304178Y-70886531D01*
X215299097Y-70869893D01*
X215298490Y-70848162D01*
X215302712Y-70807013D01*
X215446000Y-70807013D01*
X215460791Y-70819949D01*
X215497644Y-70839333D01*
X215498725Y-70839881D01*
X215542205Y-70860587D01*
X215581102Y-70877105D01*
X215605778Y-70884093D01*
X215615676Y-70874753D01*
X215617486Y-70842748D01*
X215609966Y-70802915D01*
X215583897Y-70766717D01*
X215546154Y-70747950D01*
X215504077Y-70749845D01*
X215465005Y-70775632D01*
X215449647Y-70793451D01*
X215446000Y-70807013D01*
X215302712Y-70807013D01*
X215303833Y-70796086D01*
X215330251Y-70725335D01*
X215374473Y-70669735D01*
X215431697Y-70631239D01*
X215497120Y-70611797D01*
X215565937Y-70613359D01*
X215633347Y-70637878D01*
X215694544Y-70687302D01*
X215728450Y-70736212D01*
X215752806Y-70806027D01*
X215756767Y-70842748D01*
X215762299Y-70894055D01*
G36*
X215762299Y-70894055D02*
G01*
X215757684Y-71004078D01*
X215755078Y-71027387D01*
X215735660Y-71110352D01*
X215700573Y-71173448D01*
X215647212Y-71221808D01*
X215644196Y-71223804D01*
X215576362Y-71252185D01*
X215505535Y-71254711D01*
X215437289Y-71233097D01*
X215377196Y-71189062D01*
X215330829Y-71124322D01*
X215330050Y-71122761D01*
X215314643Y-71082558D01*
X215303357Y-71036866D01*
X215297370Y-70993972D01*
X215297861Y-70962160D01*
X215306007Y-70949714D01*
X215313244Y-70950471D01*
X215347851Y-70964235D01*
X215387078Y-70989546D01*
X215420448Y-71018845D01*
X215437483Y-71044572D01*
X215455192Y-71079471D01*
X215491485Y-71111212D01*
X215533630Y-71123886D01*
X215549077Y-71120221D01*
X215579569Y-71101774D01*
X215606128Y-71076166D01*
X215617486Y-71052934D01*
X215617482Y-71052848D01*
X215604596Y-71042179D01*
X215570241Y-71022933D01*
X215519593Y-70997813D01*
X215457829Y-70969524D01*
X215457489Y-70969374D01*
X215390388Y-70939498D01*
X215345411Y-70917973D01*
X215318145Y-70901437D01*
X215304178Y-70886531D01*
X215299097Y-70869893D01*
X215298490Y-70848162D01*
X215302712Y-70807013D01*
X215446000Y-70807013D01*
X215460791Y-70819949D01*
X215497644Y-70839333D01*
X215498725Y-70839881D01*
X215542205Y-70860587D01*
X215581102Y-70877105D01*
X215605778Y-70884093D01*
X215615676Y-70874753D01*
X215617486Y-70842748D01*
X215609966Y-70802915D01*
X215583897Y-70766717D01*
X215546154Y-70747950D01*
X215504077Y-70749845D01*
X215465005Y-70775632D01*
X215449647Y-70793451D01*
X215446000Y-70807013D01*
X215302712Y-70807013D01*
X215303833Y-70796086D01*
X215330251Y-70725335D01*
X215374473Y-70669735D01*
X215431697Y-70631239D01*
X215497120Y-70611797D01*
X215565937Y-70613359D01*
X215633347Y-70637878D01*
X215694544Y-70687302D01*
X215728450Y-70736212D01*
X215752806Y-70806027D01*
X215756767Y-70842748D01*
X215762299Y-70894055D01*
G37*
X213689483Y-70660569D02*
X213739376Y-70689661D01*
X213761325Y-70712327D01*
X213803504Y-70780082D01*
X213817714Y-70853950D01*
X213817714Y-70904770D01*
X213770999Y-70885128D01*
X213738692Y-70865308D01*
X213713231Y-70824160D01*
X213710616Y-70815675D01*
X213682478Y-70772451D01*
X213640067Y-70749103D01*
X213591370Y-70748100D01*
X213544373Y-70771914D01*
X213537357Y-70778056D01*
X213513893Y-70804745D01*
X213510019Y-70828014D01*
X213527768Y-70850862D01*
X213569179Y-70876287D01*
X213636286Y-70907288D01*
X213640824Y-70909252D01*
X213715322Y-70943990D01*
X213766203Y-70974763D01*
X213797525Y-71005488D01*
X213813343Y-71040082D01*
X213817714Y-71082462D01*
X213811986Y-71129446D01*
X213783062Y-71189585D01*
X213732178Y-71232788D01*
X213695374Y-71245759D01*
X213643434Y-71252856D01*
X213592999Y-71251340D01*
X213556983Y-71240632D01*
X213553158Y-71237966D01*
X213542998Y-71219337D01*
X213550048Y-71186505D01*
X213562297Y-71160735D01*
X213581939Y-71150006D01*
X213619191Y-71150539D01*
X213670908Y-71147462D01*
X213704701Y-71126212D01*
X213716114Y-71086877D01*
X213716104Y-71085747D01*
X213709187Y-71062913D01*
X213685659Y-71041963D01*
X213639914Y-71017815D01*
X213577704Y-70988741D01*
X213536499Y-70972925D01*
X213512712Y-70973944D01*
X213501597Y-70994837D01*
X213498408Y-71038641D01*
X213498400Y-71108393D01*
X213498044Y-71151452D01*
X213496413Y-71204626D01*
X213493761Y-71241022D01*
X213490422Y-71254514D01*
X213489530Y-71254423D01*
X213470237Y-71247110D01*
X213438284Y-71231678D01*
X213394124Y-71208842D01*
X213399371Y-71003078D01*
X213399736Y-70989432D01*
X213403904Y-70893651D01*
X213411268Y-70821462D01*
X213423330Y-70768058D01*
X213441593Y-70728633D01*
X213467560Y-70698380D01*
X213502733Y-70672493D01*
X213503384Y-70672087D01*
X213560256Y-70650968D01*
X213626033Y-70647400D01*
X213689483Y-70660569D01*
G36*
X213689483Y-70660569D02*
G01*
X213739376Y-70689661D01*
X213761325Y-70712327D01*
X213803504Y-70780082D01*
X213817714Y-70853950D01*
X213817714Y-70904770D01*
X213770999Y-70885128D01*
X213738692Y-70865308D01*
X213713231Y-70824160D01*
X213710616Y-70815675D01*
X213682478Y-70772451D01*
X213640067Y-70749103D01*
X213591370Y-70748100D01*
X213544373Y-70771914D01*
X213537357Y-70778056D01*
X213513893Y-70804745D01*
X213510019Y-70828014D01*
X213527768Y-70850862D01*
X213569179Y-70876287D01*
X213636286Y-70907288D01*
X213640824Y-70909252D01*
X213715322Y-70943990D01*
X213766203Y-70974763D01*
X213797525Y-71005488D01*
X213813343Y-71040082D01*
X213817714Y-71082462D01*
X213811986Y-71129446D01*
X213783062Y-71189585D01*
X213732178Y-71232788D01*
X213695374Y-71245759D01*
X213643434Y-71252856D01*
X213592999Y-71251340D01*
X213556983Y-71240632D01*
X213553158Y-71237966D01*
X213542998Y-71219337D01*
X213550048Y-71186505D01*
X213562297Y-71160735D01*
X213581939Y-71150006D01*
X213619191Y-71150539D01*
X213670908Y-71147462D01*
X213704701Y-71126212D01*
X213716114Y-71086877D01*
X213716104Y-71085747D01*
X213709187Y-71062913D01*
X213685659Y-71041963D01*
X213639914Y-71017815D01*
X213577704Y-70988741D01*
X213536499Y-70972925D01*
X213512712Y-70973944D01*
X213501597Y-70994837D01*
X213498408Y-71038641D01*
X213498400Y-71108393D01*
X213498044Y-71151452D01*
X213496413Y-71204626D01*
X213493761Y-71241022D01*
X213490422Y-71254514D01*
X213489530Y-71254423D01*
X213470237Y-71247110D01*
X213438284Y-71231678D01*
X213394124Y-71208842D01*
X213399371Y-71003078D01*
X213399736Y-70989432D01*
X213403904Y-70893651D01*
X213411268Y-70821462D01*
X213423330Y-70768058D01*
X213441593Y-70728633D01*
X213467560Y-70698380D01*
X213502733Y-70672493D01*
X213503384Y-70672087D01*
X213560256Y-70650968D01*
X213626033Y-70647400D01*
X213689483Y-70660569D01*
G37*
X216309815Y-71001524D02*
X216311252Y-71113000D01*
X216311651Y-71145339D01*
X216312929Y-71253455D01*
X216313185Y-71336186D01*
X216311634Y-71396426D01*
X216307490Y-71437073D01*
X216299964Y-71461023D01*
X216288271Y-71471171D01*
X216271624Y-71470414D01*
X216249236Y-71461648D01*
X216220321Y-71447769D01*
X216214142Y-71444808D01*
X216188413Y-71430311D01*
X216174976Y-71413065D01*
X216169834Y-71384308D01*
X216168990Y-71335283D01*
X216168952Y-71247257D01*
X216078276Y-71247257D01*
X216022498Y-71244815D01*
X215978640Y-71234908D01*
X215942218Y-71214886D01*
X215939503Y-71212929D01*
X215902546Y-71179869D01*
X215876826Y-71139931D01*
X215860606Y-71087657D01*
X215852148Y-71017588D01*
X215850083Y-70938430D01*
X215994857Y-70938430D01*
X215994882Y-70951697D01*
X215996261Y-71011584D01*
X216000687Y-71050732D01*
X216009461Y-71076153D01*
X216023886Y-71094857D01*
X216024784Y-71095750D01*
X216060237Y-71119952D01*
X216094596Y-71117567D01*
X216133403Y-71088260D01*
X216142895Y-71078244D01*
X216156876Y-71057708D01*
X216164760Y-71030997D01*
X216168245Y-70990499D01*
X216169029Y-70928603D01*
X216168350Y-70891130D01*
X216160983Y-70822980D01*
X216144168Y-70778330D01*
X216116234Y-70753926D01*
X216075509Y-70746514D01*
X216058350Y-70748094D01*
X216028660Y-70763766D01*
X216009031Y-70798691D01*
X215998188Y-70855901D01*
X215994857Y-70938430D01*
X215850083Y-70938430D01*
X215849714Y-70924267D01*
X215850253Y-70856169D01*
X215852707Y-70804587D01*
X215858158Y-70768816D01*
X215867686Y-70742015D01*
X215882371Y-70717338D01*
X215895852Y-70698480D01*
X215944799Y-70647568D01*
X216000256Y-70619918D01*
X216069928Y-70611165D01*
X216149664Y-70619890D01*
X216218595Y-70651185D01*
X216273113Y-70706381D01*
X216277223Y-70712224D01*
X216286808Y-70727753D01*
X216294151Y-70745498D01*
X216299612Y-70769290D01*
X216303550Y-70802958D01*
X216306323Y-70850333D01*
X216308292Y-70915245D01*
X216308528Y-70928603D01*
X216309815Y-71001524D01*
G36*
X216309815Y-71001524D02*
G01*
X216311252Y-71113000D01*
X216311651Y-71145339D01*
X216312929Y-71253455D01*
X216313185Y-71336186D01*
X216311634Y-71396426D01*
X216307490Y-71437073D01*
X216299964Y-71461023D01*
X216288271Y-71471171D01*
X216271624Y-71470414D01*
X216249236Y-71461648D01*
X216220321Y-71447769D01*
X216214142Y-71444808D01*
X216188413Y-71430311D01*
X216174976Y-71413065D01*
X216169834Y-71384308D01*
X216168990Y-71335283D01*
X216168952Y-71247257D01*
X216078276Y-71247257D01*
X216022498Y-71244815D01*
X215978640Y-71234908D01*
X215942218Y-71214886D01*
X215939503Y-71212929D01*
X215902546Y-71179869D01*
X215876826Y-71139931D01*
X215860606Y-71087657D01*
X215852148Y-71017588D01*
X215850083Y-70938430D01*
X215994857Y-70938430D01*
X215994882Y-70951697D01*
X215996261Y-71011584D01*
X216000687Y-71050732D01*
X216009461Y-71076153D01*
X216023886Y-71094857D01*
X216024784Y-71095750D01*
X216060237Y-71119952D01*
X216094596Y-71117567D01*
X216133403Y-71088260D01*
X216142895Y-71078244D01*
X216156876Y-71057708D01*
X216164760Y-71030997D01*
X216168245Y-70990499D01*
X216169029Y-70928603D01*
X216168350Y-70891130D01*
X216160983Y-70822980D01*
X216144168Y-70778330D01*
X216116234Y-70753926D01*
X216075509Y-70746514D01*
X216058350Y-70748094D01*
X216028660Y-70763766D01*
X216009031Y-70798691D01*
X215998188Y-70855901D01*
X215994857Y-70938430D01*
X215850083Y-70938430D01*
X215849714Y-70924267D01*
X215850253Y-70856169D01*
X215852707Y-70804587D01*
X215858158Y-70768816D01*
X215867686Y-70742015D01*
X215882371Y-70717338D01*
X215895852Y-70698480D01*
X215944799Y-70647568D01*
X216000256Y-70619918D01*
X216069928Y-70611165D01*
X216149664Y-70619890D01*
X216218595Y-70651185D01*
X216273113Y-70706381D01*
X216277223Y-70712224D01*
X216286808Y-70727753D01*
X216294151Y-70745498D01*
X216299612Y-70769290D01*
X216303550Y-70802958D01*
X216306323Y-70850333D01*
X216308292Y-70915245D01*
X216308528Y-70928603D01*
X216309815Y-71001524D01*
G37*
X211567495Y-70646220D02*
X211598599Y-70654121D01*
X211627559Y-70673817D01*
X211664831Y-70710484D01*
X211688801Y-70736378D01*
X211713770Y-70769997D01*
X211725031Y-70801506D01*
X211727657Y-70841485D01*
X211727657Y-70906917D01*
X211683035Y-70883842D01*
X211647673Y-70855724D01*
X211623451Y-70817848D01*
X211619291Y-70807551D01*
X211587594Y-70767637D01*
X211543554Y-70747624D01*
X211495531Y-70749572D01*
X211451886Y-70775543D01*
X211433420Y-70796635D01*
X211422663Y-70823619D01*
X211434178Y-70847634D01*
X211469981Y-70871791D01*
X211532090Y-70899199D01*
X211541515Y-70902985D01*
X211598058Y-70927759D01*
X211646580Y-70952189D01*
X211677451Y-70971486D01*
X211708371Y-71005953D01*
X211728927Y-71060957D01*
X211726744Y-71119983D01*
X211702424Y-71175845D01*
X211656568Y-71221355D01*
X211619438Y-71240727D01*
X211547711Y-71254292D01*
X211507852Y-71252462D01*
X211470953Y-71242568D01*
X211456797Y-71221806D01*
X211462091Y-71187613D01*
X211463631Y-71183092D01*
X211475842Y-71159116D01*
X211496174Y-71150042D01*
X211534908Y-71150649D01*
X211562257Y-71151474D01*
X211594257Y-71144392D01*
X211616182Y-71123219D01*
X211628670Y-71097152D01*
X211630062Y-71069845D01*
X211629998Y-71069685D01*
X211613807Y-71054930D01*
X211579155Y-71033457D01*
X211534321Y-71009458D01*
X211487582Y-70987125D01*
X211447217Y-70970652D01*
X211421504Y-70964229D01*
X211417679Y-70970518D01*
X211412864Y-71000115D01*
X211409566Y-71048447D01*
X211408343Y-71109372D01*
X211408058Y-71151542D01*
X211406718Y-71204653D01*
X211404528Y-71241025D01*
X211401769Y-71254514D01*
X211387344Y-71249981D01*
X211358226Y-71237670D01*
X211321257Y-71220826D01*
X211321257Y-71004721D01*
X211321493Y-70949327D01*
X211323729Y-70865207D01*
X211329423Y-70802800D01*
X211339903Y-70757358D01*
X211356497Y-70724133D01*
X211380531Y-70698378D01*
X211413333Y-70675344D01*
X211455124Y-70656335D01*
X211532287Y-70644914D01*
X211567495Y-70646220D01*
G36*
X211567495Y-70646220D02*
G01*
X211598599Y-70654121D01*
X211627559Y-70673817D01*
X211664831Y-70710484D01*
X211688801Y-70736378D01*
X211713770Y-70769997D01*
X211725031Y-70801506D01*
X211727657Y-70841485D01*
X211727657Y-70906917D01*
X211683035Y-70883842D01*
X211647673Y-70855724D01*
X211623451Y-70817848D01*
X211619291Y-70807551D01*
X211587594Y-70767637D01*
X211543554Y-70747624D01*
X211495531Y-70749572D01*
X211451886Y-70775543D01*
X211433420Y-70796635D01*
X211422663Y-70823619D01*
X211434178Y-70847634D01*
X211469981Y-70871791D01*
X211532090Y-70899199D01*
X211541515Y-70902985D01*
X211598058Y-70927759D01*
X211646580Y-70952189D01*
X211677451Y-70971486D01*
X211708371Y-71005953D01*
X211728927Y-71060957D01*
X211726744Y-71119983D01*
X211702424Y-71175845D01*
X211656568Y-71221355D01*
X211619438Y-71240727D01*
X211547711Y-71254292D01*
X211507852Y-71252462D01*
X211470953Y-71242568D01*
X211456797Y-71221806D01*
X211462091Y-71187613D01*
X211463631Y-71183092D01*
X211475842Y-71159116D01*
X211496174Y-71150042D01*
X211534908Y-71150649D01*
X211562257Y-71151474D01*
X211594257Y-71144392D01*
X211616182Y-71123219D01*
X211628670Y-71097152D01*
X211630062Y-71069845D01*
X211629998Y-71069685D01*
X211613807Y-71054930D01*
X211579155Y-71033457D01*
X211534321Y-71009458D01*
X211487582Y-70987125D01*
X211447217Y-70970652D01*
X211421504Y-70964229D01*
X211417679Y-70970518D01*
X211412864Y-71000115D01*
X211409566Y-71048447D01*
X211408343Y-71109372D01*
X211408058Y-71151542D01*
X211406718Y-71204653D01*
X211404528Y-71241025D01*
X211401769Y-71254514D01*
X211387344Y-71249981D01*
X211358226Y-71237670D01*
X211321257Y-71220826D01*
X211321257Y-71004721D01*
X211321493Y-70949327D01*
X211323729Y-70865207D01*
X211329423Y-70802800D01*
X211339903Y-70757358D01*
X211356497Y-70724133D01*
X211380531Y-70698378D01*
X211413333Y-70675344D01*
X211455124Y-70656335D01*
X211532287Y-70644914D01*
X211567495Y-70646220D01*
G37*
X213713933Y-65942371D02*
X213789856Y-65942865D01*
X213844491Y-65944135D01*
X213881500Y-65946547D01*
X213904547Y-65950467D01*
X213917296Y-65956262D01*
X213923411Y-65964299D01*
X213926556Y-65974943D01*
X213926646Y-65975325D01*
X213931814Y-66000347D01*
X213941209Y-66048681D01*
X213953867Y-66115260D01*
X213968825Y-66195014D01*
X213985119Y-66282875D01*
X213986448Y-66290064D01*
X214002691Y-66375340D01*
X214017805Y-66450242D01*
X214030808Y-66510219D01*
X214040715Y-66550717D01*
X214046544Y-66567184D01*
X214046575Y-66567210D01*
X214064943Y-66576320D01*
X214102640Y-66591457D01*
X214151543Y-66609358D01*
X214154297Y-66610330D01*
X214216817Y-66633959D01*
X214289543Y-66663595D01*
X214357294Y-66693062D01*
X214468703Y-66743626D01*
X214715399Y-66575160D01*
X214732775Y-66563311D01*
X214807202Y-66512947D01*
X214873614Y-66468612D01*
X214928039Y-66432916D01*
X214966506Y-66408471D01*
X214985042Y-66397889D01*
X214997743Y-66400315D01*
X215026579Y-66419110D01*
X215071143Y-66456330D01*
X215132670Y-66513020D01*
X215212398Y-66590227D01*
X215219532Y-66597255D01*
X215282796Y-66660222D01*
X215338990Y-66717268D01*
X215384677Y-66764817D01*
X215416414Y-66799297D01*
X215430764Y-66817131D01*
X215430810Y-66817217D01*
X215432633Y-66830795D01*
X215425910Y-66852820D01*
X215408946Y-66886304D01*
X215380044Y-66934261D01*
X215337508Y-66999704D01*
X215279644Y-67085645D01*
X215269783Y-67100151D01*
X215219913Y-67173635D01*
X215175905Y-67238687D01*
X215140380Y-67291417D01*
X215115959Y-67327936D01*
X215105264Y-67344356D01*
X215104458Y-67347834D01*
X215109518Y-67373785D01*
X215124677Y-67416159D01*
X215147463Y-67467728D01*
X215178429Y-67535170D01*
X215213004Y-67615195D01*
X215242366Y-67687629D01*
X215249645Y-67706377D01*
X215268710Y-67754246D01*
X215282715Y-67787596D01*
X215289041Y-67800114D01*
X215296025Y-67801050D01*
X215327413Y-67806461D01*
X215378787Y-67815806D01*
X215444802Y-67828069D01*
X215520113Y-67842232D01*
X215599375Y-67857280D01*
X215677243Y-67872195D01*
X215748370Y-67885961D01*
X215807412Y-67897562D01*
X215849022Y-67905980D01*
X215867857Y-67910199D01*
X215870980Y-67911389D01*
X215878591Y-67917805D01*
X215884254Y-67931465D01*
X215888251Y-67955999D01*
X215890866Y-67995038D01*
X215892384Y-68052213D01*
X215893086Y-68131154D01*
X215893257Y-68235492D01*
X215893257Y-68552799D01*
X215817057Y-68567839D01*
X215807840Y-68569642D01*
X215758891Y-68578980D01*
X215691205Y-68591669D01*
X215612478Y-68606273D01*
X215530400Y-68621355D01*
X215498078Y-68627422D01*
X215425855Y-68642181D01*
X215365666Y-68656137D01*
X215323040Y-68667952D01*
X215303510Y-68676287D01*
X215294660Y-68689905D01*
X215278548Y-68725938D01*
X215262065Y-68772572D01*
X215256263Y-68790034D01*
X215234906Y-68847358D01*
X215207359Y-68915201D01*
X215178107Y-68982355D01*
X215162463Y-69017430D01*
X215140174Y-69069822D01*
X215124857Y-69109058D01*
X215119162Y-69128563D01*
X215119478Y-69130036D01*
X215130281Y-69150729D01*
X215154638Y-69190665D01*
X215190081Y-69245972D01*
X215234136Y-69312781D01*
X215284332Y-69387220D01*
X215449501Y-69629623D01*
X215232503Y-69846983D01*
X215211516Y-69867899D01*
X215147342Y-69930505D01*
X215089990Y-69984495D01*
X215042820Y-70026826D01*
X215009192Y-70054457D01*
X214992467Y-70064343D01*
X214974303Y-70056821D01*
X214936265Y-70035227D01*
X214882726Y-70002151D01*
X214817884Y-69960191D01*
X214745940Y-69911943D01*
X214675275Y-69864291D01*
X214611526Y-69822328D01*
X214559513Y-69789165D01*
X214523279Y-69767378D01*
X214506867Y-69759543D01*
X214505905Y-69759614D01*
X214484103Y-69767338D01*
X214445440Y-69785323D01*
X214397612Y-69810013D01*
X214397110Y-69810284D01*
X214333587Y-69842099D01*
X214290060Y-69857642D01*
X214263052Y-69857685D01*
X214249090Y-69843000D01*
X214243180Y-69828544D01*
X214227229Y-69789831D01*
X214202660Y-69730316D01*
X214170779Y-69653165D01*
X214132893Y-69561541D01*
X214090310Y-69458607D01*
X214044337Y-69347526D01*
X214002667Y-69246472D01*
X213960268Y-69142780D01*
X213922756Y-69050119D01*
X213891388Y-68971642D01*
X213867425Y-68910500D01*
X213852123Y-68869843D01*
X213846743Y-68852825D01*
X213857018Y-68837219D01*
X213885563Y-68811162D01*
X213925971Y-68780887D01*
X214022979Y-68701684D01*
X214109793Y-68600475D01*
X214173322Y-68489116D01*
X214213177Y-68370893D01*
X214228965Y-68249095D01*
X214220296Y-68127010D01*
X214186778Y-68007925D01*
X214128021Y-67895129D01*
X214043632Y-67791911D01*
X213999631Y-67751713D01*
X213894211Y-67680638D01*
X213781410Y-67634301D01*
X213664525Y-67611599D01*
X213546853Y-67611428D01*
X213431690Y-67632687D01*
X213322335Y-67674270D01*
X213222083Y-67735076D01*
X213134233Y-67814001D01*
X213062080Y-67909941D01*
X213008922Y-68021795D01*
X212978057Y-68148457D01*
X212972392Y-68209507D01*
X212980185Y-68341776D01*
X213015284Y-68467266D01*
X213076649Y-68583759D01*
X213163243Y-68689039D01*
X213274029Y-68780887D01*
X213312931Y-68809930D01*
X213342104Y-68836272D01*
X213353257Y-68852800D01*
X213348810Y-68867209D01*
X213334378Y-68905815D01*
X213311173Y-68965201D01*
X213280452Y-69042215D01*
X213243474Y-69133703D01*
X213201496Y-69236516D01*
X213155778Y-69347502D01*
X213114178Y-69448072D01*
X213071222Y-69551947D01*
X213032829Y-69644819D01*
X213000305Y-69723525D01*
X212974958Y-69784899D01*
X212958095Y-69825779D01*
X212951025Y-69843000D01*
X212950943Y-69843204D01*
X212936798Y-69857745D01*
X212909659Y-69857579D01*
X212866023Y-69841927D01*
X212802388Y-69810013D01*
X212797379Y-69807326D01*
X212750125Y-69783150D01*
X212712811Y-69766037D01*
X212693133Y-69759543D01*
X212677005Y-69767218D01*
X212640959Y-69788871D01*
X212589092Y-69821928D01*
X212525445Y-69863810D01*
X212454060Y-69911943D01*
X212383724Y-69959131D01*
X212318670Y-70001267D01*
X212264820Y-70034578D01*
X212226374Y-70056469D01*
X212207534Y-70064343D01*
X212204325Y-70063343D01*
X212181954Y-70047584D01*
X212143733Y-70015033D01*
X212093021Y-69968733D01*
X212033181Y-69911726D01*
X211967571Y-69847058D01*
X211750648Y-69629772D01*
X211919601Y-69381253D01*
X212088553Y-69132733D01*
X212037183Y-69021595D01*
X212037031Y-69021266D01*
X212006183Y-68950418D01*
X211974661Y-68871523D01*
X211949266Y-68801600D01*
X211945423Y-68790322D01*
X211926047Y-68737967D01*
X211908574Y-68697283D01*
X211896388Y-68676287D01*
X211891426Y-68673322D01*
X211861634Y-68663375D01*
X211811047Y-68650505D01*
X211745194Y-68636053D01*
X211669600Y-68621355D01*
X211646957Y-68617210D01*
X211565038Y-68602116D01*
X211488600Y-68587899D01*
X211425337Y-68575995D01*
X211382943Y-68567839D01*
X211306743Y-68552799D01*
X211306743Y-68235492D01*
X211306760Y-68196476D01*
X211307082Y-68101292D01*
X211308033Y-68030255D01*
X211309896Y-67979734D01*
X211312955Y-67946098D01*
X211317494Y-67925718D01*
X211323795Y-67914962D01*
X211332143Y-67910199D01*
X211340224Y-67908270D01*
X211373172Y-67901445D01*
X211425736Y-67891022D01*
X211492569Y-67878018D01*
X211568328Y-67863449D01*
X211647665Y-67848333D01*
X211725237Y-67833685D01*
X211795698Y-67820523D01*
X211853702Y-67809863D01*
X211893904Y-67802721D01*
X211910959Y-67800114D01*
X211912112Y-67798541D01*
X211921385Y-67778119D01*
X211937432Y-67739045D01*
X211957635Y-67687629D01*
X211985672Y-67618353D01*
X212020186Y-67538290D01*
X212052538Y-67467728D01*
X212059952Y-67451889D01*
X212080755Y-67402293D01*
X212093219Y-67364038D01*
X212094863Y-67344356D01*
X212094015Y-67342962D01*
X212080548Y-67322420D01*
X212053850Y-67282516D01*
X212016539Y-67227140D01*
X211971234Y-67160177D01*
X211920552Y-67085517D01*
X211863445Y-67000692D01*
X211820607Y-66934800D01*
X211791460Y-66886478D01*
X211774317Y-66852733D01*
X211767495Y-66830572D01*
X211769306Y-66817002D01*
X211769915Y-66815984D01*
X211786297Y-66796210D01*
X211819695Y-66760175D01*
X211866671Y-66711451D01*
X211923786Y-66653612D01*
X211987603Y-66590227D01*
X212053802Y-66525905D01*
X212118648Y-66465447D01*
X212166299Y-66424655D01*
X212197990Y-66402484D01*
X212214958Y-66397889D01*
X212217175Y-66398921D01*
X212240524Y-66412837D01*
X212282912Y-66440030D01*
X212340369Y-66477889D01*
X212408923Y-66523803D01*
X212484601Y-66575160D01*
X212731298Y-66743626D01*
X212842706Y-66693062D01*
X212845943Y-66691597D01*
X212914343Y-66661965D01*
X212986907Y-66632493D01*
X213048457Y-66609358D01*
X213048729Y-66609262D01*
X213097595Y-66591367D01*
X213135212Y-66576253D01*
X213153457Y-66567184D01*
X213153752Y-66566855D01*
X213159946Y-66548282D01*
X213170139Y-66506045D01*
X213183348Y-66444696D01*
X213198590Y-66368789D01*
X213214881Y-66282875D01*
X213215449Y-66279796D01*
X213231713Y-66192128D01*
X213246608Y-66112741D01*
X213259171Y-66046701D01*
X213268438Y-65999079D01*
X213273444Y-65974943D01*
X213273764Y-65973605D01*
X213277060Y-65963273D01*
X213283738Y-65955506D01*
X213297462Y-65949940D01*
X213321895Y-65946207D01*
X213360702Y-65943942D01*
X213417546Y-65942778D01*
X213496090Y-65942348D01*
X213600000Y-65942286D01*
X213613056Y-65942286D01*
X213713933Y-65942371D01*
G36*
X213713933Y-65942371D02*
G01*
X213789856Y-65942865D01*
X213844491Y-65944135D01*
X213881500Y-65946547D01*
X213904547Y-65950467D01*
X213917296Y-65956262D01*
X213923411Y-65964299D01*
X213926556Y-65974943D01*
X213926646Y-65975325D01*
X213931814Y-66000347D01*
X213941209Y-66048681D01*
X213953867Y-66115260D01*
X213968825Y-66195014D01*
X213985119Y-66282875D01*
X213986448Y-66290064D01*
X214002691Y-66375340D01*
X214017805Y-66450242D01*
X214030808Y-66510219D01*
X214040715Y-66550717D01*
X214046544Y-66567184D01*
X214046575Y-66567210D01*
X214064943Y-66576320D01*
X214102640Y-66591457D01*
X214151543Y-66609358D01*
X214154297Y-66610330D01*
X214216817Y-66633959D01*
X214289543Y-66663595D01*
X214357294Y-66693062D01*
X214468703Y-66743626D01*
X214715399Y-66575160D01*
X214732775Y-66563311D01*
X214807202Y-66512947D01*
X214873614Y-66468612D01*
X214928039Y-66432916D01*
X214966506Y-66408471D01*
X214985042Y-66397889D01*
X214997743Y-66400315D01*
X215026579Y-66419110D01*
X215071143Y-66456330D01*
X215132670Y-66513020D01*
X215212398Y-66590227D01*
X215219532Y-66597255D01*
X215282796Y-66660222D01*
X215338990Y-66717268D01*
X215384677Y-66764817D01*
X215416414Y-66799297D01*
X215430764Y-66817131D01*
X215430810Y-66817217D01*
X215432633Y-66830795D01*
X215425910Y-66852820D01*
X215408946Y-66886304D01*
X215380044Y-66934261D01*
X215337508Y-66999704D01*
X215279644Y-67085645D01*
X215269783Y-67100151D01*
X215219913Y-67173635D01*
X215175905Y-67238687D01*
X215140380Y-67291417D01*
X215115959Y-67327936D01*
X215105264Y-67344356D01*
X215104458Y-67347834D01*
X215109518Y-67373785D01*
X215124677Y-67416159D01*
X215147463Y-67467728D01*
X215178429Y-67535170D01*
X215213004Y-67615195D01*
X215242366Y-67687629D01*
X215249645Y-67706377D01*
X215268710Y-67754246D01*
X215282715Y-67787596D01*
X215289041Y-67800114D01*
X215296025Y-67801050D01*
X215327413Y-67806461D01*
X215378787Y-67815806D01*
X215444802Y-67828069D01*
X215520113Y-67842232D01*
X215599375Y-67857280D01*
X215677243Y-67872195D01*
X215748370Y-67885961D01*
X215807412Y-67897562D01*
X215849022Y-67905980D01*
X215867857Y-67910199D01*
X215870980Y-67911389D01*
X215878591Y-67917805D01*
X215884254Y-67931465D01*
X215888251Y-67955999D01*
X215890866Y-67995038D01*
X215892384Y-68052213D01*
X215893086Y-68131154D01*
X215893257Y-68235492D01*
X215893257Y-68552799D01*
X215817057Y-68567839D01*
X215807840Y-68569642D01*
X215758891Y-68578980D01*
X215691205Y-68591669D01*
X215612478Y-68606273D01*
X215530400Y-68621355D01*
X215498078Y-68627422D01*
X215425855Y-68642181D01*
X215365666Y-68656137D01*
X215323040Y-68667952D01*
X215303510Y-68676287D01*
X215294660Y-68689905D01*
X215278548Y-68725938D01*
X215262065Y-68772572D01*
X215256263Y-68790034D01*
X215234906Y-68847358D01*
X215207359Y-68915201D01*
X215178107Y-68982355D01*
X215162463Y-69017430D01*
X215140174Y-69069822D01*
X215124857Y-69109058D01*
X215119162Y-69128563D01*
X215119478Y-69130036D01*
X215130281Y-69150729D01*
X215154638Y-69190665D01*
X215190081Y-69245972D01*
X215234136Y-69312781D01*
X215284332Y-69387220D01*
X215449501Y-69629623D01*
X215232503Y-69846983D01*
X215211516Y-69867899D01*
X215147342Y-69930505D01*
X215089990Y-69984495D01*
X215042820Y-70026826D01*
X215009192Y-70054457D01*
X214992467Y-70064343D01*
X214974303Y-70056821D01*
X214936265Y-70035227D01*
X214882726Y-70002151D01*
X214817884Y-69960191D01*
X214745940Y-69911943D01*
X214675275Y-69864291D01*
X214611526Y-69822328D01*
X214559513Y-69789165D01*
X214523279Y-69767378D01*
X214506867Y-69759543D01*
X214505905Y-69759614D01*
X214484103Y-69767338D01*
X214445440Y-69785323D01*
X214397612Y-69810013D01*
X214397110Y-69810284D01*
X214333587Y-69842099D01*
X214290060Y-69857642D01*
X214263052Y-69857685D01*
X214249090Y-69843000D01*
X214243180Y-69828544D01*
X214227229Y-69789831D01*
X214202660Y-69730316D01*
X214170779Y-69653165D01*
X214132893Y-69561541D01*
X214090310Y-69458607D01*
X214044337Y-69347526D01*
X214002667Y-69246472D01*
X213960268Y-69142780D01*
X213922756Y-69050119D01*
X213891388Y-68971642D01*
X213867425Y-68910500D01*
X213852123Y-68869843D01*
X213846743Y-68852825D01*
X213857018Y-68837219D01*
X213885563Y-68811162D01*
X213925971Y-68780887D01*
X214022979Y-68701684D01*
X214109793Y-68600475D01*
X214173322Y-68489116D01*
X214213177Y-68370893D01*
X214228965Y-68249095D01*
X214220296Y-68127010D01*
X214186778Y-68007925D01*
X214128021Y-67895129D01*
X214043632Y-67791911D01*
X213999631Y-67751713D01*
X213894211Y-67680638D01*
X213781410Y-67634301D01*
X213664525Y-67611599D01*
X213546853Y-67611428D01*
X213431690Y-67632687D01*
X213322335Y-67674270D01*
X213222083Y-67735076D01*
X213134233Y-67814001D01*
X213062080Y-67909941D01*
X213008922Y-68021795D01*
X212978057Y-68148457D01*
X212972392Y-68209507D01*
X212980185Y-68341776D01*
X213015284Y-68467266D01*
X213076649Y-68583759D01*
X213163243Y-68689039D01*
X213274029Y-68780887D01*
X213312931Y-68809930D01*
X213342104Y-68836272D01*
X213353257Y-68852800D01*
X213348810Y-68867209D01*
X213334378Y-68905815D01*
X213311173Y-68965201D01*
X213280452Y-69042215D01*
X213243474Y-69133703D01*
X213201496Y-69236516D01*
X213155778Y-69347502D01*
X213114178Y-69448072D01*
X213071222Y-69551947D01*
X213032829Y-69644819D01*
X213000305Y-69723525D01*
X212974958Y-69784899D01*
X212958095Y-69825779D01*
X212951025Y-69843000D01*
X212950943Y-69843204D01*
X212936798Y-69857745D01*
X212909659Y-69857579D01*
X212866023Y-69841927D01*
X212802388Y-69810013D01*
X212797379Y-69807326D01*
X212750125Y-69783150D01*
X212712811Y-69766037D01*
X212693133Y-69759543D01*
X212677005Y-69767218D01*
X212640959Y-69788871D01*
X212589092Y-69821928D01*
X212525445Y-69863810D01*
X212454060Y-69911943D01*
X212383724Y-69959131D01*
X212318670Y-70001267D01*
X212264820Y-70034578D01*
X212226374Y-70056469D01*
X212207534Y-70064343D01*
X212204325Y-70063343D01*
X212181954Y-70047584D01*
X212143733Y-70015033D01*
X212093021Y-69968733D01*
X212033181Y-69911726D01*
X211967571Y-69847058D01*
X211750648Y-69629772D01*
X211919601Y-69381253D01*
X212088553Y-69132733D01*
X212037183Y-69021595D01*
X212037031Y-69021266D01*
X212006183Y-68950418D01*
X211974661Y-68871523D01*
X211949266Y-68801600D01*
X211945423Y-68790322D01*
X211926047Y-68737967D01*
X211908574Y-68697283D01*
X211896388Y-68676287D01*
X211891426Y-68673322D01*
X211861634Y-68663375D01*
X211811047Y-68650505D01*
X211745194Y-68636053D01*
X211669600Y-68621355D01*
X211646957Y-68617210D01*
X211565038Y-68602116D01*
X211488600Y-68587899D01*
X211425337Y-68575995D01*
X211382943Y-68567839D01*
X211306743Y-68552799D01*
X211306743Y-68235492D01*
X211306760Y-68196476D01*
X211307082Y-68101292D01*
X211308033Y-68030255D01*
X211309896Y-67979734D01*
X211312955Y-67946098D01*
X211317494Y-67925718D01*
X211323795Y-67914962D01*
X211332143Y-67910199D01*
X211340224Y-67908270D01*
X211373172Y-67901445D01*
X211425736Y-67891022D01*
X211492569Y-67878018D01*
X211568328Y-67863449D01*
X211647665Y-67848333D01*
X211725237Y-67833685D01*
X211795698Y-67820523D01*
X211853702Y-67809863D01*
X211893904Y-67802721D01*
X211910959Y-67800114D01*
X211912112Y-67798541D01*
X211921385Y-67778119D01*
X211937432Y-67739045D01*
X211957635Y-67687629D01*
X211985672Y-67618353D01*
X212020186Y-67538290D01*
X212052538Y-67467728D01*
X212059952Y-67451889D01*
X212080755Y-67402293D01*
X212093219Y-67364038D01*
X212094863Y-67344356D01*
X212094015Y-67342962D01*
X212080548Y-67322420D01*
X212053850Y-67282516D01*
X212016539Y-67227140D01*
X211971234Y-67160177D01*
X211920552Y-67085517D01*
X211863445Y-67000692D01*
X211820607Y-66934800D01*
X211791460Y-66886478D01*
X211774317Y-66852733D01*
X211767495Y-66830572D01*
X211769306Y-66817002D01*
X211769915Y-66815984D01*
X211786297Y-66796210D01*
X211819695Y-66760175D01*
X211866671Y-66711451D01*
X211923786Y-66653612D01*
X211987603Y-66590227D01*
X212053802Y-66525905D01*
X212118648Y-66465447D01*
X212166299Y-66424655D01*
X212197990Y-66402484D01*
X212214958Y-66397889D01*
X212217175Y-66398921D01*
X212240524Y-66412837D01*
X212282912Y-66440030D01*
X212340369Y-66477889D01*
X212408923Y-66523803D01*
X212484601Y-66575160D01*
X212731298Y-66743626D01*
X212842706Y-66693062D01*
X212845943Y-66691597D01*
X212914343Y-66661965D01*
X212986907Y-66632493D01*
X213048457Y-66609358D01*
X213048729Y-66609262D01*
X213097595Y-66591367D01*
X213135212Y-66576253D01*
X213153457Y-66567184D01*
X213153752Y-66566855D01*
X213159946Y-66548282D01*
X213170139Y-66506045D01*
X213183348Y-66444696D01*
X213198590Y-66368789D01*
X213214881Y-66282875D01*
X213215449Y-66279796D01*
X213231713Y-66192128D01*
X213246608Y-66112741D01*
X213259171Y-66046701D01*
X213268438Y-65999079D01*
X213273444Y-65974943D01*
X213273764Y-65973605D01*
X213277060Y-65963273D01*
X213283738Y-65955506D01*
X213297462Y-65949940D01*
X213321895Y-65946207D01*
X213360702Y-65943942D01*
X213417546Y-65942778D01*
X213496090Y-65942348D01*
X213600000Y-65942286D01*
X213613056Y-65942286D01*
X213713933Y-65942371D01*
G37*
X207155406Y-63674949D02*
X207181127Y-63690647D01*
X207207778Y-63712227D01*
X207207778Y-64359684D01*
X207181127Y-64381264D01*
X207149767Y-64398739D01*
X207113966Y-64399575D01*
X207082528Y-64379082D01*
X207078652Y-64374416D01*
X207073186Y-64364949D01*
X207068979Y-64351267D01*
X207065867Y-64330748D01*
X207063687Y-64300768D01*
X207062276Y-64258704D01*
X207061471Y-64201932D01*
X207061107Y-64127830D01*
X207061022Y-64033773D01*
X207061022Y-63712227D01*
X207087673Y-63690647D01*
X207111386Y-63675877D01*
X207134400Y-63669067D01*
X207155406Y-63674949D01*
G36*
X207155406Y-63674949D02*
G01*
X207181127Y-63690647D01*
X207207778Y-63712227D01*
X207207778Y-64359684D01*
X207181127Y-64381264D01*
X207149767Y-64398739D01*
X207113966Y-64399575D01*
X207082528Y-64379082D01*
X207078652Y-64374416D01*
X207073186Y-64364949D01*
X207068979Y-64351267D01*
X207065867Y-64330748D01*
X207063687Y-64300768D01*
X207062276Y-64258704D01*
X207061471Y-64201932D01*
X207061107Y-64127830D01*
X207061022Y-64033773D01*
X207061022Y-63712227D01*
X207087673Y-63690647D01*
X207111386Y-63675877D01*
X207134400Y-63669067D01*
X207155406Y-63674949D01*
G37*
X214286137Y-63673463D02*
X214320291Y-63696776D01*
X214348000Y-63724485D01*
X214348000Y-64037537D01*
X214347959Y-64121567D01*
X214347701Y-64195789D01*
X214347030Y-64252541D01*
X214345752Y-64294512D01*
X214343673Y-64324389D01*
X214340599Y-64344861D01*
X214336334Y-64358614D01*
X214330684Y-64368337D01*
X214323455Y-64376717D01*
X214291991Y-64398181D01*
X214256826Y-64399947D01*
X214223822Y-64380267D01*
X214218516Y-64374398D01*
X214213066Y-64365314D01*
X214208900Y-64351973D01*
X214205846Y-64331757D01*
X214203732Y-64302049D01*
X214202386Y-64260232D01*
X214201638Y-64203689D01*
X214201314Y-64129802D01*
X214201245Y-64035956D01*
X214201284Y-63960294D01*
X214201539Y-63882385D01*
X214202183Y-63822375D01*
X214203387Y-63777648D01*
X214205324Y-63745585D01*
X214208164Y-63723571D01*
X214212079Y-63708987D01*
X214217242Y-63699218D01*
X214223822Y-63691645D01*
X214253006Y-63672623D01*
X214286137Y-63673463D01*
G36*
X214286137Y-63673463D02*
G01*
X214320291Y-63696776D01*
X214348000Y-63724485D01*
X214348000Y-64037537D01*
X214347959Y-64121567D01*
X214347701Y-64195789D01*
X214347030Y-64252541D01*
X214345752Y-64294512D01*
X214343673Y-64324389D01*
X214340599Y-64344861D01*
X214336334Y-64358614D01*
X214330684Y-64368337D01*
X214323455Y-64376717D01*
X214291991Y-64398181D01*
X214256826Y-64399947D01*
X214223822Y-64380267D01*
X214218516Y-64374398D01*
X214213066Y-64365314D01*
X214208900Y-64351973D01*
X214205846Y-64331757D01*
X214203732Y-64302049D01*
X214202386Y-64260232D01*
X214201638Y-64203689D01*
X214201314Y-64129802D01*
X214201245Y-64035956D01*
X214201284Y-63960294D01*
X214201539Y-63882385D01*
X214202183Y-63822375D01*
X214203387Y-63777648D01*
X214205324Y-63745585D01*
X214208164Y-63723571D01*
X214212079Y-63708987D01*
X214217242Y-63699218D01*
X214223822Y-63691645D01*
X214253006Y-63672623D01*
X214286137Y-63673463D01*
G37*
X213754562Y-58432850D02*
X213837313Y-58460053D01*
X213912406Y-58505484D01*
X213984298Y-58571302D01*
X214022846Y-58615567D01*
X214062256Y-58673961D01*
X214087446Y-58734586D01*
X214100861Y-58803865D01*
X214104948Y-58888222D01*
X214104669Y-58934307D01*
X214102460Y-58975450D01*
X214096894Y-59007582D01*
X214086586Y-59038122D01*
X214070148Y-59074489D01*
X214056200Y-59101728D01*
X213997665Y-59187429D01*
X213925619Y-59256617D01*
X213841947Y-59307741D01*
X213748531Y-59339250D01*
X213715434Y-59346225D01*
X213674960Y-59353094D01*
X213641999Y-59354919D01*
X213607698Y-59351947D01*
X213563200Y-59344426D01*
X213511934Y-59332002D01*
X213421434Y-59294112D01*
X213342345Y-59239836D01*
X213276528Y-59171770D01*
X213225840Y-59092511D01*
X213192140Y-59004654D01*
X213177286Y-58910795D01*
X213183136Y-58813530D01*
X213209399Y-58717220D01*
X213254418Y-58628494D01*
X213315373Y-58553419D01*
X213390184Y-58493641D01*
X213476768Y-58450809D01*
X213573043Y-58426571D01*
X213676928Y-58422576D01*
X213754562Y-58432850D01*
G36*
X213754562Y-58432850D02*
G01*
X213837313Y-58460053D01*
X213912406Y-58505484D01*
X213984298Y-58571302D01*
X214022846Y-58615567D01*
X214062256Y-58673961D01*
X214087446Y-58734586D01*
X214100861Y-58803865D01*
X214104948Y-58888222D01*
X214104669Y-58934307D01*
X214102460Y-58975450D01*
X214096894Y-59007582D01*
X214086586Y-59038122D01*
X214070148Y-59074489D01*
X214056200Y-59101728D01*
X213997665Y-59187429D01*
X213925619Y-59256617D01*
X213841947Y-59307741D01*
X213748531Y-59339250D01*
X213715434Y-59346225D01*
X213674960Y-59353094D01*
X213641999Y-59354919D01*
X213607698Y-59351947D01*
X213563200Y-59344426D01*
X213511934Y-59332002D01*
X213421434Y-59294112D01*
X213342345Y-59239836D01*
X213276528Y-59171770D01*
X213225840Y-59092511D01*
X213192140Y-59004654D01*
X213177286Y-58910795D01*
X213183136Y-58813530D01*
X213209399Y-58717220D01*
X213254418Y-58628494D01*
X213315373Y-58553419D01*
X213390184Y-58493641D01*
X213476768Y-58450809D01*
X213573043Y-58426571D01*
X213676928Y-58422576D01*
X213754562Y-58432850D01*
G37*
X206455767Y-63669068D02*
X206549890Y-63669158D01*
X206624405Y-63669498D01*
X206681811Y-63670239D01*
X206724611Y-63671535D01*
X206755304Y-63673537D01*
X206776391Y-63676396D01*
X206790373Y-63680266D01*
X206799750Y-63685298D01*
X206807022Y-63691645D01*
X206825828Y-63724362D01*
X206827275Y-63761939D01*
X206810917Y-63795178D01*
X206809557Y-63796631D01*
X206798354Y-63804992D01*
X206781252Y-63810547D01*
X206754082Y-63813840D01*
X206712678Y-63815418D01*
X206652873Y-63815822D01*
X206513511Y-63815822D01*
X206513511Y-64079589D01*
X206513436Y-64155417D01*
X206513028Y-64222083D01*
X206512046Y-64271867D01*
X206510250Y-64307784D01*
X206507399Y-64332850D01*
X206503253Y-64350081D01*
X206497571Y-64362492D01*
X206490114Y-64373100D01*
X206487824Y-64375906D01*
X206456646Y-64398548D01*
X206422266Y-64400112D01*
X206389334Y-64380267D01*
X206382355Y-64372191D01*
X206376883Y-64361593D01*
X206372863Y-64345749D01*
X206370072Y-64321773D01*
X206368288Y-64286774D01*
X206367289Y-64237864D01*
X206366852Y-64172154D01*
X206366756Y-64086756D01*
X206366756Y-63815822D01*
X206220820Y-63815822D01*
X206209720Y-63815821D01*
X206153202Y-63815596D01*
X206114358Y-63814457D01*
X206088965Y-63811657D01*
X206072804Y-63806450D01*
X206061652Y-63798089D01*
X206051289Y-63785826D01*
X206035441Y-63755138D01*
X206038543Y-63721358D01*
X206064187Y-63688822D01*
X206069129Y-63685105D01*
X206079338Y-63680269D01*
X206094764Y-63676506D01*
X206117886Y-63673683D01*
X206151183Y-63671670D01*
X206197137Y-63670333D01*
X206258228Y-63669542D01*
X206336935Y-63669163D01*
X206435740Y-63669067D01*
X206455767Y-63669068D01*
G36*
X206455767Y-63669068D02*
G01*
X206549890Y-63669158D01*
X206624405Y-63669498D01*
X206681811Y-63670239D01*
X206724611Y-63671535D01*
X206755304Y-63673537D01*
X206776391Y-63676396D01*
X206790373Y-63680266D01*
X206799750Y-63685298D01*
X206807022Y-63691645D01*
X206825828Y-63724362D01*
X206827275Y-63761939D01*
X206810917Y-63795178D01*
X206809557Y-63796631D01*
X206798354Y-63804992D01*
X206781252Y-63810547D01*
X206754082Y-63813840D01*
X206712678Y-63815418D01*
X206652873Y-63815822D01*
X206513511Y-63815822D01*
X206513511Y-64079589D01*
X206513436Y-64155417D01*
X206513028Y-64222083D01*
X206512046Y-64271867D01*
X206510250Y-64307784D01*
X206507399Y-64332850D01*
X206503253Y-64350081D01*
X206497571Y-64362492D01*
X206490114Y-64373100D01*
X206487824Y-64375906D01*
X206456646Y-64398548D01*
X206422266Y-64400112D01*
X206389334Y-64380267D01*
X206382355Y-64372191D01*
X206376883Y-64361593D01*
X206372863Y-64345749D01*
X206370072Y-64321773D01*
X206368288Y-64286774D01*
X206367289Y-64237864D01*
X206366852Y-64172154D01*
X206366756Y-64086756D01*
X206366756Y-63815822D01*
X206220820Y-63815822D01*
X206209720Y-63815821D01*
X206153202Y-63815596D01*
X206114358Y-63814457D01*
X206088965Y-63811657D01*
X206072804Y-63806450D01*
X206061652Y-63798089D01*
X206051289Y-63785826D01*
X206035441Y-63755138D01*
X206038543Y-63721358D01*
X206064187Y-63688822D01*
X206069129Y-63685105D01*
X206079338Y-63680269D01*
X206094764Y-63676506D01*
X206117886Y-63673683D01*
X206151183Y-63671670D01*
X206197137Y-63670333D01*
X206258228Y-63669542D01*
X206336935Y-63669163D01*
X206435740Y-63669067D01*
X206455767Y-63669068D01*
G37*
X205779734Y-63691645D02*
X205785366Y-63697835D01*
X205790456Y-63706041D01*
X205794543Y-63717817D01*
X205797721Y-63735276D01*
X205800087Y-63760530D01*
X205801738Y-63795690D01*
X205802769Y-63842869D01*
X205803277Y-63904177D01*
X205803359Y-63981727D01*
X205803109Y-64077631D01*
X205802625Y-64194000D01*
X205802557Y-64208175D01*
X205801971Y-64269937D01*
X205800648Y-64313620D01*
X205798103Y-64343001D01*
X205793848Y-64361855D01*
X205787396Y-64373959D01*
X205778262Y-64383089D01*
X205744804Y-64400506D01*
X205709856Y-64397604D01*
X205678953Y-64373100D01*
X205669944Y-64359897D01*
X205662492Y-64341361D01*
X205658124Y-64315333D01*
X205656069Y-64276787D01*
X205655556Y-64220700D01*
X205655556Y-64098045D01*
X205158845Y-64098045D01*
X205158845Y-64232871D01*
X205158772Y-64268662D01*
X205158009Y-64314992D01*
X205155833Y-64345526D01*
X205151536Y-64364557D01*
X205144412Y-64376374D01*
X205133755Y-64385271D01*
X205101504Y-64400341D01*
X205066217Y-64397673D01*
X205035486Y-64373100D01*
X205030831Y-64366845D01*
X205024895Y-64356321D01*
X205020364Y-64342391D01*
X205017048Y-64322317D01*
X205014759Y-64293360D01*
X205013308Y-64252780D01*
X205012505Y-64197840D01*
X205012162Y-64125799D01*
X205012089Y-64033920D01*
X205012089Y-63724485D01*
X205039798Y-63696776D01*
X205071177Y-63674533D01*
X205104406Y-63671844D01*
X205136267Y-63691645D01*
X205144553Y-63701415D01*
X205151965Y-63717307D01*
X205156302Y-63741275D01*
X205158338Y-63778148D01*
X205158845Y-63832756D01*
X205158845Y-63951289D01*
X205655556Y-63951289D01*
X205655556Y-63835776D01*
X205655994Y-63784078D01*
X205657958Y-63749554D01*
X205662474Y-63726978D01*
X205670567Y-63711126D01*
X205683265Y-63696776D01*
X205714643Y-63674533D01*
X205747872Y-63671844D01*
X205779734Y-63691645D01*
G36*
X205779734Y-63691645D02*
G01*
X205785366Y-63697835D01*
X205790456Y-63706041D01*
X205794543Y-63717817D01*
X205797721Y-63735276D01*
X205800087Y-63760530D01*
X205801738Y-63795690D01*
X205802769Y-63842869D01*
X205803277Y-63904177D01*
X205803359Y-63981727D01*
X205803109Y-64077631D01*
X205802625Y-64194000D01*
X205802557Y-64208175D01*
X205801971Y-64269937D01*
X205800648Y-64313620D01*
X205798103Y-64343001D01*
X205793848Y-64361855D01*
X205787396Y-64373959D01*
X205778262Y-64383089D01*
X205744804Y-64400506D01*
X205709856Y-64397604D01*
X205678953Y-64373100D01*
X205669944Y-64359897D01*
X205662492Y-64341361D01*
X205658124Y-64315333D01*
X205656069Y-64276787D01*
X205655556Y-64220700D01*
X205655556Y-64098045D01*
X205158845Y-64098045D01*
X205158845Y-64232871D01*
X205158772Y-64268662D01*
X205158009Y-64314992D01*
X205155833Y-64345526D01*
X205151536Y-64364557D01*
X205144412Y-64376374D01*
X205133755Y-64385271D01*
X205101504Y-64400341D01*
X205066217Y-64397673D01*
X205035486Y-64373100D01*
X205030831Y-64366845D01*
X205024895Y-64356321D01*
X205020364Y-64342391D01*
X205017048Y-64322317D01*
X205014759Y-64293360D01*
X205013308Y-64252780D01*
X205012505Y-64197840D01*
X205012162Y-64125799D01*
X205012089Y-64033920D01*
X205012089Y-63724485D01*
X205039798Y-63696776D01*
X205071177Y-63674533D01*
X205104406Y-63671844D01*
X205136267Y-63691645D01*
X205144553Y-63701415D01*
X205151965Y-63717307D01*
X205156302Y-63741275D01*
X205158338Y-63778148D01*
X205158845Y-63832756D01*
X205158845Y-63951289D01*
X205655556Y-63951289D01*
X205655556Y-63835776D01*
X205655994Y-63784078D01*
X205657958Y-63749554D01*
X205662474Y-63726978D01*
X205670567Y-63711126D01*
X205683265Y-63696776D01*
X205714643Y-63674533D01*
X205747872Y-63671844D01*
X205779734Y-63691645D01*
G37*
X210485133Y-64280396D02*
X210483163Y-64313175D01*
X210480235Y-64336095D01*
X210476158Y-64351897D01*
X210470743Y-64363319D01*
X210463803Y-64373100D01*
X210440406Y-64402845D01*
X210274714Y-64402251D01*
X210239918Y-64401953D01*
X210141435Y-64398522D01*
X210060473Y-64390839D01*
X209993379Y-64378282D01*
X209936496Y-64360227D01*
X209886169Y-64336052D01*
X209882810Y-64334135D01*
X209824998Y-64297417D01*
X209782644Y-64260451D01*
X209749828Y-64216966D01*
X209720628Y-64160689D01*
X209716346Y-64151073D01*
X209693769Y-64087887D01*
X209688034Y-64042333D01*
X209837279Y-64042333D01*
X209842892Y-64067061D01*
X209848618Y-64082939D01*
X209881548Y-64142847D01*
X209928886Y-64188600D01*
X209992652Y-64221736D01*
X210074861Y-64243790D01*
X210077655Y-64244292D01*
X210123940Y-64250255D01*
X210180336Y-64254483D01*
X210235274Y-64256089D01*
X210329156Y-64256089D01*
X210329156Y-63815822D01*
X210241667Y-63816270D01*
X210174747Y-63818746D01*
X210082349Y-63829998D01*
X210003034Y-63849537D01*
X209941060Y-63876511D01*
X209910120Y-63897240D01*
X209882000Y-63927006D01*
X209858660Y-63969434D01*
X209851533Y-63985400D01*
X209839709Y-64017902D01*
X209837279Y-64042333D01*
X209688034Y-64042333D01*
X209686797Y-64032509D01*
X209695399Y-63977483D01*
X209719541Y-63915351D01*
X209720337Y-63913658D01*
X209760788Y-63844236D01*
X209811473Y-63787638D01*
X209874198Y-63743070D01*
X209950774Y-63709741D01*
X210043009Y-63686861D01*
X210152712Y-63673636D01*
X210281691Y-63669275D01*
X210285263Y-63669270D01*
X210345283Y-63669410D01*
X210387214Y-63670446D01*
X210415328Y-63673040D01*
X210433897Y-63677853D01*
X210447194Y-63685544D01*
X210459491Y-63696776D01*
X210487200Y-63724485D01*
X210487200Y-64033920D01*
X210487175Y-64095526D01*
X210486950Y-64174311D01*
X210486332Y-64235021D01*
X210485775Y-64256089D01*
X210485133Y-64280396D01*
G36*
X210485133Y-64280396D02*
G01*
X210483163Y-64313175D01*
X210480235Y-64336095D01*
X210476158Y-64351897D01*
X210470743Y-64363319D01*
X210463803Y-64373100D01*
X210440406Y-64402845D01*
X210274714Y-64402251D01*
X210239918Y-64401953D01*
X210141435Y-64398522D01*
X210060473Y-64390839D01*
X209993379Y-64378282D01*
X209936496Y-64360227D01*
X209886169Y-64336052D01*
X209882810Y-64334135D01*
X209824998Y-64297417D01*
X209782644Y-64260451D01*
X209749828Y-64216966D01*
X209720628Y-64160689D01*
X209716346Y-64151073D01*
X209693769Y-64087887D01*
X209688034Y-64042333D01*
X209837279Y-64042333D01*
X209842892Y-64067061D01*
X209848618Y-64082939D01*
X209881548Y-64142847D01*
X209928886Y-64188600D01*
X209992652Y-64221736D01*
X210074861Y-64243790D01*
X210077655Y-64244292D01*
X210123940Y-64250255D01*
X210180336Y-64254483D01*
X210235274Y-64256089D01*
X210329156Y-64256089D01*
X210329156Y-63815822D01*
X210241667Y-63816270D01*
X210174747Y-63818746D01*
X210082349Y-63829998D01*
X210003034Y-63849537D01*
X209941060Y-63876511D01*
X209910120Y-63897240D01*
X209882000Y-63927006D01*
X209858660Y-63969434D01*
X209851533Y-63985400D01*
X209839709Y-64017902D01*
X209837279Y-64042333D01*
X209688034Y-64042333D01*
X209686797Y-64032509D01*
X209695399Y-63977483D01*
X209719541Y-63915351D01*
X209720337Y-63913658D01*
X209760788Y-63844236D01*
X209811473Y-63787638D01*
X209874198Y-63743070D01*
X209950774Y-63709741D01*
X210043009Y-63686861D01*
X210152712Y-63673636D01*
X210281691Y-63669275D01*
X210285263Y-63669270D01*
X210345283Y-63669410D01*
X210387214Y-63670446D01*
X210415328Y-63673040D01*
X210433897Y-63677853D01*
X210447194Y-63685544D01*
X210459491Y-63696776D01*
X210487200Y-63724485D01*
X210487200Y-64033920D01*
X210487175Y-64095526D01*
X210486950Y-64174311D01*
X210486332Y-64235021D01*
X210485775Y-64256089D01*
X210485133Y-64280396D01*
G37*
X217576817Y-63854427D02*
X217576870Y-63935041D01*
X217576622Y-64035956D01*
X217576583Y-64111617D01*
X217576328Y-64189526D01*
X217575684Y-64249536D01*
X217574480Y-64294264D01*
X217572543Y-64326326D01*
X217569703Y-64348340D01*
X217565788Y-64362924D01*
X217560626Y-64372694D01*
X217554045Y-64380267D01*
X217547077Y-64386501D01*
X217534079Y-64393801D01*
X217514931Y-64398554D01*
X217485528Y-64401292D01*
X217441762Y-64402545D01*
X217379528Y-64402845D01*
X217330582Y-64402469D01*
X217223722Y-64398041D01*
X217134494Y-64387953D01*
X217059696Y-64371365D01*
X216996125Y-64347435D01*
X216940579Y-64315321D01*
X216889854Y-64274182D01*
X216883866Y-64268330D01*
X216846999Y-64219821D01*
X216815899Y-64159013D01*
X216794417Y-64094769D01*
X216789136Y-64056026D01*
X216936353Y-64056026D01*
X216954635Y-64106961D01*
X216984305Y-64152878D01*
X217031002Y-64195287D01*
X217092392Y-64225090D01*
X217171538Y-64244226D01*
X217173028Y-64244464D01*
X217221999Y-64250256D01*
X217280693Y-64254396D01*
X217336734Y-64256004D01*
X217429867Y-64256089D01*
X217429867Y-63815822D01*
X217353667Y-63815808D01*
X217350639Y-63815817D01*
X217299519Y-63817782D01*
X217239416Y-63822507D01*
X217182708Y-63829035D01*
X217132750Y-63838331D01*
X217057998Y-63864600D01*
X217000489Y-63903899D01*
X216958988Y-63956933D01*
X216937771Y-64008200D01*
X216936353Y-64056026D01*
X216789136Y-64056026D01*
X216786400Y-64035956D01*
X216787679Y-64014739D01*
X216799991Y-63957323D01*
X216822520Y-63897413D01*
X216851750Y-63843363D01*
X216884167Y-63803532D01*
X216903708Y-63786510D01*
X216958420Y-63747322D01*
X217018723Y-63717193D01*
X217087919Y-63695232D01*
X217169311Y-63680550D01*
X217266200Y-63672259D01*
X217381889Y-63669467D01*
X217421371Y-63669066D01*
X217467082Y-63668653D01*
X217502883Y-63670457D01*
X217529974Y-63676739D01*
X217549556Y-63689759D01*
X217562830Y-63711778D01*
X217570998Y-63745055D01*
X217575260Y-63791851D01*
X217575857Y-63815822D01*
X217576817Y-63854427D01*
G36*
X217576817Y-63854427D02*
G01*
X217576870Y-63935041D01*
X217576622Y-64035956D01*
X217576583Y-64111617D01*
X217576328Y-64189526D01*
X217575684Y-64249536D01*
X217574480Y-64294264D01*
X217572543Y-64326326D01*
X217569703Y-64348340D01*
X217565788Y-64362924D01*
X217560626Y-64372694D01*
X217554045Y-64380267D01*
X217547077Y-64386501D01*
X217534079Y-64393801D01*
X217514931Y-64398554D01*
X217485528Y-64401292D01*
X217441762Y-64402545D01*
X217379528Y-64402845D01*
X217330582Y-64402469D01*
X217223722Y-64398041D01*
X217134494Y-64387953D01*
X217059696Y-64371365D01*
X216996125Y-64347435D01*
X216940579Y-64315321D01*
X216889854Y-64274182D01*
X216883866Y-64268330D01*
X216846999Y-64219821D01*
X216815899Y-64159013D01*
X216794417Y-64094769D01*
X216789136Y-64056026D01*
X216936353Y-64056026D01*
X216954635Y-64106961D01*
X216984305Y-64152878D01*
X217031002Y-64195287D01*
X217092392Y-64225090D01*
X217171538Y-64244226D01*
X217173028Y-64244464D01*
X217221999Y-64250256D01*
X217280693Y-64254396D01*
X217336734Y-64256004D01*
X217429867Y-64256089D01*
X217429867Y-63815822D01*
X217353667Y-63815808D01*
X217350639Y-63815817D01*
X217299519Y-63817782D01*
X217239416Y-63822507D01*
X217182708Y-63829035D01*
X217132750Y-63838331D01*
X217057998Y-63864600D01*
X217000489Y-63903899D01*
X216958988Y-63956933D01*
X216937771Y-64008200D01*
X216936353Y-64056026D01*
X216789136Y-64056026D01*
X216786400Y-64035956D01*
X216787679Y-64014739D01*
X216799991Y-63957323D01*
X216822520Y-63897413D01*
X216851750Y-63843363D01*
X216884167Y-63803532D01*
X216903708Y-63786510D01*
X216958420Y-63747322D01*
X217018723Y-63717193D01*
X217087919Y-63695232D01*
X217169311Y-63680550D01*
X217266200Y-63672259D01*
X217381889Y-63669467D01*
X217421371Y-63669066D01*
X217467082Y-63668653D01*
X217502883Y-63670457D01*
X217529974Y-63676739D01*
X217549556Y-63689759D01*
X217562830Y-63711778D01*
X217570998Y-63745055D01*
X217575260Y-63791851D01*
X217575857Y-63815822D01*
X217576817Y-63854427D01*
G37*
X212631893Y-63667892D02*
X212643301Y-63674029D01*
X212653850Y-63684691D01*
X212665136Y-63698811D01*
X212669589Y-63704772D01*
X212675588Y-63715268D01*
X212680167Y-63729093D01*
X212683519Y-63748998D01*
X212685833Y-63777732D01*
X212687301Y-63818045D01*
X212688113Y-63872687D01*
X212688460Y-63944407D01*
X212688534Y-64035956D01*
X212688511Y-64094486D01*
X212688292Y-64173573D01*
X212687683Y-64234516D01*
X212686492Y-64280062D01*
X212684529Y-64312963D01*
X212681603Y-64335968D01*
X212677523Y-64351826D01*
X212672097Y-64363286D01*
X212665136Y-64373100D01*
X212634708Y-64397493D01*
X212599765Y-64400372D01*
X212562784Y-64381282D01*
X212558600Y-64377807D01*
X212550424Y-64369279D01*
X212544364Y-64357728D01*
X212539981Y-64339896D01*
X212536839Y-64312524D01*
X212534502Y-64272354D01*
X212532531Y-64216128D01*
X212530489Y-64140589D01*
X212524845Y-63921458D01*
X212259556Y-64162099D01*
X212185722Y-64228875D01*
X212120542Y-64286991D01*
X212068348Y-64331949D01*
X212027273Y-64364871D01*
X211995455Y-64386879D01*
X211971026Y-64399094D01*
X211952124Y-64402639D01*
X211936883Y-64398636D01*
X211923439Y-64388207D01*
X211909927Y-64372474D01*
X211903682Y-64363991D01*
X211898050Y-64353413D01*
X211893839Y-64339255D01*
X211890887Y-64318803D01*
X211889032Y-64289342D01*
X211888113Y-64248161D01*
X211887968Y-64192544D01*
X211888435Y-64119779D01*
X211889352Y-64027151D01*
X211892667Y-63712199D01*
X211919318Y-63690633D01*
X211945383Y-63674441D01*
X211978241Y-63671670D01*
X212012772Y-63690623D01*
X212017084Y-63694208D01*
X212025216Y-63702737D01*
X212031245Y-63714329D01*
X212035606Y-63732235D01*
X212038734Y-63759706D01*
X212041063Y-63799994D01*
X212043029Y-63856351D01*
X212045067Y-63932029D01*
X212050711Y-64151878D01*
X212231334Y-63988084D01*
X212318072Y-63909451D01*
X212393843Y-63841058D01*
X212455980Y-63785708D01*
X212506078Y-63742338D01*
X212545735Y-63709881D01*
X212576548Y-63687273D01*
X212600114Y-63673448D01*
X212618030Y-63667343D01*
X212631893Y-63667892D01*
G36*
X212631893Y-63667892D02*
G01*
X212643301Y-63674029D01*
X212653850Y-63684691D01*
X212665136Y-63698811D01*
X212669589Y-63704772D01*
X212675588Y-63715268D01*
X212680167Y-63729093D01*
X212683519Y-63748998D01*
X212685833Y-63777732D01*
X212687301Y-63818045D01*
X212688113Y-63872687D01*
X212688460Y-63944407D01*
X212688534Y-64035956D01*
X212688511Y-64094486D01*
X212688292Y-64173573D01*
X212687683Y-64234516D01*
X212686492Y-64280062D01*
X212684529Y-64312963D01*
X212681603Y-64335968D01*
X212677523Y-64351826D01*
X212672097Y-64363286D01*
X212665136Y-64373100D01*
X212634708Y-64397493D01*
X212599765Y-64400372D01*
X212562784Y-64381282D01*
X212558600Y-64377807D01*
X212550424Y-64369279D01*
X212544364Y-64357728D01*
X212539981Y-64339896D01*
X212536839Y-64312524D01*
X212534502Y-64272354D01*
X212532531Y-64216128D01*
X212530489Y-64140589D01*
X212524845Y-63921458D01*
X212259556Y-64162099D01*
X212185722Y-64228875D01*
X212120542Y-64286991D01*
X212068348Y-64331949D01*
X212027273Y-64364871D01*
X211995455Y-64386879D01*
X211971026Y-64399094D01*
X211952124Y-64402639D01*
X211936883Y-64398636D01*
X211923439Y-64388207D01*
X211909927Y-64372474D01*
X211903682Y-64363991D01*
X211898050Y-64353413D01*
X211893839Y-64339255D01*
X211890887Y-64318803D01*
X211889032Y-64289342D01*
X211888113Y-64248161D01*
X211887968Y-64192544D01*
X211888435Y-64119779D01*
X211889352Y-64027151D01*
X211892667Y-63712199D01*
X211919318Y-63690633D01*
X211945383Y-63674441D01*
X211978241Y-63671670D01*
X212012772Y-63690623D01*
X212017084Y-63694208D01*
X212025216Y-63702737D01*
X212031245Y-63714329D01*
X212035606Y-63732235D01*
X212038734Y-63759706D01*
X212041063Y-63799994D01*
X212043029Y-63856351D01*
X212045067Y-63932029D01*
X212050711Y-64151878D01*
X212231334Y-63988084D01*
X212318072Y-63909451D01*
X212393843Y-63841058D01*
X212455980Y-63785708D01*
X212506078Y-63742338D01*
X212545735Y-63709881D01*
X212576548Y-63687273D01*
X212600114Y-63673448D01*
X212618030Y-63667343D01*
X212631893Y-63667892D01*
G37*
X213429150Y-63674179D02*
X213535157Y-63690494D01*
X213628969Y-63718545D01*
X213707765Y-63757452D01*
X213768719Y-63806334D01*
X213794789Y-63839195D01*
X213824297Y-63888394D01*
X213849568Y-63942252D01*
X213867218Y-63993419D01*
X213873858Y-64034544D01*
X213872298Y-64054259D01*
X213859357Y-64105592D01*
X213836194Y-64162118D01*
X213806302Y-64216035D01*
X213773173Y-64259539D01*
X213762977Y-64269887D01*
X213695892Y-64321662D01*
X213615766Y-64361554D01*
X213529556Y-64385956D01*
X213474592Y-64394068D01*
X213381139Y-64400673D01*
X213291358Y-64398586D01*
X213208869Y-64388340D01*
X213137286Y-64370470D01*
X213080228Y-64345508D01*
X213041311Y-64313988D01*
X213039936Y-64312012D01*
X213032848Y-64286786D01*
X213028609Y-64239535D01*
X213027200Y-64170071D01*
X213028060Y-64107838D01*
X213032780Y-64060456D01*
X213044470Y-64028353D01*
X213066239Y-64008800D01*
X213101198Y-63999070D01*
X213152456Y-63996433D01*
X213223123Y-63998161D01*
X213271743Y-64001173D01*
X213321939Y-64009366D01*
X213354433Y-64023419D01*
X213371892Y-64044654D01*
X213376983Y-64074394D01*
X213376877Y-64078936D01*
X213368175Y-64113730D01*
X213344165Y-64137147D01*
X213302900Y-64150347D01*
X213242431Y-64154489D01*
X213173956Y-64154489D01*
X213173956Y-64192841D01*
X213174006Y-64201976D01*
X213176227Y-64219227D01*
X213185494Y-64229521D01*
X213206875Y-64236459D01*
X213245436Y-64243641D01*
X213250910Y-64244575D01*
X213347860Y-64254478D01*
X213437852Y-64251559D01*
X213518760Y-64236829D01*
X213588459Y-64211299D01*
X213644824Y-64175978D01*
X213685729Y-64131879D01*
X213709051Y-64080012D01*
X213712663Y-64021388D01*
X213707145Y-63992494D01*
X213680461Y-63936604D01*
X213634273Y-63890945D01*
X213569291Y-63856108D01*
X213486229Y-63832690D01*
X213461555Y-63828241D01*
X213372226Y-63817742D01*
X213292419Y-63818971D01*
X213214326Y-63831906D01*
X213179183Y-63838696D01*
X213133745Y-63839713D01*
X213102430Y-63827182D01*
X213082277Y-63800395D01*
X213075893Y-63772148D01*
X213085379Y-63740924D01*
X213094708Y-63727499D01*
X213128943Y-63703967D01*
X213181565Y-63686095D01*
X213250081Y-63674599D01*
X213332000Y-63670192D01*
X213429150Y-63674179D01*
G36*
X213429150Y-63674179D02*
G01*
X213535157Y-63690494D01*
X213628969Y-63718545D01*
X213707765Y-63757452D01*
X213768719Y-63806334D01*
X213794789Y-63839195D01*
X213824297Y-63888394D01*
X213849568Y-63942252D01*
X213867218Y-63993419D01*
X213873858Y-64034544D01*
X213872298Y-64054259D01*
X213859357Y-64105592D01*
X213836194Y-64162118D01*
X213806302Y-64216035D01*
X213773173Y-64259539D01*
X213762977Y-64269887D01*
X213695892Y-64321662D01*
X213615766Y-64361554D01*
X213529556Y-64385956D01*
X213474592Y-64394068D01*
X213381139Y-64400673D01*
X213291358Y-64398586D01*
X213208869Y-64388340D01*
X213137286Y-64370470D01*
X213080228Y-64345508D01*
X213041311Y-64313988D01*
X213039936Y-64312012D01*
X213032848Y-64286786D01*
X213028609Y-64239535D01*
X213027200Y-64170071D01*
X213028060Y-64107838D01*
X213032780Y-64060456D01*
X213044470Y-64028353D01*
X213066239Y-64008800D01*
X213101198Y-63999070D01*
X213152456Y-63996433D01*
X213223123Y-63998161D01*
X213271743Y-64001173D01*
X213321939Y-64009366D01*
X213354433Y-64023419D01*
X213371892Y-64044654D01*
X213376983Y-64074394D01*
X213376877Y-64078936D01*
X213368175Y-64113730D01*
X213344165Y-64137147D01*
X213302900Y-64150347D01*
X213242431Y-64154489D01*
X213173956Y-64154489D01*
X213173956Y-64192841D01*
X213174006Y-64201976D01*
X213176227Y-64219227D01*
X213185494Y-64229521D01*
X213206875Y-64236459D01*
X213245436Y-64243641D01*
X213250910Y-64244575D01*
X213347860Y-64254478D01*
X213437852Y-64251559D01*
X213518760Y-64236829D01*
X213588459Y-64211299D01*
X213644824Y-64175978D01*
X213685729Y-64131879D01*
X213709051Y-64080012D01*
X213712663Y-64021388D01*
X213707145Y-63992494D01*
X213680461Y-63936604D01*
X213634273Y-63890945D01*
X213569291Y-63856108D01*
X213486229Y-63832690D01*
X213461555Y-63828241D01*
X213372226Y-63817742D01*
X213292419Y-63818971D01*
X213214326Y-63831906D01*
X213179183Y-63838696D01*
X213133745Y-63839713D01*
X213102430Y-63827182D01*
X213082277Y-63800395D01*
X213075893Y-63772148D01*
X213085379Y-63740924D01*
X213094708Y-63727499D01*
X213128943Y-63703967D01*
X213181565Y-63686095D01*
X213250081Y-63674599D01*
X213332000Y-63670192D01*
X213429150Y-63674179D01*
G37*
X211479803Y-63698811D02*
X211484752Y-63705495D01*
X211490596Y-63716066D01*
X211495057Y-63730153D01*
X211498321Y-63750478D01*
X211500574Y-63779765D01*
X211502002Y-63820737D01*
X211502792Y-63876117D01*
X211503129Y-63948628D01*
X211503200Y-64040994D01*
X211503171Y-64106911D01*
X211502939Y-64185228D01*
X211502319Y-64245496D01*
X211501126Y-64290393D01*
X211499179Y-64322602D01*
X211496294Y-64344800D01*
X211492288Y-64359669D01*
X211486979Y-64369889D01*
X211480183Y-64378138D01*
X211475668Y-64382795D01*
X211467438Y-64389282D01*
X211456078Y-64394194D01*
X211438810Y-64397749D01*
X211412855Y-64400167D01*
X211375436Y-64401667D01*
X211323773Y-64402467D01*
X211255089Y-64402787D01*
X211166606Y-64402845D01*
X211146931Y-64402838D01*
X211059906Y-64402572D01*
X210992254Y-64401806D01*
X210941299Y-64400392D01*
X210904367Y-64398180D01*
X210878783Y-64395022D01*
X210861871Y-64390769D01*
X210850957Y-64385271D01*
X210840464Y-64375285D01*
X210827203Y-64344168D01*
X210828386Y-64308280D01*
X210844550Y-64276733D01*
X210846739Y-64274457D01*
X210855427Y-64268189D01*
X210868769Y-64263523D01*
X210889752Y-64260227D01*
X210921363Y-64258068D01*
X210966590Y-64256814D01*
X211028420Y-64256231D01*
X211109839Y-64256089D01*
X211356445Y-64256089D01*
X211356445Y-64098045D01*
X211194006Y-64098045D01*
X211158338Y-64097964D01*
X211102568Y-64097167D01*
X211063430Y-64095162D01*
X211036976Y-64091521D01*
X211019259Y-64085812D01*
X211006329Y-64077607D01*
X211002686Y-64074423D01*
X210984278Y-64043448D01*
X210983644Y-64007112D01*
X211001183Y-63973493D01*
X211001245Y-63973424D01*
X211010916Y-63964798D01*
X211024209Y-63958742D01*
X211044917Y-63954811D01*
X211076828Y-63952556D01*
X211123734Y-63951531D01*
X211189424Y-63951289D01*
X211357571Y-63951289D01*
X211354186Y-63886378D01*
X211350800Y-63821467D01*
X211108723Y-63818414D01*
X211083707Y-63818086D01*
X211002087Y-63816606D01*
X210939768Y-63814222D01*
X210894154Y-63810227D01*
X210862652Y-63803913D01*
X210842667Y-63794574D01*
X210831604Y-63781503D01*
X210826869Y-63763992D01*
X210825867Y-63741335D01*
X210825873Y-63738970D01*
X210827027Y-63718939D01*
X210831824Y-63703146D01*
X210842632Y-63691090D01*
X210861817Y-63682267D01*
X210891745Y-63676175D01*
X210934783Y-63672311D01*
X210993299Y-63670174D01*
X211069657Y-63669260D01*
X211166226Y-63669067D01*
X211456406Y-63669067D01*
X211479803Y-63698811D01*
G36*
X211479803Y-63698811D02*
G01*
X211484752Y-63705495D01*
X211490596Y-63716066D01*
X211495057Y-63730153D01*
X211498321Y-63750478D01*
X211500574Y-63779765D01*
X211502002Y-63820737D01*
X211502792Y-63876117D01*
X211503129Y-63948628D01*
X211503200Y-64040994D01*
X211503171Y-64106911D01*
X211502939Y-64185228D01*
X211502319Y-64245496D01*
X211501126Y-64290393D01*
X211499179Y-64322602D01*
X211496294Y-64344800D01*
X211492288Y-64359669D01*
X211486979Y-64369889D01*
X211480183Y-64378138D01*
X211475668Y-64382795D01*
X211467438Y-64389282D01*
X211456078Y-64394194D01*
X211438810Y-64397749D01*
X211412855Y-64400167D01*
X211375436Y-64401667D01*
X211323773Y-64402467D01*
X211255089Y-64402787D01*
X211166606Y-64402845D01*
X211146931Y-64402838D01*
X211059906Y-64402572D01*
X210992254Y-64401806D01*
X210941299Y-64400392D01*
X210904367Y-64398180D01*
X210878783Y-64395022D01*
X210861871Y-64390769D01*
X210850957Y-64385271D01*
X210840464Y-64375285D01*
X210827203Y-64344168D01*
X210828386Y-64308280D01*
X210844550Y-64276733D01*
X210846739Y-64274457D01*
X210855427Y-64268189D01*
X210868769Y-64263523D01*
X210889752Y-64260227D01*
X210921363Y-64258068D01*
X210966590Y-64256814D01*
X211028420Y-64256231D01*
X211109839Y-64256089D01*
X211356445Y-64256089D01*
X211356445Y-64098045D01*
X211194006Y-64098045D01*
X211158338Y-64097964D01*
X211102568Y-64097167D01*
X211063430Y-64095162D01*
X211036976Y-64091521D01*
X211019259Y-64085812D01*
X211006329Y-64077607D01*
X211002686Y-64074423D01*
X210984278Y-64043448D01*
X210983644Y-64007112D01*
X211001183Y-63973493D01*
X211001245Y-63973424D01*
X211010916Y-63964798D01*
X211024209Y-63958742D01*
X211044917Y-63954811D01*
X211076828Y-63952556D01*
X211123734Y-63951531D01*
X211189424Y-63951289D01*
X211357571Y-63951289D01*
X211354186Y-63886378D01*
X211350800Y-63821467D01*
X211108723Y-63818414D01*
X211083707Y-63818086D01*
X211002087Y-63816606D01*
X210939768Y-63814222D01*
X210894154Y-63810227D01*
X210862652Y-63803913D01*
X210842667Y-63794574D01*
X210831604Y-63781503D01*
X210826869Y-63763992D01*
X210825867Y-63741335D01*
X210825873Y-63738970D01*
X210827027Y-63718939D01*
X210831824Y-63703146D01*
X210842632Y-63691090D01*
X210861817Y-63682267D01*
X210891745Y-63676175D01*
X210934783Y-63672311D01*
X210993299Y-63670174D01*
X211069657Y-63669260D01*
X211166226Y-63669067D01*
X211456406Y-63669067D01*
X211479803Y-63698811D01*
G37*
X216156734Y-63669083D02*
X216233831Y-63669275D01*
X216292777Y-63669860D01*
X216336364Y-63671051D01*
X216367383Y-63673064D01*
X216388625Y-63676112D01*
X216402882Y-63680409D01*
X216412945Y-63686172D01*
X216421606Y-63693612D01*
X216423391Y-63695293D01*
X216430635Y-63702832D01*
X216436277Y-63711850D01*
X216440517Y-63724984D01*
X216443556Y-63744872D01*
X216445594Y-63774151D01*
X216446830Y-63815458D01*
X216447465Y-63871431D01*
X216447700Y-63944707D01*
X216447734Y-64037923D01*
X216447697Y-64110713D01*
X216447448Y-64188889D01*
X216446812Y-64249103D01*
X216445615Y-64293982D01*
X216443684Y-64326152D01*
X216440846Y-64348239D01*
X216436927Y-64362870D01*
X216431755Y-64372670D01*
X216425156Y-64380267D01*
X216421822Y-64383444D01*
X216413300Y-64389554D01*
X216401298Y-64394229D01*
X216383087Y-64397659D01*
X216355940Y-64400036D01*
X216317129Y-64401552D01*
X216263924Y-64402398D01*
X216193598Y-64402765D01*
X216103422Y-64402845D01*
X216061314Y-64402833D01*
X215980167Y-64402651D01*
X215917675Y-64402098D01*
X215871109Y-64400982D01*
X215837741Y-64399113D01*
X215814844Y-64396298D01*
X215799688Y-64392346D01*
X215789546Y-64387066D01*
X215781689Y-64380267D01*
X215766963Y-64358667D01*
X215759111Y-64329467D01*
X215764610Y-64305560D01*
X215781689Y-64278667D01*
X215786668Y-64274059D01*
X215796443Y-64267772D01*
X215810559Y-64263146D01*
X215832054Y-64259930D01*
X215863968Y-64257870D01*
X215909342Y-64256712D01*
X215971213Y-64256202D01*
X216052622Y-64256089D01*
X216300978Y-64256089D01*
X216300978Y-64098045D01*
X216139801Y-64098045D01*
X216103983Y-64097899D01*
X216038359Y-64096176D01*
X215991118Y-64091741D01*
X215959383Y-64083637D01*
X215940277Y-64070906D01*
X215930923Y-64052592D01*
X215928445Y-64027738D01*
X215929242Y-64007482D01*
X215934494Y-63985656D01*
X215947288Y-63970304D01*
X215970628Y-63960309D01*
X216007517Y-63954553D01*
X216060959Y-63951919D01*
X216133958Y-63951289D01*
X216302105Y-63951289D01*
X216298719Y-63886378D01*
X216295334Y-63821467D01*
X216047617Y-63818418D01*
X215985026Y-63817539D01*
X215916565Y-63816095D01*
X215865661Y-63814164D01*
X215829408Y-63811514D01*
X215804901Y-63807910D01*
X215789235Y-63803121D01*
X215779506Y-63796913D01*
X215773491Y-63790510D01*
X215760482Y-63758828D01*
X215764043Y-63723142D01*
X215783818Y-63692084D01*
X215787069Y-63689161D01*
X215796049Y-63682810D01*
X215808153Y-63677957D01*
X215826159Y-63674403D01*
X215852847Y-63671946D01*
X215890997Y-63670385D01*
X215943386Y-63669518D01*
X216012794Y-63669146D01*
X216102001Y-63669067D01*
X216156734Y-63669083D01*
G36*
X216156734Y-63669083D02*
G01*
X216233831Y-63669275D01*
X216292777Y-63669860D01*
X216336364Y-63671051D01*
X216367383Y-63673064D01*
X216388625Y-63676112D01*
X216402882Y-63680409D01*
X216412945Y-63686172D01*
X216421606Y-63693612D01*
X216423391Y-63695293D01*
X216430635Y-63702832D01*
X216436277Y-63711850D01*
X216440517Y-63724984D01*
X216443556Y-63744872D01*
X216445594Y-63774151D01*
X216446830Y-63815458D01*
X216447465Y-63871431D01*
X216447700Y-63944707D01*
X216447734Y-64037923D01*
X216447697Y-64110713D01*
X216447448Y-64188889D01*
X216446812Y-64249103D01*
X216445615Y-64293982D01*
X216443684Y-64326152D01*
X216440846Y-64348239D01*
X216436927Y-64362870D01*
X216431755Y-64372670D01*
X216425156Y-64380267D01*
X216421822Y-64383444D01*
X216413300Y-64389554D01*
X216401298Y-64394229D01*
X216383087Y-64397659D01*
X216355940Y-64400036D01*
X216317129Y-64401552D01*
X216263924Y-64402398D01*
X216193598Y-64402765D01*
X216103422Y-64402845D01*
X216061314Y-64402833D01*
X215980167Y-64402651D01*
X215917675Y-64402098D01*
X215871109Y-64400982D01*
X215837741Y-64399113D01*
X215814844Y-64396298D01*
X215799688Y-64392346D01*
X215789546Y-64387066D01*
X215781689Y-64380267D01*
X215766963Y-64358667D01*
X215759111Y-64329467D01*
X215764610Y-64305560D01*
X215781689Y-64278667D01*
X215786668Y-64274059D01*
X215796443Y-64267772D01*
X215810559Y-64263146D01*
X215832054Y-64259930D01*
X215863968Y-64257870D01*
X215909342Y-64256712D01*
X215971213Y-64256202D01*
X216052622Y-64256089D01*
X216300978Y-64256089D01*
X216300978Y-64098045D01*
X216139801Y-64098045D01*
X216103983Y-64097899D01*
X216038359Y-64096176D01*
X215991118Y-64091741D01*
X215959383Y-64083637D01*
X215940277Y-64070906D01*
X215930923Y-64052592D01*
X215928445Y-64027738D01*
X215929242Y-64007482D01*
X215934494Y-63985656D01*
X215947288Y-63970304D01*
X215970628Y-63960309D01*
X216007517Y-63954553D01*
X216060959Y-63951919D01*
X216133958Y-63951289D01*
X216302105Y-63951289D01*
X216298719Y-63886378D01*
X216295334Y-63821467D01*
X216047617Y-63818418D01*
X215985026Y-63817539D01*
X215916565Y-63816095D01*
X215865661Y-63814164D01*
X215829408Y-63811514D01*
X215804901Y-63807910D01*
X215789235Y-63803121D01*
X215779506Y-63796913D01*
X215773491Y-63790510D01*
X215760482Y-63758828D01*
X215764043Y-63723142D01*
X215783818Y-63692084D01*
X215787069Y-63689161D01*
X215796049Y-63682810D01*
X215808153Y-63677957D01*
X215826159Y-63674403D01*
X215852847Y-63671946D01*
X215890997Y-63670385D01*
X215943386Y-63669518D01*
X216012794Y-63669146D01*
X216102001Y-63669067D01*
X216156734Y-63669083D01*
G37*
X207589702Y-63678478D02*
X207607663Y-63696989D01*
X207628263Y-63728071D01*
X207653095Y-63773756D01*
X207683750Y-63836078D01*
X207721820Y-63917071D01*
X207736454Y-63948454D01*
X207766203Y-64011638D01*
X207792297Y-64066244D01*
X207813292Y-64109290D01*
X207827739Y-64137793D01*
X207834191Y-64148770D01*
X207835550Y-64148189D01*
X207845542Y-64134242D01*
X207862833Y-64104704D01*
X207885430Y-64063087D01*
X207911338Y-64012903D01*
X207927311Y-63981414D01*
X207956261Y-63926061D01*
X207978749Y-63887044D01*
X207996965Y-63861566D01*
X208013096Y-63846831D01*
X208029330Y-63840042D01*
X208047857Y-63838400D01*
X208058360Y-63838875D01*
X208074476Y-63843082D01*
X208089790Y-63853946D01*
X208106388Y-63874219D01*
X208126357Y-63906654D01*
X208151783Y-63954004D01*
X208184752Y-64019022D01*
X208194485Y-64038277D01*
X208218943Y-64084946D01*
X208239178Y-64121109D01*
X208253311Y-64143497D01*
X208259460Y-64148845D01*
X208260827Y-64145573D01*
X208270202Y-64124664D01*
X208287062Y-64087725D01*
X208309979Y-64037874D01*
X208337520Y-63978226D01*
X208368255Y-63911898D01*
X208394970Y-63854677D01*
X208424593Y-63792688D01*
X208447664Y-63746949D01*
X208465643Y-63714908D01*
X208479990Y-63694014D01*
X208492166Y-63681718D01*
X208503632Y-63675466D01*
X208513042Y-63672574D01*
X208538147Y-63672425D01*
X208565290Y-63687768D01*
X208566590Y-63688753D01*
X208588674Y-63711388D01*
X208599723Y-63733613D01*
X208599769Y-63734253D01*
X208595228Y-63751915D01*
X208582364Y-63786481D01*
X208562605Y-63834826D01*
X208537381Y-63893825D01*
X208508119Y-63960355D01*
X208476250Y-64031291D01*
X208443201Y-64103507D01*
X208410401Y-64173880D01*
X208379280Y-64239285D01*
X208351265Y-64296597D01*
X208327786Y-64342692D01*
X208310272Y-64374446D01*
X208300151Y-64388733D01*
X208265743Y-64402102D01*
X208224046Y-64395741D01*
X208218681Y-64391044D01*
X208202852Y-64368893D01*
X208180650Y-64332132D01*
X208154233Y-64284415D01*
X208125760Y-64229393D01*
X208045986Y-64070150D01*
X207972799Y-64216742D01*
X207963103Y-64236032D01*
X207936125Y-64288380D01*
X207912096Y-64333170D01*
X207893332Y-64366154D01*
X207882146Y-64383089D01*
X207881000Y-64384332D01*
X207852879Y-64399619D01*
X207817817Y-64401302D01*
X207786776Y-64388733D01*
X207784350Y-64385884D01*
X207772090Y-64365259D01*
X207752352Y-64327708D01*
X207726448Y-64275880D01*
X207695685Y-64212423D01*
X207661375Y-64139985D01*
X207624825Y-64061216D01*
X207604585Y-64017093D01*
X207567812Y-63936365D01*
X207539355Y-63872687D01*
X207518331Y-63823752D01*
X207503854Y-63787257D01*
X207495039Y-63760895D01*
X207491004Y-63742361D01*
X207490862Y-63729352D01*
X207493730Y-63719561D01*
X207508387Y-63698678D01*
X207534990Y-63678377D01*
X207535745Y-63678035D01*
X207555335Y-63671034D01*
X207572790Y-63670504D01*
X207589702Y-63678478D01*
G36*
X207589702Y-63678478D02*
G01*
X207607663Y-63696989D01*
X207628263Y-63728071D01*
X207653095Y-63773756D01*
X207683750Y-63836078D01*
X207721820Y-63917071D01*
X207736454Y-63948454D01*
X207766203Y-64011638D01*
X207792297Y-64066244D01*
X207813292Y-64109290D01*
X207827739Y-64137793D01*
X207834191Y-64148770D01*
X207835550Y-64148189D01*
X207845542Y-64134242D01*
X207862833Y-64104704D01*
X207885430Y-64063087D01*
X207911338Y-64012903D01*
X207927311Y-63981414D01*
X207956261Y-63926061D01*
X207978749Y-63887044D01*
X207996965Y-63861566D01*
X208013096Y-63846831D01*
X208029330Y-63840042D01*
X208047857Y-63838400D01*
X208058360Y-63838875D01*
X208074476Y-63843082D01*
X208089790Y-63853946D01*
X208106388Y-63874219D01*
X208126357Y-63906654D01*
X208151783Y-63954004D01*
X208184752Y-64019022D01*
X208194485Y-64038277D01*
X208218943Y-64084946D01*
X208239178Y-64121109D01*
X208253311Y-64143497D01*
X208259460Y-64148845D01*
X208260827Y-64145573D01*
X208270202Y-64124664D01*
X208287062Y-64087725D01*
X208309979Y-64037874D01*
X208337520Y-63978226D01*
X208368255Y-63911898D01*
X208394970Y-63854677D01*
X208424593Y-63792688D01*
X208447664Y-63746949D01*
X208465643Y-63714908D01*
X208479990Y-63694014D01*
X208492166Y-63681718D01*
X208503632Y-63675466D01*
X208513042Y-63672574D01*
X208538147Y-63672425D01*
X208565290Y-63687768D01*
X208566590Y-63688753D01*
X208588674Y-63711388D01*
X208599723Y-63733613D01*
X208599769Y-63734253D01*
X208595228Y-63751915D01*
X208582364Y-63786481D01*
X208562605Y-63834826D01*
X208537381Y-63893825D01*
X208508119Y-63960355D01*
X208476250Y-64031291D01*
X208443201Y-64103507D01*
X208410401Y-64173880D01*
X208379280Y-64239285D01*
X208351265Y-64296597D01*
X208327786Y-64342692D01*
X208310272Y-64374446D01*
X208300151Y-64388733D01*
X208265743Y-64402102D01*
X208224046Y-64395741D01*
X208218681Y-64391044D01*
X208202852Y-64368893D01*
X208180650Y-64332132D01*
X208154233Y-64284415D01*
X208125760Y-64229393D01*
X208045986Y-64070150D01*
X207972799Y-64216742D01*
X207963103Y-64236032D01*
X207936125Y-64288380D01*
X207912096Y-64333170D01*
X207893332Y-64366154D01*
X207882146Y-64383089D01*
X207881000Y-64384332D01*
X207852879Y-64399619D01*
X207817817Y-64401302D01*
X207786776Y-64388733D01*
X207784350Y-64385884D01*
X207772090Y-64365259D01*
X207752352Y-64327708D01*
X207726448Y-64275880D01*
X207695685Y-64212423D01*
X207661375Y-64139985D01*
X207624825Y-64061216D01*
X207604585Y-64017093D01*
X207567812Y-63936365D01*
X207539355Y-63872687D01*
X207518331Y-63823752D01*
X207503854Y-63787257D01*
X207495039Y-63760895D01*
X207491004Y-63742361D01*
X207490862Y-63729352D01*
X207493730Y-63719561D01*
X207508387Y-63698678D01*
X207534990Y-63678377D01*
X207535745Y-63678035D01*
X207555335Y-63671034D01*
X207572790Y-63670504D01*
X207589702Y-63678478D01*
G37*
X215140853Y-63669936D02*
X215207100Y-63675366D01*
X215262400Y-63684964D01*
X215313283Y-63699825D01*
X215384595Y-63732958D01*
X215435752Y-63775640D01*
X215466575Y-63827705D01*
X215476889Y-63888983D01*
X215475952Y-63920232D01*
X215470160Y-63945029D01*
X215455353Y-63966699D01*
X215427380Y-63994049D01*
X215419402Y-64001378D01*
X215395692Y-64022281D01*
X215373298Y-64039251D01*
X215349265Y-64053205D01*
X215320637Y-64065056D01*
X215284460Y-64075720D01*
X215237780Y-64086111D01*
X215177641Y-64097146D01*
X215101090Y-64109738D01*
X215005171Y-64124804D01*
X214986808Y-64127838D01*
X214924478Y-64141458D01*
X214879260Y-64157192D01*
X214852976Y-64174263D01*
X214847447Y-64191897D01*
X214850068Y-64196168D01*
X214868000Y-64211233D01*
X214896126Y-64227867D01*
X214908926Y-64233857D01*
X214930224Y-64241050D01*
X214956610Y-64245827D01*
X214992454Y-64248646D01*
X215042128Y-64249964D01*
X215110000Y-64250237D01*
X215127785Y-64250164D01*
X215195406Y-64249053D01*
X215260345Y-64246828D01*
X215315970Y-64243762D01*
X215355651Y-64240127D01*
X215391162Y-64236059D01*
X215420415Y-64235276D01*
X215439315Y-64239876D01*
X215454429Y-64250551D01*
X215458085Y-64254144D01*
X215474427Y-64285918D01*
X215473107Y-64321572D01*
X215454150Y-64352190D01*
X215433780Y-64363796D01*
X215397796Y-64376491D01*
X215355372Y-64386541D01*
X215351922Y-64387140D01*
X215309252Y-64392356D01*
X215251866Y-64396730D01*
X215186849Y-64399818D01*
X215121289Y-64401177D01*
X215105057Y-64401218D01*
X215006744Y-64398741D01*
X214926692Y-64390735D01*
X214861513Y-64376203D01*
X214807817Y-64354149D01*
X214762216Y-64323576D01*
X214721323Y-64283486D01*
X214701202Y-64257259D01*
X214689576Y-64227712D01*
X214686667Y-64187995D01*
X214686808Y-64176026D01*
X214690681Y-64143345D01*
X214703065Y-64116819D01*
X214728230Y-64085971D01*
X214749442Y-64063831D01*
X214775838Y-64041285D01*
X214805555Y-64022917D01*
X214841785Y-64007661D01*
X214887717Y-63994449D01*
X214946544Y-63982214D01*
X215021456Y-63969889D01*
X215115645Y-63956406D01*
X215160957Y-63949396D01*
X215228911Y-63934837D01*
X215278047Y-63918337D01*
X215307614Y-63900439D01*
X215316864Y-63881685D01*
X215305048Y-63862615D01*
X215271416Y-63843771D01*
X215268370Y-63842557D01*
X215222011Y-63830479D01*
X215159361Y-63822279D01*
X215085927Y-63818119D01*
X215007217Y-63818161D01*
X214928739Y-63822569D01*
X214856000Y-63831505D01*
X214852073Y-63832154D01*
X214803257Y-63839861D01*
X214771005Y-63843473D01*
X214750008Y-63842876D01*
X214734954Y-63837954D01*
X214720534Y-63828596D01*
X214719364Y-63827725D01*
X214694847Y-63797351D01*
X214690054Y-63761850D01*
X214705860Y-63727269D01*
X214710406Y-63722813D01*
X214740020Y-63707673D01*
X214787002Y-63694550D01*
X214847306Y-63683750D01*
X214916888Y-63675581D01*
X214991703Y-63670351D01*
X215067706Y-63668367D01*
X215140853Y-63669936D01*
G36*
X215140853Y-63669936D02*
G01*
X215207100Y-63675366D01*
X215262400Y-63684964D01*
X215313283Y-63699825D01*
X215384595Y-63732958D01*
X215435752Y-63775640D01*
X215466575Y-63827705D01*
X215476889Y-63888983D01*
X215475952Y-63920232D01*
X215470160Y-63945029D01*
X215455353Y-63966699D01*
X215427380Y-63994049D01*
X215419402Y-64001378D01*
X215395692Y-64022281D01*
X215373298Y-64039251D01*
X215349265Y-64053205D01*
X215320637Y-64065056D01*
X215284460Y-64075720D01*
X215237780Y-64086111D01*
X215177641Y-64097146D01*
X215101090Y-64109738D01*
X215005171Y-64124804D01*
X214986808Y-64127838D01*
X214924478Y-64141458D01*
X214879260Y-64157192D01*
X214852976Y-64174263D01*
X214847447Y-64191897D01*
X214850068Y-64196168D01*
X214868000Y-64211233D01*
X214896126Y-64227867D01*
X214908926Y-64233857D01*
X214930224Y-64241050D01*
X214956610Y-64245827D01*
X214992454Y-64248646D01*
X215042128Y-64249964D01*
X215110000Y-64250237D01*
X215127785Y-64250164D01*
X215195406Y-64249053D01*
X215260345Y-64246828D01*
X215315970Y-64243762D01*
X215355651Y-64240127D01*
X215391162Y-64236059D01*
X215420415Y-64235276D01*
X215439315Y-64239876D01*
X215454429Y-64250551D01*
X215458085Y-64254144D01*
X215474427Y-64285918D01*
X215473107Y-64321572D01*
X215454150Y-64352190D01*
X215433780Y-64363796D01*
X215397796Y-64376491D01*
X215355372Y-64386541D01*
X215351922Y-64387140D01*
X215309252Y-64392356D01*
X215251866Y-64396730D01*
X215186849Y-64399818D01*
X215121289Y-64401177D01*
X215105057Y-64401218D01*
X215006744Y-64398741D01*
X214926692Y-64390735D01*
X214861513Y-64376203D01*
X214807817Y-64354149D01*
X214762216Y-64323576D01*
X214721323Y-64283486D01*
X214701202Y-64257259D01*
X214689576Y-64227712D01*
X214686667Y-64187995D01*
X214686808Y-64176026D01*
X214690681Y-64143345D01*
X214703065Y-64116819D01*
X214728230Y-64085971D01*
X214749442Y-64063831D01*
X214775838Y-64041285D01*
X214805555Y-64022917D01*
X214841785Y-64007661D01*
X214887717Y-63994449D01*
X214946544Y-63982214D01*
X215021456Y-63969889D01*
X215115645Y-63956406D01*
X215160957Y-63949396D01*
X215228911Y-63934837D01*
X215278047Y-63918337D01*
X215307614Y-63900439D01*
X215316864Y-63881685D01*
X215305048Y-63862615D01*
X215271416Y-63843771D01*
X215268370Y-63842557D01*
X215222011Y-63830479D01*
X215159361Y-63822279D01*
X215085927Y-63818119D01*
X215007217Y-63818161D01*
X214928739Y-63822569D01*
X214856000Y-63831505D01*
X214852073Y-63832154D01*
X214803257Y-63839861D01*
X214771005Y-63843473D01*
X214750008Y-63842876D01*
X214734954Y-63837954D01*
X214720534Y-63828596D01*
X214719364Y-63827725D01*
X214694847Y-63797351D01*
X214690054Y-63761850D01*
X214705860Y-63727269D01*
X214710406Y-63722813D01*
X214740020Y-63707673D01*
X214787002Y-63694550D01*
X214847306Y-63683750D01*
X214916888Y-63675581D01*
X214991703Y-63670351D01*
X215067706Y-63668367D01*
X215140853Y-63669936D01*
G37*
X211288711Y-59362033D02*
X211384268Y-59379523D01*
X211548558Y-59424564D01*
X211702589Y-59487656D01*
X211848509Y-59569915D01*
X211988466Y-59672457D01*
X212124608Y-59796399D01*
X212168473Y-59841661D01*
X212280758Y-59973865D01*
X212373972Y-60111832D01*
X212450719Y-60259750D01*
X212513603Y-60421803D01*
X212517420Y-60433391D01*
X212567507Y-60619392D01*
X212600899Y-60815521D01*
X212617584Y-61017568D01*
X212617551Y-61221325D01*
X212600791Y-61422581D01*
X212567292Y-61617128D01*
X212517044Y-61800756D01*
X212473190Y-61918053D01*
X212395348Y-62080951D01*
X212301828Y-62234866D01*
X212194822Y-62376671D01*
X212076519Y-62503239D01*
X211949111Y-62611441D01*
X211871606Y-62664120D01*
X211744725Y-62733750D01*
X211607243Y-62792468D01*
X211465716Y-62837587D01*
X211326702Y-62866422D01*
X211312597Y-62868106D01*
X211269153Y-62871434D01*
X211211723Y-62874275D01*
X211146122Y-62876373D01*
X211078167Y-62877468D01*
X210951378Y-62875140D01*
X210803673Y-62862136D01*
X210665779Y-62837133D01*
X210532014Y-62799318D01*
X210508562Y-62790889D01*
X210460612Y-62771408D01*
X210404140Y-62746473D01*
X210342379Y-62717722D01*
X210278563Y-62686790D01*
X210215926Y-62655315D01*
X210157703Y-62624934D01*
X210107127Y-62597283D01*
X210067433Y-62573999D01*
X210041854Y-62556718D01*
X210033625Y-62547079D01*
X210035076Y-62543984D01*
X210046250Y-62524079D01*
X210067134Y-62488420D01*
X210096265Y-62439459D01*
X210132181Y-62379646D01*
X210173420Y-62311433D01*
X210218517Y-62237271D01*
X210399785Y-61940008D01*
X210446315Y-61984539D01*
X210537723Y-62062865D01*
X210651334Y-62137439D01*
X210769122Y-62191474D01*
X210889559Y-62224290D01*
X211011117Y-62235211D01*
X211052585Y-62233868D01*
X211170080Y-62215612D01*
X211280089Y-62176617D01*
X211381430Y-62117670D01*
X211472921Y-62039557D01*
X211553380Y-61943064D01*
X211621627Y-61828978D01*
X211637908Y-61794724D01*
X211683982Y-61671240D01*
X211719106Y-61532918D01*
X211743197Y-61383561D01*
X211756173Y-61226973D01*
X211757949Y-61066956D01*
X211748443Y-60907314D01*
X211727572Y-60751850D01*
X211695252Y-60604366D01*
X211651399Y-60468667D01*
X211613982Y-60382076D01*
X211549185Y-60268688D01*
X211473772Y-60175070D01*
X211387418Y-60100959D01*
X211289795Y-60046094D01*
X211180577Y-60010212D01*
X211059439Y-59993051D01*
X210990038Y-59991880D01*
X210867168Y-60006141D01*
X210751664Y-60041241D01*
X210644953Y-60096682D01*
X210548464Y-60171964D01*
X210532720Y-60186440D01*
X210502150Y-60212962D01*
X210479809Y-60230138D01*
X210469691Y-60234787D01*
X210467706Y-60232597D01*
X210453241Y-60213721D01*
X210429400Y-60180397D01*
X210398029Y-60135380D01*
X210360974Y-60081425D01*
X210320083Y-60021285D01*
X210277202Y-59957718D01*
X210234178Y-59893476D01*
X210192857Y-59831315D01*
X210155086Y-59773991D01*
X210122712Y-59724257D01*
X210097582Y-59684868D01*
X210081542Y-59658580D01*
X210076439Y-59648147D01*
X210081050Y-59643941D01*
X210100267Y-59638933D01*
X210109838Y-59636386D01*
X210137809Y-59625249D01*
X210179448Y-59606802D01*
X210230995Y-59582725D01*
X210288690Y-59554699D01*
X210299957Y-59549154D01*
X210477687Y-59469889D01*
X210647490Y-59410385D01*
X210811430Y-59370245D01*
X210971571Y-59349071D01*
X211129977Y-59346466D01*
X211288711Y-59362033D01*
G36*
X211288711Y-59362033D02*
G01*
X211384268Y-59379523D01*
X211548558Y-59424564D01*
X211702589Y-59487656D01*
X211848509Y-59569915D01*
X211988466Y-59672457D01*
X212124608Y-59796399D01*
X212168473Y-59841661D01*
X212280758Y-59973865D01*
X212373972Y-60111832D01*
X212450719Y-60259750D01*
X212513603Y-60421803D01*
X212517420Y-60433391D01*
X212567507Y-60619392D01*
X212600899Y-60815521D01*
X212617584Y-61017568D01*
X212617551Y-61221325D01*
X212600791Y-61422581D01*
X212567292Y-61617128D01*
X212517044Y-61800756D01*
X212473190Y-61918053D01*
X212395348Y-62080951D01*
X212301828Y-62234866D01*
X212194822Y-62376671D01*
X212076519Y-62503239D01*
X211949111Y-62611441D01*
X211871606Y-62664120D01*
X211744725Y-62733750D01*
X211607243Y-62792468D01*
X211465716Y-62837587D01*
X211326702Y-62866422D01*
X211312597Y-62868106D01*
X211269153Y-62871434D01*
X211211723Y-62874275D01*
X211146122Y-62876373D01*
X211078167Y-62877468D01*
X210951378Y-62875140D01*
X210803673Y-62862136D01*
X210665779Y-62837133D01*
X210532014Y-62799318D01*
X210508562Y-62790889D01*
X210460612Y-62771408D01*
X210404140Y-62746473D01*
X210342379Y-62717722D01*
X210278563Y-62686790D01*
X210215926Y-62655315D01*
X210157703Y-62624934D01*
X210107127Y-62597283D01*
X210067433Y-62573999D01*
X210041854Y-62556718D01*
X210033625Y-62547079D01*
X210035076Y-62543984D01*
X210046250Y-62524079D01*
X210067134Y-62488420D01*
X210096265Y-62439459D01*
X210132181Y-62379646D01*
X210173420Y-62311433D01*
X210218517Y-62237271D01*
X210399785Y-61940008D01*
X210446315Y-61984539D01*
X210537723Y-62062865D01*
X210651334Y-62137439D01*
X210769122Y-62191474D01*
X210889559Y-62224290D01*
X211011117Y-62235211D01*
X211052585Y-62233868D01*
X211170080Y-62215612D01*
X211280089Y-62176617D01*
X211381430Y-62117670D01*
X211472921Y-62039557D01*
X211553380Y-61943064D01*
X211621627Y-61828978D01*
X211637908Y-61794724D01*
X211683982Y-61671240D01*
X211719106Y-61532918D01*
X211743197Y-61383561D01*
X211756173Y-61226973D01*
X211757949Y-61066956D01*
X211748443Y-60907314D01*
X211727572Y-60751850D01*
X211695252Y-60604366D01*
X211651399Y-60468667D01*
X211613982Y-60382076D01*
X211549185Y-60268688D01*
X211473772Y-60175070D01*
X211387418Y-60100959D01*
X211289795Y-60046094D01*
X211180577Y-60010212D01*
X211059439Y-59993051D01*
X210990038Y-59991880D01*
X210867168Y-60006141D01*
X210751664Y-60041241D01*
X210644953Y-60096682D01*
X210548464Y-60171964D01*
X210532720Y-60186440D01*
X210502150Y-60212962D01*
X210479809Y-60230138D01*
X210469691Y-60234787D01*
X210467706Y-60232597D01*
X210453241Y-60213721D01*
X210429400Y-60180397D01*
X210398029Y-60135380D01*
X210360974Y-60081425D01*
X210320083Y-60021285D01*
X210277202Y-59957718D01*
X210234178Y-59893476D01*
X210192857Y-59831315D01*
X210155086Y-59773991D01*
X210122712Y-59724257D01*
X210097582Y-59684868D01*
X210081542Y-59658580D01*
X210076439Y-59648147D01*
X210081050Y-59643941D01*
X210100267Y-59638933D01*
X210109838Y-59636386D01*
X210137809Y-59625249D01*
X210179448Y-59606802D01*
X210230995Y-59582725D01*
X210288690Y-59554699D01*
X210299957Y-59549154D01*
X210477687Y-59469889D01*
X210647490Y-59410385D01*
X210811430Y-59370245D01*
X210971571Y-59349071D01*
X211129977Y-59346466D01*
X211288711Y-59362033D01*
G37*
X207485994Y-61642711D02*
X207485268Y-61720158D01*
X207476689Y-61871594D01*
X207457833Y-62008283D01*
X207427837Y-62134276D01*
X207385836Y-62253625D01*
X207330969Y-62370381D01*
X207264167Y-62481179D01*
X207173363Y-62594739D01*
X207069708Y-62690211D01*
X206953887Y-62767073D01*
X206826586Y-62824797D01*
X206688489Y-62862858D01*
X206650793Y-62868666D01*
X206571752Y-62874396D01*
X206483629Y-62874583D01*
X206394236Y-62869539D01*
X206311384Y-62859578D01*
X206242887Y-62845012D01*
X206212035Y-62835364D01*
X206134730Y-62805123D01*
X206057679Y-62767617D01*
X205988200Y-62726614D01*
X205933615Y-62685879D01*
X205910916Y-62666505D01*
X205888201Y-62648662D01*
X205876779Y-62641778D01*
X205875537Y-62643424D01*
X205872728Y-62661205D01*
X205870776Y-62694370D01*
X205870045Y-62737733D01*
X205870045Y-62833689D01*
X205011896Y-62833689D01*
X205046161Y-62772974D01*
X205051355Y-62763868D01*
X205059715Y-62749249D01*
X205067288Y-62735173D01*
X205074112Y-62720540D01*
X205080227Y-62704249D01*
X205085673Y-62685198D01*
X205090487Y-62662286D01*
X205094708Y-62634413D01*
X205098377Y-62600478D01*
X205101531Y-62559379D01*
X205104211Y-62510015D01*
X205106454Y-62451286D01*
X205108299Y-62382090D01*
X205109787Y-62301326D01*
X205110955Y-62207894D01*
X205111844Y-62100692D01*
X205112491Y-61978620D01*
X205112936Y-61840576D01*
X205113218Y-61685459D01*
X205113375Y-61512168D01*
X205113448Y-61319603D01*
X205113474Y-61106662D01*
X205113485Y-60970530D01*
X205915200Y-60970530D01*
X205915200Y-62120721D01*
X205985756Y-62167089D01*
X206026417Y-62190791D01*
X206080546Y-62216639D01*
X206129689Y-62234829D01*
X206193165Y-62250551D01*
X206289331Y-62261541D01*
X206373900Y-62253365D01*
X206447219Y-62225805D01*
X206509637Y-62178642D01*
X206561502Y-62111658D01*
X206603160Y-62024633D01*
X206634962Y-61917350D01*
X206637545Y-61905009D01*
X206646000Y-61843772D01*
X206651663Y-61766692D01*
X206654576Y-61679002D01*
X206654783Y-61585934D01*
X206652330Y-61492720D01*
X206647261Y-61404594D01*
X206639619Y-61326788D01*
X206629448Y-61264533D01*
X206628167Y-61258666D01*
X206599126Y-61148121D01*
X206564610Y-61057575D01*
X206523456Y-60984953D01*
X206474499Y-60928181D01*
X206416574Y-60885184D01*
X206384620Y-60869615D01*
X206311784Y-60850722D01*
X206230443Y-60847465D01*
X206145319Y-60859389D01*
X206061133Y-60886040D01*
X205982608Y-60926962D01*
X205915200Y-60970530D01*
X205113485Y-60970530D01*
X205113493Y-60872245D01*
X205113689Y-59187378D01*
X206019017Y-59187378D01*
X205994585Y-59224067D01*
X205988318Y-59233647D01*
X205962208Y-59279981D01*
X205944469Y-59327102D01*
X205932908Y-59382251D01*
X205925331Y-59452667D01*
X205924839Y-59459650D01*
X205923062Y-59497641D01*
X205921444Y-59551576D01*
X205919999Y-59618703D01*
X205918740Y-59696271D01*
X205917680Y-59781528D01*
X205916829Y-59871724D01*
X205916203Y-59964107D01*
X205915812Y-60055925D01*
X205915670Y-60144427D01*
X205915790Y-60226862D01*
X205916183Y-60300479D01*
X205916862Y-60362526D01*
X205917841Y-60410251D01*
X205919132Y-60440904D01*
X205920747Y-60451733D01*
X205928957Y-60447333D01*
X205950647Y-60432362D01*
X205980014Y-60410448D01*
X206028879Y-60376236D01*
X206117125Y-60329714D01*
X206215916Y-60296046D01*
X206328510Y-60274231D01*
X206458164Y-60263265D01*
X206550670Y-60262219D01*
X206672011Y-60272014D01*
X206782099Y-60296174D01*
X206885389Y-60335785D01*
X206986338Y-60391932D01*
X207031503Y-60422883D01*
X207136911Y-60514115D01*
X207228538Y-60623106D01*
X207306332Y-60749726D01*
X207370241Y-60893845D01*
X207420214Y-61055332D01*
X207456198Y-61234059D01*
X207478143Y-61429895D01*
X207483900Y-61585934D01*
X207485994Y-61642711D01*
G36*
X207485994Y-61642711D02*
G01*
X207485268Y-61720158D01*
X207476689Y-61871594D01*
X207457833Y-62008283D01*
X207427837Y-62134276D01*
X207385836Y-62253625D01*
X207330969Y-62370381D01*
X207264167Y-62481179D01*
X207173363Y-62594739D01*
X207069708Y-62690211D01*
X206953887Y-62767073D01*
X206826586Y-62824797D01*
X206688489Y-62862858D01*
X206650793Y-62868666D01*
X206571752Y-62874396D01*
X206483629Y-62874583D01*
X206394236Y-62869539D01*
X206311384Y-62859578D01*
X206242887Y-62845012D01*
X206212035Y-62835364D01*
X206134730Y-62805123D01*
X206057679Y-62767617D01*
X205988200Y-62726614D01*
X205933615Y-62685879D01*
X205910916Y-62666505D01*
X205888201Y-62648662D01*
X205876779Y-62641778D01*
X205875537Y-62643424D01*
X205872728Y-62661205D01*
X205870776Y-62694370D01*
X205870045Y-62737733D01*
X205870045Y-62833689D01*
X205011896Y-62833689D01*
X205046161Y-62772974D01*
X205051355Y-62763868D01*
X205059715Y-62749249D01*
X205067288Y-62735173D01*
X205074112Y-62720540D01*
X205080227Y-62704249D01*
X205085673Y-62685198D01*
X205090487Y-62662286D01*
X205094708Y-62634413D01*
X205098377Y-62600478D01*
X205101531Y-62559379D01*
X205104211Y-62510015D01*
X205106454Y-62451286D01*
X205108299Y-62382090D01*
X205109787Y-62301326D01*
X205110955Y-62207894D01*
X205111844Y-62100692D01*
X205112491Y-61978620D01*
X205112936Y-61840576D01*
X205113218Y-61685459D01*
X205113375Y-61512168D01*
X205113448Y-61319603D01*
X205113474Y-61106662D01*
X205113485Y-60970530D01*
X205915200Y-60970530D01*
X205915200Y-62120721D01*
X205985756Y-62167089D01*
X206026417Y-62190791D01*
X206080546Y-62216639D01*
X206129689Y-62234829D01*
X206193165Y-62250551D01*
X206289331Y-62261541D01*
X206373900Y-62253365D01*
X206447219Y-62225805D01*
X206509637Y-62178642D01*
X206561502Y-62111658D01*
X206603160Y-62024633D01*
X206634962Y-61917350D01*
X206637545Y-61905009D01*
X206646000Y-61843772D01*
X206651663Y-61766692D01*
X206654576Y-61679002D01*
X206654783Y-61585934D01*
X206652330Y-61492720D01*
X206647261Y-61404594D01*
X206639619Y-61326788D01*
X206629448Y-61264533D01*
X206628167Y-61258666D01*
X206599126Y-61148121D01*
X206564610Y-61057575D01*
X206523456Y-60984953D01*
X206474499Y-60928181D01*
X206416574Y-60885184D01*
X206384620Y-60869615D01*
X206311784Y-60850722D01*
X206230443Y-60847465D01*
X206145319Y-60859389D01*
X206061133Y-60886040D01*
X205982608Y-60926962D01*
X205915200Y-60970530D01*
X205113485Y-60970530D01*
X205113493Y-60872245D01*
X205113689Y-59187378D01*
X206019017Y-59187378D01*
X205994585Y-59224067D01*
X205988318Y-59233647D01*
X205962208Y-59279981D01*
X205944469Y-59327102D01*
X205932908Y-59382251D01*
X205925331Y-59452667D01*
X205924839Y-59459650D01*
X205923062Y-59497641D01*
X205921444Y-59551576D01*
X205919999Y-59618703D01*
X205918740Y-59696271D01*
X205917680Y-59781528D01*
X205916829Y-59871724D01*
X205916203Y-59964107D01*
X205915812Y-60055925D01*
X205915670Y-60144427D01*
X205915790Y-60226862D01*
X205916183Y-60300479D01*
X205916862Y-60362526D01*
X205917841Y-60410251D01*
X205919132Y-60440904D01*
X205920747Y-60451733D01*
X205928957Y-60447333D01*
X205950647Y-60432362D01*
X205980014Y-60410448D01*
X206028879Y-60376236D01*
X206117125Y-60329714D01*
X206215916Y-60296046D01*
X206328510Y-60274231D01*
X206458164Y-60263265D01*
X206550670Y-60262219D01*
X206672011Y-60272014D01*
X206782099Y-60296174D01*
X206885389Y-60335785D01*
X206986338Y-60391932D01*
X207031503Y-60422883D01*
X207136911Y-60514115D01*
X207228538Y-60623106D01*
X207306332Y-60749726D01*
X207370241Y-60893845D01*
X207420214Y-61055332D01*
X207456198Y-61234059D01*
X207478143Y-61429895D01*
X207483900Y-61585934D01*
X207485994Y-61642711D01*
G37*
X210027755Y-62043467D02*
X210027261Y-62077363D01*
X210023632Y-62152202D01*
X210016022Y-62214401D01*
X210003688Y-62270984D01*
X209959313Y-62397076D01*
X209896400Y-62511679D01*
X209816238Y-62612568D01*
X209719740Y-62698924D01*
X209607822Y-62769932D01*
X209481397Y-62824776D01*
X209341378Y-62862638D01*
X209305149Y-62868351D01*
X209226155Y-62874313D01*
X209137841Y-62874646D01*
X209048075Y-62869659D01*
X208964722Y-62859666D01*
X208895651Y-62844978D01*
X208809187Y-62814749D01*
X208699286Y-62760057D01*
X208601956Y-62692543D01*
X208539867Y-62641556D01*
X208536605Y-62737622D01*
X208533343Y-62833689D01*
X208110450Y-62833689D01*
X208099543Y-62833686D01*
X208005056Y-62833380D01*
X207918331Y-62832616D01*
X207841837Y-62831451D01*
X207778043Y-62829942D01*
X207729418Y-62828147D01*
X207698433Y-62826121D01*
X207687556Y-62823922D01*
X207687578Y-62823463D01*
X207694614Y-62807910D01*
X207710434Y-62785071D01*
X207714734Y-62779638D01*
X207725777Y-62765606D01*
X207735311Y-62752186D01*
X207743461Y-62737722D01*
X207750352Y-62720556D01*
X207756111Y-62699034D01*
X207760862Y-62671498D01*
X207764731Y-62636292D01*
X207767844Y-62591760D01*
X207770325Y-62536246D01*
X207772300Y-62468093D01*
X207773894Y-62385645D01*
X207775234Y-62287246D01*
X207776444Y-62171239D01*
X207777649Y-62035968D01*
X207778595Y-61924586D01*
X208579378Y-61924586D01*
X208579378Y-62120462D01*
X208624048Y-62176973D01*
X208636785Y-62192212D01*
X208683604Y-62234844D01*
X208744255Y-62270672D01*
X208754897Y-62275850D01*
X208793676Y-62292745D01*
X208828692Y-62302909D01*
X208868722Y-62308325D01*
X208922541Y-62310978D01*
X208940648Y-62311383D01*
X209016011Y-62308540D01*
X209076743Y-62296620D01*
X209128452Y-62274037D01*
X209176746Y-62239211D01*
X209181803Y-62234798D01*
X209230272Y-62179160D01*
X209258459Y-62115333D01*
X209267752Y-62040282D01*
X209260520Y-61968693D01*
X209235796Y-61905645D01*
X209191249Y-61847758D01*
X209136319Y-61800808D01*
X209063894Y-61760961D01*
X208977340Y-61733263D01*
X208874670Y-61717096D01*
X208753894Y-61711842D01*
X208745007Y-61711857D01*
X208689660Y-61712655D01*
X208642736Y-61714488D01*
X208608953Y-61717111D01*
X208593028Y-61720274D01*
X208588943Y-61726741D01*
X208584572Y-61748875D01*
X208581604Y-61787988D01*
X208579914Y-61845939D01*
X208579378Y-61924586D01*
X207778595Y-61924586D01*
X207778975Y-61879778D01*
X207780228Y-61737012D01*
X207781651Y-61591942D01*
X207783176Y-61466027D01*
X207784933Y-61357436D01*
X207787051Y-61264334D01*
X207789660Y-61184891D01*
X207792890Y-61117273D01*
X207796869Y-61059649D01*
X207801728Y-61010185D01*
X207807597Y-60967050D01*
X207814604Y-60928410D01*
X207822880Y-60892434D01*
X207832554Y-60857289D01*
X207843756Y-60821142D01*
X207856616Y-60782161D01*
X207872090Y-60739091D01*
X207914994Y-60646871D01*
X207968735Y-60567099D01*
X208037576Y-60492965D01*
X208115185Y-60429405D01*
X208219761Y-60367725D01*
X208339244Y-60320202D01*
X208474508Y-60286567D01*
X208626426Y-60266552D01*
X208795872Y-60259889D01*
X208853890Y-60260287D01*
X208919398Y-60262335D01*
X208980693Y-60266704D01*
X209042097Y-60274035D01*
X209107932Y-60284969D01*
X209182520Y-60300147D01*
X209270184Y-60320209D01*
X209375245Y-60345797D01*
X209403806Y-60352820D01*
X209479054Y-60370776D01*
X209549388Y-60386820D01*
X209610567Y-60400028D01*
X209658354Y-60409474D01*
X209688511Y-60414231D01*
X209716783Y-60417910D01*
X209743060Y-60423187D01*
X209753059Y-60427942D01*
X209749952Y-60436781D01*
X209739194Y-60464072D01*
X209721864Y-60506906D01*
X209699126Y-60562425D01*
X209672147Y-60627772D01*
X209642090Y-60700089D01*
X209635493Y-60715879D01*
X209596907Y-60806484D01*
X209565768Y-60876217D01*
X209541917Y-60925405D01*
X209525198Y-60954374D01*
X209515454Y-60963452D01*
X209507766Y-60961405D01*
X209481415Y-60951760D01*
X209442982Y-60936190D01*
X209397822Y-60916815D01*
X209303293Y-60878814D01*
X209166480Y-60837780D01*
X209025289Y-60812612D01*
X208987314Y-60808611D01*
X208884059Y-60806447D01*
X208796952Y-60819622D01*
X208725129Y-60848756D01*
X208667731Y-60894466D01*
X208623896Y-60957372D01*
X208592762Y-61038092D01*
X208573470Y-61137245D01*
X208566050Y-61196224D01*
X208727936Y-61189445D01*
X208854495Y-61187813D01*
X209005951Y-61194194D01*
X209154396Y-61208777D01*
X209290578Y-61230882D01*
X209355245Y-61245821D01*
X209487490Y-61288741D01*
X209609762Y-61345340D01*
X209719685Y-61414017D01*
X209814883Y-61493170D01*
X209892980Y-61581196D01*
X209951599Y-61676493D01*
X209975595Y-61728864D01*
X210001232Y-61799590D01*
X210017478Y-61870812D01*
X210025822Y-61949712D01*
X210027690Y-62040282D01*
X210027755Y-62043467D01*
G36*
X210027755Y-62043467D02*
G01*
X210027261Y-62077363D01*
X210023632Y-62152202D01*
X210016022Y-62214401D01*
X210003688Y-62270984D01*
X209959313Y-62397076D01*
X209896400Y-62511679D01*
X209816238Y-62612568D01*
X209719740Y-62698924D01*
X209607822Y-62769932D01*
X209481397Y-62824776D01*
X209341378Y-62862638D01*
X209305149Y-62868351D01*
X209226155Y-62874313D01*
X209137841Y-62874646D01*
X209048075Y-62869659D01*
X208964722Y-62859666D01*
X208895651Y-62844978D01*
X208809187Y-62814749D01*
X208699286Y-62760057D01*
X208601956Y-62692543D01*
X208539867Y-62641556D01*
X208536605Y-62737622D01*
X208533343Y-62833689D01*
X208110450Y-62833689D01*
X208099543Y-62833686D01*
X208005056Y-62833380D01*
X207918331Y-62832616D01*
X207841837Y-62831451D01*
X207778043Y-62829942D01*
X207729418Y-62828147D01*
X207698433Y-62826121D01*
X207687556Y-62823922D01*
X207687578Y-62823463D01*
X207694614Y-62807910D01*
X207710434Y-62785071D01*
X207714734Y-62779638D01*
X207725777Y-62765606D01*
X207735311Y-62752186D01*
X207743461Y-62737722D01*
X207750352Y-62720556D01*
X207756111Y-62699034D01*
X207760862Y-62671498D01*
X207764731Y-62636292D01*
X207767844Y-62591760D01*
X207770325Y-62536246D01*
X207772300Y-62468093D01*
X207773894Y-62385645D01*
X207775234Y-62287246D01*
X207776444Y-62171239D01*
X207777649Y-62035968D01*
X207778595Y-61924586D01*
X208579378Y-61924586D01*
X208579378Y-62120462D01*
X208624048Y-62176973D01*
X208636785Y-62192212D01*
X208683604Y-62234844D01*
X208744255Y-62270672D01*
X208754897Y-62275850D01*
X208793676Y-62292745D01*
X208828692Y-62302909D01*
X208868722Y-62308325D01*
X208922541Y-62310978D01*
X208940648Y-62311383D01*
X209016011Y-62308540D01*
X209076743Y-62296620D01*
X209128452Y-62274037D01*
X209176746Y-62239211D01*
X209181803Y-62234798D01*
X209230272Y-62179160D01*
X209258459Y-62115333D01*
X209267752Y-62040282D01*
X209260520Y-61968693D01*
X209235796Y-61905645D01*
X209191249Y-61847758D01*
X209136319Y-61800808D01*
X209063894Y-61760961D01*
X208977340Y-61733263D01*
X208874670Y-61717096D01*
X208753894Y-61711842D01*
X208745007Y-61711857D01*
X208689660Y-61712655D01*
X208642736Y-61714488D01*
X208608953Y-61717111D01*
X208593028Y-61720274D01*
X208588943Y-61726741D01*
X208584572Y-61748875D01*
X208581604Y-61787988D01*
X208579914Y-61845939D01*
X208579378Y-61924586D01*
X207778595Y-61924586D01*
X207778975Y-61879778D01*
X207780228Y-61737012D01*
X207781651Y-61591942D01*
X207783176Y-61466027D01*
X207784933Y-61357436D01*
X207787051Y-61264334D01*
X207789660Y-61184891D01*
X207792890Y-61117273D01*
X207796869Y-61059649D01*
X207801728Y-61010185D01*
X207807597Y-60967050D01*
X207814604Y-60928410D01*
X207822880Y-60892434D01*
X207832554Y-60857289D01*
X207843756Y-60821142D01*
X207856616Y-60782161D01*
X207872090Y-60739091D01*
X207914994Y-60646871D01*
X207968735Y-60567099D01*
X208037576Y-60492965D01*
X208115185Y-60429405D01*
X208219761Y-60367725D01*
X208339244Y-60320202D01*
X208474508Y-60286567D01*
X208626426Y-60266552D01*
X208795872Y-60259889D01*
X208853890Y-60260287D01*
X208919398Y-60262335D01*
X208980693Y-60266704D01*
X209042097Y-60274035D01*
X209107932Y-60284969D01*
X209182520Y-60300147D01*
X209270184Y-60320209D01*
X209375245Y-60345797D01*
X209403806Y-60352820D01*
X209479054Y-60370776D01*
X209549388Y-60386820D01*
X209610567Y-60400028D01*
X209658354Y-60409474D01*
X209688511Y-60414231D01*
X209716783Y-60417910D01*
X209743060Y-60423187D01*
X209753059Y-60427942D01*
X209749952Y-60436781D01*
X209739194Y-60464072D01*
X209721864Y-60506906D01*
X209699126Y-60562425D01*
X209672147Y-60627772D01*
X209642090Y-60700089D01*
X209635493Y-60715879D01*
X209596907Y-60806484D01*
X209565768Y-60876217D01*
X209541917Y-60925405D01*
X209525198Y-60954374D01*
X209515454Y-60963452D01*
X209507766Y-60961405D01*
X209481415Y-60951760D01*
X209442982Y-60936190D01*
X209397822Y-60916815D01*
X209303293Y-60878814D01*
X209166480Y-60837780D01*
X209025289Y-60812612D01*
X208987314Y-60808611D01*
X208884059Y-60806447D01*
X208796952Y-60819622D01*
X208725129Y-60848756D01*
X208667731Y-60894466D01*
X208623896Y-60957372D01*
X208592762Y-61038092D01*
X208573470Y-61137245D01*
X208566050Y-61196224D01*
X208727936Y-61189445D01*
X208854495Y-61187813D01*
X209005951Y-61194194D01*
X209154396Y-61208777D01*
X209290578Y-61230882D01*
X209355245Y-61245821D01*
X209487490Y-61288741D01*
X209609762Y-61345340D01*
X209719685Y-61414017D01*
X209814883Y-61493170D01*
X209892980Y-61581196D01*
X209951599Y-61676493D01*
X209975595Y-61728864D01*
X210001232Y-61799590D01*
X210017478Y-61870812D01*
X210025822Y-61949712D01*
X210027690Y-62040282D01*
X210027755Y-62043467D01*
G37*
X217575614Y-59511792D02*
X217576059Y-59643011D01*
X217576362Y-59790216D01*
X217576548Y-59954349D01*
X217576642Y-60136352D01*
X217576671Y-60337165D01*
X217576661Y-60557732D01*
X217576636Y-60798992D01*
X217576622Y-61061889D01*
X217576622Y-61104040D01*
X217576646Y-61364668D01*
X217576685Y-61603796D01*
X217576708Y-61822360D01*
X217576687Y-62021295D01*
X217576593Y-62201535D01*
X217576395Y-62364015D01*
X217576063Y-62509670D01*
X217575569Y-62639434D01*
X217574883Y-62754243D01*
X217573976Y-62855030D01*
X217572817Y-62942730D01*
X217571378Y-63018279D01*
X217569629Y-63082611D01*
X217567540Y-63136661D01*
X217565083Y-63181363D01*
X217562227Y-63217652D01*
X217558943Y-63246463D01*
X217555202Y-63268731D01*
X217550974Y-63285390D01*
X217546229Y-63297375D01*
X217540939Y-63305621D01*
X217535073Y-63311062D01*
X217528602Y-63314634D01*
X217521497Y-63317270D01*
X217513728Y-63319906D01*
X217505266Y-63323477D01*
X217500908Y-63325145D01*
X217492395Y-63327111D01*
X217479694Y-63328911D01*
X217461885Y-63330555D01*
X217438049Y-63332047D01*
X217407266Y-63333397D01*
X217368617Y-63334611D01*
X217321182Y-63335697D01*
X217264043Y-63336661D01*
X217196279Y-63337511D01*
X217116971Y-63338253D01*
X217025199Y-63338897D01*
X216920044Y-63339447D01*
X216800587Y-63339913D01*
X216665908Y-63340300D01*
X216515088Y-63340616D01*
X216347206Y-63340869D01*
X216161345Y-63341066D01*
X215956583Y-63341213D01*
X215732002Y-63341318D01*
X215486682Y-63341389D01*
X215219704Y-63341432D01*
X215181321Y-63341437D01*
X214915922Y-63341480D01*
X214672050Y-63341525D01*
X214448783Y-63341548D01*
X214245196Y-63341524D01*
X214060367Y-63341430D01*
X213893373Y-63341243D01*
X213743290Y-63340939D01*
X213609196Y-63340494D01*
X213490166Y-63339885D01*
X213385279Y-63339089D01*
X213293610Y-63338080D01*
X213214237Y-63336837D01*
X213146237Y-63335335D01*
X213088686Y-63333551D01*
X213040662Y-63331461D01*
X213001240Y-63329042D01*
X212969499Y-63326270D01*
X212944514Y-63323121D01*
X212925364Y-63319572D01*
X212911123Y-63315598D01*
X212900871Y-63311178D01*
X212893682Y-63306286D01*
X212888635Y-63300900D01*
X212884805Y-63294996D01*
X212881271Y-63288549D01*
X212877108Y-63281537D01*
X212876025Y-63279687D01*
X212873813Y-63274180D01*
X212871786Y-63265868D01*
X212869938Y-63253809D01*
X212868261Y-63237063D01*
X212866745Y-63214687D01*
X212865383Y-63185740D01*
X212864167Y-63149280D01*
X212863089Y-63104367D01*
X212862140Y-63050057D01*
X212861312Y-62985410D01*
X212860597Y-62909484D01*
X212859987Y-62821338D01*
X212859942Y-62812493D01*
X213151378Y-62812493D01*
X213155260Y-62813765D01*
X213178520Y-62815791D01*
X213220874Y-62817626D01*
X213280132Y-62819227D01*
X213354107Y-62820549D01*
X213440610Y-62821548D01*
X213537452Y-62822180D01*
X213642445Y-62822400D01*
X214340651Y-62822400D01*
X215495090Y-62822400D01*
X215494456Y-62746200D01*
X215495574Y-62704160D01*
X215501304Y-62668334D01*
X215513890Y-62630772D01*
X215535568Y-62582577D01*
X215538789Y-62575897D01*
X215564188Y-62526359D01*
X215590996Y-62478369D01*
X215613917Y-62441466D01*
X215618485Y-62434834D01*
X215640516Y-62403593D01*
X215672693Y-62358654D01*
X215713457Y-62302147D01*
X215761245Y-62236204D01*
X215814498Y-62162957D01*
X215871655Y-62084536D01*
X215931155Y-62003072D01*
X215991437Y-61920698D01*
X216050940Y-61839544D01*
X216108105Y-61761742D01*
X216161370Y-61689423D01*
X216209174Y-61624718D01*
X216249957Y-61569759D01*
X216282158Y-61526676D01*
X216304216Y-61497602D01*
X216314571Y-61484667D01*
X216319044Y-61480351D01*
X216323236Y-61478312D01*
X216326643Y-61480926D01*
X216329325Y-61489986D01*
X216331341Y-61507285D01*
X216332748Y-61534614D01*
X216333605Y-61573765D01*
X216333970Y-61626533D01*
X216333903Y-61694707D01*
X216333460Y-61780082D01*
X216332702Y-61884449D01*
X216331685Y-62009600D01*
X216331308Y-62054300D01*
X216330169Y-62175395D01*
X216328972Y-62276688D01*
X216327636Y-62360262D01*
X216326077Y-62428204D01*
X216324215Y-62482599D01*
X216321966Y-62525532D01*
X216319248Y-62559089D01*
X216315979Y-62585355D01*
X216312078Y-62606416D01*
X216307461Y-62624357D01*
X216299192Y-62650770D01*
X216275583Y-62712772D01*
X216249685Y-62765573D01*
X216224535Y-62802645D01*
X216223339Y-62804075D01*
X216221168Y-62808424D01*
X216223328Y-62812026D01*
X216231644Y-62814951D01*
X216247940Y-62817269D01*
X216274041Y-62819051D01*
X216311771Y-62820367D01*
X216362956Y-62821286D01*
X216429420Y-62821878D01*
X216512987Y-62822215D01*
X216615483Y-62822365D01*
X216738732Y-62822400D01*
X217270296Y-62822400D01*
X217231523Y-62764783D01*
X217225432Y-62755893D01*
X217214976Y-62741069D01*
X217205579Y-62727422D01*
X217197183Y-62713765D01*
X217189733Y-62698911D01*
X217183173Y-62681670D01*
X217177446Y-62660855D01*
X217172495Y-62635280D01*
X217168266Y-62603755D01*
X217164701Y-62565093D01*
X217161744Y-62518107D01*
X217159340Y-62461608D01*
X217157431Y-62394409D01*
X217155962Y-62315322D01*
X217154876Y-62223160D01*
X217154118Y-62116734D01*
X217153630Y-61994857D01*
X217153358Y-61856341D01*
X217153243Y-61699999D01*
X217153231Y-61524642D01*
X217153265Y-61329082D01*
X217153289Y-61112133D01*
X217153280Y-60989513D01*
X217153243Y-60784447D01*
X217153227Y-60600116D01*
X217153288Y-60435334D01*
X217153484Y-60288916D01*
X217153870Y-60159674D01*
X217154505Y-60046422D01*
X217155444Y-59947975D01*
X217156745Y-59863144D01*
X217158464Y-59790744D01*
X217160659Y-59729589D01*
X217163385Y-59678492D01*
X217166701Y-59636267D01*
X217170662Y-59601727D01*
X217175325Y-59573686D01*
X217180747Y-59550958D01*
X217186986Y-59532356D01*
X217194097Y-59516693D01*
X217202138Y-59502784D01*
X217211166Y-59489441D01*
X217221236Y-59475479D01*
X217232407Y-59459711D01*
X217272197Y-59401867D01*
X216212314Y-59401867D01*
X216250311Y-59464966D01*
X216264993Y-59490005D01*
X216279531Y-59517586D01*
X216291627Y-59545700D01*
X216301532Y-59576551D01*
X216309494Y-59612344D01*
X216315761Y-59655283D01*
X216320582Y-59707574D01*
X216324206Y-59771419D01*
X216326881Y-59849025D01*
X216328857Y-59942594D01*
X216330382Y-60054333D01*
X216331704Y-60186445D01*
X216332613Y-60306434D01*
X216333020Y-60423063D01*
X216332767Y-60518531D01*
X216331857Y-60592556D01*
X216330293Y-60644855D01*
X216328079Y-60675149D01*
X216325220Y-60683156D01*
X216322161Y-60679858D01*
X216304006Y-60658408D01*
X216274275Y-60621889D01*
X216234639Y-60572442D01*
X216186771Y-60512207D01*
X216132343Y-60443327D01*
X216073027Y-60367943D01*
X216010495Y-60288196D01*
X215946421Y-60206228D01*
X215882475Y-60124180D01*
X215820331Y-60044194D01*
X215761661Y-59968411D01*
X215708137Y-59898973D01*
X215661430Y-59838021D01*
X215623214Y-59787696D01*
X215595161Y-59750140D01*
X215578943Y-59727495D01*
X215533635Y-59655212D01*
X215493661Y-59575463D01*
X215472130Y-59507188D01*
X215468827Y-59449844D01*
X215474116Y-59401867D01*
X214342356Y-59402117D01*
X214381867Y-59432722D01*
X214391248Y-59440089D01*
X214454183Y-59494438D01*
X214522997Y-59562259D01*
X214599596Y-59645516D01*
X214685888Y-59746178D01*
X214703052Y-59766847D01*
X214743833Y-59816409D01*
X214793588Y-59877326D01*
X214850955Y-59947898D01*
X214914569Y-60026424D01*
X214983069Y-60111204D01*
X215055090Y-60200537D01*
X215129270Y-60292722D01*
X215144517Y-60311702D01*
X215204246Y-60386060D01*
X215278653Y-60478848D01*
X215351131Y-60569388D01*
X215420314Y-60655978D01*
X215484841Y-60736918D01*
X215543347Y-60810506D01*
X215594470Y-60875044D01*
X215636847Y-60928829D01*
X215669115Y-60970162D01*
X215689910Y-60997342D01*
X215697869Y-61008668D01*
X215696111Y-61012771D01*
X215683230Y-61033334D01*
X215658885Y-61069561D01*
X215624247Y-61119824D01*
X215580486Y-61182492D01*
X215528775Y-61255936D01*
X215470284Y-61338527D01*
X215406184Y-61428636D01*
X215337646Y-61524631D01*
X215265843Y-61624885D01*
X215191944Y-61727768D01*
X215117121Y-61831650D01*
X215042545Y-61934901D01*
X214969387Y-62035892D01*
X214898819Y-62132994D01*
X214832011Y-62224577D01*
X214770135Y-62309011D01*
X214714361Y-62384667D01*
X214665862Y-62449916D01*
X214625807Y-62503128D01*
X214595369Y-62542673D01*
X214574944Y-62568026D01*
X214528899Y-62622295D01*
X214478612Y-62678775D01*
X214431815Y-62728669D01*
X214340651Y-62822400D01*
X213642445Y-62822400D01*
X213711356Y-62822349D01*
X213809607Y-62822091D01*
X213899030Y-62821637D01*
X213977333Y-62821010D01*
X214042223Y-62820235D01*
X214091411Y-62819335D01*
X214122604Y-62818334D01*
X214133511Y-62817257D01*
X214132322Y-62814037D01*
X214122176Y-62796452D01*
X214105040Y-62770158D01*
X214096540Y-62757691D01*
X214087329Y-62743622D01*
X214079233Y-62729351D01*
X214072185Y-62713479D01*
X214066117Y-62694609D01*
X214060961Y-62671341D01*
X214056651Y-62642278D01*
X214053119Y-62606021D01*
X214050297Y-62561170D01*
X214048118Y-62506328D01*
X214046514Y-62440097D01*
X214045419Y-62361077D01*
X214044765Y-62267871D01*
X214044484Y-62159079D01*
X214044509Y-62033303D01*
X214044772Y-61889145D01*
X214045206Y-61725207D01*
X214045745Y-61540089D01*
X214046279Y-61361232D01*
X214046805Y-61202374D01*
X214047350Y-61063316D01*
X214047945Y-60942665D01*
X214048619Y-60839028D01*
X214049403Y-60751011D01*
X214050326Y-60677223D01*
X214051419Y-60616269D01*
X214052712Y-60566757D01*
X214054235Y-60527293D01*
X214056019Y-60496484D01*
X214058092Y-60472938D01*
X214060486Y-60455260D01*
X214063230Y-60442059D01*
X214066356Y-60431940D01*
X214069892Y-60423511D01*
X214073791Y-60415375D01*
X214093438Y-60378544D01*
X214112225Y-60348391D01*
X214113272Y-60346908D01*
X214127602Y-60324659D01*
X214133511Y-60311702D01*
X214132504Y-60311249D01*
X214115305Y-60309803D01*
X214078656Y-60308480D01*
X214024962Y-60307316D01*
X213956630Y-60306347D01*
X213876064Y-60305611D01*
X213785670Y-60305142D01*
X213687853Y-60304978D01*
X213242195Y-60304978D01*
X213239120Y-61481845D01*
X213236045Y-62658711D01*
X213209407Y-62717622D01*
X213197485Y-62742183D01*
X213180246Y-62772434D01*
X213167074Y-62789560D01*
X213159076Y-62797591D01*
X213151378Y-62812493D01*
X212859942Y-62812493D01*
X212859474Y-62720029D01*
X212859050Y-62604617D01*
X212858706Y-62474160D01*
X212858434Y-62327716D01*
X212858227Y-62164344D01*
X212858076Y-61983101D01*
X212857972Y-61783048D01*
X212857908Y-61563241D01*
X212857876Y-61322739D01*
X212857867Y-61060602D01*
X212857867Y-58869031D01*
X212896249Y-58830649D01*
X212923355Y-58806911D01*
X212950253Y-58795111D01*
X212986560Y-58792267D01*
X213038489Y-58792267D01*
X213038489Y-58880206D01*
X213040427Y-58930102D01*
X213059199Y-59040523D01*
X213096217Y-59141987D01*
X213149369Y-59233152D01*
X213216546Y-59312673D01*
X213295638Y-59379205D01*
X213384534Y-59431406D01*
X213481125Y-59467930D01*
X213583300Y-59487434D01*
X213688950Y-59488573D01*
X213795964Y-59470005D01*
X213902232Y-59430384D01*
X213999219Y-59372516D01*
X214084293Y-59297684D01*
X214153015Y-59209615D01*
X214203918Y-59110616D01*
X214235535Y-59002993D01*
X214246400Y-58889054D01*
X214246400Y-58792267D01*
X215866753Y-58792267D01*
X216077897Y-58792280D01*
X216282020Y-58792330D01*
X216465686Y-58792430D01*
X216629991Y-58792592D01*
X216776029Y-58792829D01*
X216904894Y-58793153D01*
X217017683Y-58793575D01*
X217115488Y-58794109D01*
X217199404Y-58794767D01*
X217270527Y-58795561D01*
X217329950Y-58796504D01*
X217378768Y-58797608D01*
X217418077Y-58798884D01*
X217448969Y-58800347D01*
X217472541Y-58802007D01*
X217489886Y-58803878D01*
X217502099Y-58805972D01*
X217510275Y-58808300D01*
X217515508Y-58810876D01*
X217521504Y-58814445D01*
X217528279Y-58817978D01*
X217534478Y-58821488D01*
X217540126Y-58825918D01*
X217545247Y-58832208D01*
X217549869Y-58841301D01*
X217554015Y-58854139D01*
X217557713Y-58871662D01*
X217560987Y-58894813D01*
X217563863Y-58924534D01*
X217566367Y-58961765D01*
X217568524Y-59007449D01*
X217570360Y-59062527D01*
X217571900Y-59127941D01*
X217573170Y-59204633D01*
X217574195Y-59293544D01*
X217575001Y-59395617D01*
X217575034Y-59401867D01*
X217575614Y-59511792D01*
G36*
X217575614Y-59511792D02*
G01*
X217576059Y-59643011D01*
X217576362Y-59790216D01*
X217576548Y-59954349D01*
X217576642Y-60136352D01*
X217576671Y-60337165D01*
X217576661Y-60557732D01*
X217576636Y-60798992D01*
X217576622Y-61061889D01*
X217576622Y-61104040D01*
X217576646Y-61364668D01*
X217576685Y-61603796D01*
X217576708Y-61822360D01*
X217576687Y-62021295D01*
X217576593Y-62201535D01*
X217576395Y-62364015D01*
X217576063Y-62509670D01*
X217575569Y-62639434D01*
X217574883Y-62754243D01*
X217573976Y-62855030D01*
X217572817Y-62942730D01*
X217571378Y-63018279D01*
X217569629Y-63082611D01*
X217567540Y-63136661D01*
X217565083Y-63181363D01*
X217562227Y-63217652D01*
X217558943Y-63246463D01*
X217555202Y-63268731D01*
X217550974Y-63285390D01*
X217546229Y-63297375D01*
X217540939Y-63305621D01*
X217535073Y-63311062D01*
X217528602Y-63314634D01*
X217521497Y-63317270D01*
X217513728Y-63319906D01*
X217505266Y-63323477D01*
X217500908Y-63325145D01*
X217492395Y-63327111D01*
X217479694Y-63328911D01*
X217461885Y-63330555D01*
X217438049Y-63332047D01*
X217407266Y-63333397D01*
X217368617Y-63334611D01*
X217321182Y-63335697D01*
X217264043Y-63336661D01*
X217196279Y-63337511D01*
X217116971Y-63338253D01*
X217025199Y-63338897D01*
X216920044Y-63339447D01*
X216800587Y-63339913D01*
X216665908Y-63340300D01*
X216515088Y-63340616D01*
X216347206Y-63340869D01*
X216161345Y-63341066D01*
X215956583Y-63341213D01*
X215732002Y-63341318D01*
X215486682Y-63341389D01*
X215219704Y-63341432D01*
X215181321Y-63341437D01*
X214915922Y-63341480D01*
X214672050Y-63341525D01*
X214448783Y-63341548D01*
X214245196Y-63341524D01*
X214060367Y-63341430D01*
X213893373Y-63341243D01*
X213743290Y-63340939D01*
X213609196Y-63340494D01*
X213490166Y-63339885D01*
X213385279Y-63339089D01*
X213293610Y-63338080D01*
X213214237Y-63336837D01*
X213146237Y-63335335D01*
X213088686Y-63333551D01*
X213040662Y-63331461D01*
X213001240Y-63329042D01*
X212969499Y-63326270D01*
X212944514Y-63323121D01*
X212925364Y-63319572D01*
X212911123Y-63315598D01*
X212900871Y-63311178D01*
X212893682Y-63306286D01*
X212888635Y-63300900D01*
X212884805Y-63294996D01*
X212881271Y-63288549D01*
X212877108Y-63281537D01*
X212876025Y-63279687D01*
X212873813Y-63274180D01*
X212871786Y-63265868D01*
X212869938Y-63253809D01*
X212868261Y-63237063D01*
X212866745Y-63214687D01*
X212865383Y-63185740D01*
X212864167Y-63149280D01*
X212863089Y-63104367D01*
X212862140Y-63050057D01*
X212861312Y-62985410D01*
X212860597Y-62909484D01*
X212859987Y-62821338D01*
X212859942Y-62812493D01*
X213151378Y-62812493D01*
X213155260Y-62813765D01*
X213178520Y-62815791D01*
X213220874Y-62817626D01*
X213280132Y-62819227D01*
X213354107Y-62820549D01*
X213440610Y-62821548D01*
X213537452Y-62822180D01*
X213642445Y-62822400D01*
X214340651Y-62822400D01*
X215495090Y-62822400D01*
X215494456Y-62746200D01*
X215495574Y-62704160D01*
X215501304Y-62668334D01*
X215513890Y-62630772D01*
X215535568Y-62582577D01*
X215538789Y-62575897D01*
X215564188Y-62526359D01*
X215590996Y-62478369D01*
X215613917Y-62441466D01*
X215618485Y-62434834D01*
X215640516Y-62403593D01*
X215672693Y-62358654D01*
X215713457Y-62302147D01*
X215761245Y-62236204D01*
X215814498Y-62162957D01*
X215871655Y-62084536D01*
X215931155Y-62003072D01*
X215991437Y-61920698D01*
X216050940Y-61839544D01*
X216108105Y-61761742D01*
X216161370Y-61689423D01*
X216209174Y-61624718D01*
X216249957Y-61569759D01*
X216282158Y-61526676D01*
X216304216Y-61497602D01*
X216314571Y-61484667D01*
X216319044Y-61480351D01*
X216323236Y-61478312D01*
X216326643Y-61480926D01*
X216329325Y-61489986D01*
X216331341Y-61507285D01*
X216332748Y-61534614D01*
X216333605Y-61573765D01*
X216333970Y-61626533D01*
X216333903Y-61694707D01*
X216333460Y-61780082D01*
X216332702Y-61884449D01*
X216331685Y-62009600D01*
X216331308Y-62054300D01*
X216330169Y-62175395D01*
X216328972Y-62276688D01*
X216327636Y-62360262D01*
X216326077Y-62428204D01*
X216324215Y-62482599D01*
X216321966Y-62525532D01*
X216319248Y-62559089D01*
X216315979Y-62585355D01*
X216312078Y-62606416D01*
X216307461Y-62624357D01*
X216299192Y-62650770D01*
X216275583Y-62712772D01*
X216249685Y-62765573D01*
X216224535Y-62802645D01*
X216223339Y-62804075D01*
X216221168Y-62808424D01*
X216223328Y-62812026D01*
X216231644Y-62814951D01*
X216247940Y-62817269D01*
X216274041Y-62819051D01*
X216311771Y-62820367D01*
X216362956Y-62821286D01*
X216429420Y-62821878D01*
X216512987Y-62822215D01*
X216615483Y-62822365D01*
X216738732Y-62822400D01*
X217270296Y-62822400D01*
X217231523Y-62764783D01*
X217225432Y-62755893D01*
X217214976Y-62741069D01*
X217205579Y-62727422D01*
X217197183Y-62713765D01*
X217189733Y-62698911D01*
X217183173Y-62681670D01*
X217177446Y-62660855D01*
X217172495Y-62635280D01*
X217168266Y-62603755D01*
X217164701Y-62565093D01*
X217161744Y-62518107D01*
X217159340Y-62461608D01*
X217157431Y-62394409D01*
X217155962Y-62315322D01*
X217154876Y-62223160D01*
X217154118Y-62116734D01*
X217153630Y-61994857D01*
X217153358Y-61856341D01*
X217153243Y-61699999D01*
X217153231Y-61524642D01*
X217153265Y-61329082D01*
X217153289Y-61112133D01*
X217153280Y-60989513D01*
X217153243Y-60784447D01*
X217153227Y-60600116D01*
X217153288Y-60435334D01*
X217153484Y-60288916D01*
X217153870Y-60159674D01*
X217154505Y-60046422D01*
X217155444Y-59947975D01*
X217156745Y-59863144D01*
X217158464Y-59790744D01*
X217160659Y-59729589D01*
X217163385Y-59678492D01*
X217166701Y-59636267D01*
X217170662Y-59601727D01*
X217175325Y-59573686D01*
X217180747Y-59550958D01*
X217186986Y-59532356D01*
X217194097Y-59516693D01*
X217202138Y-59502784D01*
X217211166Y-59489441D01*
X217221236Y-59475479D01*
X217232407Y-59459711D01*
X217272197Y-59401867D01*
X216212314Y-59401867D01*
X216250311Y-59464966D01*
X216264993Y-59490005D01*
X216279531Y-59517586D01*
X216291627Y-59545700D01*
X216301532Y-59576551D01*
X216309494Y-59612344D01*
X216315761Y-59655283D01*
X216320582Y-59707574D01*
X216324206Y-59771419D01*
X216326881Y-59849025D01*
X216328857Y-59942594D01*
X216330382Y-60054333D01*
X216331704Y-60186445D01*
X216332613Y-60306434D01*
X216333020Y-60423063D01*
X216332767Y-60518531D01*
X216331857Y-60592556D01*
X216330293Y-60644855D01*
X216328079Y-60675149D01*
X216325220Y-60683156D01*
X216322161Y-60679858D01*
X216304006Y-60658408D01*
X216274275Y-60621889D01*
X216234639Y-60572442D01*
X216186771Y-60512207D01*
X216132343Y-60443327D01*
X216073027Y-60367943D01*
X216010495Y-60288196D01*
X215946421Y-60206228D01*
X215882475Y-60124180D01*
X215820331Y-60044194D01*
X215761661Y-59968411D01*
X215708137Y-59898973D01*
X215661430Y-59838021D01*
X215623214Y-59787696D01*
X215595161Y-59750140D01*
X215578943Y-59727495D01*
X215533635Y-59655212D01*
X215493661Y-59575463D01*
X215472130Y-59507188D01*
X215468827Y-59449844D01*
X215474116Y-59401867D01*
X214342356Y-59402117D01*
X214381867Y-59432722D01*
X214391248Y-59440089D01*
X214454183Y-59494438D01*
X214522997Y-59562259D01*
X214599596Y-59645516D01*
X214685888Y-59746178D01*
X214703052Y-59766847D01*
X214743833Y-59816409D01*
X214793588Y-59877326D01*
X214850955Y-59947898D01*
X214914569Y-60026424D01*
X214983069Y-60111204D01*
X215055090Y-60200537D01*
X215129270Y-60292722D01*
X215144517Y-60311702D01*
X215204246Y-60386060D01*
X215278653Y-60478848D01*
X215351131Y-60569388D01*
X215420314Y-60655978D01*
X215484841Y-60736918D01*
X215543347Y-60810506D01*
X215594470Y-60875044D01*
X215636847Y-60928829D01*
X215669115Y-60970162D01*
X215689910Y-60997342D01*
X215697869Y-61008668D01*
X215696111Y-61012771D01*
X215683230Y-61033334D01*
X215658885Y-61069561D01*
X215624247Y-61119824D01*
X215580486Y-61182492D01*
X215528775Y-61255936D01*
X215470284Y-61338527D01*
X215406184Y-61428636D01*
X215337646Y-61524631D01*
X215265843Y-61624885D01*
X215191944Y-61727768D01*
X215117121Y-61831650D01*
X215042545Y-61934901D01*
X214969387Y-62035892D01*
X214898819Y-62132994D01*
X214832011Y-62224577D01*
X214770135Y-62309011D01*
X214714361Y-62384667D01*
X214665862Y-62449916D01*
X214625807Y-62503128D01*
X214595369Y-62542673D01*
X214574944Y-62568026D01*
X214528899Y-62622295D01*
X214478612Y-62678775D01*
X214431815Y-62728669D01*
X214340651Y-62822400D01*
X213642445Y-62822400D01*
X213711356Y-62822349D01*
X213809607Y-62822091D01*
X213899030Y-62821637D01*
X213977333Y-62821010D01*
X214042223Y-62820235D01*
X214091411Y-62819335D01*
X214122604Y-62818334D01*
X214133511Y-62817257D01*
X214132322Y-62814037D01*
X214122176Y-62796452D01*
X214105040Y-62770158D01*
X214096540Y-62757691D01*
X214087329Y-62743622D01*
X214079233Y-62729351D01*
X214072185Y-62713479D01*
X214066117Y-62694609D01*
X214060961Y-62671341D01*
X214056651Y-62642278D01*
X214053119Y-62606021D01*
X214050297Y-62561170D01*
X214048118Y-62506328D01*
X214046514Y-62440097D01*
X214045419Y-62361077D01*
X214044765Y-62267871D01*
X214044484Y-62159079D01*
X214044509Y-62033303D01*
X214044772Y-61889145D01*
X214045206Y-61725207D01*
X214045745Y-61540089D01*
X214046279Y-61361232D01*
X214046805Y-61202374D01*
X214047350Y-61063316D01*
X214047945Y-60942665D01*
X214048619Y-60839028D01*
X214049403Y-60751011D01*
X214050326Y-60677223D01*
X214051419Y-60616269D01*
X214052712Y-60566757D01*
X214054235Y-60527293D01*
X214056019Y-60496484D01*
X214058092Y-60472938D01*
X214060486Y-60455260D01*
X214063230Y-60442059D01*
X214066356Y-60431940D01*
X214069892Y-60423511D01*
X214073791Y-60415375D01*
X214093438Y-60378544D01*
X214112225Y-60348391D01*
X214113272Y-60346908D01*
X214127602Y-60324659D01*
X214133511Y-60311702D01*
X214132504Y-60311249D01*
X214115305Y-60309803D01*
X214078656Y-60308480D01*
X214024962Y-60307316D01*
X213956630Y-60306347D01*
X213876064Y-60305611D01*
X213785670Y-60305142D01*
X213687853Y-60304978D01*
X213242195Y-60304978D01*
X213239120Y-61481845D01*
X213236045Y-62658711D01*
X213209407Y-62717622D01*
X213197485Y-62742183D01*
X213180246Y-62772434D01*
X213167074Y-62789560D01*
X213159076Y-62797591D01*
X213151378Y-62812493D01*
X212859942Y-62812493D01*
X212859474Y-62720029D01*
X212859050Y-62604617D01*
X212858706Y-62474160D01*
X212858434Y-62327716D01*
X212858227Y-62164344D01*
X212858076Y-61983101D01*
X212857972Y-61783048D01*
X212857908Y-61563241D01*
X212857876Y-61322739D01*
X212857867Y-61060602D01*
X212857867Y-58869031D01*
X212896249Y-58830649D01*
X212923355Y-58806911D01*
X212950253Y-58795111D01*
X212986560Y-58792267D01*
X213038489Y-58792267D01*
X213038489Y-58880206D01*
X213040427Y-58930102D01*
X213059199Y-59040523D01*
X213096217Y-59141987D01*
X213149369Y-59233152D01*
X213216546Y-59312673D01*
X213295638Y-59379205D01*
X213384534Y-59431406D01*
X213481125Y-59467930D01*
X213583300Y-59487434D01*
X213688950Y-59488573D01*
X213795964Y-59470005D01*
X213902232Y-59430384D01*
X213999219Y-59372516D01*
X214084293Y-59297684D01*
X214153015Y-59209615D01*
X214203918Y-59110616D01*
X214235535Y-59002993D01*
X214246400Y-58889054D01*
X214246400Y-58792267D01*
X215866753Y-58792267D01*
X216077897Y-58792280D01*
X216282020Y-58792330D01*
X216465686Y-58792430D01*
X216629991Y-58792592D01*
X216776029Y-58792829D01*
X216904894Y-58793153D01*
X217017683Y-58793575D01*
X217115488Y-58794109D01*
X217199404Y-58794767D01*
X217270527Y-58795561D01*
X217329950Y-58796504D01*
X217378768Y-58797608D01*
X217418077Y-58798884D01*
X217448969Y-58800347D01*
X217472541Y-58802007D01*
X217489886Y-58803878D01*
X217502099Y-58805972D01*
X217510275Y-58808300D01*
X217515508Y-58810876D01*
X217521504Y-58814445D01*
X217528279Y-58817978D01*
X217534478Y-58821488D01*
X217540126Y-58825918D01*
X217545247Y-58832208D01*
X217549869Y-58841301D01*
X217554015Y-58854139D01*
X217557713Y-58871662D01*
X217560987Y-58894813D01*
X217563863Y-58924534D01*
X217566367Y-58961765D01*
X217568524Y-59007449D01*
X217570360Y-59062527D01*
X217571900Y-59127941D01*
X217573170Y-59204633D01*
X217574195Y-59293544D01*
X217575001Y-59395617D01*
X217575034Y-59401867D01*
X217575614Y-59511792D01*
G37*
D12*
%TO.C,J8*%
X213367221Y-53140640D02*
X213367221Y-55800640D01*
X213367221Y-53140640D02*
X215967221Y-53140640D01*
X213367221Y-55800640D02*
X215967221Y-55800640D01*
X215967221Y-53140640D02*
X215967221Y-55800640D01*
X217237221Y-53140640D02*
X218567221Y-53140640D01*
X218567221Y-53140640D02*
X218567221Y-54470640D01*
%TO.C,J5*%
X148485061Y-56795611D02*
X148485061Y-54135611D01*
X156165061Y-54135611D02*
X148485061Y-54135611D01*
X156165061Y-56795611D02*
X148485061Y-56795611D01*
X156165061Y-56795611D02*
X156165061Y-54135611D01*
X158765061Y-54135611D02*
X157435061Y-54135611D01*
X158765061Y-55465611D02*
X158765061Y-54135611D01*
%TO.C,J4*%
X166669999Y-67161050D02*
X166669999Y-64501050D01*
X184509999Y-64501050D02*
X166669999Y-64501050D01*
X184509999Y-67161050D02*
X166669999Y-67161050D01*
X184509999Y-67161050D02*
X184509999Y-64501050D01*
X187109999Y-64501050D02*
X185779999Y-64501050D01*
X187109999Y-65831050D02*
X187109999Y-64501050D01*
%TO.C,J1*%
X144491992Y-77642896D02*
X145432444Y-78583348D01*
X145432444Y-76702444D02*
X144491992Y-77642896D01*
X146330470Y-79481374D02*
X151761050Y-84911954D01*
X148211374Y-77600470D02*
X146330470Y-79481374D01*
X148211374Y-77600470D02*
X153641954Y-83031050D01*
X153641954Y-83031050D02*
X151761050Y-84911954D01*
%TO.C,J6*%
X148133592Y-75858508D02*
X149074044Y-76798960D01*
X149031618Y-73079578D02*
X150912522Y-74960482D01*
X149031618Y-73079578D02*
X154462198Y-67648998D01*
X149074044Y-76798960D02*
X150014496Y-75858508D01*
X150912522Y-74960482D02*
X156343102Y-69529902D01*
X154462198Y-67648998D02*
X156343102Y-69529902D01*
%TD*%
M02*
