M48
; DRILL file {KiCad 9.0.0} date 2025-03-11T11:24:56+0100
; FORMAT={-:-/ absolute / metric / decimal}
; #@! TF.CreationDate,2025-03-11T11:24:56+01:00
; #@! TF.GenerationSoftware,Kicad,Pcbnew,9.0.0
; #@! TF.FileFunction,Plated,1,2,PTH
FMAT,2
METRIC
; #@! TA.AperFunction,Plated,PTH,ViaDrill
T1C0.300
; #@! TA.AperFunction,Plated,PTH,ComponentDrill
T2C1.000
; #@! TA.AperFunction,Plated,PTH,ComponentDrill
T3C1.598
; #@! TA.AperFunction,Plated,PTH,ComponentDrill
T4C3.000
%
G90
G05
T1
X67.0Y-86.5
X67.6Y-107.4
X68.0Y-86.5
X69.0Y-83.5
X69.0Y-84.5
X69.0Y-85.5
X69.0Y-86.5
X70.0Y-82.5
X70.2Y-118.4
X71.0Y-79.5
X71.0Y-81.5
X71.5Y-115.1
X72.0Y-80.5
X72.5Y-76.5
X72.775Y-115.125
X73.5Y-77.5
X74.075Y-115.125
X74.5Y-78.5
X74.5Y-85.5
X74.5Y-86.5
X75.275Y-115.125
X75.5Y-84.5
X76.0Y-78.5
X76.5Y-83.5
X76.575Y-115.125
X77.5Y-78.5
X77.875Y-115.125
X78.0Y-83.5
X79.0Y-78.5
X79.175Y-115.125
X79.5Y-83.5
X80.5Y-78.5
X81.0Y-83.5
X82.0Y-78.5
X82.5Y-83.5
X83.5Y-78.5
X84.0Y-83.5
X85.0Y-78.5
X85.5Y-83.5
X86.5Y-78.5
X87.0Y-83.5
X88.0Y-78.5
X88.5Y-83.5
X89.5Y-78.5
X90.0Y-83.5
X90.4Y-123.369
X91.0Y-78.5
X91.5Y-83.5
X92.5Y-78.5
X93.0Y-83.5
X94.2Y-84.3
X94.3Y-78.4
X94.7Y-116.5
X95.5Y-86.5
X96.5Y-82.6
X96.525Y-77.7
X97.0Y-86.5
X97.6Y-123.369
X97.775Y-82.625
X97.795Y-76.6
X98.5Y-86.5
X99.075Y-82.625
X99.1Y-76.6
X100.0Y-86.5
X100.375Y-82.625
X100.6Y-76.6
X100.7Y-118.4
X101.5Y-86.5
X101.575Y-82.6
X101.6Y-77.7
X102.0Y-115.1
X102.8Y-77.7
X102.875Y-82.625
X103.0Y-86.5
X103.275Y-115.125
X104.175Y-82.625
X104.575Y-115.125
X105.775Y-115.125
X107.075Y-115.125
X108.0Y-83.5
X108.0Y-84.5
X108.0Y-85.5
X108.0Y-86.5
X108.3Y-77.9
X108.375Y-115.125
X109.0Y-83.5
X109.0Y-84.5
X109.0Y-85.5
X109.0Y-86.5
X109.675Y-115.125
X110.0Y-83.5
X110.0Y-84.5
X110.0Y-85.5
X110.0Y-86.5
X110.9Y-79.3
X111.0Y-84.2
X113.2Y-82.7
X114.5Y-85.6
X115.775Y-82.725
X117.075Y-85.6
X118.275Y-85.6
X118.3Y-77.7
X119.575Y-85.6
X119.6Y-77.7
X119.6Y-82.725
X123.5Y-82.5
X123.5Y-83.75
X124.9Y-78.0
X125.0Y-82.5
X125.0Y-83.75
X126.5Y-82.5
X126.5Y-83.75
X128.0Y-82.5
X128.0Y-83.75
X129.0Y-123.369
X129.5Y-82.5
X129.5Y-83.75
X130.8Y-115.1
X131.0Y-82.5
X131.0Y-83.75
X132.5Y-82.5
X132.5Y-83.75
X136.2Y-118.3
X137.0Y-78.0
X137.0Y-79.5
X137.0Y-81.0
X137.0Y-82.5
X138.675Y-115.125
X139.0Y-83.5
X139.975Y-115.125
X140.5Y-83.5
X141.175Y-115.125
X142.0Y-83.5
X142.475Y-115.125
X143.5Y-83.5
X143.775Y-115.125
X144.0Y-75.8
X145.0Y-83.5
X145.0Y-86.5
X145.075Y-115.125
X146.4Y-110.3
X146.5Y-83.5
X146.5Y-86.5
X147.2Y-110.3
X147.5Y-103.2
X147.7Y-97.3
X148.0Y-83.5
X148.0Y-86.5
X148.0Y-123.369
X149.5Y-83.5
X149.5Y-86.5
X149.5Y-115.2
X151.0Y-83.5
X151.0Y-86.5
X152.5Y-83.5
X152.5Y-86.5
X154.0Y-83.5
X154.0Y-86.5
X154.224Y-77.024
X154.5Y-118.3
X155.5Y-83.5
X155.5Y-86.5
X157.075Y-115.125
X158.375Y-115.125
X159.575Y-115.125
X160.0Y-78.0
X160.0Y-79.5
X160.0Y-81.0
X160.0Y-82.5
X160.875Y-115.125
X162.175Y-115.125
X163.475Y-115.125
X175.7Y-123.369
X176.4Y-79.3
X176.4Y-84.3
X178.7Y-82.6
X179.2Y-113.6
X180.0Y-85.7
X181.275Y-82.625
X182.575Y-82.625
X183.775Y-82.625
X183.8Y-77.7
X185.075Y-85.7
X185.1Y-77.7
X185.9Y-118.3
X186.375Y-82.625
X187.2Y-115.1
X188.5Y-118.2
X189.775Y-115.125
X190.35Y-78.0
X190.975Y-115.125
X192.0Y-78.0
X192.0Y-85.0
X192.0Y-86.0
X192.275Y-115.125
X192.4Y-79.4
X192.6Y-84.3
X193.575Y-115.125
X194.875Y-115.125
X194.9Y-77.0
X194.9Y-82.6
X196.175Y-82.625
X196.2Y-76.6
X197.4Y-76.2
X197.475Y-82.625
X198.7Y-75.8
X198.775Y-82.625
X199.975Y-82.625
X200.0Y-77.6
X201.275Y-82.625
X201.3Y-77.6
X202.575Y-82.625
X203.5Y-77.5
X204.5Y-82.0
X205.0Y-77.5
X206.0Y-82.0
X206.5Y-77.5
X207.5Y-82.0
X208.0Y-77.5
X209.0Y-82.0
X209.5Y-77.5
X210.5Y-82.0
X211.0Y-77.5
X211.9Y-123.369
X212.0Y-82.0
X212.5Y-77.5
X213.5Y-82.0
X214.0Y-77.5
X215.0Y-82.0
X215.5Y-77.5
X215.6Y-115.3
X216.5Y-82.0
X217.0Y-77.5
X218.0Y-82.0
X218.5Y-77.5
X219.5Y-82.0
X220.0Y-77.5
X220.795Y-118.225
X221.0Y-82.0
X221.5Y-77.5
X222.0Y-115.1
X222.5Y-82.0
X223.0Y-77.5
X223.275Y-115.125
X224.0Y-82.0
X224.575Y-115.125
X225.5Y-82.0
X225.775Y-115.125
X226.5Y-83.0
X226.8Y-115.125
X228.174Y-115.125
X228.974Y-115.125
X229.0Y-79.0
X230.0Y-80.0
T2
X68.0Y-77.0
X68.0Y-124.0
X70.54Y-77.0
X70.54Y-124.0
X139.595Y-81.775
X139.595Y-79.235
X142.135Y-79.235
X142.135Y-81.775
X144.675Y-79.235
X144.675Y-81.775
X147.215Y-79.235
X147.215Y-81.775
X149.755Y-79.235
X149.755Y-81.775
X152.295Y-79.235
X152.295Y-81.775
X154.835Y-79.235
X154.835Y-81.775
X157.375Y-79.235
X157.375Y-81.775
X226.46Y-77.0
X226.46Y-124.0
X229.0Y-77.0
X229.0Y-124.0
T3
X77.097Y-101.765
X77.326Y-97.947
X78.456Y-105.326
X79.251Y-94.567
X81.116Y-107.983
X82.241Y-92.331
X84.672Y-109.438
X85.972Y-91.546
X89.739Y-92.314
X90.826Y-108.044
X92.82Y-94.638
X93.579Y-105.356
X94.633Y-97.96
X94.91Y-101.734
X116.064Y-101.765
X116.293Y-97.947
X117.423Y-105.326
X118.218Y-94.567
X120.083Y-107.983
X121.208Y-92.331
X123.639Y-109.438
X124.939Y-91.546
X128.706Y-92.314
X129.793Y-108.044
X131.787Y-94.638
X132.546Y-105.356
X133.6Y-97.96
X133.877Y-101.734
X163.064Y-101.851
X163.293Y-98.034
X164.423Y-105.412
X165.218Y-94.653
X167.083Y-108.069
X168.208Y-92.418
X170.639Y-109.525
X171.939Y-91.633
X175.706Y-92.4
X176.793Y-108.13
X178.787Y-94.724
X179.546Y-105.443
X180.6Y-98.046
X180.877Y-101.821
X202.097Y-101.751
X202.326Y-97.934
X203.456Y-105.312
X204.251Y-94.553
X206.116Y-107.969
X207.241Y-92.318
X209.672Y-109.425
X210.972Y-91.533
X214.739Y-92.3
X215.826Y-108.03
X217.82Y-94.624
X218.579Y-105.343
X219.633Y-97.946
X219.91Y-101.721
T4
X148.5Y-100.4
M30
