%TF.GenerationSoftware,KiCad,Pcbnew,9.0.0*%
%TF.CreationDate,2025-03-11T11:24:58+01:00*%
%TF.ProjectId,CNIX V2 Tube Board,434e4958-2056-4322-9054-75626520426f,rev?*%
%TF.SameCoordinates,Original*%
%TF.FileFunction,Legend,Top*%
%TF.FilePolarity,Positive*%
%FSLAX46Y46*%
G04 Gerber Fmt 4.6, Leading zero omitted, Abs format (unit mm)*
G04 Created by KiCad (PCBNEW 9.0.0) date 2025-03-11 11:24:58*
%MOMM*%
%LPD*%
G01*
G04 APERTURE LIST*
%ADD10C,0.152400*%
%ADD11C,0.150000*%
%ADD12C,0.254000*%
%ADD13C,0.120000*%
G04 APERTURE END LIST*
D10*
X206597333Y-118900972D02*
X206597333Y-117122972D01*
X207444000Y-118900972D02*
X207444000Y-117122972D01*
X207444000Y-117122972D02*
X208460000Y-118900972D01*
X208460000Y-118900972D02*
X208460000Y-117122972D01*
X209306667Y-118223639D02*
X210661334Y-118223639D01*
X212270000Y-117715639D02*
X212270000Y-118900972D01*
X211846667Y-117038306D02*
X211423333Y-118308306D01*
X211423333Y-118308306D02*
X212524000Y-118308306D01*
X212778000Y-119070306D02*
X214132666Y-119070306D01*
X214386667Y-117122972D02*
X215487333Y-117122972D01*
X215487333Y-117122972D02*
X214894667Y-117800306D01*
X214894667Y-117800306D02*
X215148667Y-117800306D01*
X215148667Y-117800306D02*
X215318000Y-117884972D01*
X215318000Y-117884972D02*
X215402667Y-117969639D01*
X215402667Y-117969639D02*
X215487333Y-118138972D01*
X215487333Y-118138972D02*
X215487333Y-118562306D01*
X215487333Y-118562306D02*
X215402667Y-118731639D01*
X215402667Y-118731639D02*
X215318000Y-118816306D01*
X215318000Y-118816306D02*
X215148667Y-118900972D01*
X215148667Y-118900972D02*
X214640667Y-118900972D01*
X214640667Y-118900972D02*
X214471333Y-118816306D01*
X214471333Y-118816306D02*
X214386667Y-118731639D01*
X81597333Y-118914612D02*
X81597333Y-117136612D01*
X82444000Y-118914612D02*
X82444000Y-117136612D01*
X82444000Y-117136612D02*
X83460000Y-118914612D01*
X83460000Y-118914612D02*
X83460000Y-117136612D01*
X84306667Y-118237279D02*
X85661334Y-118237279D01*
X87270000Y-117729279D02*
X87270000Y-118914612D01*
X86846667Y-117051946D02*
X86423333Y-118321946D01*
X86423333Y-118321946D02*
X87524000Y-118321946D01*
X87778000Y-119083946D02*
X89132666Y-119083946D01*
X89894667Y-117136612D02*
X90064000Y-117136612D01*
X90064000Y-117136612D02*
X90233333Y-117221279D01*
X90233333Y-117221279D02*
X90318000Y-117305946D01*
X90318000Y-117305946D02*
X90402667Y-117475279D01*
X90402667Y-117475279D02*
X90487333Y-117813946D01*
X90487333Y-117813946D02*
X90487333Y-118237279D01*
X90487333Y-118237279D02*
X90402667Y-118575946D01*
X90402667Y-118575946D02*
X90318000Y-118745279D01*
X90318000Y-118745279D02*
X90233333Y-118829946D01*
X90233333Y-118829946D02*
X90064000Y-118914612D01*
X90064000Y-118914612D02*
X89894667Y-118914612D01*
X89894667Y-118914612D02*
X89725333Y-118829946D01*
X89725333Y-118829946D02*
X89640667Y-118745279D01*
X89640667Y-118745279D02*
X89556000Y-118575946D01*
X89556000Y-118575946D02*
X89471333Y-118237279D01*
X89471333Y-118237279D02*
X89471333Y-117813946D01*
X89471333Y-117813946D02*
X89556000Y-117475279D01*
X89556000Y-117475279D02*
X89640667Y-117305946D01*
X89640667Y-117305946D02*
X89725333Y-117221279D01*
X89725333Y-117221279D02*
X89894667Y-117136612D01*
X167564313Y-119000972D02*
X167564313Y-117222972D01*
X168410980Y-119000972D02*
X168410980Y-117222972D01*
X168410980Y-117222972D02*
X169426980Y-119000972D01*
X169426980Y-119000972D02*
X169426980Y-117222972D01*
X170273647Y-118323639D02*
X171628314Y-118323639D01*
X173236980Y-117815639D02*
X173236980Y-119000972D01*
X172813647Y-117138306D02*
X172390313Y-118408306D01*
X172390313Y-118408306D02*
X173490980Y-118408306D01*
X173744980Y-119170306D02*
X175099646Y-119170306D01*
X175438313Y-117392306D02*
X175522980Y-117307639D01*
X175522980Y-117307639D02*
X175692313Y-117222972D01*
X175692313Y-117222972D02*
X176115647Y-117222972D01*
X176115647Y-117222972D02*
X176284980Y-117307639D01*
X176284980Y-117307639D02*
X176369647Y-117392306D01*
X176369647Y-117392306D02*
X176454313Y-117561639D01*
X176454313Y-117561639D02*
X176454313Y-117730972D01*
X176454313Y-117730972D02*
X176369647Y-117984972D01*
X176369647Y-117984972D02*
X175353647Y-119000972D01*
X175353647Y-119000972D02*
X176454313Y-119000972D01*
D11*
X147857142Y-92404819D02*
X147523809Y-91928628D01*
X147285714Y-92404819D02*
X147285714Y-91404819D01*
X147285714Y-91404819D02*
X147666666Y-91404819D01*
X147666666Y-91404819D02*
X147761904Y-91452438D01*
X147761904Y-91452438D02*
X147809523Y-91500057D01*
X147809523Y-91500057D02*
X147857142Y-91595295D01*
X147857142Y-91595295D02*
X147857142Y-91738152D01*
X147857142Y-91738152D02*
X147809523Y-91833390D01*
X147809523Y-91833390D02*
X147761904Y-91881009D01*
X147761904Y-91881009D02*
X147666666Y-91928628D01*
X147666666Y-91928628D02*
X147285714Y-91928628D01*
X148809523Y-92404819D02*
X148238095Y-92404819D01*
X148523809Y-92404819D02*
X148523809Y-91404819D01*
X148523809Y-91404819D02*
X148428571Y-91547676D01*
X148428571Y-91547676D02*
X148333333Y-91642914D01*
X148333333Y-91642914D02*
X148238095Y-91690533D01*
X149428571Y-91404819D02*
X149523809Y-91404819D01*
X149523809Y-91404819D02*
X149619047Y-91452438D01*
X149619047Y-91452438D02*
X149666666Y-91500057D01*
X149666666Y-91500057D02*
X149714285Y-91595295D01*
X149714285Y-91595295D02*
X149761904Y-91785771D01*
X149761904Y-91785771D02*
X149761904Y-92023866D01*
X149761904Y-92023866D02*
X149714285Y-92214342D01*
X149714285Y-92214342D02*
X149666666Y-92309580D01*
X149666666Y-92309580D02*
X149619047Y-92357200D01*
X149619047Y-92357200D02*
X149523809Y-92404819D01*
X149523809Y-92404819D02*
X149428571Y-92404819D01*
X149428571Y-92404819D02*
X149333333Y-92357200D01*
X149333333Y-92357200D02*
X149285714Y-92309580D01*
X149285714Y-92309580D02*
X149238095Y-92214342D01*
X149238095Y-92214342D02*
X149190476Y-92023866D01*
X149190476Y-92023866D02*
X149190476Y-91785771D01*
X149190476Y-91785771D02*
X149238095Y-91595295D01*
X149238095Y-91595295D02*
X149285714Y-91500057D01*
X149285714Y-91500057D02*
X149333333Y-91452438D01*
X149333333Y-91452438D02*
X149428571Y-91404819D01*
X151654819Y-96814285D02*
X150654819Y-96814285D01*
X150654819Y-96814285D02*
X150654819Y-96576190D01*
X150654819Y-96576190D02*
X150702438Y-96433333D01*
X150702438Y-96433333D02*
X150797676Y-96338095D01*
X150797676Y-96338095D02*
X150892914Y-96290476D01*
X150892914Y-96290476D02*
X151083390Y-96242857D01*
X151083390Y-96242857D02*
X151226247Y-96242857D01*
X151226247Y-96242857D02*
X151416723Y-96290476D01*
X151416723Y-96290476D02*
X151511961Y-96338095D01*
X151511961Y-96338095D02*
X151607200Y-96433333D01*
X151607200Y-96433333D02*
X151654819Y-96576190D01*
X151654819Y-96576190D02*
X151654819Y-96814285D01*
X151654819Y-95290476D02*
X151654819Y-95861904D01*
X151654819Y-95576190D02*
X150654819Y-95576190D01*
X150654819Y-95576190D02*
X150797676Y-95671428D01*
X150797676Y-95671428D02*
X150892914Y-95766666D01*
X150892914Y-95766666D02*
X150940533Y-95861904D01*
X151654819Y-94338095D02*
X151654819Y-94909523D01*
X151654819Y-94623809D02*
X150654819Y-94623809D01*
X150654819Y-94623809D02*
X150797676Y-94719047D01*
X150797676Y-94719047D02*
X150892914Y-94814285D01*
X150892914Y-94814285D02*
X150940533Y-94909523D01*
X147857142Y-109229820D02*
X147523809Y-108753629D01*
X147285714Y-109229820D02*
X147285714Y-108229820D01*
X147285714Y-108229820D02*
X147666666Y-108229820D01*
X147666666Y-108229820D02*
X147761904Y-108277439D01*
X147761904Y-108277439D02*
X147809523Y-108325058D01*
X147809523Y-108325058D02*
X147857142Y-108420296D01*
X147857142Y-108420296D02*
X147857142Y-108563153D01*
X147857142Y-108563153D02*
X147809523Y-108658391D01*
X147809523Y-108658391D02*
X147761904Y-108706010D01*
X147761904Y-108706010D02*
X147666666Y-108753629D01*
X147666666Y-108753629D02*
X147285714Y-108753629D01*
X148809523Y-109229820D02*
X148238095Y-109229820D01*
X148523809Y-109229820D02*
X148523809Y-108229820D01*
X148523809Y-108229820D02*
X148428571Y-108372677D01*
X148428571Y-108372677D02*
X148333333Y-108467915D01*
X148333333Y-108467915D02*
X148238095Y-108515534D01*
X149761904Y-109229820D02*
X149190476Y-109229820D01*
X149476190Y-109229820D02*
X149476190Y-108229820D01*
X149476190Y-108229820D02*
X149380952Y-108372677D01*
X149380952Y-108372677D02*
X149285714Y-108467915D01*
X149285714Y-108467915D02*
X149190476Y-108515534D01*
X151554819Y-106214285D02*
X150554819Y-106214285D01*
X150554819Y-106214285D02*
X150554819Y-105976190D01*
X150554819Y-105976190D02*
X150602438Y-105833333D01*
X150602438Y-105833333D02*
X150697676Y-105738095D01*
X150697676Y-105738095D02*
X150792914Y-105690476D01*
X150792914Y-105690476D02*
X150983390Y-105642857D01*
X150983390Y-105642857D02*
X151126247Y-105642857D01*
X151126247Y-105642857D02*
X151316723Y-105690476D01*
X151316723Y-105690476D02*
X151411961Y-105738095D01*
X151411961Y-105738095D02*
X151507200Y-105833333D01*
X151507200Y-105833333D02*
X151554819Y-105976190D01*
X151554819Y-105976190D02*
X151554819Y-106214285D01*
X151554819Y-104690476D02*
X151554819Y-105261904D01*
X151554819Y-104976190D02*
X150554819Y-104976190D01*
X150554819Y-104976190D02*
X150697676Y-105071428D01*
X150697676Y-105071428D02*
X150792914Y-105166666D01*
X150792914Y-105166666D02*
X150840533Y-105261904D01*
X150650057Y-104309523D02*
X150602438Y-104261904D01*
X150602438Y-104261904D02*
X150554819Y-104166666D01*
X150554819Y-104166666D02*
X150554819Y-103928571D01*
X150554819Y-103928571D02*
X150602438Y-103833333D01*
X150602438Y-103833333D02*
X150650057Y-103785714D01*
X150650057Y-103785714D02*
X150745295Y-103738095D01*
X150745295Y-103738095D02*
X150840533Y-103738095D01*
X150840533Y-103738095D02*
X150983390Y-103785714D01*
X150983390Y-103785714D02*
X151554819Y-104357142D01*
X151554819Y-104357142D02*
X151554819Y-103738095D01*
D10*
X120564313Y-118914612D02*
X120564313Y-117136612D01*
X121410980Y-118914612D02*
X121410980Y-117136612D01*
X121410980Y-117136612D02*
X122426980Y-118914612D01*
X122426980Y-118914612D02*
X122426980Y-117136612D01*
X123273647Y-118237279D02*
X124628314Y-118237279D01*
X126236980Y-117729279D02*
X126236980Y-118914612D01*
X125813647Y-117051946D02*
X125390313Y-118321946D01*
X125390313Y-118321946D02*
X126490980Y-118321946D01*
X126744980Y-119083946D02*
X128099646Y-119083946D01*
X129454313Y-118914612D02*
X128438313Y-118914612D01*
X128946313Y-118914612D02*
X128946313Y-117136612D01*
X128946313Y-117136612D02*
X128776980Y-117390612D01*
X128776980Y-117390612D02*
X128607647Y-117559946D01*
X128607647Y-117559946D02*
X128438313Y-117644612D01*
D12*
%TO.C,U13*%
X226816580Y-100486360D02*
G75*
G02*
X195183420Y-100486360I-15816580J0D01*
G01*
X195183420Y-100486360D02*
G75*
G02*
X226816580Y-100486360I15816580J0D01*
G01*
X226786100Y-100400000D02*
G75*
G02*
X195279940Y-100400000I-15753080J0D01*
G01*
X195279940Y-100400000D02*
G75*
G02*
X226786100Y-100400000I15753080J0D01*
G01*
D13*
%TO.C,H1*%
X150786000Y-100400000D02*
G75*
G02*
X146214000Y-100400000I-2286000J0D01*
G01*
X146214000Y-100400000D02*
G75*
G02*
X150786000Y-100400000I2286000J0D01*
G01*
D12*
%TO.C,U10*%
X101816580Y-100500000D02*
G75*
G02*
X70183420Y-100500000I-15816580J0D01*
G01*
X70183420Y-100500000D02*
G75*
G02*
X101816580Y-100500000I15816580J0D01*
G01*
X101786100Y-100413640D02*
G75*
G02*
X70279940Y-100413640I-15753080J0D01*
G01*
X70279940Y-100413640D02*
G75*
G02*
X101786100Y-100413640I15753080J0D01*
G01*
%TO.C,U12*%
X187783560Y-100586360D02*
G75*
G02*
X156150400Y-100586360I-15816580J0D01*
G01*
X156150400Y-100586360D02*
G75*
G02*
X187783560Y-100586360I15816580J0D01*
G01*
X187753080Y-100500000D02*
G75*
G02*
X156246920Y-100500000I-15753080J0D01*
G01*
X156246920Y-100500000D02*
G75*
G02*
X187753080Y-100500000I15753080J0D01*
G01*
D13*
%TO.C,R10*%
X148272936Y-92815000D02*
X148727064Y-92815000D01*
X148272936Y-94285000D02*
X148727064Y-94285000D01*
%TO.C,D11*%
X146640000Y-94690000D02*
X146640000Y-96610000D01*
X146640000Y-96610000D02*
X149500000Y-96610000D01*
X149500000Y-94690000D02*
X146640000Y-94690000D01*
%TO.C,R11*%
X148272936Y-106340001D02*
X148727064Y-106340001D01*
X148272936Y-107810001D02*
X148727064Y-107810001D01*
%TO.C,D12*%
X146640000Y-104015001D02*
X146640000Y-105935001D01*
X146640000Y-105935001D02*
X149500000Y-105935001D01*
X149500000Y-104015001D02*
X146640000Y-104015001D01*
D12*
%TO.C,U11*%
X140783560Y-100500000D02*
G75*
G02*
X109150400Y-100500000I-15816580J0D01*
G01*
X109150400Y-100500000D02*
G75*
G02*
X140783560Y-100500000I15816580J0D01*
G01*
X140753080Y-100413640D02*
G75*
G02*
X109246920Y-100413640I-15753080J0D01*
G01*
X109246920Y-100413640D02*
G75*
G02*
X140753080Y-100413640I15753080J0D01*
G01*
%TD*%
M02*
