%TF.GenerationSoftware,KiCad,Pcbnew,9.0.0*%
%TF.CreationDate,2025-03-11T11:24:57+01:00*%
%TF.ProjectId,CNIX V2 Tube Board,434e4958-2056-4322-9054-75626520426f,rev?*%
%TF.SameCoordinates,Original*%
%TF.FileFunction,Paste,Bot*%
%TF.FilePolarity,Positive*%
%FSLAX46Y46*%
G04 Gerber Fmt 4.6, Leading zero omitted, Abs format (unit mm)*
G04 Created by KiCad (PCBNEW 9.0.0) date 2025-03-11 11:24:57*
%MOMM*%
%LPD*%
G01*
G04 APERTURE LIST*
G04 Aperture macros list*
%AMRoundRect*
0 Rectangle with rounded corners*
0 $1 Rounding radius*
0 $2 $3 $4 $5 $6 $7 $8 $9 X,Y pos of 4 corners*
0 Add a 4 corners polygon primitive as box body*
4,1,4,$2,$3,$4,$5,$6,$7,$8,$9,$2,$3,0*
0 Add four circle primitives for the rounded corners*
1,1,$1+$1,$2,$3*
1,1,$1+$1,$4,$5*
1,1,$1+$1,$6,$7*
1,1,$1+$1,$8,$9*
0 Add four rect primitives between the rounded corners*
20,1,$1+$1,$2,$3,$4,$5,0*
20,1,$1+$1,$4,$5,$6,$7,0*
20,1,$1+$1,$6,$7,$8,$9,0*
20,1,$1+$1,$8,$9,$2,$3,0*%
G04 Aperture macros list end*
%ADD10RoundRect,0.250000X0.600000X-0.400000X0.600000X0.400000X-0.600000X0.400000X-0.600000X-0.400000X0*%
%ADD11RoundRect,0.250000X-0.262500X-0.450000X0.262500X-0.450000X0.262500X0.450000X-0.262500X0.450000X0*%
%ADD12RoundRect,0.150000X0.150000X-0.825000X0.150000X0.825000X-0.150000X0.825000X-0.150000X-0.825000X0*%
%ADD13RoundRect,0.250000X-0.337500X-0.475000X0.337500X-0.475000X0.337500X0.475000X-0.337500X0.475000X0*%
%ADD14RoundRect,0.250000X-0.600000X0.400000X-0.600000X-0.400000X0.600000X-0.400000X0.600000X0.400000X0*%
%ADD15RoundRect,0.250000X0.625000X-0.400000X0.625000X0.400000X-0.625000X0.400000X-0.625000X-0.400000X0*%
%ADD16RoundRect,0.250000X-0.450000X0.262500X-0.450000X-0.262500X0.450000X-0.262500X0.450000X0.262500X0*%
%ADD17RoundRect,0.250000X0.450000X-0.262500X0.450000X0.262500X-0.450000X0.262500X-0.450000X-0.262500X0*%
G04 APERTURE END LIST*
D10*
%TO.C,D1*%
X97600000Y-115050000D03*
X97600000Y-111550000D03*
%TD*%
D11*
%TO.C,R2*%
X132187500Y-111300000D03*
X134012500Y-111300000D03*
%TD*%
D12*
%TO.C,U5*%
X229640000Y-116700000D03*
X228370000Y-116700000D03*
X227100000Y-116700000D03*
X225830000Y-116700000D03*
X224560000Y-116700000D03*
X223290000Y-116700000D03*
X222020000Y-116700000D03*
X220750000Y-116700000D03*
X220750000Y-111750000D03*
X222020000Y-111750000D03*
X223290000Y-111750000D03*
X224560000Y-111750000D03*
X225830000Y-111750000D03*
X227100000Y-111750000D03*
X228370000Y-111750000D03*
X229640000Y-111750000D03*
%TD*%
%TO.C,U3*%
X163445000Y-116675000D03*
X162175000Y-116675000D03*
X160905000Y-116675000D03*
X159635000Y-116675000D03*
X158365000Y-116675000D03*
X157095000Y-116675000D03*
X155825000Y-116675000D03*
X154555000Y-116675000D03*
X154555000Y-111725000D03*
X155825000Y-111725000D03*
X157095000Y-111725000D03*
X158365000Y-111725000D03*
X159635000Y-111725000D03*
X160905000Y-111725000D03*
X162175000Y-111725000D03*
X163445000Y-111725000D03*
%TD*%
D13*
%TO.C,C4*%
X188275000Y-79325000D03*
X190350000Y-79325000D03*
%TD*%
D14*
%TO.C,D13*%
X67800000Y-117150000D03*
X67800000Y-120650000D03*
%TD*%
%TO.C,D8*%
X183400000Y-113550000D03*
X183400000Y-117050000D03*
%TD*%
D10*
%TO.C,D5*%
X149500000Y-117050001D03*
X149500000Y-113550001D03*
%TD*%
D13*
%TO.C,C1*%
X106062500Y-79300000D03*
X108137500Y-79300000D03*
%TD*%
D12*
%TO.C,U6*%
X104145000Y-84275000D03*
X102875000Y-84275000D03*
X101605000Y-84275000D03*
X100335000Y-84275000D03*
X99065000Y-84275000D03*
X97795000Y-84275000D03*
X96525000Y-84275000D03*
X95255000Y-84275000D03*
X95255000Y-79325000D03*
X96525000Y-79325000D03*
X97795000Y-79325000D03*
X99065000Y-79325000D03*
X100335000Y-79325000D03*
X101605000Y-79325000D03*
X102875000Y-79325000D03*
X104145000Y-79325000D03*
%TD*%
%TO.C,U4*%
X194845000Y-116675000D03*
X193575000Y-116675000D03*
X192305000Y-116675000D03*
X191035000Y-116675000D03*
X189765000Y-116675000D03*
X188495000Y-116675000D03*
X187225000Y-116675000D03*
X185955000Y-116675000D03*
X185955000Y-111725000D03*
X187225000Y-111725000D03*
X188495000Y-111725000D03*
X189765000Y-111725000D03*
X191035000Y-111725000D03*
X192305000Y-111725000D03*
X193575000Y-111725000D03*
X194845000Y-111725000D03*
%TD*%
D11*
%TO.C,R3*%
X150587500Y-111300000D03*
X152412500Y-111300000D03*
%TD*%
D15*
%TO.C,R8*%
X173800000Y-123350001D03*
X173800000Y-120249999D03*
%TD*%
%TO.C,R7*%
X126900000Y-123350001D03*
X126900000Y-120249999D03*
%TD*%
D12*
%TO.C,U9*%
X202545000Y-84275000D03*
X201275000Y-84275000D03*
X200005000Y-84275000D03*
X198735000Y-84275000D03*
X197465000Y-84275000D03*
X196195000Y-84275000D03*
X194925000Y-84275000D03*
X193655000Y-84275000D03*
X193655000Y-79325000D03*
X194925000Y-79325000D03*
X196195000Y-79325000D03*
X197465000Y-79325000D03*
X198735000Y-79325000D03*
X200005000Y-79325000D03*
X201275000Y-79325000D03*
X202545000Y-79325000D03*
%TD*%
D13*
%TO.C,C3*%
X204462500Y-79300000D03*
X206537500Y-79300000D03*
%TD*%
D12*
%TO.C,U8*%
X186345000Y-84275000D03*
X185075000Y-84275000D03*
X183805000Y-84275000D03*
X182535000Y-84275000D03*
X181265000Y-84275000D03*
X179995000Y-84275000D03*
X178725000Y-84275000D03*
X177455000Y-84275000D03*
X177455000Y-79325000D03*
X178725000Y-79325000D03*
X179995000Y-79325000D03*
X181265000Y-79325000D03*
X182535000Y-79325000D03*
X183805000Y-79325000D03*
X185075000Y-79325000D03*
X186345000Y-79325000D03*
%TD*%
%TO.C,U7*%
X120845000Y-84275000D03*
X119575000Y-84275000D03*
X118305000Y-84275000D03*
X117035000Y-84275000D03*
X115765000Y-84275000D03*
X114495000Y-84275000D03*
X113225000Y-84275000D03*
X111955000Y-84275000D03*
X111955000Y-79325000D03*
X113225000Y-79325000D03*
X114495000Y-79325000D03*
X115765000Y-79325000D03*
X117035000Y-79325000D03*
X118305000Y-79325000D03*
X119575000Y-79325000D03*
X120845000Y-79325000D03*
%TD*%
D15*
%TO.C,R9*%
X210000000Y-123350001D03*
X210000000Y-120249999D03*
%TD*%
D11*
%TO.C,R4*%
X182087500Y-111200000D03*
X183912500Y-111200000D03*
%TD*%
D14*
%TO.C,D10*%
X218300000Y-113550000D03*
X218300000Y-117050000D03*
%TD*%
D13*
%TO.C,C2*%
X122762500Y-79300000D03*
X124837500Y-79300000D03*
%TD*%
D16*
%TO.C,R12*%
X70200000Y-107387500D03*
X70200000Y-109212500D03*
%TD*%
D17*
%TO.C,R1*%
X97600000Y-119112500D03*
X97600000Y-117287500D03*
%TD*%
D12*
%TO.C,U14*%
X79145000Y-116675000D03*
X77875000Y-116675000D03*
X76605000Y-116675000D03*
X75335000Y-116675000D03*
X74065000Y-116675000D03*
X72795000Y-116675000D03*
X71525000Y-116675000D03*
X70255000Y-116675000D03*
X70255000Y-111725000D03*
X71525000Y-111725000D03*
X72795000Y-111725000D03*
X74065000Y-111725000D03*
X75335000Y-111725000D03*
X76605000Y-111725000D03*
X77875000Y-111725000D03*
X79145000Y-111725000D03*
%TD*%
D14*
%TO.C,D14*%
X67800000Y-111450000D03*
X67800000Y-114950000D03*
%TD*%
D12*
%TO.C,U2*%
X145045000Y-116675000D03*
X143775000Y-116675000D03*
X142505000Y-116675000D03*
X141235000Y-116675000D03*
X139965000Y-116675000D03*
X138695000Y-116675000D03*
X137425000Y-116675000D03*
X136155000Y-116675000D03*
X136155000Y-111725000D03*
X137425000Y-111725000D03*
X138695000Y-111725000D03*
X139965000Y-111725000D03*
X141235000Y-111725000D03*
X142505000Y-111725000D03*
X143775000Y-111725000D03*
X145045000Y-111725000D03*
%TD*%
D14*
%TO.C,D2*%
X94700000Y-111550000D03*
X94700000Y-115050000D03*
%TD*%
%TO.C,D6*%
X152100000Y-113550000D03*
X152100000Y-117050000D03*
%TD*%
D10*
%TO.C,D3*%
X130800000Y-116950000D03*
X130800000Y-113450000D03*
%TD*%
%TO.C,D7*%
X180700000Y-117050000D03*
X180700000Y-113550000D03*
%TD*%
D12*
%TO.C,U1*%
X109645000Y-116675000D03*
X108375000Y-116675000D03*
X107105000Y-116675000D03*
X105835000Y-116675000D03*
X104565000Y-116675000D03*
X103295000Y-116675000D03*
X102025000Y-116675000D03*
X100755000Y-116675000D03*
X100755000Y-111725000D03*
X102025000Y-111725000D03*
X103295000Y-111725000D03*
X104565000Y-111725000D03*
X105835000Y-111725000D03*
X107105000Y-111725000D03*
X108375000Y-111725000D03*
X109645000Y-111725000D03*
%TD*%
D10*
%TO.C,D9*%
X215600000Y-117050000D03*
X215600000Y-113550000D03*
%TD*%
D11*
%TO.C,R5*%
X216787500Y-111200000D03*
X218612500Y-111200000D03*
%TD*%
D14*
%TO.C,D4*%
X133700000Y-113450000D03*
X133700000Y-116950000D03*
%TD*%
D15*
%TO.C,R6*%
X88600000Y-123250001D03*
X88600000Y-120149999D03*
%TD*%
M02*
