%TF.GenerationSoftware,KiCad,Pcbnew,9.0.0*%
%TF.CreationDate,2025-03-11T11:24:58+01:00*%
%TF.ProjectId,CNIX V2 Tube Board,434e4958-2056-4322-9054-75626520426f,rev?*%
%TF.SameCoordinates,Original*%
%TF.FileFunction,Legend,Bot*%
%TF.FilePolarity,Positive*%
%FSLAX46Y46*%
G04 Gerber Fmt 4.6, Leading zero omitted, Abs format (unit mm)*
G04 Created by KiCad (PCBNEW 9.0.0) date 2025-03-11 11:24:58*
%MOMM*%
%LPD*%
G01*
G04 APERTURE LIST*
%ADD10C,0.150000*%
%ADD11C,0.120000*%
G04 APERTURE END LIST*
D10*
X98338094Y-110354819D02*
X98338094Y-109354819D01*
X98338094Y-109354819D02*
X98099999Y-109354819D01*
X98099999Y-109354819D02*
X97957142Y-109402438D01*
X97957142Y-109402438D02*
X97861904Y-109497676D01*
X97861904Y-109497676D02*
X97814285Y-109592914D01*
X97814285Y-109592914D02*
X97766666Y-109783390D01*
X97766666Y-109783390D02*
X97766666Y-109926247D01*
X97766666Y-109926247D02*
X97814285Y-110116723D01*
X97814285Y-110116723D02*
X97861904Y-110211961D01*
X97861904Y-110211961D02*
X97957142Y-110307200D01*
X97957142Y-110307200D02*
X98099999Y-110354819D01*
X98099999Y-110354819D02*
X98338094Y-110354819D01*
X96814285Y-110354819D02*
X97385713Y-110354819D01*
X97099999Y-110354819D02*
X97099999Y-109354819D01*
X97099999Y-109354819D02*
X97195237Y-109497676D01*
X97195237Y-109497676D02*
X97290475Y-109592914D01*
X97290475Y-109592914D02*
X97385713Y-109640533D01*
X133195955Y-110128473D02*
X133529288Y-109652282D01*
X133767383Y-110128473D02*
X133767383Y-109128473D01*
X133767383Y-109128473D02*
X133386431Y-109128473D01*
X133386431Y-109128473D02*
X133291193Y-109176092D01*
X133291193Y-109176092D02*
X133243574Y-109223711D01*
X133243574Y-109223711D02*
X133195955Y-109318949D01*
X133195955Y-109318949D02*
X133195955Y-109461806D01*
X133195955Y-109461806D02*
X133243574Y-109557044D01*
X133243574Y-109557044D02*
X133291193Y-109604663D01*
X133291193Y-109604663D02*
X133386431Y-109652282D01*
X133386431Y-109652282D02*
X133767383Y-109652282D01*
X132815002Y-109223711D02*
X132767383Y-109176092D01*
X132767383Y-109176092D02*
X132672145Y-109128473D01*
X132672145Y-109128473D02*
X132434050Y-109128473D01*
X132434050Y-109128473D02*
X132338812Y-109176092D01*
X132338812Y-109176092D02*
X132291193Y-109223711D01*
X132291193Y-109223711D02*
X132243574Y-109318949D01*
X132243574Y-109318949D02*
X132243574Y-109414187D01*
X132243574Y-109414187D02*
X132291193Y-109557044D01*
X132291193Y-109557044D02*
X132862621Y-110128473D01*
X132862621Y-110128473D02*
X132243574Y-110128473D01*
X72324819Y-76666666D02*
X73039104Y-76666666D01*
X73039104Y-76666666D02*
X73181961Y-76619047D01*
X73181961Y-76619047D02*
X73277200Y-76523809D01*
X73277200Y-76523809D02*
X73324819Y-76380952D01*
X73324819Y-76380952D02*
X73324819Y-76285714D01*
X73324819Y-77666666D02*
X73324819Y-77095238D01*
X73324819Y-77380952D02*
X72324819Y-77380952D01*
X72324819Y-77380952D02*
X72467676Y-77285714D01*
X72467676Y-77285714D02*
X72562914Y-77190476D01*
X72562914Y-77190476D02*
X72610533Y-77095238D01*
X230361904Y-118354819D02*
X230361904Y-119164342D01*
X230361904Y-119164342D02*
X230314285Y-119259580D01*
X230314285Y-119259580D02*
X230266666Y-119307200D01*
X230266666Y-119307200D02*
X230171428Y-119354819D01*
X230171428Y-119354819D02*
X229980952Y-119354819D01*
X229980952Y-119354819D02*
X229885714Y-119307200D01*
X229885714Y-119307200D02*
X229838095Y-119259580D01*
X229838095Y-119259580D02*
X229790476Y-119164342D01*
X229790476Y-119164342D02*
X229790476Y-118354819D01*
X228838095Y-118354819D02*
X229314285Y-118354819D01*
X229314285Y-118354819D02*
X229361904Y-118831009D01*
X229361904Y-118831009D02*
X229314285Y-118783390D01*
X229314285Y-118783390D02*
X229219047Y-118735771D01*
X229219047Y-118735771D02*
X228980952Y-118735771D01*
X228980952Y-118735771D02*
X228885714Y-118783390D01*
X228885714Y-118783390D02*
X228838095Y-118831009D01*
X228838095Y-118831009D02*
X228790476Y-118926247D01*
X228790476Y-118926247D02*
X228790476Y-119164342D01*
X228790476Y-119164342D02*
X228838095Y-119259580D01*
X228838095Y-119259580D02*
X228885714Y-119307200D01*
X228885714Y-119307200D02*
X228980952Y-119354819D01*
X228980952Y-119354819D02*
X229219047Y-119354819D01*
X229219047Y-119354819D02*
X229314285Y-119307200D01*
X229314285Y-119307200D02*
X229361904Y-119259580D01*
X164061904Y-118054819D02*
X164061904Y-118864342D01*
X164061904Y-118864342D02*
X164014285Y-118959580D01*
X164014285Y-118959580D02*
X163966666Y-119007200D01*
X163966666Y-119007200D02*
X163871428Y-119054819D01*
X163871428Y-119054819D02*
X163680952Y-119054819D01*
X163680952Y-119054819D02*
X163585714Y-119007200D01*
X163585714Y-119007200D02*
X163538095Y-118959580D01*
X163538095Y-118959580D02*
X163490476Y-118864342D01*
X163490476Y-118864342D02*
X163490476Y-118054819D01*
X163109523Y-118054819D02*
X162490476Y-118054819D01*
X162490476Y-118054819D02*
X162823809Y-118435771D01*
X162823809Y-118435771D02*
X162680952Y-118435771D01*
X162680952Y-118435771D02*
X162585714Y-118483390D01*
X162585714Y-118483390D02*
X162538095Y-118531009D01*
X162538095Y-118531009D02*
X162490476Y-118626247D01*
X162490476Y-118626247D02*
X162490476Y-118864342D01*
X162490476Y-118864342D02*
X162538095Y-118959580D01*
X162538095Y-118959580D02*
X162585714Y-119007200D01*
X162585714Y-119007200D02*
X162680952Y-119054819D01*
X162680952Y-119054819D02*
X162966666Y-119054819D01*
X162966666Y-119054819D02*
X163061904Y-119007200D01*
X163061904Y-119007200D02*
X163109523Y-118959580D01*
X192459580Y-79233333D02*
X192507200Y-79185714D01*
X192507200Y-79185714D02*
X192554819Y-79042857D01*
X192554819Y-79042857D02*
X192554819Y-78947619D01*
X192554819Y-78947619D02*
X192507200Y-78804762D01*
X192507200Y-78804762D02*
X192411961Y-78709524D01*
X192411961Y-78709524D02*
X192316723Y-78661905D01*
X192316723Y-78661905D02*
X192126247Y-78614286D01*
X192126247Y-78614286D02*
X191983390Y-78614286D01*
X191983390Y-78614286D02*
X191792914Y-78661905D01*
X191792914Y-78661905D02*
X191697676Y-78709524D01*
X191697676Y-78709524D02*
X191602438Y-78804762D01*
X191602438Y-78804762D02*
X191554819Y-78947619D01*
X191554819Y-78947619D02*
X191554819Y-79042857D01*
X191554819Y-79042857D02*
X191602438Y-79185714D01*
X191602438Y-79185714D02*
X191650057Y-79233333D01*
X191888152Y-80090476D02*
X192554819Y-80090476D01*
X191507200Y-79852381D02*
X192221485Y-79614286D01*
X192221485Y-79614286D02*
X192221485Y-80233333D01*
X70054819Y-118785714D02*
X69054819Y-118785714D01*
X69054819Y-118785714D02*
X69054819Y-119023809D01*
X69054819Y-119023809D02*
X69102438Y-119166666D01*
X69102438Y-119166666D02*
X69197676Y-119261904D01*
X69197676Y-119261904D02*
X69292914Y-119309523D01*
X69292914Y-119309523D02*
X69483390Y-119357142D01*
X69483390Y-119357142D02*
X69626247Y-119357142D01*
X69626247Y-119357142D02*
X69816723Y-119309523D01*
X69816723Y-119309523D02*
X69911961Y-119261904D01*
X69911961Y-119261904D02*
X70007200Y-119166666D01*
X70007200Y-119166666D02*
X70054819Y-119023809D01*
X70054819Y-119023809D02*
X70054819Y-118785714D01*
X70054819Y-120309523D02*
X70054819Y-119738095D01*
X70054819Y-120023809D02*
X69054819Y-120023809D01*
X69054819Y-120023809D02*
X69197676Y-119928571D01*
X69197676Y-119928571D02*
X69292914Y-119833333D01*
X69292914Y-119833333D02*
X69340533Y-119738095D01*
X69054819Y-120642857D02*
X69054819Y-121261904D01*
X69054819Y-121261904D02*
X69435771Y-120928571D01*
X69435771Y-120928571D02*
X69435771Y-121071428D01*
X69435771Y-121071428D02*
X69483390Y-121166666D01*
X69483390Y-121166666D02*
X69531009Y-121214285D01*
X69531009Y-121214285D02*
X69626247Y-121261904D01*
X69626247Y-121261904D02*
X69864342Y-121261904D01*
X69864342Y-121261904D02*
X69959580Y-121214285D01*
X69959580Y-121214285D02*
X70007200Y-121166666D01*
X70007200Y-121166666D02*
X70054819Y-121071428D01*
X70054819Y-121071428D02*
X70054819Y-120785714D01*
X70054819Y-120785714D02*
X70007200Y-120690476D01*
X70007200Y-120690476D02*
X69959580Y-120642857D01*
X184138094Y-119204819D02*
X184138094Y-118204819D01*
X184138094Y-118204819D02*
X183899999Y-118204819D01*
X183899999Y-118204819D02*
X183757142Y-118252438D01*
X183757142Y-118252438D02*
X183661904Y-118347676D01*
X183661904Y-118347676D02*
X183614285Y-118442914D01*
X183614285Y-118442914D02*
X183566666Y-118633390D01*
X183566666Y-118633390D02*
X183566666Y-118776247D01*
X183566666Y-118776247D02*
X183614285Y-118966723D01*
X183614285Y-118966723D02*
X183661904Y-119061961D01*
X183661904Y-119061961D02*
X183757142Y-119157200D01*
X183757142Y-119157200D02*
X183899999Y-119204819D01*
X183899999Y-119204819D02*
X184138094Y-119204819D01*
X182995237Y-118633390D02*
X183090475Y-118585771D01*
X183090475Y-118585771D02*
X183138094Y-118538152D01*
X183138094Y-118538152D02*
X183185713Y-118442914D01*
X183185713Y-118442914D02*
X183185713Y-118395295D01*
X183185713Y-118395295D02*
X183138094Y-118300057D01*
X183138094Y-118300057D02*
X183090475Y-118252438D01*
X183090475Y-118252438D02*
X182995237Y-118204819D01*
X182995237Y-118204819D02*
X182804761Y-118204819D01*
X182804761Y-118204819D02*
X182709523Y-118252438D01*
X182709523Y-118252438D02*
X182661904Y-118300057D01*
X182661904Y-118300057D02*
X182614285Y-118395295D01*
X182614285Y-118395295D02*
X182614285Y-118442914D01*
X182614285Y-118442914D02*
X182661904Y-118538152D01*
X182661904Y-118538152D02*
X182709523Y-118585771D01*
X182709523Y-118585771D02*
X182804761Y-118633390D01*
X182804761Y-118633390D02*
X182995237Y-118633390D01*
X182995237Y-118633390D02*
X183090475Y-118681009D01*
X183090475Y-118681009D02*
X183138094Y-118728628D01*
X183138094Y-118728628D02*
X183185713Y-118823866D01*
X183185713Y-118823866D02*
X183185713Y-119014342D01*
X183185713Y-119014342D02*
X183138094Y-119109580D01*
X183138094Y-119109580D02*
X183090475Y-119157200D01*
X183090475Y-119157200D02*
X182995237Y-119204819D01*
X182995237Y-119204819D02*
X182804761Y-119204819D01*
X182804761Y-119204819D02*
X182709523Y-119157200D01*
X182709523Y-119157200D02*
X182661904Y-119109580D01*
X182661904Y-119109580D02*
X182614285Y-119014342D01*
X182614285Y-119014342D02*
X182614285Y-118823866D01*
X182614285Y-118823866D02*
X182661904Y-118728628D01*
X182661904Y-118728628D02*
X182709523Y-118681009D01*
X182709523Y-118681009D02*
X182804761Y-118633390D01*
X150238094Y-119154820D02*
X150238094Y-118154820D01*
X150238094Y-118154820D02*
X149999999Y-118154820D01*
X149999999Y-118154820D02*
X149857142Y-118202439D01*
X149857142Y-118202439D02*
X149761904Y-118297677D01*
X149761904Y-118297677D02*
X149714285Y-118392915D01*
X149714285Y-118392915D02*
X149666666Y-118583391D01*
X149666666Y-118583391D02*
X149666666Y-118726248D01*
X149666666Y-118726248D02*
X149714285Y-118916724D01*
X149714285Y-118916724D02*
X149761904Y-119011962D01*
X149761904Y-119011962D02*
X149857142Y-119107201D01*
X149857142Y-119107201D02*
X149999999Y-119154820D01*
X149999999Y-119154820D02*
X150238094Y-119154820D01*
X148761904Y-118154820D02*
X149238094Y-118154820D01*
X149238094Y-118154820D02*
X149285713Y-118631010D01*
X149285713Y-118631010D02*
X149238094Y-118583391D01*
X149238094Y-118583391D02*
X149142856Y-118535772D01*
X149142856Y-118535772D02*
X148904761Y-118535772D01*
X148904761Y-118535772D02*
X148809523Y-118583391D01*
X148809523Y-118583391D02*
X148761904Y-118631010D01*
X148761904Y-118631010D02*
X148714285Y-118726248D01*
X148714285Y-118726248D02*
X148714285Y-118964343D01*
X148714285Y-118964343D02*
X148761904Y-119059581D01*
X148761904Y-119059581D02*
X148809523Y-119107201D01*
X148809523Y-119107201D02*
X148904761Y-119154820D01*
X148904761Y-119154820D02*
X149142856Y-119154820D01*
X149142856Y-119154820D02*
X149238094Y-119107201D01*
X149238094Y-119107201D02*
X149285713Y-119059581D01*
X110209580Y-79133333D02*
X110257200Y-79085714D01*
X110257200Y-79085714D02*
X110304819Y-78942857D01*
X110304819Y-78942857D02*
X110304819Y-78847619D01*
X110304819Y-78847619D02*
X110257200Y-78704762D01*
X110257200Y-78704762D02*
X110161961Y-78609524D01*
X110161961Y-78609524D02*
X110066723Y-78561905D01*
X110066723Y-78561905D02*
X109876247Y-78514286D01*
X109876247Y-78514286D02*
X109733390Y-78514286D01*
X109733390Y-78514286D02*
X109542914Y-78561905D01*
X109542914Y-78561905D02*
X109447676Y-78609524D01*
X109447676Y-78609524D02*
X109352438Y-78704762D01*
X109352438Y-78704762D02*
X109304819Y-78847619D01*
X109304819Y-78847619D02*
X109304819Y-78942857D01*
X109304819Y-78942857D02*
X109352438Y-79085714D01*
X109352438Y-79085714D02*
X109400057Y-79133333D01*
X110304819Y-80085714D02*
X110304819Y-79514286D01*
X110304819Y-79800000D02*
X109304819Y-79800000D01*
X109304819Y-79800000D02*
X109447676Y-79704762D01*
X109447676Y-79704762D02*
X109542914Y-79609524D01*
X109542914Y-79609524D02*
X109590533Y-79514286D01*
X223454819Y-123666666D02*
X224169104Y-123666666D01*
X224169104Y-123666666D02*
X224311961Y-123619047D01*
X224311961Y-123619047D02*
X224407200Y-123523809D01*
X224407200Y-123523809D02*
X224454819Y-123380952D01*
X224454819Y-123380952D02*
X224454819Y-123285714D01*
X223454819Y-124619047D02*
X223454819Y-124142857D01*
X223454819Y-124142857D02*
X223931009Y-124095238D01*
X223931009Y-124095238D02*
X223883390Y-124142857D01*
X223883390Y-124142857D02*
X223835771Y-124238095D01*
X223835771Y-124238095D02*
X223835771Y-124476190D01*
X223835771Y-124476190D02*
X223883390Y-124571428D01*
X223883390Y-124571428D02*
X223931009Y-124619047D01*
X223931009Y-124619047D02*
X224026247Y-124666666D01*
X224026247Y-124666666D02*
X224264342Y-124666666D01*
X224264342Y-124666666D02*
X224359580Y-124619047D01*
X224359580Y-124619047D02*
X224407200Y-124571428D01*
X224407200Y-124571428D02*
X224454819Y-124476190D01*
X224454819Y-124476190D02*
X224454819Y-124238095D01*
X224454819Y-124238095D02*
X224407200Y-124142857D01*
X224407200Y-124142857D02*
X224359580Y-124095238D01*
X96061904Y-76854819D02*
X96061904Y-77664342D01*
X96061904Y-77664342D02*
X96014285Y-77759580D01*
X96014285Y-77759580D02*
X95966666Y-77807200D01*
X95966666Y-77807200D02*
X95871428Y-77854819D01*
X95871428Y-77854819D02*
X95680952Y-77854819D01*
X95680952Y-77854819D02*
X95585714Y-77807200D01*
X95585714Y-77807200D02*
X95538095Y-77759580D01*
X95538095Y-77759580D02*
X95490476Y-77664342D01*
X95490476Y-77664342D02*
X95490476Y-76854819D01*
X94585714Y-76854819D02*
X94776190Y-76854819D01*
X94776190Y-76854819D02*
X94871428Y-76902438D01*
X94871428Y-76902438D02*
X94919047Y-76950057D01*
X94919047Y-76950057D02*
X95014285Y-77092914D01*
X95014285Y-77092914D02*
X95061904Y-77283390D01*
X95061904Y-77283390D02*
X95061904Y-77664342D01*
X95061904Y-77664342D02*
X95014285Y-77759580D01*
X95014285Y-77759580D02*
X94966666Y-77807200D01*
X94966666Y-77807200D02*
X94871428Y-77854819D01*
X94871428Y-77854819D02*
X94680952Y-77854819D01*
X94680952Y-77854819D02*
X94585714Y-77807200D01*
X94585714Y-77807200D02*
X94538095Y-77759580D01*
X94538095Y-77759580D02*
X94490476Y-77664342D01*
X94490476Y-77664342D02*
X94490476Y-77426247D01*
X94490476Y-77426247D02*
X94538095Y-77331009D01*
X94538095Y-77331009D02*
X94585714Y-77283390D01*
X94585714Y-77283390D02*
X94680952Y-77235771D01*
X94680952Y-77235771D02*
X94871428Y-77235771D01*
X94871428Y-77235771D02*
X94966666Y-77283390D01*
X94966666Y-77283390D02*
X95014285Y-77331009D01*
X95014285Y-77331009D02*
X95061904Y-77426247D01*
X195461904Y-118154819D02*
X195461904Y-118964342D01*
X195461904Y-118964342D02*
X195414285Y-119059580D01*
X195414285Y-119059580D02*
X195366666Y-119107200D01*
X195366666Y-119107200D02*
X195271428Y-119154819D01*
X195271428Y-119154819D02*
X195080952Y-119154819D01*
X195080952Y-119154819D02*
X194985714Y-119107200D01*
X194985714Y-119107200D02*
X194938095Y-119059580D01*
X194938095Y-119059580D02*
X194890476Y-118964342D01*
X194890476Y-118964342D02*
X194890476Y-118154819D01*
X193985714Y-118488152D02*
X193985714Y-119154819D01*
X194223809Y-118107200D02*
X194461904Y-118821485D01*
X194461904Y-118821485D02*
X193842857Y-118821485D01*
X151666666Y-110154818D02*
X151999999Y-109678627D01*
X152238094Y-110154818D02*
X152238094Y-109154818D01*
X152238094Y-109154818D02*
X151857142Y-109154818D01*
X151857142Y-109154818D02*
X151761904Y-109202437D01*
X151761904Y-109202437D02*
X151714285Y-109250056D01*
X151714285Y-109250056D02*
X151666666Y-109345294D01*
X151666666Y-109345294D02*
X151666666Y-109488151D01*
X151666666Y-109488151D02*
X151714285Y-109583389D01*
X151714285Y-109583389D02*
X151761904Y-109631008D01*
X151761904Y-109631008D02*
X151857142Y-109678627D01*
X151857142Y-109678627D02*
X152238094Y-109678627D01*
X151333332Y-109154818D02*
X150714285Y-109154818D01*
X150714285Y-109154818D02*
X151047618Y-109535770D01*
X151047618Y-109535770D02*
X150904761Y-109535770D01*
X150904761Y-109535770D02*
X150809523Y-109583389D01*
X150809523Y-109583389D02*
X150761904Y-109631008D01*
X150761904Y-109631008D02*
X150714285Y-109726246D01*
X150714285Y-109726246D02*
X150714285Y-109964341D01*
X150714285Y-109964341D02*
X150761904Y-110059579D01*
X150761904Y-110059579D02*
X150809523Y-110107199D01*
X150809523Y-110107199D02*
X150904761Y-110154818D01*
X150904761Y-110154818D02*
X151190475Y-110154818D01*
X151190475Y-110154818D02*
X151285713Y-110107199D01*
X151285713Y-110107199D02*
X151333332Y-110059579D01*
X176074819Y-121633333D02*
X175598628Y-121300000D01*
X176074819Y-121061905D02*
X175074819Y-121061905D01*
X175074819Y-121061905D02*
X175074819Y-121442857D01*
X175074819Y-121442857D02*
X175122438Y-121538095D01*
X175122438Y-121538095D02*
X175170057Y-121585714D01*
X175170057Y-121585714D02*
X175265295Y-121633333D01*
X175265295Y-121633333D02*
X175408152Y-121633333D01*
X175408152Y-121633333D02*
X175503390Y-121585714D01*
X175503390Y-121585714D02*
X175551009Y-121538095D01*
X175551009Y-121538095D02*
X175598628Y-121442857D01*
X175598628Y-121442857D02*
X175598628Y-121061905D01*
X175503390Y-122204762D02*
X175455771Y-122109524D01*
X175455771Y-122109524D02*
X175408152Y-122061905D01*
X175408152Y-122061905D02*
X175312914Y-122014286D01*
X175312914Y-122014286D02*
X175265295Y-122014286D01*
X175265295Y-122014286D02*
X175170057Y-122061905D01*
X175170057Y-122061905D02*
X175122438Y-122109524D01*
X175122438Y-122109524D02*
X175074819Y-122204762D01*
X175074819Y-122204762D02*
X175074819Y-122395238D01*
X175074819Y-122395238D02*
X175122438Y-122490476D01*
X175122438Y-122490476D02*
X175170057Y-122538095D01*
X175170057Y-122538095D02*
X175265295Y-122585714D01*
X175265295Y-122585714D02*
X175312914Y-122585714D01*
X175312914Y-122585714D02*
X175408152Y-122538095D01*
X175408152Y-122538095D02*
X175455771Y-122490476D01*
X175455771Y-122490476D02*
X175503390Y-122395238D01*
X175503390Y-122395238D02*
X175503390Y-122204762D01*
X175503390Y-122204762D02*
X175551009Y-122109524D01*
X175551009Y-122109524D02*
X175598628Y-122061905D01*
X175598628Y-122061905D02*
X175693866Y-122014286D01*
X175693866Y-122014286D02*
X175884342Y-122014286D01*
X175884342Y-122014286D02*
X175979580Y-122061905D01*
X175979580Y-122061905D02*
X176027200Y-122109524D01*
X176027200Y-122109524D02*
X176074819Y-122204762D01*
X176074819Y-122204762D02*
X176074819Y-122395238D01*
X176074819Y-122395238D02*
X176027200Y-122490476D01*
X176027200Y-122490476D02*
X175979580Y-122538095D01*
X175979580Y-122538095D02*
X175884342Y-122585714D01*
X175884342Y-122585714D02*
X175693866Y-122585714D01*
X175693866Y-122585714D02*
X175598628Y-122538095D01*
X175598628Y-122538095D02*
X175551009Y-122490476D01*
X175551009Y-122490476D02*
X175503390Y-122395238D01*
X129174819Y-121633333D02*
X128698628Y-121300000D01*
X129174819Y-121061905D02*
X128174819Y-121061905D01*
X128174819Y-121061905D02*
X128174819Y-121442857D01*
X128174819Y-121442857D02*
X128222438Y-121538095D01*
X128222438Y-121538095D02*
X128270057Y-121585714D01*
X128270057Y-121585714D02*
X128365295Y-121633333D01*
X128365295Y-121633333D02*
X128508152Y-121633333D01*
X128508152Y-121633333D02*
X128603390Y-121585714D01*
X128603390Y-121585714D02*
X128651009Y-121538095D01*
X128651009Y-121538095D02*
X128698628Y-121442857D01*
X128698628Y-121442857D02*
X128698628Y-121061905D01*
X128174819Y-121966667D02*
X128174819Y-122633333D01*
X128174819Y-122633333D02*
X129174819Y-122204762D01*
X194461904Y-76754819D02*
X194461904Y-77564342D01*
X194461904Y-77564342D02*
X194414285Y-77659580D01*
X194414285Y-77659580D02*
X194366666Y-77707200D01*
X194366666Y-77707200D02*
X194271428Y-77754819D01*
X194271428Y-77754819D02*
X194080952Y-77754819D01*
X194080952Y-77754819D02*
X193985714Y-77707200D01*
X193985714Y-77707200D02*
X193938095Y-77659580D01*
X193938095Y-77659580D02*
X193890476Y-77564342D01*
X193890476Y-77564342D02*
X193890476Y-76754819D01*
X193366666Y-77754819D02*
X193176190Y-77754819D01*
X193176190Y-77754819D02*
X193080952Y-77707200D01*
X193080952Y-77707200D02*
X193033333Y-77659580D01*
X193033333Y-77659580D02*
X192938095Y-77516723D01*
X192938095Y-77516723D02*
X192890476Y-77326247D01*
X192890476Y-77326247D02*
X192890476Y-76945295D01*
X192890476Y-76945295D02*
X192938095Y-76850057D01*
X192938095Y-76850057D02*
X192985714Y-76802438D01*
X192985714Y-76802438D02*
X193080952Y-76754819D01*
X193080952Y-76754819D02*
X193271428Y-76754819D01*
X193271428Y-76754819D02*
X193366666Y-76802438D01*
X193366666Y-76802438D02*
X193414285Y-76850057D01*
X193414285Y-76850057D02*
X193461904Y-76945295D01*
X193461904Y-76945295D02*
X193461904Y-77183390D01*
X193461904Y-77183390D02*
X193414285Y-77278628D01*
X193414285Y-77278628D02*
X193366666Y-77326247D01*
X193366666Y-77326247D02*
X193271428Y-77373866D01*
X193271428Y-77373866D02*
X193080952Y-77373866D01*
X193080952Y-77373866D02*
X192985714Y-77326247D01*
X192985714Y-77326247D02*
X192938095Y-77278628D01*
X192938095Y-77278628D02*
X192890476Y-77183390D01*
X72324819Y-123666666D02*
X73039104Y-123666666D01*
X73039104Y-123666666D02*
X73181961Y-123619047D01*
X73181961Y-123619047D02*
X73277200Y-123523809D01*
X73277200Y-123523809D02*
X73324819Y-123380952D01*
X73324819Y-123380952D02*
X73324819Y-123285714D01*
X72658152Y-124571428D02*
X73324819Y-124571428D01*
X72277200Y-124333333D02*
X72991485Y-124095238D01*
X72991485Y-124095238D02*
X72991485Y-124714285D01*
X208659580Y-79133333D02*
X208707200Y-79085714D01*
X208707200Y-79085714D02*
X208754819Y-78942857D01*
X208754819Y-78942857D02*
X208754819Y-78847619D01*
X208754819Y-78847619D02*
X208707200Y-78704762D01*
X208707200Y-78704762D02*
X208611961Y-78609524D01*
X208611961Y-78609524D02*
X208516723Y-78561905D01*
X208516723Y-78561905D02*
X208326247Y-78514286D01*
X208326247Y-78514286D02*
X208183390Y-78514286D01*
X208183390Y-78514286D02*
X207992914Y-78561905D01*
X207992914Y-78561905D02*
X207897676Y-78609524D01*
X207897676Y-78609524D02*
X207802438Y-78704762D01*
X207802438Y-78704762D02*
X207754819Y-78847619D01*
X207754819Y-78847619D02*
X207754819Y-78942857D01*
X207754819Y-78942857D02*
X207802438Y-79085714D01*
X207802438Y-79085714D02*
X207850057Y-79133333D01*
X207754819Y-79466667D02*
X207754819Y-80085714D01*
X207754819Y-80085714D02*
X208135771Y-79752381D01*
X208135771Y-79752381D02*
X208135771Y-79895238D01*
X208135771Y-79895238D02*
X208183390Y-79990476D01*
X208183390Y-79990476D02*
X208231009Y-80038095D01*
X208231009Y-80038095D02*
X208326247Y-80085714D01*
X208326247Y-80085714D02*
X208564342Y-80085714D01*
X208564342Y-80085714D02*
X208659580Y-80038095D01*
X208659580Y-80038095D02*
X208707200Y-79990476D01*
X208707200Y-79990476D02*
X208754819Y-79895238D01*
X208754819Y-79895238D02*
X208754819Y-79609524D01*
X208754819Y-79609524D02*
X208707200Y-79514286D01*
X208707200Y-79514286D02*
X208659580Y-79466667D01*
X159159819Y-80171666D02*
X159874104Y-80171666D01*
X159874104Y-80171666D02*
X160016961Y-80124047D01*
X160016961Y-80124047D02*
X160112200Y-80028809D01*
X160112200Y-80028809D02*
X160159819Y-79885952D01*
X160159819Y-79885952D02*
X160159819Y-79790714D01*
X159159819Y-80552619D02*
X159159819Y-81171666D01*
X159159819Y-81171666D02*
X159540771Y-80838333D01*
X159540771Y-80838333D02*
X159540771Y-80981190D01*
X159540771Y-80981190D02*
X159588390Y-81076428D01*
X159588390Y-81076428D02*
X159636009Y-81124047D01*
X159636009Y-81124047D02*
X159731247Y-81171666D01*
X159731247Y-81171666D02*
X159969342Y-81171666D01*
X159969342Y-81171666D02*
X160064580Y-81124047D01*
X160064580Y-81124047D02*
X160112200Y-81076428D01*
X160112200Y-81076428D02*
X160159819Y-80981190D01*
X160159819Y-80981190D02*
X160159819Y-80695476D01*
X160159819Y-80695476D02*
X160112200Y-80600238D01*
X160112200Y-80600238D02*
X160064580Y-80552619D01*
X178361904Y-76854819D02*
X178361904Y-77664342D01*
X178361904Y-77664342D02*
X178314285Y-77759580D01*
X178314285Y-77759580D02*
X178266666Y-77807200D01*
X178266666Y-77807200D02*
X178171428Y-77854819D01*
X178171428Y-77854819D02*
X177980952Y-77854819D01*
X177980952Y-77854819D02*
X177885714Y-77807200D01*
X177885714Y-77807200D02*
X177838095Y-77759580D01*
X177838095Y-77759580D02*
X177790476Y-77664342D01*
X177790476Y-77664342D02*
X177790476Y-76854819D01*
X177171428Y-77283390D02*
X177266666Y-77235771D01*
X177266666Y-77235771D02*
X177314285Y-77188152D01*
X177314285Y-77188152D02*
X177361904Y-77092914D01*
X177361904Y-77092914D02*
X177361904Y-77045295D01*
X177361904Y-77045295D02*
X177314285Y-76950057D01*
X177314285Y-76950057D02*
X177266666Y-76902438D01*
X177266666Y-76902438D02*
X177171428Y-76854819D01*
X177171428Y-76854819D02*
X176980952Y-76854819D01*
X176980952Y-76854819D02*
X176885714Y-76902438D01*
X176885714Y-76902438D02*
X176838095Y-76950057D01*
X176838095Y-76950057D02*
X176790476Y-77045295D01*
X176790476Y-77045295D02*
X176790476Y-77092914D01*
X176790476Y-77092914D02*
X176838095Y-77188152D01*
X176838095Y-77188152D02*
X176885714Y-77235771D01*
X176885714Y-77235771D02*
X176980952Y-77283390D01*
X176980952Y-77283390D02*
X177171428Y-77283390D01*
X177171428Y-77283390D02*
X177266666Y-77331009D01*
X177266666Y-77331009D02*
X177314285Y-77378628D01*
X177314285Y-77378628D02*
X177361904Y-77473866D01*
X177361904Y-77473866D02*
X177361904Y-77664342D01*
X177361904Y-77664342D02*
X177314285Y-77759580D01*
X177314285Y-77759580D02*
X177266666Y-77807200D01*
X177266666Y-77807200D02*
X177171428Y-77854819D01*
X177171428Y-77854819D02*
X176980952Y-77854819D01*
X176980952Y-77854819D02*
X176885714Y-77807200D01*
X176885714Y-77807200D02*
X176838095Y-77759580D01*
X176838095Y-77759580D02*
X176790476Y-77664342D01*
X176790476Y-77664342D02*
X176790476Y-77473866D01*
X176790476Y-77473866D02*
X176838095Y-77378628D01*
X176838095Y-77378628D02*
X176885714Y-77331009D01*
X176885714Y-77331009D02*
X176980952Y-77283390D01*
X112761904Y-76854819D02*
X112761904Y-77664342D01*
X112761904Y-77664342D02*
X112714285Y-77759580D01*
X112714285Y-77759580D02*
X112666666Y-77807200D01*
X112666666Y-77807200D02*
X112571428Y-77854819D01*
X112571428Y-77854819D02*
X112380952Y-77854819D01*
X112380952Y-77854819D02*
X112285714Y-77807200D01*
X112285714Y-77807200D02*
X112238095Y-77759580D01*
X112238095Y-77759580D02*
X112190476Y-77664342D01*
X112190476Y-77664342D02*
X112190476Y-76854819D01*
X111809523Y-76854819D02*
X111142857Y-76854819D01*
X111142857Y-76854819D02*
X111571428Y-77854819D01*
X212274819Y-121633333D02*
X211798628Y-121300000D01*
X212274819Y-121061905D02*
X211274819Y-121061905D01*
X211274819Y-121061905D02*
X211274819Y-121442857D01*
X211274819Y-121442857D02*
X211322438Y-121538095D01*
X211322438Y-121538095D02*
X211370057Y-121585714D01*
X211370057Y-121585714D02*
X211465295Y-121633333D01*
X211465295Y-121633333D02*
X211608152Y-121633333D01*
X211608152Y-121633333D02*
X211703390Y-121585714D01*
X211703390Y-121585714D02*
X211751009Y-121538095D01*
X211751009Y-121538095D02*
X211798628Y-121442857D01*
X211798628Y-121442857D02*
X211798628Y-121061905D01*
X212274819Y-122109524D02*
X212274819Y-122300000D01*
X212274819Y-122300000D02*
X212227200Y-122395238D01*
X212227200Y-122395238D02*
X212179580Y-122442857D01*
X212179580Y-122442857D02*
X212036723Y-122538095D01*
X212036723Y-122538095D02*
X211846247Y-122585714D01*
X211846247Y-122585714D02*
X211465295Y-122585714D01*
X211465295Y-122585714D02*
X211370057Y-122538095D01*
X211370057Y-122538095D02*
X211322438Y-122490476D01*
X211322438Y-122490476D02*
X211274819Y-122395238D01*
X211274819Y-122395238D02*
X211274819Y-122204762D01*
X211274819Y-122204762D02*
X211322438Y-122109524D01*
X211322438Y-122109524D02*
X211370057Y-122061905D01*
X211370057Y-122061905D02*
X211465295Y-122014286D01*
X211465295Y-122014286D02*
X211703390Y-122014286D01*
X211703390Y-122014286D02*
X211798628Y-122061905D01*
X211798628Y-122061905D02*
X211846247Y-122109524D01*
X211846247Y-122109524D02*
X211893866Y-122204762D01*
X211893866Y-122204762D02*
X211893866Y-122395238D01*
X211893866Y-122395238D02*
X211846247Y-122490476D01*
X211846247Y-122490476D02*
X211798628Y-122538095D01*
X211798628Y-122538095D02*
X211703390Y-122585714D01*
X183166666Y-110054819D02*
X183499999Y-109578628D01*
X183738094Y-110054819D02*
X183738094Y-109054819D01*
X183738094Y-109054819D02*
X183357142Y-109054819D01*
X183357142Y-109054819D02*
X183261904Y-109102438D01*
X183261904Y-109102438D02*
X183214285Y-109150057D01*
X183214285Y-109150057D02*
X183166666Y-109245295D01*
X183166666Y-109245295D02*
X183166666Y-109388152D01*
X183166666Y-109388152D02*
X183214285Y-109483390D01*
X183214285Y-109483390D02*
X183261904Y-109531009D01*
X183261904Y-109531009D02*
X183357142Y-109578628D01*
X183357142Y-109578628D02*
X183738094Y-109578628D01*
X182309523Y-109388152D02*
X182309523Y-110054819D01*
X182547618Y-109007200D02*
X182785713Y-109721485D01*
X182785713Y-109721485D02*
X182166666Y-109721485D01*
X219514285Y-119354819D02*
X219514285Y-118354819D01*
X219514285Y-118354819D02*
X219276190Y-118354819D01*
X219276190Y-118354819D02*
X219133333Y-118402438D01*
X219133333Y-118402438D02*
X219038095Y-118497676D01*
X219038095Y-118497676D02*
X218990476Y-118592914D01*
X218990476Y-118592914D02*
X218942857Y-118783390D01*
X218942857Y-118783390D02*
X218942857Y-118926247D01*
X218942857Y-118926247D02*
X218990476Y-119116723D01*
X218990476Y-119116723D02*
X219038095Y-119211961D01*
X219038095Y-119211961D02*
X219133333Y-119307200D01*
X219133333Y-119307200D02*
X219276190Y-119354819D01*
X219276190Y-119354819D02*
X219514285Y-119354819D01*
X217990476Y-119354819D02*
X218561904Y-119354819D01*
X218276190Y-119354819D02*
X218276190Y-118354819D01*
X218276190Y-118354819D02*
X218371428Y-118497676D01*
X218371428Y-118497676D02*
X218466666Y-118592914D01*
X218466666Y-118592914D02*
X218561904Y-118640533D01*
X217371428Y-118354819D02*
X217276190Y-118354819D01*
X217276190Y-118354819D02*
X217180952Y-118402438D01*
X217180952Y-118402438D02*
X217133333Y-118450057D01*
X217133333Y-118450057D02*
X217085714Y-118545295D01*
X217085714Y-118545295D02*
X217038095Y-118735771D01*
X217038095Y-118735771D02*
X217038095Y-118973866D01*
X217038095Y-118973866D02*
X217085714Y-119164342D01*
X217085714Y-119164342D02*
X217133333Y-119259580D01*
X217133333Y-119259580D02*
X217180952Y-119307200D01*
X217180952Y-119307200D02*
X217276190Y-119354819D01*
X217276190Y-119354819D02*
X217371428Y-119354819D01*
X217371428Y-119354819D02*
X217466666Y-119307200D01*
X217466666Y-119307200D02*
X217514285Y-119259580D01*
X217514285Y-119259580D02*
X217561904Y-119164342D01*
X217561904Y-119164342D02*
X217609523Y-118973866D01*
X217609523Y-118973866D02*
X217609523Y-118735771D01*
X217609523Y-118735771D02*
X217561904Y-118545295D01*
X217561904Y-118545295D02*
X217514285Y-118450057D01*
X217514285Y-118450057D02*
X217466666Y-118402438D01*
X217466666Y-118402438D02*
X217371428Y-118354819D01*
X126759581Y-79133333D02*
X126807201Y-79085714D01*
X126807201Y-79085714D02*
X126854820Y-78942857D01*
X126854820Y-78942857D02*
X126854820Y-78847619D01*
X126854820Y-78847619D02*
X126807201Y-78704762D01*
X126807201Y-78704762D02*
X126711962Y-78609524D01*
X126711962Y-78609524D02*
X126616724Y-78561905D01*
X126616724Y-78561905D02*
X126426248Y-78514286D01*
X126426248Y-78514286D02*
X126283391Y-78514286D01*
X126283391Y-78514286D02*
X126092915Y-78561905D01*
X126092915Y-78561905D02*
X125997677Y-78609524D01*
X125997677Y-78609524D02*
X125902439Y-78704762D01*
X125902439Y-78704762D02*
X125854820Y-78847619D01*
X125854820Y-78847619D02*
X125854820Y-78942857D01*
X125854820Y-78942857D02*
X125902439Y-79085714D01*
X125902439Y-79085714D02*
X125950058Y-79133333D01*
X125950058Y-79514286D02*
X125902439Y-79561905D01*
X125902439Y-79561905D02*
X125854820Y-79657143D01*
X125854820Y-79657143D02*
X125854820Y-79895238D01*
X125854820Y-79895238D02*
X125902439Y-79990476D01*
X125902439Y-79990476D02*
X125950058Y-80038095D01*
X125950058Y-80038095D02*
X126045296Y-80085714D01*
X126045296Y-80085714D02*
X126140534Y-80085714D01*
X126140534Y-80085714D02*
X126283391Y-80038095D01*
X126283391Y-80038095D02*
X126854820Y-79466667D01*
X126854820Y-79466667D02*
X126854820Y-80085714D01*
X70842857Y-106067319D02*
X71176190Y-105591128D01*
X71414285Y-106067319D02*
X71414285Y-105067319D01*
X71414285Y-105067319D02*
X71033333Y-105067319D01*
X71033333Y-105067319D02*
X70938095Y-105114938D01*
X70938095Y-105114938D02*
X70890476Y-105162557D01*
X70890476Y-105162557D02*
X70842857Y-105257795D01*
X70842857Y-105257795D02*
X70842857Y-105400652D01*
X70842857Y-105400652D02*
X70890476Y-105495890D01*
X70890476Y-105495890D02*
X70938095Y-105543509D01*
X70938095Y-105543509D02*
X71033333Y-105591128D01*
X71033333Y-105591128D02*
X71414285Y-105591128D01*
X69890476Y-106067319D02*
X70461904Y-106067319D01*
X70176190Y-106067319D02*
X70176190Y-105067319D01*
X70176190Y-105067319D02*
X70271428Y-105210176D01*
X70271428Y-105210176D02*
X70366666Y-105305414D01*
X70366666Y-105305414D02*
X70461904Y-105353033D01*
X69509523Y-105162557D02*
X69461904Y-105114938D01*
X69461904Y-105114938D02*
X69366666Y-105067319D01*
X69366666Y-105067319D02*
X69128571Y-105067319D01*
X69128571Y-105067319D02*
X69033333Y-105114938D01*
X69033333Y-105114938D02*
X68985714Y-105162557D01*
X68985714Y-105162557D02*
X68938095Y-105257795D01*
X68938095Y-105257795D02*
X68938095Y-105353033D01*
X68938095Y-105353033D02*
X68985714Y-105495890D01*
X68985714Y-105495890D02*
X69557142Y-106067319D01*
X69557142Y-106067319D02*
X68938095Y-106067319D01*
X79738094Y-118154819D02*
X79738094Y-118964342D01*
X79738094Y-118964342D02*
X79690475Y-119059580D01*
X79690475Y-119059580D02*
X79642856Y-119107200D01*
X79642856Y-119107200D02*
X79547618Y-119154819D01*
X79547618Y-119154819D02*
X79357142Y-119154819D01*
X79357142Y-119154819D02*
X79261904Y-119107200D01*
X79261904Y-119107200D02*
X79214285Y-119059580D01*
X79214285Y-119059580D02*
X79166666Y-118964342D01*
X79166666Y-118964342D02*
X79166666Y-118154819D01*
X78166666Y-119154819D02*
X78738094Y-119154819D01*
X78452380Y-119154819D02*
X78452380Y-118154819D01*
X78452380Y-118154819D02*
X78547618Y-118297676D01*
X78547618Y-118297676D02*
X78642856Y-118392914D01*
X78642856Y-118392914D02*
X78738094Y-118440533D01*
X77309523Y-118488152D02*
X77309523Y-119154819D01*
X77547618Y-118107200D02*
X77785713Y-118821485D01*
X77785713Y-118821485D02*
X77166666Y-118821485D01*
X69014285Y-110254819D02*
X69014285Y-109254819D01*
X69014285Y-109254819D02*
X68776190Y-109254819D01*
X68776190Y-109254819D02*
X68633333Y-109302438D01*
X68633333Y-109302438D02*
X68538095Y-109397676D01*
X68538095Y-109397676D02*
X68490476Y-109492914D01*
X68490476Y-109492914D02*
X68442857Y-109683390D01*
X68442857Y-109683390D02*
X68442857Y-109826247D01*
X68442857Y-109826247D02*
X68490476Y-110016723D01*
X68490476Y-110016723D02*
X68538095Y-110111961D01*
X68538095Y-110111961D02*
X68633333Y-110207200D01*
X68633333Y-110207200D02*
X68776190Y-110254819D01*
X68776190Y-110254819D02*
X69014285Y-110254819D01*
X67490476Y-110254819D02*
X68061904Y-110254819D01*
X67776190Y-110254819D02*
X67776190Y-109254819D01*
X67776190Y-109254819D02*
X67871428Y-109397676D01*
X67871428Y-109397676D02*
X67966666Y-109492914D01*
X67966666Y-109492914D02*
X68061904Y-109540533D01*
X66633333Y-109588152D02*
X66633333Y-110254819D01*
X66871428Y-109207200D02*
X67109523Y-109921485D01*
X67109523Y-109921485D02*
X66490476Y-109921485D01*
X223378167Y-76681235D02*
X224092452Y-76681235D01*
X224092452Y-76681235D02*
X224235309Y-76633616D01*
X224235309Y-76633616D02*
X224330548Y-76538378D01*
X224330548Y-76538378D02*
X224378167Y-76395521D01*
X224378167Y-76395521D02*
X224378167Y-76300283D01*
X223473405Y-77109807D02*
X223425786Y-77157426D01*
X223425786Y-77157426D02*
X223378167Y-77252664D01*
X223378167Y-77252664D02*
X223378167Y-77490759D01*
X223378167Y-77490759D02*
X223425786Y-77585997D01*
X223425786Y-77585997D02*
X223473405Y-77633616D01*
X223473405Y-77633616D02*
X223568643Y-77681235D01*
X223568643Y-77681235D02*
X223663881Y-77681235D01*
X223663881Y-77681235D02*
X223806738Y-77633616D01*
X223806738Y-77633616D02*
X224378167Y-77062188D01*
X224378167Y-77062188D02*
X224378167Y-77681235D01*
X145761904Y-118154819D02*
X145761904Y-118964342D01*
X145761904Y-118964342D02*
X145714285Y-119059580D01*
X145714285Y-119059580D02*
X145666666Y-119107200D01*
X145666666Y-119107200D02*
X145571428Y-119154819D01*
X145571428Y-119154819D02*
X145380952Y-119154819D01*
X145380952Y-119154819D02*
X145285714Y-119107200D01*
X145285714Y-119107200D02*
X145238095Y-119059580D01*
X145238095Y-119059580D02*
X145190476Y-118964342D01*
X145190476Y-118964342D02*
X145190476Y-118154819D01*
X144761904Y-118250057D02*
X144714285Y-118202438D01*
X144714285Y-118202438D02*
X144619047Y-118154819D01*
X144619047Y-118154819D02*
X144380952Y-118154819D01*
X144380952Y-118154819D02*
X144285714Y-118202438D01*
X144285714Y-118202438D02*
X144238095Y-118250057D01*
X144238095Y-118250057D02*
X144190476Y-118345295D01*
X144190476Y-118345295D02*
X144190476Y-118440533D01*
X144190476Y-118440533D02*
X144238095Y-118583390D01*
X144238095Y-118583390D02*
X144809523Y-119154819D01*
X144809523Y-119154819D02*
X144190476Y-119154819D01*
X95438094Y-110354819D02*
X95438094Y-109354819D01*
X95438094Y-109354819D02*
X95199999Y-109354819D01*
X95199999Y-109354819D02*
X95057142Y-109402438D01*
X95057142Y-109402438D02*
X94961904Y-109497676D01*
X94961904Y-109497676D02*
X94914285Y-109592914D01*
X94914285Y-109592914D02*
X94866666Y-109783390D01*
X94866666Y-109783390D02*
X94866666Y-109926247D01*
X94866666Y-109926247D02*
X94914285Y-110116723D01*
X94914285Y-110116723D02*
X94961904Y-110211961D01*
X94961904Y-110211961D02*
X95057142Y-110307200D01*
X95057142Y-110307200D02*
X95199999Y-110354819D01*
X95199999Y-110354819D02*
X95438094Y-110354819D01*
X94485713Y-109450057D02*
X94438094Y-109402438D01*
X94438094Y-109402438D02*
X94342856Y-109354819D01*
X94342856Y-109354819D02*
X94104761Y-109354819D01*
X94104761Y-109354819D02*
X94009523Y-109402438D01*
X94009523Y-109402438D02*
X93961904Y-109450057D01*
X93961904Y-109450057D02*
X93914285Y-109545295D01*
X93914285Y-109545295D02*
X93914285Y-109640533D01*
X93914285Y-109640533D02*
X93961904Y-109783390D01*
X93961904Y-109783390D02*
X94533332Y-110354819D01*
X94533332Y-110354819D02*
X93914285Y-110354819D01*
X152838094Y-119154819D02*
X152838094Y-118154819D01*
X152838094Y-118154819D02*
X152599999Y-118154819D01*
X152599999Y-118154819D02*
X152457142Y-118202438D01*
X152457142Y-118202438D02*
X152361904Y-118297676D01*
X152361904Y-118297676D02*
X152314285Y-118392914D01*
X152314285Y-118392914D02*
X152266666Y-118583390D01*
X152266666Y-118583390D02*
X152266666Y-118726247D01*
X152266666Y-118726247D02*
X152314285Y-118916723D01*
X152314285Y-118916723D02*
X152361904Y-119011961D01*
X152361904Y-119011961D02*
X152457142Y-119107200D01*
X152457142Y-119107200D02*
X152599999Y-119154819D01*
X152599999Y-119154819D02*
X152838094Y-119154819D01*
X151409523Y-118154819D02*
X151599999Y-118154819D01*
X151599999Y-118154819D02*
X151695237Y-118202438D01*
X151695237Y-118202438D02*
X151742856Y-118250057D01*
X151742856Y-118250057D02*
X151838094Y-118392914D01*
X151838094Y-118392914D02*
X151885713Y-118583390D01*
X151885713Y-118583390D02*
X151885713Y-118964342D01*
X151885713Y-118964342D02*
X151838094Y-119059580D01*
X151838094Y-119059580D02*
X151790475Y-119107200D01*
X151790475Y-119107200D02*
X151695237Y-119154819D01*
X151695237Y-119154819D02*
X151504761Y-119154819D01*
X151504761Y-119154819D02*
X151409523Y-119107200D01*
X151409523Y-119107200D02*
X151361904Y-119059580D01*
X151361904Y-119059580D02*
X151314285Y-118964342D01*
X151314285Y-118964342D02*
X151314285Y-118726247D01*
X151314285Y-118726247D02*
X151361904Y-118631009D01*
X151361904Y-118631009D02*
X151409523Y-118583390D01*
X151409523Y-118583390D02*
X151504761Y-118535771D01*
X151504761Y-118535771D02*
X151695237Y-118535771D01*
X151695237Y-118535771D02*
X151790475Y-118583390D01*
X151790475Y-118583390D02*
X151838094Y-118631009D01*
X151838094Y-118631009D02*
X151885713Y-118726247D01*
X131538094Y-119154819D02*
X131538094Y-118154819D01*
X131538094Y-118154819D02*
X131299999Y-118154819D01*
X131299999Y-118154819D02*
X131157142Y-118202438D01*
X131157142Y-118202438D02*
X131061904Y-118297676D01*
X131061904Y-118297676D02*
X131014285Y-118392914D01*
X131014285Y-118392914D02*
X130966666Y-118583390D01*
X130966666Y-118583390D02*
X130966666Y-118726247D01*
X130966666Y-118726247D02*
X131014285Y-118916723D01*
X131014285Y-118916723D02*
X131061904Y-119011961D01*
X131061904Y-119011961D02*
X131157142Y-119107200D01*
X131157142Y-119107200D02*
X131299999Y-119154819D01*
X131299999Y-119154819D02*
X131538094Y-119154819D01*
X130633332Y-118154819D02*
X130014285Y-118154819D01*
X130014285Y-118154819D02*
X130347618Y-118535771D01*
X130347618Y-118535771D02*
X130204761Y-118535771D01*
X130204761Y-118535771D02*
X130109523Y-118583390D01*
X130109523Y-118583390D02*
X130061904Y-118631009D01*
X130061904Y-118631009D02*
X130014285Y-118726247D01*
X130014285Y-118726247D02*
X130014285Y-118964342D01*
X130014285Y-118964342D02*
X130061904Y-119059580D01*
X130061904Y-119059580D02*
X130109523Y-119107200D01*
X130109523Y-119107200D02*
X130204761Y-119154819D01*
X130204761Y-119154819D02*
X130490475Y-119154819D01*
X130490475Y-119154819D02*
X130585713Y-119107200D01*
X130585713Y-119107200D02*
X130633332Y-119059580D01*
X181438094Y-119254819D02*
X181438094Y-118254819D01*
X181438094Y-118254819D02*
X181199999Y-118254819D01*
X181199999Y-118254819D02*
X181057142Y-118302438D01*
X181057142Y-118302438D02*
X180961904Y-118397676D01*
X180961904Y-118397676D02*
X180914285Y-118492914D01*
X180914285Y-118492914D02*
X180866666Y-118683390D01*
X180866666Y-118683390D02*
X180866666Y-118826247D01*
X180866666Y-118826247D02*
X180914285Y-119016723D01*
X180914285Y-119016723D02*
X180961904Y-119111961D01*
X180961904Y-119111961D02*
X181057142Y-119207200D01*
X181057142Y-119207200D02*
X181199999Y-119254819D01*
X181199999Y-119254819D02*
X181438094Y-119254819D01*
X180533332Y-118254819D02*
X179866666Y-118254819D01*
X179866666Y-118254819D02*
X180295237Y-119254819D01*
X110261904Y-118154819D02*
X110261904Y-118964342D01*
X110261904Y-118964342D02*
X110214285Y-119059580D01*
X110214285Y-119059580D02*
X110166666Y-119107200D01*
X110166666Y-119107200D02*
X110071428Y-119154819D01*
X110071428Y-119154819D02*
X109880952Y-119154819D01*
X109880952Y-119154819D02*
X109785714Y-119107200D01*
X109785714Y-119107200D02*
X109738095Y-119059580D01*
X109738095Y-119059580D02*
X109690476Y-118964342D01*
X109690476Y-118964342D02*
X109690476Y-118154819D01*
X108690476Y-119154819D02*
X109261904Y-119154819D01*
X108976190Y-119154819D02*
X108976190Y-118154819D01*
X108976190Y-118154819D02*
X109071428Y-118297676D01*
X109071428Y-118297676D02*
X109166666Y-118392914D01*
X109166666Y-118392914D02*
X109261904Y-118440533D01*
X216338094Y-119354819D02*
X216338094Y-118354819D01*
X216338094Y-118354819D02*
X216099999Y-118354819D01*
X216099999Y-118354819D02*
X215957142Y-118402438D01*
X215957142Y-118402438D02*
X215861904Y-118497676D01*
X215861904Y-118497676D02*
X215814285Y-118592914D01*
X215814285Y-118592914D02*
X215766666Y-118783390D01*
X215766666Y-118783390D02*
X215766666Y-118926247D01*
X215766666Y-118926247D02*
X215814285Y-119116723D01*
X215814285Y-119116723D02*
X215861904Y-119211961D01*
X215861904Y-119211961D02*
X215957142Y-119307200D01*
X215957142Y-119307200D02*
X216099999Y-119354819D01*
X216099999Y-119354819D02*
X216338094Y-119354819D01*
X215290475Y-119354819D02*
X215099999Y-119354819D01*
X215099999Y-119354819D02*
X215004761Y-119307200D01*
X215004761Y-119307200D02*
X214957142Y-119259580D01*
X214957142Y-119259580D02*
X214861904Y-119116723D01*
X214861904Y-119116723D02*
X214814285Y-118926247D01*
X214814285Y-118926247D02*
X214814285Y-118545295D01*
X214814285Y-118545295D02*
X214861904Y-118450057D01*
X214861904Y-118450057D02*
X214909523Y-118402438D01*
X214909523Y-118402438D02*
X215004761Y-118354819D01*
X215004761Y-118354819D02*
X215195237Y-118354819D01*
X215195237Y-118354819D02*
X215290475Y-118402438D01*
X215290475Y-118402438D02*
X215338094Y-118450057D01*
X215338094Y-118450057D02*
X215385713Y-118545295D01*
X215385713Y-118545295D02*
X215385713Y-118783390D01*
X215385713Y-118783390D02*
X215338094Y-118878628D01*
X215338094Y-118878628D02*
X215290475Y-118926247D01*
X215290475Y-118926247D02*
X215195237Y-118973866D01*
X215195237Y-118973866D02*
X215004761Y-118973866D01*
X215004761Y-118973866D02*
X214909523Y-118926247D01*
X214909523Y-118926247D02*
X214861904Y-118878628D01*
X214861904Y-118878628D02*
X214814285Y-118783390D01*
X215266666Y-111654819D02*
X215599999Y-111178628D01*
X215838094Y-111654819D02*
X215838094Y-110654819D01*
X215838094Y-110654819D02*
X215457142Y-110654819D01*
X215457142Y-110654819D02*
X215361904Y-110702438D01*
X215361904Y-110702438D02*
X215314285Y-110750057D01*
X215314285Y-110750057D02*
X215266666Y-110845295D01*
X215266666Y-110845295D02*
X215266666Y-110988152D01*
X215266666Y-110988152D02*
X215314285Y-111083390D01*
X215314285Y-111083390D02*
X215361904Y-111131009D01*
X215361904Y-111131009D02*
X215457142Y-111178628D01*
X215457142Y-111178628D02*
X215838094Y-111178628D01*
X214361904Y-110654819D02*
X214838094Y-110654819D01*
X214838094Y-110654819D02*
X214885713Y-111131009D01*
X214885713Y-111131009D02*
X214838094Y-111083390D01*
X214838094Y-111083390D02*
X214742856Y-111035771D01*
X214742856Y-111035771D02*
X214504761Y-111035771D01*
X214504761Y-111035771D02*
X214409523Y-111083390D01*
X214409523Y-111083390D02*
X214361904Y-111131009D01*
X214361904Y-111131009D02*
X214314285Y-111226247D01*
X214314285Y-111226247D02*
X214314285Y-111464342D01*
X214314285Y-111464342D02*
X214361904Y-111559580D01*
X214361904Y-111559580D02*
X214409523Y-111607200D01*
X214409523Y-111607200D02*
X214504761Y-111654819D01*
X214504761Y-111654819D02*
X214742856Y-111654819D01*
X214742856Y-111654819D02*
X214838094Y-111607200D01*
X214838094Y-111607200D02*
X214885713Y-111559580D01*
X134438094Y-119154819D02*
X134438094Y-118154819D01*
X134438094Y-118154819D02*
X134199999Y-118154819D01*
X134199999Y-118154819D02*
X134057142Y-118202438D01*
X134057142Y-118202438D02*
X133961904Y-118297676D01*
X133961904Y-118297676D02*
X133914285Y-118392914D01*
X133914285Y-118392914D02*
X133866666Y-118583390D01*
X133866666Y-118583390D02*
X133866666Y-118726247D01*
X133866666Y-118726247D02*
X133914285Y-118916723D01*
X133914285Y-118916723D02*
X133961904Y-119011961D01*
X133961904Y-119011961D02*
X134057142Y-119107200D01*
X134057142Y-119107200D02*
X134199999Y-119154819D01*
X134199999Y-119154819D02*
X134438094Y-119154819D01*
X133009523Y-118488152D02*
X133009523Y-119154819D01*
X133247618Y-118107200D02*
X133485713Y-118821485D01*
X133485713Y-118821485D02*
X132866666Y-118821485D01*
X90874819Y-121533333D02*
X90398628Y-121200000D01*
X90874819Y-120961905D02*
X89874819Y-120961905D01*
X89874819Y-120961905D02*
X89874819Y-121342857D01*
X89874819Y-121342857D02*
X89922438Y-121438095D01*
X89922438Y-121438095D02*
X89970057Y-121485714D01*
X89970057Y-121485714D02*
X90065295Y-121533333D01*
X90065295Y-121533333D02*
X90208152Y-121533333D01*
X90208152Y-121533333D02*
X90303390Y-121485714D01*
X90303390Y-121485714D02*
X90351009Y-121438095D01*
X90351009Y-121438095D02*
X90398628Y-121342857D01*
X90398628Y-121342857D02*
X90398628Y-120961905D01*
X89874819Y-122390476D02*
X89874819Y-122200000D01*
X89874819Y-122200000D02*
X89922438Y-122104762D01*
X89922438Y-122104762D02*
X89970057Y-122057143D01*
X89970057Y-122057143D02*
X90112914Y-121961905D01*
X90112914Y-121961905D02*
X90303390Y-121914286D01*
X90303390Y-121914286D02*
X90684342Y-121914286D01*
X90684342Y-121914286D02*
X90779580Y-121961905D01*
X90779580Y-121961905D02*
X90827200Y-122009524D01*
X90827200Y-122009524D02*
X90874819Y-122104762D01*
X90874819Y-122104762D02*
X90874819Y-122295238D01*
X90874819Y-122295238D02*
X90827200Y-122390476D01*
X90827200Y-122390476D02*
X90779580Y-122438095D01*
X90779580Y-122438095D02*
X90684342Y-122485714D01*
X90684342Y-122485714D02*
X90446247Y-122485714D01*
X90446247Y-122485714D02*
X90351009Y-122438095D01*
X90351009Y-122438095D02*
X90303390Y-122390476D01*
X90303390Y-122390476D02*
X90255771Y-122295238D01*
X90255771Y-122295238D02*
X90255771Y-122104762D01*
X90255771Y-122104762D02*
X90303390Y-122009524D01*
X90303390Y-122009524D02*
X90351009Y-121961905D01*
X90351009Y-121961905D02*
X90446247Y-121914286D01*
D11*
%TO.C,D1*%
X96490000Y-111550001D02*
X96490000Y-115960001D01*
X96490000Y-115960001D02*
X98710000Y-115960001D01*
X98710000Y-115960001D02*
X98710000Y-111550001D01*
%TO.C,R2*%
X133327064Y-110565000D02*
X132872936Y-110565000D01*
X133327064Y-112035000D02*
X132872936Y-112035000D01*
%TO.C,J1*%
X66670000Y-75670000D02*
X66670000Y-78330000D01*
X66670000Y-75670000D02*
X69270000Y-75670000D01*
X66670000Y-78330000D02*
X69270000Y-78330000D01*
X69270000Y-75670000D02*
X69270000Y-78330000D01*
X71870000Y-77000000D02*
X71870000Y-78330000D01*
X71870000Y-78330000D02*
X70540000Y-78330000D01*
%TO.C,U5*%
X220135000Y-112275000D02*
X220135000Y-114225000D01*
X220135000Y-116175000D02*
X220135000Y-114225000D01*
X230255000Y-112275000D02*
X230255000Y-114225000D01*
X230255000Y-116175000D02*
X230255000Y-114225000D01*
X230530000Y-117165000D02*
X230200000Y-116925000D01*
X230530000Y-116685000D01*
X230530000Y-117165000D01*
G36*
X230530000Y-117165000D02*
G01*
X230200000Y-116925000D01*
X230530000Y-116685000D01*
X230530000Y-117165000D01*
G37*
%TO.C,U3*%
X153940000Y-112250000D02*
X153940000Y-114200000D01*
X153940000Y-116150000D02*
X153940000Y-114200000D01*
X164060000Y-112250000D02*
X164060000Y-114200000D01*
X164060000Y-116150000D02*
X164060000Y-114200000D01*
X164335000Y-117140000D02*
X164005000Y-116900000D01*
X164335000Y-116660000D01*
X164335000Y-117140000D01*
G36*
X164335000Y-117140000D02*
G01*
X164005000Y-116900000D01*
X164335000Y-116660000D01*
X164335000Y-117140000D01*
G37*
%TO.C,C4*%
X189573753Y-78590000D02*
X189051247Y-78590000D01*
X189573753Y-80060000D02*
X189051247Y-80060000D01*
%TO.C,D13*%
X66690000Y-116239999D02*
X66690000Y-120649999D01*
X68910000Y-116239999D02*
X66690000Y-116239999D01*
X68910000Y-120649999D02*
X68910000Y-116239999D01*
%TO.C,D8*%
X182290000Y-112639999D02*
X182290000Y-117049999D01*
X184510000Y-112639999D02*
X182290000Y-112639999D01*
X184510000Y-117049999D02*
X184510000Y-112639999D01*
%TO.C,D5*%
X148390000Y-113550002D02*
X148390000Y-117960002D01*
X148390000Y-117960002D02*
X150610000Y-117960002D01*
X150610000Y-117960002D02*
X150610000Y-113550002D01*
%TO.C,C1*%
X107361253Y-78565000D02*
X106838747Y-78565000D01*
X107361253Y-80035000D02*
X106838747Y-80035000D01*
%TO.C,J5*%
X225130000Y-122670000D02*
X225130000Y-125330000D01*
X225130000Y-122670000D02*
X227730000Y-122670000D01*
X225130000Y-125330000D02*
X227730000Y-125330000D01*
X227730000Y-122670000D02*
X227730000Y-125330000D01*
X230330000Y-124000000D02*
X230330000Y-125330000D01*
X230330000Y-125330000D02*
X229000000Y-125330000D01*
%TO.C,U6*%
X94640000Y-79850000D02*
X94640000Y-81800000D01*
X94640000Y-83750000D02*
X94640000Y-81800000D01*
X104760000Y-79850000D02*
X104760000Y-81800000D01*
X104760000Y-83750000D02*
X104760000Y-81800000D01*
X105035000Y-84740000D02*
X104705000Y-84500000D01*
X105035000Y-84260000D01*
X105035000Y-84740000D01*
G36*
X105035000Y-84740000D02*
G01*
X104705000Y-84500000D01*
X105035000Y-84260000D01*
X105035000Y-84740000D01*
G37*
%TO.C,U4*%
X185340000Y-112250000D02*
X185340000Y-114200000D01*
X185340000Y-116150000D02*
X185340000Y-114200000D01*
X195460000Y-112250000D02*
X195460000Y-114200000D01*
X195460000Y-116150000D02*
X195460000Y-114200000D01*
X195735000Y-117140000D02*
X195405000Y-116900000D01*
X195735000Y-116660000D01*
X195735000Y-117140000D01*
G36*
X195735000Y-117140000D02*
G01*
X195405000Y-116900000D01*
X195735000Y-116660000D01*
X195735000Y-117140000D01*
G37*
%TO.C,R3*%
X151727064Y-110565000D02*
X151272936Y-110565000D01*
X151727064Y-112035000D02*
X151272936Y-112035000D01*
%TO.C,R8*%
X172890000Y-121072936D02*
X172890000Y-122527064D01*
X174710000Y-121072936D02*
X174710000Y-122527064D01*
%TO.C,R7*%
X125990000Y-121072936D02*
X125990000Y-122527064D01*
X127810000Y-121072936D02*
X127810000Y-122527064D01*
%TO.C,U9*%
X193040000Y-79850000D02*
X193040000Y-81800000D01*
X193040000Y-83750000D02*
X193040000Y-81800000D01*
X203160000Y-79850000D02*
X203160000Y-81800000D01*
X203160000Y-83750000D02*
X203160000Y-81800000D01*
X203435000Y-84740000D02*
X203105000Y-84500000D01*
X203435000Y-84260000D01*
X203435000Y-84740000D01*
G36*
X203435000Y-84740000D02*
G01*
X203105000Y-84500000D01*
X203435000Y-84260000D01*
X203435000Y-84740000D01*
G37*
%TO.C,J4*%
X66670000Y-122670000D02*
X66670000Y-125330000D01*
X66670000Y-122670000D02*
X69270000Y-122670000D01*
X66670000Y-125330000D02*
X69270000Y-125330000D01*
X69270000Y-122670000D02*
X69270000Y-125330000D01*
X71870000Y-124000000D02*
X71870000Y-125330000D01*
X71870000Y-125330000D02*
X70540000Y-125330000D01*
%TO.C,C3*%
X205761253Y-78565000D02*
X205238747Y-78565000D01*
X205761253Y-80035000D02*
X205238747Y-80035000D01*
%TO.C,J3*%
X138264999Y-83105000D02*
X156104999Y-83105000D01*
X138265000Y-77905000D02*
X138264999Y-83105000D01*
X138265000Y-77905000D02*
X158705000Y-77905000D01*
X156105000Y-80505000D02*
X156104999Y-83105000D01*
X158705000Y-77905000D02*
X158705000Y-80504999D01*
X158705000Y-80504999D02*
X156105000Y-80505000D01*
X158705000Y-81775000D02*
X158705000Y-83105000D01*
X158705000Y-83105000D02*
X157375000Y-83105000D01*
%TO.C,U8*%
X176840000Y-79850000D02*
X176840000Y-81800000D01*
X176840000Y-83750000D02*
X176840000Y-81800000D01*
X186960000Y-79850000D02*
X186960000Y-81800000D01*
X186960000Y-83750000D02*
X186960000Y-81800000D01*
X187235000Y-84740000D02*
X186905000Y-84500000D01*
X187235000Y-84260000D01*
X187235000Y-84740000D01*
G36*
X187235000Y-84740000D02*
G01*
X186905000Y-84500000D01*
X187235000Y-84260000D01*
X187235000Y-84740000D01*
G37*
%TO.C,U7*%
X111340000Y-79850000D02*
X111340000Y-81800000D01*
X111340000Y-83750000D02*
X111340000Y-81800000D01*
X121460000Y-79850000D02*
X121460000Y-81800000D01*
X121460000Y-83750000D02*
X121460000Y-81800000D01*
X121735000Y-84740000D02*
X121405000Y-84500000D01*
X121735000Y-84260000D01*
X121735000Y-84740000D01*
G36*
X121735000Y-84740000D02*
G01*
X121405000Y-84500000D01*
X121735000Y-84260000D01*
X121735000Y-84740000D01*
G37*
%TO.C,R9*%
X209090000Y-121072936D02*
X209090000Y-122527064D01*
X210910000Y-121072936D02*
X210910000Y-122527064D01*
%TO.C,R4*%
X183227064Y-110465000D02*
X182772936Y-110465000D01*
X183227064Y-111935000D02*
X182772936Y-111935000D01*
%TO.C,D10*%
X217190000Y-112639999D02*
X217190000Y-117049999D01*
X219410000Y-112639999D02*
X217190000Y-112639999D01*
X219410000Y-117049999D02*
X219410000Y-112639999D01*
%TO.C,C2*%
X124061253Y-78565000D02*
X123538747Y-78565000D01*
X124061253Y-80035000D02*
X123538747Y-80035000D01*
%TO.C,R12*%
X69465000Y-108527064D02*
X69465000Y-108072936D01*
X70935000Y-108527064D02*
X70935000Y-108072936D01*
%TO.C,R1*%
X96865000Y-117972936D02*
X96865000Y-118427064D01*
X98335000Y-117972936D02*
X98335000Y-118427064D01*
%TO.C,U14*%
X69640000Y-112250000D02*
X69640000Y-114200000D01*
X69640000Y-116150000D02*
X69640000Y-114200000D01*
X79760000Y-112250000D02*
X79760000Y-114200000D01*
X79760000Y-116150000D02*
X79760000Y-114200000D01*
X80035000Y-117140000D02*
X79705000Y-116900000D01*
X80035000Y-116660000D01*
X80035000Y-117140000D01*
G36*
X80035000Y-117140000D02*
G01*
X79705000Y-116900000D01*
X80035000Y-116660000D01*
X80035000Y-117140000D01*
G37*
%TO.C,D14*%
X66690000Y-110539999D02*
X66690000Y-114949999D01*
X68910000Y-110539999D02*
X66690000Y-110539999D01*
X68910000Y-114949999D02*
X68910000Y-110539999D01*
%TO.C,J2*%
X225130000Y-75670000D02*
X225130000Y-78330000D01*
X225130000Y-75670000D02*
X227730000Y-75670000D01*
X225130000Y-78330000D02*
X227730000Y-78330000D01*
X227730000Y-75670000D02*
X227730000Y-78330000D01*
X230330000Y-77000000D02*
X230330000Y-78330000D01*
X230330000Y-78330000D02*
X229000000Y-78330000D01*
%TO.C,U2*%
X135540000Y-112250000D02*
X135540000Y-114200000D01*
X135540000Y-116150000D02*
X135540000Y-114200000D01*
X145660000Y-112250000D02*
X145660000Y-114200000D01*
X145660000Y-116150000D02*
X145660000Y-114200000D01*
X145935000Y-117140000D02*
X145605000Y-116900000D01*
X145935000Y-116660000D01*
X145935000Y-117140000D01*
G36*
X145935000Y-117140000D02*
G01*
X145605000Y-116900000D01*
X145935000Y-116660000D01*
X145935000Y-117140000D01*
G37*
%TO.C,D2*%
X93590000Y-110639999D02*
X93590000Y-115049999D01*
X95810000Y-110639999D02*
X93590000Y-110639999D01*
X95810000Y-115049999D02*
X95810000Y-110639999D01*
%TO.C,D6*%
X150990000Y-112639999D02*
X150990000Y-117049999D01*
X153210000Y-112639999D02*
X150990000Y-112639999D01*
X153210000Y-117049999D02*
X153210000Y-112639999D01*
%TO.C,D3*%
X129690000Y-113450001D02*
X129690000Y-117860001D01*
X129690000Y-117860001D02*
X131910000Y-117860001D01*
X131910000Y-117860001D02*
X131910000Y-113450001D01*
%TO.C,D7*%
X179590000Y-113550001D02*
X179590000Y-117960001D01*
X179590000Y-117960001D02*
X181810000Y-117960001D01*
X181810000Y-117960001D02*
X181810000Y-113550001D01*
%TO.C,U1*%
X100140000Y-112250000D02*
X100140000Y-114200000D01*
X100140000Y-116150000D02*
X100140000Y-114200000D01*
X110260000Y-112250000D02*
X110260000Y-114200000D01*
X110260000Y-116150000D02*
X110260000Y-114200000D01*
X110535000Y-117140000D02*
X110205000Y-116900000D01*
X110535000Y-116660000D01*
X110535000Y-117140000D01*
G36*
X110535000Y-117140000D02*
G01*
X110205000Y-116900000D01*
X110535000Y-116660000D01*
X110535000Y-117140000D01*
G37*
%TO.C,D9*%
X214490000Y-113550001D02*
X214490000Y-117960001D01*
X214490000Y-117960001D02*
X216710000Y-117960001D01*
X216710000Y-117960001D02*
X216710000Y-113550001D01*
%TO.C,R5*%
X217927064Y-110465000D02*
X217472936Y-110465000D01*
X217927064Y-111935000D02*
X217472936Y-111935000D01*
%TO.C,D4*%
X132590000Y-112539999D02*
X132590000Y-116949999D01*
X134810000Y-112539999D02*
X132590000Y-112539999D01*
X134810000Y-116949999D02*
X134810000Y-112539999D01*
%TO.C,R6*%
X87690000Y-120972936D02*
X87690000Y-122427064D01*
X89510000Y-120972936D02*
X89510000Y-122427064D01*
%TD*%
M02*
