%TF.GenerationSoftware,KiCad,Pcbnew,9.0.0*%
%TF.CreationDate,2025-03-11T11:24:58+01:00*%
%TF.ProjectId,CNIX V2 Tube Board,434e4958-2056-4322-9054-75626520426f,rev?*%
%TF.SameCoordinates,Original*%
%TF.FileFunction,Soldermask,Top*%
%TF.FilePolarity,Negative*%
%FSLAX46Y46*%
G04 Gerber Fmt 4.6, Leading zero omitted, Abs format (unit mm)*
G04 Created by KiCad (PCBNEW 9.0.0) date 2025-03-11 11:24:58*
%MOMM*%
%LPD*%
G01*
G04 APERTURE LIST*
G04 Aperture macros list*
%AMRoundRect*
0 Rectangle with rounded corners*
0 $1 Rounding radius*
0 $2 $3 $4 $5 $6 $7 $8 $9 X,Y pos of 4 corners*
0 Add a 4 corners polygon primitive as box body*
4,1,4,$2,$3,$4,$5,$6,$7,$8,$9,$2,$3,0*
0 Add four circle primitives for the rounded corners*
1,1,$1+$1,$2,$3*
1,1,$1+$1,$4,$5*
1,1,$1+$1,$6,$7*
1,1,$1+$1,$8,$9*
0 Add four rect primitives between the rounded corners*
20,1,$1+$1,$2,$3,$4,$5,0*
20,1,$1+$1,$4,$5,$6,$7,0*
20,1,$1+$1,$6,$7,$8,$9,0*
20,1,$1+$1,$8,$9,$2,$3,0*%
G04 Aperture macros list end*
%ADD10C,0.025400*%
%ADD11C,2.540000*%
%ADD12C,4.998720*%
%ADD13C,2.397760*%
%ADD14C,4.000000*%
%ADD15RoundRect,0.250000X-0.350000X-0.450000X0.350000X-0.450000X0.350000X0.450000X-0.350000X0.450000X0*%
%ADD16RoundRect,0.250000X-0.325000X-0.450000X0.325000X-0.450000X0.325000X0.450000X-0.325000X0.450000X0*%
%ADD17R,1.700000X1.700000*%
%ADD18O,1.700000X1.700000*%
G04 APERTURE END LIST*
D10*
%TO.C,U13*%
X213573020Y-100400000D02*
G75*
G02*
X208493020Y-100400000I-2540000J0D01*
G01*
X208493020Y-100400000D02*
G75*
G02*
X213573020Y-100400000I2540000J0D01*
G01*
D11*
X212303021Y-100400000D02*
G75*
G02*
X209763019Y-100400000I-1270001J0D01*
G01*
X209763019Y-100400000D02*
G75*
G02*
X212303021Y-100400000I1270001J0D01*
G01*
D10*
%TO.C,U10*%
X88573020Y-100413640D02*
G75*
G02*
X83493020Y-100413640I-2540000J0D01*
G01*
X83493020Y-100413640D02*
G75*
G02*
X88573020Y-100413640I2540000J0D01*
G01*
D11*
X87303021Y-100413640D02*
G75*
G02*
X84763019Y-100413640I-1270001J0D01*
G01*
X84763019Y-100413640D02*
G75*
G02*
X87303021Y-100413640I1270001J0D01*
G01*
D10*
%TO.C,U12*%
X174540000Y-100500000D02*
G75*
G02*
X169460000Y-100500000I-2540000J0D01*
G01*
X169460000Y-100500000D02*
G75*
G02*
X174540000Y-100500000I2540000J0D01*
G01*
D11*
X173270001Y-100500000D02*
G75*
G02*
X170729999Y-100500000I-1270001J0D01*
G01*
X170729999Y-100500000D02*
G75*
G02*
X173270001Y-100500000I1270001J0D01*
G01*
D10*
%TO.C,U11*%
X127540000Y-100413640D02*
G75*
G02*
X122460000Y-100413640I-2540000J0D01*
G01*
X122460000Y-100413640D02*
G75*
G02*
X127540000Y-100413640I2540000J0D01*
G01*
D11*
X126270001Y-100413640D02*
G75*
G02*
X123729999Y-100413640I-1270001J0D01*
G01*
X123729999Y-100413640D02*
G75*
G02*
X126270001Y-100413640I1270001J0D01*
G01*
%TD*%
D12*
%TO.C,U13*%
X211000000Y-100486360D03*
D13*
X209671581Y-109424620D03*
X206115580Y-107969200D03*
X203456200Y-105312360D03*
X202097300Y-101751280D03*
X202325900Y-97933660D03*
X204251220Y-94552920D03*
X207240801Y-92317720D03*
X210972060Y-91532860D03*
X214738880Y-92299940D03*
X217819899Y-94624040D03*
X219633460Y-97946360D03*
X219910320Y-101720801D03*
X218579360Y-105342840D03*
X215826000Y-108030160D03*
%TD*%
D14*
%TO.C,H1*%
X148500000Y-100400000D03*
%TD*%
D12*
%TO.C,U10*%
X86000000Y-100500000D03*
D13*
X84671581Y-109438260D03*
X81115580Y-107982840D03*
X78456200Y-105326000D03*
X77097300Y-101764920D03*
X77325900Y-97947300D03*
X79251220Y-94566560D03*
X82240801Y-92331360D03*
X85972060Y-91546500D03*
X89738880Y-92313580D03*
X92819899Y-94637680D03*
X94633460Y-97960000D03*
X94910320Y-101734441D03*
X93579360Y-105356480D03*
X90826000Y-108043800D03*
%TD*%
D12*
%TO.C,U12*%
X171966980Y-100586360D03*
D13*
X170638561Y-109524620D03*
X167082560Y-108069200D03*
X164423180Y-105412360D03*
X163064280Y-101851280D03*
X163292880Y-98033660D03*
X165218200Y-94652920D03*
X168207781Y-92417720D03*
X171939040Y-91632860D03*
X175705860Y-92399940D03*
X178786879Y-94724040D03*
X180600440Y-98046360D03*
X180877300Y-101820801D03*
X179546340Y-105442840D03*
X176792980Y-108130160D03*
%TD*%
D15*
%TO.C,R10*%
X147500000Y-93550000D03*
X149500000Y-93550000D03*
%TD*%
D16*
%TO.C,D11*%
X147475001Y-95650000D03*
X149524999Y-95650000D03*
%TD*%
D15*
%TO.C,R11*%
X147500000Y-107075001D03*
X149500000Y-107075001D03*
%TD*%
D16*
%TO.C,D12*%
X147475001Y-104975001D03*
X149524999Y-104975001D03*
%TD*%
D12*
%TO.C,U11*%
X124966980Y-100500000D03*
D13*
X123638561Y-109438260D03*
X120082560Y-107982840D03*
X117423180Y-105326000D03*
X116064280Y-101764920D03*
X116292880Y-97947300D03*
X118218200Y-94566560D03*
X121207781Y-92331360D03*
X124939040Y-91546500D03*
X128705860Y-92313580D03*
X131786879Y-94637680D03*
X133600440Y-97960000D03*
X133877300Y-101734441D03*
X132546340Y-105356480D03*
X129792980Y-108043800D03*
%TD*%
D17*
%TO.C,J1*%
X70540000Y-77000000D03*
D18*
X68000000Y-77000000D03*
%TD*%
D17*
%TO.C,J5*%
X229000000Y-124000000D03*
D18*
X226460000Y-124000000D03*
%TD*%
D17*
%TO.C,J4*%
X70540000Y-124000000D03*
D18*
X68000000Y-124000000D03*
%TD*%
D17*
%TO.C,J3*%
X157375000Y-81775000D03*
D18*
X157375000Y-79235000D03*
X154835000Y-81775000D03*
X154835000Y-79235000D03*
X152295001Y-81775000D03*
X152295000Y-79235000D03*
X149755000Y-81775000D03*
X149755000Y-79235000D03*
X147215000Y-81775000D03*
X147215000Y-79235000D03*
X144675000Y-81775000D03*
X144675000Y-79235000D03*
X142135000Y-81775000D03*
X142135000Y-79235000D03*
X139594999Y-81775000D03*
X139595000Y-79235000D03*
%TD*%
D17*
%TO.C,J2*%
X229000000Y-77000000D03*
D18*
X226460000Y-77000000D03*
%TD*%
M02*
