%TF.GenerationSoftware,KiCad,Pcbnew,9.0.0*%
%TF.CreationDate,2025-03-11T11:24:58+01:00*%
%TF.ProjectId,CNIX V2 Tube Board,434e4958-2056-4322-9054-75626520426f,rev?*%
%TF.SameCoordinates,Original*%
%TF.FileFunction,Profile,NP*%
%FSLAX46Y46*%
G04 Gerber Fmt 4.6, Leading zero omitted, Abs format (unit mm)*
G04 Created by KiCad (PCBNEW 9.0.0) date 2025-03-11 11:24:58*
%MOMM*%
%LPD*%
G01*
G04 APERTURE LIST*
%TA.AperFunction,Profile*%
%ADD10C,0.050000*%
%TD*%
G04 APERTURE END LIST*
D10*
X57500000Y-97500000D02*
X62000000Y-97500000D01*
X57500000Y-103500000D02*
X62000000Y-103500000D01*
X56000000Y-99000000D02*
X56000000Y-102000000D01*
X66000000Y-77000000D02*
X66000000Y-93500000D01*
X231000000Y-124000000D02*
X231000000Y-107500000D01*
X229000000Y-126000000D02*
X68000000Y-126000000D01*
X229000000Y-75000000D02*
G75*
G02*
X231000000Y-77000000I0J-2000000D01*
G01*
X239500000Y-97500000D02*
X235000000Y-97500000D01*
X231000000Y-93500000D02*
X231000000Y-77000000D01*
X235000000Y-97500000D02*
G75*
G02*
X231000000Y-93500000I0J4000000D01*
G01*
X231000000Y-107500000D02*
G75*
G02*
X235000000Y-103500000I4000000J0D01*
G01*
X62000000Y-103500000D02*
G75*
G02*
X66000000Y-107500000I0J-4000000D01*
G01*
X60600000Y-100500000D02*
G75*
G02*
X57400000Y-100500000I-1600000J0D01*
G01*
X57400000Y-100500000D02*
G75*
G02*
X60600000Y-100500000I1600000J0D01*
G01*
X239500000Y-97500000D02*
G75*
G02*
X241000000Y-99000000I0J-1500000D01*
G01*
X231000000Y-124000000D02*
G75*
G02*
X229000000Y-126000000I-2000000J0D01*
G01*
X239500000Y-103500000D02*
X235000000Y-103500000D01*
X66000000Y-77000000D02*
G75*
G02*
X68000000Y-75000000I2000000J0D01*
G01*
X241000000Y-102000000D02*
X241000000Y-99000000D01*
X239600000Y-100500000D02*
G75*
G02*
X236400000Y-100500000I-1600000J0D01*
G01*
X236400000Y-100500000D02*
G75*
G02*
X239600000Y-100500000I1600000J0D01*
G01*
X68000000Y-75000000D02*
X229000000Y-75000000D01*
X68000000Y-126000000D02*
G75*
G02*
X66000000Y-124000000I0J2000000D01*
G01*
X66000000Y-107500000D02*
X66000000Y-124000000D01*
X56000000Y-99000000D02*
G75*
G02*
X57500000Y-97500000I1500000J0D01*
G01*
X241000000Y-102000000D02*
G75*
G02*
X239500000Y-103500000I-1500000J0D01*
G01*
X57500000Y-103500000D02*
G75*
G02*
X56000000Y-102000000I0J1500000D01*
G01*
X66000000Y-93500000D02*
G75*
G02*
X62000000Y-97500000I-4000000J0D01*
G01*
M02*
