M48
; DRILL file {KiCad 9.0.7-1.fc43} date 2026-01-24T17:33:36+0100
; FORMAT={-:-/ absolute / inch / decimal}
; #@! TF.CreationDate,2026-01-24T17:33:36+01:00
; #@! TF.GenerationSoftware,Kicad,Pcbnew,9.0.7-1.fc43
; #@! TF.FileFunction,Plated,1,2,PTH
FMAT,2
INCH
; #@! TA.AperFunction,Plated,PTH,ViaDrill
T1C0.0118
; #@! TA.AperFunction,Plated,PTH,ComponentDrill
T2C0.0394
; #@! TA.AperFunction,Plated,PTH,ComponentDrill
T3C0.0629
; #@! TA.AperFunction,Plated,PTH,ComponentDrill
T4C0.1181
%
G90
G05
T1
X2.6614Y-4.2283
X2.7165Y-3.2874
X2.7165Y-3.3465
X2.7165Y-3.4055
X2.7559Y-3.248
X2.7638Y-4.6614
X2.7953Y-3.2087
X2.8169Y-4.5276
X2.8346Y-3.1693
X2.8652Y-4.5295
X2.874Y-2.9882
X2.8937Y-3.1398
X2.9134Y-3.3957
X2.9154Y-4.5295
X2.9429Y-3.3661
X2.9528Y-3.1398
X2.9626Y-2.9882
X2.9665Y-4.5295
X2.9724Y-3.3366
X3.0118Y-3.1398
X3.0118Y-3.3169
X3.0157Y-4.5295
X3.0512Y-2.9882
X3.065Y-4.5295
X3.0709Y-3.1398
X3.0709Y-3.3169
X3.1161Y-4.5295
X3.1299Y-3.1398
X3.1299Y-3.3169
X3.1398Y-2.9882
X3.189Y-3.1398
X3.189Y-3.3169
X3.2283Y-2.9882
X3.248Y-3.1398
X3.248Y-3.3169
X3.3071Y-3.1398
X3.3071Y-3.3169
X3.3169Y-2.9882
X3.3661Y-3.1398
X3.3661Y-3.3169
X3.4055Y-2.9882
X3.4252Y-3.1398
X3.4252Y-3.3169
X3.4843Y-3.1398
X3.4843Y-3.3169
X3.4941Y-2.9882
X3.5433Y-3.1398
X3.5433Y-3.3169
X3.5591Y-4.857
X3.5728Y-2.9882
X3.6024Y-3.3169
X3.6102Y-3.2047
X3.6417Y-3.1102
X3.6427Y-3.184
X3.6614Y-2.9882
X3.6614Y-3.3169
X3.6841Y-3.1654
X3.7077Y-3.1407
X3.7087Y-3.0817
X3.7087Y-3.3189
X3.7283Y-4.5866
X3.75Y-3.3957
X3.7687Y-3.1516
X3.8002Y-3.0177
X3.8189Y-3.1988
X3.8425Y-4.857
X3.8502Y-3.0157
X3.8502Y-3.374
X3.8888Y-3.2008
X3.9016Y-3.0157
X3.9557Y-3.2126
X3.9606Y-3.0157
X3.9646Y-4.6614
X3.9734Y-3.2431
X4.001Y-3.1771
X4.0128Y-3.2441
X4.0157Y-4.5335
X4.0256Y-3.061
X4.0475Y-3.2116
X4.0502Y-3.372
X4.0689Y-4.5335
X4.0846Y-3.061
X4.1004Y-3.4134
X4.1181Y-4.5335
X4.124Y-3.3917
X4.1358Y-3.1201
X4.1437Y-3.061
X4.1667Y-4.5335
X4.1982Y-3.454
X4.2126Y-3.061
X4.2167Y-4.5335
X4.252Y-3.3169
X4.252Y-3.3858
X4.2638Y-3.0669
X4.2667Y-4.5335
X4.311Y-3.2382
X4.311Y-3.3169
X4.311Y-3.3858
X4.3167Y-4.5335
X4.3504Y-3.0709
X4.3602Y-3.2382
X4.3701Y-3.315
X4.3701Y-3.3858
X4.4094Y-3.2382
X4.4577Y-3.3799
X4.5467Y-3.435
X4.5577Y-3.3799
X4.6077Y-3.3799
X4.6398Y-3.1929
X4.6577Y-3.3799
X4.6752Y-3.061
X4.685Y-3.185
X4.7096Y-3.2097
X4.7244Y-3.061
X4.7559Y-3.3719
X4.7638Y-3.1988
X4.7638Y-3.2382
X4.7736Y-3.061
X4.7913Y-3.1201
X4.813Y-3.1988
X4.813Y-3.248
X4.813Y-3.2972
X4.813Y-3.3465
X4.8425Y-3.061
X4.8622Y-3.248
X4.8622Y-3.2972
X4.9173Y-3.0709
X4.9213Y-3.248
X4.9213Y-3.2972
X4.9803Y-3.248
X4.9803Y-3.2972
X5.0Y-3.061
X5.0Y-3.1693
X5.0394Y-3.248
X5.0394Y-3.2972
X5.0787Y-3.061
X5.0787Y-3.1693
X5.0787Y-4.857
X5.0984Y-3.248
X5.0984Y-3.2972
X5.1476Y-3.061
X5.1476Y-3.1693
X5.1496Y-4.5315
X5.1575Y-3.248
X5.1575Y-3.2972
X5.1969Y-3.1988
X5.2067Y-3.061
X5.2165Y-3.248
X5.2165Y-3.2972
X5.2756Y-3.0807
X5.2756Y-3.2874
X5.315Y-3.1201
X5.3346Y-3.3465
X5.3543Y-3.1594
X5.3622Y-4.6575
X5.3937Y-3.0709
X5.3937Y-3.1299
X5.3937Y-3.189
X5.4104Y-4.5354
X5.4331Y-3.3957
X5.4604Y-4.5354
X5.4724Y-3.2874
X5.5104Y-4.5354
X5.5315Y-3.2874
X5.5315Y-3.3957
X5.5604Y-4.5354
X5.5906Y-3.2874
X5.6104Y-4.5354
X5.6398Y-3.3957
X5.6496Y-3.2874
X5.6604Y-4.5354
X5.6693Y-2.9843
X5.7087Y-3.2874
X5.7087Y-3.4055
X5.7638Y-4.3425
X5.7677Y-3.2874
X5.7677Y-3.4055
X5.7953Y-4.3425
X5.8268Y-3.2874
X5.8268Y-3.4055
X5.8268Y-4.857
X5.8858Y-3.2874
X5.8858Y-3.4055
X5.8858Y-4.5354
X5.9449Y-3.2874
X5.9449Y-3.4055
X6.0039Y-3.2874
X6.0039Y-3.4055
X6.063Y-3.2874
X6.063Y-3.4055
X6.0718Y-3.0325
X6.0827Y-4.6575
X6.122Y-3.2874
X6.122Y-3.4055
X6.1848Y-4.5295
X6.1909Y-3.4055
X6.2348Y-4.5295
X6.2848Y-4.5295
X6.2894Y-3.3957
X6.2992Y-3.0709
X6.2992Y-3.1299
X6.2992Y-3.189
X6.2992Y-3.248
X6.3348Y-4.5295
X6.3484Y-3.3661
X6.3583Y-3.1693
X6.3848Y-4.5295
X6.3976Y-3.3169
X6.4272Y-3.1004
X6.4348Y-4.5295
X6.4469Y-3.2677
X6.4862Y-3.2185
X6.5453Y-3.0709
X6.5453Y-3.1693
X6.6043Y-3.3858
X6.6339Y-3.3563
X6.6437Y-3.0709
X6.6437Y-3.1693
X6.6634Y-3.3268
X6.7126Y-3.3268
X6.7224Y-3.0709
X6.7224Y-3.1693
X6.7618Y-3.3268
X6.7913Y-3.3563
X6.8091Y-3.2155
X6.8209Y-3.3957
X6.8406Y-3.2155
X6.8701Y-3.0709
X6.8799Y-3.1693
X6.8898Y-3.1988
X6.9173Y-4.857
X6.9193Y-3.0709
X6.9193Y-3.3366
X6.9252Y-3.2943
X6.9291Y-3.1988
X6.9449Y-3.3189
X6.9488Y-3.3465
X6.9557Y-3.1555
X7.0468Y-3.247
X7.0472Y-3.373
X7.0551Y-4.4724
X7.0669Y-3.1791
X7.0709Y-3.2707
X7.1161Y-3.1791
X7.2638Y-3.061
X7.2864Y-3.2677
X7.3189Y-4.6575
X7.3327Y-3.061
X7.3327Y-3.189
X7.3327Y-3.2451
X7.3366Y-3.4518
X7.3701Y-3.124
X7.3711Y-4.5295
X7.3819Y-3.189
X7.39Y-3.4
X7.4211Y-4.5295
X7.4409Y-3.189
X7.4711Y-4.5295
X7.4941Y-3.0709
X7.5Y-3.189
X7.5Y-3.405
X7.5211Y-4.5295
X7.5591Y-3.0709
X7.5591Y-3.189
X7.5713Y-4.5295
X7.5827Y-3.3189
X7.585Y-3.405
X7.6213Y-4.5295
X7.6713Y-4.5295
X7.6732Y-3.0315
X7.6792Y-3.376
X7.7244Y-3.0157
X7.7717Y-3.0
X7.7742Y-3.2598
X7.8228Y-2.9843
X7.8386Y-3.2367
X7.874Y-3.1811
X7.8743Y-3.376
X7.9016Y-3.2131
X7.9016Y-3.3917
X7.9242Y-3.1801
X7.965Y-3.395
X7.9685Y-3.1894
X8.0Y-3.38
X8.0079Y-3.124
X8.0118Y-3.0512
X8.0167Y-3.3179
X8.025Y-3.355
X8.0709Y-3.0512
X8.1299Y-3.0512
X8.189Y-3.0512
X8.189Y-3.1398
X8.248Y-3.0512
X8.248Y-3.1398
X8.3071Y-3.0512
X8.3071Y-3.1693
X8.3425Y-4.857
X8.3661Y-3.0512
X8.3661Y-3.1693
X8.4252Y-3.0512
X8.4252Y-3.1693
X8.4843Y-3.0512
X8.4843Y-3.1693
X8.4882Y-4.5394
X8.5433Y-3.0512
X8.5433Y-3.1693
X8.6024Y-3.0512
X8.6024Y-3.1693
X8.6614Y-3.0512
X8.6614Y-3.1693
X8.6927Y-4.6545
X8.7205Y-3.0512
X8.7205Y-3.1693
X8.7404Y-4.6506
X8.7795Y-3.0512
X8.7904Y-4.6506
X8.7992Y-3.1693
X8.8404Y-4.6506
X8.8484Y-3.2087
X8.8878Y-3.248
X8.8904Y-4.6506
X8.9272Y-3.2874
X8.9404Y-4.6506
X8.9904Y-4.6506
X9.0157Y-3.1102
X9.0404Y-4.6506
X9.0551Y-3.1496
T2
X2.6772Y-3.0315
X2.6772Y-4.8819
X2.7772Y-3.0315
X2.7772Y-4.8819
X5.4959Y-3.2195
X5.4959Y-3.1195
X5.5959Y-3.1195
X5.5959Y-3.2195
X5.6959Y-3.1195
X5.6959Y-3.2195
X5.7959Y-3.1195
X5.7959Y-3.2195
X5.8959Y-3.1195
X5.8959Y-3.2195
X5.9959Y-3.1195
X5.9959Y-3.2195
X6.0959Y-3.1195
X6.0959Y-3.2195
X6.1959Y-3.1195
X6.1959Y-3.2195
X8.9157Y-3.0315
X8.9157Y-4.8819
X9.0157Y-3.0315
X9.0157Y-4.8819
T3
X3.0353Y-4.0065
X3.0443Y-3.8562
X3.0888Y-4.1467
X3.1201Y-3.7231
X3.1935Y-4.2513
X3.2378Y-3.6351
X3.3335Y-4.3086
X3.3847Y-3.6042
X3.533Y-3.6344
X3.5758Y-4.2537
X3.6543Y-3.7259
X3.6842Y-4.1479
X3.7257Y-3.8567
X3.7366Y-4.0053
X4.5695Y-4.0065
X4.5785Y-3.8562
X4.623Y-4.1467
X4.6543Y-3.7231
X4.7277Y-4.2513
X4.772Y-3.6351
X4.8677Y-4.3086
X4.9189Y-3.6042
X5.0672Y-3.6344
X5.11Y-4.2537
X5.1885Y-3.7259
X5.2184Y-4.1479
X5.2599Y-3.8567
X5.2708Y-4.0053
X6.4199Y-4.0099
X6.4289Y-3.8596
X6.4734Y-4.1501
X6.5047Y-3.7265
X6.5781Y-4.2547
X6.6224Y-3.6385
X6.7181Y-4.312
X6.7693Y-3.6076
X6.9176Y-3.6378
X6.9604Y-4.2571
X7.0389Y-3.7293
X7.0688Y-4.1513
X7.1103Y-3.8601
X7.1212Y-4.0087
X7.9566Y-4.006
X7.9656Y-3.8557
X8.0101Y-4.1462
X8.0414Y-3.7226
X8.1148Y-4.2508
X8.1591Y-3.6346
X8.2548Y-4.3081
X8.306Y-3.6037
X8.4543Y-3.6339
X8.4971Y-4.2532
X8.5756Y-3.7254
X8.6055Y-4.1474
X8.647Y-3.8562
X8.6579Y-4.0048
T4
X5.8465Y-3.9528
M30
