M48
; DRILL file {KiCad 9.0.0} date 2025-03-11T11:24:13+0100
; FORMAT={-:-/ absolute / metric / decimal}
; #@! TF.CreationDate,2025-03-11T11:24:13+01:00
; #@! TF.GenerationSoftware,Kicad,Pcbnew,9.0.0
; #@! TF.FileFunction,Plated,1,2,PTH
FMAT,2
METRIC
; #@! TA.AperFunction,Plated,PTH,ViaDrill
T1C0.400
; #@! TA.AperFunction,Plated,PTH,ComponentDrill
T2C0.400
; #@! TA.AperFunction,Plated,PTH,ComponentDrill
T3C0.500
; #@! TA.AperFunction,Plated,PTH,ComponentDrill
T4C0.600
; #@! TA.AperFunction,Plated,PTH,ComponentDrill
T5C0.990
; #@! TA.AperFunction,Plated,PTH,ComponentDrill
T6C1.000
; #@! TA.AperFunction,Plated,PTH,ComponentDrill
T7C1.300
; #@! TA.AperFunction,Plated,PTH,ComponentDrill
T8C2.000
; #@! TA.AperFunction,Plated,PTH,ComponentDrill
T9C3.000
%
G90
G05
T1
X76.065Y-112.885
X82.511Y-95.431
X83.311Y-88.331
X84.311Y-88.331
X85.311Y-88.331
X86.311Y-88.331
X87.311Y-88.331
X88.311Y-88.331
X88.711Y-93.531
X89.311Y-88.331
X89.711Y-109.831
X89.711Y-112.681
X89.711Y-115.581
X90.311Y-88.331
X90.311Y-92.131
X92.598Y-95.111
X94.911Y-104.731
X96.111Y-104.731
X96.911Y-99.131
X97.299Y-104.141
X98.299Y-104.141
X99.299Y-104.141
X99.311Y-90.831
X100.299Y-101.941
X100.299Y-102.941
X101.311Y-81.831
X101.311Y-83.331
X102.811Y-81.831
X102.811Y-83.331
X103.661Y-118.731
X104.311Y-81.831
X104.311Y-83.331
X105.811Y-81.831
X105.811Y-83.331
X107.119Y-84.731
X110.811Y-81.831
X110.811Y-83.331
X110.865Y-86.785
X110.865Y-87.785
X110.865Y-88.785
X110.865Y-89.785
X110.865Y-91.839
X110.865Y-92.785
X110.865Y-93.785
X110.865Y-94.785
X112.811Y-81.831
X112.811Y-83.331
X114.311Y-81.831
X114.311Y-83.331
X116.311Y-81.831
X116.311Y-83.331
X117.811Y-81.831
X117.811Y-83.331
X136.311Y-98.331
X136.311Y-100.331
X136.311Y-102.331
X136.311Y-104.331
X136.311Y-108.331
X136.311Y-110.331
X136.311Y-112.331
X138.311Y-106.331
X138.311Y-110.331
X138.311Y-112.331
X138.311Y-114.331
X140.311Y-112.331
X140.311Y-114.331
X140.311Y-116.331
X142.311Y-114.331
X142.311Y-116.331
X142.311Y-118.331
X144.311Y-116.331
X144.311Y-118.331
X144.311Y-120.331
X145.911Y-109.131
X146.311Y-116.331
X146.311Y-118.331
X146.311Y-120.331
X146.311Y-122.331
X147.311Y-109.131
X147.311Y-110.531
X148.311Y-116.331
X148.311Y-118.331
X148.311Y-120.331
X148.311Y-122.331
X148.311Y-124.331
X148.911Y-109.131
X148.911Y-110.531
X150.311Y-116.331
X150.311Y-118.331
X150.311Y-120.331
X150.311Y-122.331
X150.311Y-124.331
X150.311Y-126.331
X150.511Y-109.131
X150.511Y-110.531
X152.111Y-107.731
X152.111Y-109.131
X152.111Y-110.531
X152.311Y-116.331
X152.311Y-118.331
X152.311Y-120.331
X152.311Y-122.331
X152.311Y-124.331
X152.311Y-126.331
X152.311Y-128.331
X153.711Y-107.731
X153.711Y-109.131
X153.711Y-110.531
X154.311Y-116.331
X154.311Y-118.331
X154.311Y-120.331
X154.311Y-122.331
X154.311Y-124.331
X154.311Y-126.331
X154.311Y-128.331
X155.311Y-107.731
X155.311Y-109.131
X155.311Y-110.531
X156.711Y-109.131
X156.711Y-110.531
X157.311Y-126.331
X159.311Y-116.331
X159.311Y-118.331
X159.311Y-126.331
X159.311Y-128.331
X161.311Y-116.331
X161.311Y-118.331
X161.311Y-126.331
X161.311Y-128.331
X163.236Y-90.002
X163.311Y-116.331
X163.311Y-118.331
X163.311Y-126.331
X163.311Y-128.331
X163.911Y-121.131
X164.311Y-107.431
X165.311Y-126.331
X165.311Y-128.331
X165.636Y-103.6
X165.711Y-122.131
X166.311Y-102.931
X166.867Y-116.887
X167.311Y-126.331
X167.311Y-128.331
X168.114Y-89.331
X168.114Y-90.5
X169.311Y-126.331
X169.311Y-128.331
X169.711Y-110.131
X169.911Y-87.931
X170.911Y-110.131
X171.311Y-126.331
X171.311Y-128.331
X173.311Y-122.331
X173.311Y-124.331
X173.311Y-126.331
X173.311Y-128.331
X173.874Y-108.244
X175.036Y-111.006
X175.311Y-120.331
X175.311Y-122.331
X175.311Y-124.331
X175.311Y-126.331
X175.311Y-128.331
X175.511Y-111.931
X176.561Y-110.481
X177.311Y-117.331
X177.311Y-120.331
X177.311Y-128.331
X179.111Y-115.531
X179.311Y-128.331
X179.465Y-120.485
X179.911Y-111.731
X181.311Y-99.331
X181.311Y-101.331
X181.311Y-103.331
X181.311Y-128.331
X181.465Y-120.485
X181.561Y-87.531
X183.311Y-99.331
X183.311Y-101.331
X183.311Y-103.331
X183.311Y-128.331
X183.465Y-120.485
X185.311Y-99.331
X185.311Y-101.331
X185.311Y-103.331
X185.311Y-128.331
X185.465Y-120.485
X185.511Y-105.931
X187.311Y-99.331
X187.311Y-101.331
X187.311Y-103.331
X187.311Y-105.331
X187.311Y-128.331
X187.465Y-120.485
X189.311Y-99.331
X189.311Y-101.331
X189.311Y-103.331
X189.311Y-105.331
X189.311Y-120.331
X189.311Y-128.331
X189.911Y-109.731
X191.311Y-97.331
X191.311Y-99.331
X191.311Y-101.331
X191.311Y-103.331
X191.311Y-105.331
X191.311Y-107.331
X191.311Y-120.331
X191.311Y-122.331
X191.311Y-124.331
X191.311Y-126.331
X191.311Y-128.331
X193.261Y-87.581
X193.311Y-120.331
X193.311Y-122.331
X193.311Y-124.331
X193.311Y-126.331
X193.311Y-128.331
X195.311Y-122.331
X195.311Y-124.331
X195.311Y-126.331
X195.311Y-128.331
X196.311Y-99.331
X196.311Y-101.331
X196.311Y-103.331
X196.311Y-105.331
X196.311Y-107.331
X196.311Y-109.331
X196.311Y-111.331
X197.311Y-122.331
X197.311Y-124.331
X197.311Y-126.331
X197.311Y-128.331
X198.311Y-97.331
X198.311Y-99.331
X198.311Y-101.331
X198.311Y-103.331
X198.311Y-105.331
X198.311Y-107.331
X198.311Y-109.331
X198.311Y-111.331
X199.311Y-122.331
X199.311Y-124.331
X199.311Y-126.331
X199.311Y-128.331
X200.311Y-99.331
X200.311Y-101.331
X200.311Y-103.331
X200.311Y-105.331
X200.311Y-107.331
X200.311Y-109.331
X200.311Y-111.331
X201.311Y-124.331
X201.311Y-126.331
X201.311Y-128.331
X202.311Y-99.331
X202.311Y-101.331
X202.311Y-103.331
X202.311Y-105.331
X202.311Y-107.331
X203.311Y-126.331
X203.311Y-128.331
X204.311Y-95.469
X204.311Y-101.331
X204.311Y-103.331
X205.111Y-95.731
X206.311Y-101.331
X206.311Y-103.331
X208.311Y-101.331
X208.311Y-103.331
X210.311Y-101.331
X210.311Y-103.331
X212.311Y-101.331
X212.311Y-103.331
X213.311Y-93.031
X214.311Y-101.331
X214.311Y-103.331
X216.311Y-101.331
X216.311Y-103.331
X218.311Y-101.331
X218.311Y-103.331
X219.265Y-91.581
X219.265Y-94.581
X221.415Y-94.481
X223.561Y-116.081
X226.97Y-92.931
T2
X223.94Y-91.156
X223.94Y-92.006
X223.94Y-92.856
X223.94Y-93.706
X223.94Y-94.556
X223.94Y-95.406
X223.94Y-96.256
X223.94Y-97.106
X225.29Y-91.156
X225.29Y-92.006
X225.29Y-92.856
X225.29Y-93.706
X225.29Y-94.556
X225.29Y-95.406
X225.29Y-96.256
X225.29Y-97.106
T3
X143.125Y-92.584
X143.125Y-95.184
X143.125Y-97.734
X143.125Y-100.284
X146.125Y-92.584
X146.125Y-95.184
X146.125Y-97.734
X146.125Y-100.284
X149.125Y-92.584
X149.125Y-95.184
X149.125Y-97.734
X149.125Y-100.284
X152.125Y-92.584
X152.125Y-95.184
X152.125Y-97.734
X152.125Y-100.284
T5
X173.036Y-82.894
X177.536Y-82.894
X184.836Y-82.894
X189.336Y-82.894
X196.636Y-82.894
X201.136Y-82.894
T6
X67.0Y-82.0
X67.0Y-129.0
X69.54Y-82.0
X69.54Y-129.0
X138.59Y-84.235
X138.59Y-86.775
X141.13Y-84.235
X141.13Y-86.775
X143.67Y-84.235
X143.67Y-86.775
X146.21Y-84.235
X146.21Y-86.775
X148.75Y-84.235
X148.75Y-86.775
X151.29Y-84.235
X151.29Y-86.775
X153.83Y-84.235
X153.83Y-86.775
X156.37Y-84.235
X156.37Y-86.775
X157.123Y-105.143
X158.919Y-106.939
X159.824Y-102.418
X160.565Y-82.966
X160.715Y-108.735
X161.62Y-100.622
X162.511Y-110.531
X163.105Y-82.966
X163.416Y-98.826
X165.212Y-97.03
X165.645Y-82.966
X168.185Y-82.966
X178.75Y-93.331
X181.29Y-93.331
X183.83Y-93.331
X186.37Y-93.331
X188.91Y-93.331
X191.45Y-93.331
X193.99Y-93.331
X196.53Y-93.331
X225.425Y-81.96
X225.46Y-129.0
X227.965Y-81.96
X228.0Y-129.0
T7
X171.786Y-85.384
X178.796Y-85.384
X183.586Y-85.384
X190.596Y-85.384
X195.386Y-85.384
X202.396Y-85.384
T8
X226.597Y-103.016
T9
X147.5Y-105.5
T4
G00X224.17Y-89.806
M15
G01X225.67Y-89.806
M16
G05
G00X224.17Y-98.456
M15
G01X225.67Y-98.456
M16
G05
G00X227.9Y-89.806
M15
G01X228.7Y-89.806
M16
G05
G00X227.9Y-98.456
M15
G01X228.7Y-98.456
M16
G05
M30
