%TF.GenerationSoftware,KiCad,Pcbnew,9.0.0*%
%TF.CreationDate,2025-03-11T11:24:18+01:00*%
%TF.ProjectId,CNIX V2 Control Board,434e4958-2056-4322-9043-6f6e74726f6c,rev?*%
%TF.SameCoordinates,Original*%
%TF.FileFunction,Copper,L2,Bot*%
%TF.FilePolarity,Positive*%
%FSLAX46Y46*%
G04 Gerber Fmt 4.6, Leading zero omitted, Abs format (unit mm)*
G04 Created by KiCad (PCBNEW 9.0.0) date 2025-03-11 11:24:18*
%MOMM*%
%LPD*%
G01*
G04 APERTURE LIST*
G04 Aperture macros list*
%AMHorizOval*
0 Thick line with rounded ends*
0 $1 width*
0 $2 $3 position (X,Y) of the first rounded end (center of the circle)*
0 $4 $5 position (X,Y) of the second rounded end (center of the circle)*
0 Add line between two ends*
20,1,$1,$2,$3,$4,$5,0*
0 Add two circle primitives to create the rounded ends*
1,1,$1,$2,$3*
1,1,$1,$4,$5*%
%AMRotRect*
0 Rectangle, with rotation*
0 The origin of the aperture is its center*
0 $1 length*
0 $2 width*
0 $3 Rotation angle, in degrees counterclockwise*
0 Add horizontal line*
21,1,$1,$2,0,0,$3*%
G04 Aperture macros list end*
%TA.AperFunction,ComponentPad*%
%ADD10C,1.000000*%
%TD*%
%TA.AperFunction,ComponentPad*%
%ADD11C,3.600000*%
%TD*%
%TA.AperFunction,ComponentPad*%
%ADD12C,2.100000*%
%TD*%
%TA.AperFunction,ComponentPad*%
%ADD13C,1.750000*%
%TD*%
%TA.AperFunction,ComponentPad*%
%ADD14R,1.700000X1.700000*%
%TD*%
%TA.AperFunction,ComponentPad*%
%ADD15O,1.700000X1.700000*%
%TD*%
%TA.AperFunction,ComponentPad*%
%ADD16RotRect,1.700000X1.700000X135.000000*%
%TD*%
%TA.AperFunction,ComponentPad*%
%ADD17HorizOval,1.700000X0.000000X0.000000X0.000000X0.000000X0*%
%TD*%
%TA.AperFunction,ComponentPad*%
%ADD18C,0.700000*%
%TD*%
%TA.AperFunction,ComponentPad*%
%ADD19O,2.400000X0.900000*%
%TD*%
%TA.AperFunction,ComponentPad*%
%ADD20O,1.700000X0.900000*%
%TD*%
%TA.AperFunction,ComponentPad*%
%ADD21C,4.000000*%
%TD*%
%TA.AperFunction,ComponentPad*%
%ADD22RotRect,1.700000X1.700000X45.000000*%
%TD*%
%TA.AperFunction,ComponentPad*%
%ADD23HorizOval,1.700000X0.000000X0.000000X0.000000X0.000000X0*%
%TD*%
%TA.AperFunction,ViaPad*%
%ADD24C,0.800000*%
%TD*%
%TA.AperFunction,Conductor*%
%ADD25C,1.000000*%
%TD*%
%TA.AperFunction,Conductor*%
%ADD26C,0.750000*%
%TD*%
%TA.AperFunction,Conductor*%
%ADD27C,0.400000*%
%TD*%
%TA.AperFunction,Conductor*%
%ADD28C,0.250000*%
%TD*%
G04 APERTURE END LIST*
D10*
%TO.P,TP14,1,1*%
%TO.N,/CO1_1*%
X149125171Y-97733609D03*
%TD*%
%TO.P,TP13,1,1*%
%TO.N,/CO1_2*%
X149125171Y-95183609D03*
%TD*%
%TO.P,TP7,1,1*%
%TO.N,/CO3_0*%
X143125171Y-100283609D03*
%TD*%
%TO.P,TP5,1,1*%
%TO.N,/CO3_2*%
X143125171Y-95183609D03*
%TD*%
%TO.P,TP18,1,1*%
%TO.N,/CO0_1*%
X152125171Y-97733609D03*
%TD*%
%TO.P,TP9,1,1*%
%TO.N,/CO2_2*%
X146125171Y-95183609D03*
%TD*%
D11*
%TO.P,H1,1,1*%
%TO.N,GND*%
X226596832Y-103016266D03*
%TD*%
D10*
%TO.P,TP19,1,1*%
%TO.N,/CO0_0*%
X152125171Y-100283609D03*
%TD*%
D12*
%TO.P,SW2,*%
%TO.N,*%
X195386051Y-85383551D03*
X202396051Y-85383551D03*
D13*
%TO.P,SW2,1,1*%
%TO.N,Net-(R12-Pad2)*%
X196636051Y-82893551D03*
%TO.P,SW2,2,2*%
%TO.N,GND*%
X201136051Y-82893551D03*
%TD*%
D10*
%TO.P,TP6,1,1*%
%TO.N,/CO3_1*%
X143125171Y-97733609D03*
%TD*%
D14*
%TO.P,J4,1,Pin_1*%
%TO.N,+3V3*%
X196530000Y-93331051D03*
D15*
%TO.P,J4,2,Pin_2*%
%TO.N,GND*%
X193990000Y-93331051D03*
%TO.P,J4,3,Pin_3*%
%TO.N,/PF0*%
X191450000Y-93331051D03*
%TO.P,J4,4,Pin_4*%
%TO.N,/PA1*%
X188910000Y-93331051D03*
%TO.P,J4,5,Pin_5*%
%TO.N,/PF1*%
X186370000Y-93331051D03*
%TO.P,J4,6,Pin_6*%
%TO.N,/PA2*%
X183830000Y-93331051D03*
%TO.P,J4,7,Pin_7*%
%TO.N,/PA3*%
X181290000Y-93331051D03*
%TO.P,J4,8,Pin_8*%
%TO.N,/PA4*%
X178750000Y-93331051D03*
%TD*%
D10*
%TO.P,TP15,1,1*%
%TO.N,/CO1_0*%
X149125171Y-100283609D03*
%TD*%
%TO.P,TP10,1,1*%
%TO.N,/CO2_1*%
X146125171Y-97733609D03*
%TD*%
D12*
%TO.P,SW3,*%
%TO.N,*%
X183586051Y-85383551D03*
X190596051Y-85383551D03*
D13*
%TO.P,SW3,1,1*%
%TO.N,Net-(R11-Pad2)*%
X184836051Y-82893551D03*
%TO.P,SW3,2,2*%
%TO.N,GND*%
X189336051Y-82893551D03*
%TD*%
D10*
%TO.P,TP8,1,1*%
%TO.N,/CO2_3*%
X146125171Y-92583609D03*
%TD*%
%TO.P,TP16,1,1*%
%TO.N,/CO0_3*%
X152125171Y-92583609D03*
%TD*%
%TO.P,TP4,1,1*%
%TO.N,/CO3_3*%
X143125171Y-92583609D03*
%TD*%
D16*
%TO.P,J6,1,Pin_1*%
%TO.N,/SWCLK*%
X159824045Y-102418057D03*
D17*
%TO.P,J6,2,Pin_2*%
%TO.N,/SWDIO*%
X161620096Y-100622006D03*
%TO.P,J6,3,Pin_3*%
%TO.N,GND*%
X163416147Y-98825955D03*
%TO.P,J6,4,Pin_4*%
%TO.N,+3V3*%
X165212199Y-97029903D03*
%TD*%
D12*
%TO.P,SW4,*%
%TO.N,*%
X171786051Y-85383551D03*
X178796051Y-85383551D03*
D13*
%TO.P,SW4,1,1*%
%TO.N,Net-(R10-Pad1)*%
X173036051Y-82893551D03*
%TO.P,SW4,2,2*%
%TO.N,GND*%
X177536051Y-82893551D03*
%TD*%
D18*
%TO.P,J11,A1,GND*%
%TO.N,GND*%
X223940000Y-97106051D03*
%TO.P,J11,A4,VBUS*%
%TO.N,VDD*%
X223940000Y-96256051D03*
%TO.P,J11,A5,CC1*%
%TO.N,Net-(J11-CC1)*%
X223940000Y-95406050D03*
%TO.P,J11,A6,D+*%
%TO.N,unconnected-(J11-D+-PadA6)*%
X223940000Y-94556051D03*
%TO.P,J11,A7,D-*%
%TO.N,unconnected-(J11-D--PadA7)*%
X223940000Y-93706051D03*
%TO.P,J11,A8,SBU1*%
%TO.N,unconnected-(J11-SBU1-PadA8)*%
X223940000Y-92856051D03*
%TO.P,J11,A9,VBUS*%
%TO.N,VDD*%
X223940000Y-92006050D03*
%TO.P,J11,A12,GND*%
%TO.N,GND*%
X223940000Y-91156051D03*
%TO.P,J11,B1,GND*%
X225290000Y-91156051D03*
%TO.P,J11,B4,VBUS*%
%TO.N,VDD*%
X225290000Y-92006051D03*
%TO.P,J11,B5,CC2*%
%TO.N,Net-(J11-CC2)*%
X225290000Y-92856051D03*
%TO.P,J11,B6,D+*%
%TO.N,unconnected-(J11-D+-PadB6)*%
X225290000Y-93706051D03*
%TO.P,J11,B7,D-*%
%TO.N,unconnected-(J11-D--PadB7)*%
X225290000Y-94556051D03*
%TO.P,J11,B8,SBU2*%
%TO.N,unconnected-(J11-SBU2-PadB8)*%
X225290000Y-95406051D03*
%TO.P,J11,B9,VBUS*%
%TO.N,VDD*%
X225290000Y-96256051D03*
%TO.P,J11,B12,GND*%
%TO.N,GND*%
X225290000Y-97106051D03*
D19*
%TO.P,J11,S1,SHIELD*%
%TO.N,unconnected-(J11-SHIELD-PadS1)_3*%
X224920000Y-98456051D03*
D20*
%TO.N,unconnected-(J11-SHIELD-PadS1)*%
X228300000Y-98456051D03*
D19*
%TO.N,unconnected-(J11-SHIELD-PadS1)_1*%
X224920000Y-89806051D03*
D20*
%TO.N,unconnected-(J11-SHIELD-PadS1)_2*%
X228300000Y-89806051D03*
%TD*%
D10*
%TO.P,TP12,1,1*%
%TO.N,/CO1_3*%
X149125171Y-92583609D03*
%TD*%
%TO.P,TP11,1,1*%
%TO.N,/CO2_0*%
X146125171Y-100283609D03*
%TD*%
D21*
%TO.P,H100,1,1*%
%TO.N,GND*%
X147500000Y-105500000D03*
%TD*%
D22*
%TO.P,J1,1,Pin_1*%
%TO.N,/PD0*%
X157122897Y-105142897D03*
D23*
%TO.P,J1,2,Pin_2*%
%TO.N,/PD1*%
X158918948Y-106938948D03*
%TO.P,J1,3,Pin_3*%
%TO.N,/PD2*%
X160714999Y-108734999D03*
%TO.P,J1,4,Pin_4*%
%TO.N,/PD3*%
X162511051Y-110531051D03*
%TD*%
D10*
%TO.P,TP17,1,1*%
%TO.N,/CO0_2*%
X152125171Y-95183609D03*
%TD*%
D14*
%TO.P,J5,1,Pin_1*%
%TO.N,+3V3*%
X168185062Y-82965612D03*
D15*
%TO.P,J5,2,Pin_2*%
%TO.N,/SCL*%
X165645062Y-82965612D03*
%TO.P,J5,3,Pin_3*%
%TO.N,/SDA*%
X163105063Y-82965612D03*
%TO.P,J5,4,Pin_4*%
%TO.N,GND*%
X160565062Y-82965612D03*
%TD*%
D14*
%TO.P,J3,1,Pin_1*%
%TO.N,/CO3_3*%
X138590000Y-86775000D03*
D15*
%TO.P,J3,2,Pin_2*%
%TO.N,/CO3_2*%
X138590000Y-84235000D03*
%TO.P,J3,3,Pin_3*%
%TO.N,/CO3_1*%
X141130000Y-86775000D03*
%TO.P,J3,4,Pin_4*%
%TO.N,/CO3_0*%
X141130000Y-84235000D03*
%TO.P,J3,5,Pin_5*%
%TO.N,/CO2_3*%
X143670000Y-86775000D03*
%TO.P,J3,6,Pin_6*%
%TO.N,/CO2_2*%
X143670000Y-84235000D03*
%TO.P,J3,7,Pin_7*%
%TO.N,/CO2_1*%
X146210000Y-86775000D03*
%TO.P,J3,8,Pin_8*%
%TO.N,/CO2_0*%
X146210000Y-84235000D03*
%TO.P,J3,9,Pin_9*%
%TO.N,/CO1_3*%
X148750000Y-86775000D03*
%TO.P,J3,10,Pin_10*%
%TO.N,/CO1_2*%
X148750000Y-84235000D03*
%TO.P,J3,11,Pin_11*%
%TO.N,/CO1_1*%
X151290000Y-86775000D03*
%TO.P,J3,12,Pin_12*%
%TO.N,/CO1_0*%
X151290000Y-84235000D03*
%TO.P,J3,13,Pin_13*%
%TO.N,/CO0_3*%
X153830000Y-86775000D03*
%TO.P,J3,14,Pin_14*%
%TO.N,/CO0_2*%
X153830000Y-84235000D03*
%TO.P,J3,15,Pin_15*%
%TO.N,/CO0_1*%
X156370000Y-86775000D03*
%TO.P,J3,16,Pin_16*%
%TO.N,/CO0_0*%
X156370000Y-84235000D03*
%TD*%
D14*
%TO.P,J10,1,Pin_1*%
%TO.N,/LED_2*%
X228000000Y-129000000D03*
D15*
%TO.P,J10,2,Pin_2*%
%TO.N,/LED_1*%
X225460000Y-129000000D03*
%TD*%
D14*
%TO.P,J9,1,Pin_1*%
%TO.N,GND*%
X69539999Y-81999999D03*
D15*
%TO.P,J9,2,Pin_2*%
X66999999Y-81999999D03*
%TD*%
D14*
%TO.P,J8,1,Pin_1*%
%TO.N,VDD*%
X227965000Y-81960000D03*
D15*
%TO.P,J8,2,Pin_2*%
%TO.N,GND*%
X225425000Y-81960000D03*
%TD*%
D14*
%TO.P,J7,1,Pin_1*%
%TO.N,HT*%
X69539999Y-129000001D03*
D15*
%TO.P,J7,2,Pin_2*%
X66999999Y-129000001D03*
%TD*%
D24*
%TO.N,GND*%
X200311051Y-109331051D03*
X148311051Y-124331051D03*
X185311051Y-103331051D03*
X199311051Y-128331051D03*
X185311051Y-128331051D03*
X163311051Y-128331051D03*
X163311051Y-116331051D03*
X140311051Y-114331051D03*
X116311051Y-83331051D03*
X210311051Y-101331051D03*
X191311051Y-107331051D03*
X173311051Y-122331051D03*
X156711051Y-109131051D03*
X195311051Y-126331051D03*
X152311051Y-128331051D03*
X191311051Y-124331051D03*
X167311051Y-128331051D03*
X175311051Y-120331051D03*
X193311051Y-122331051D03*
X82511051Y-95431051D03*
X147311051Y-110531051D03*
X179311051Y-128331051D03*
X101311051Y-83331051D03*
X197311051Y-128331051D03*
X177311051Y-128331051D03*
X181311051Y-101331051D03*
X189911051Y-109731051D03*
X146311051Y-118331051D03*
X154311051Y-122331051D03*
X196311051Y-99331051D03*
X200311051Y-103331051D03*
X177311051Y-117331051D03*
X155311051Y-109131051D03*
X183311051Y-128331051D03*
X196311051Y-103331051D03*
X114311051Y-81831051D03*
X104311051Y-83331051D03*
X165711051Y-122131051D03*
X195311051Y-122331051D03*
X152311051Y-124331051D03*
X89711051Y-109831052D03*
X144311051Y-116331051D03*
X179465000Y-120485000D03*
X189311051Y-128331051D03*
X150311051Y-122331051D03*
X175311051Y-126331051D03*
X152311051Y-118331051D03*
X200311051Y-99331051D03*
X219265000Y-91581051D03*
X138311051Y-106331051D03*
X199311051Y-122331051D03*
X187311051Y-101331051D03*
X191311051Y-105331051D03*
X199311051Y-124331051D03*
X154311051Y-124331051D03*
X153711051Y-107731051D03*
X153711051Y-109131051D03*
X219265000Y-94581051D03*
X183311051Y-99331051D03*
X99311051Y-90831051D03*
X142311051Y-114331051D03*
X148311051Y-120331051D03*
X181465000Y-120485000D03*
X159311051Y-116331051D03*
X145911051Y-109131051D03*
X150511051Y-110531051D03*
X198311051Y-101331051D03*
X195311051Y-124331051D03*
X138311051Y-110331051D03*
X159311051Y-118331051D03*
X204311051Y-95468551D03*
X216311051Y-103331051D03*
X198311051Y-109331051D03*
X173311051Y-126331051D03*
X99298550Y-104141051D03*
X88311051Y-88331051D03*
X196311051Y-105331051D03*
X150311051Y-116331051D03*
X197311051Y-126331051D03*
X196311051Y-111331051D03*
X97298550Y-104141051D03*
X185311051Y-101331051D03*
X183311051Y-101331051D03*
X138311051Y-112331051D03*
X201311051Y-126331051D03*
X198311051Y-111331051D03*
X166866508Y-116886508D03*
X140311051Y-116331051D03*
X203311051Y-128331051D03*
X212311051Y-101331051D03*
X202311051Y-105331051D03*
X142311051Y-118331051D03*
X218311051Y-101331051D03*
X191311051Y-122331051D03*
X152311051Y-120331051D03*
X114311051Y-83331051D03*
X181311051Y-103331051D03*
X189311051Y-105331051D03*
X136311051Y-108331051D03*
X169911051Y-87931051D03*
X165311051Y-128331051D03*
X202311051Y-99331051D03*
X191311051Y-126331051D03*
X117811051Y-83331051D03*
X154311051Y-116331051D03*
X214311051Y-101331051D03*
X163311051Y-126331051D03*
X175311051Y-128331051D03*
X199311051Y-126331051D03*
X144311051Y-120331051D03*
X96111051Y-104731051D03*
X173311051Y-124331051D03*
X187465000Y-120485000D03*
X198311051Y-97331051D03*
X117811051Y-81831051D03*
X167311051Y-126331051D03*
X185311051Y-99331051D03*
X187311051Y-103331051D03*
X110865000Y-87785000D03*
X200311051Y-105331051D03*
X165311051Y-126331051D03*
X110865000Y-88785000D03*
X152111051Y-110531051D03*
X138311051Y-114331051D03*
X181311051Y-128331051D03*
X90311051Y-92131051D03*
X185511051Y-105931051D03*
X218311051Y-103331051D03*
X206311051Y-103331051D03*
X189311051Y-99331051D03*
X155311051Y-110531051D03*
X208311051Y-103331051D03*
X187311051Y-105331051D03*
X116311051Y-81831051D03*
X89711051Y-115581052D03*
X88711051Y-93531051D03*
X191311051Y-128331051D03*
X105811051Y-83331051D03*
X175311051Y-122331051D03*
X100298551Y-101941050D03*
X159311051Y-128331051D03*
X201311051Y-124331051D03*
X210311051Y-103331051D03*
X110811051Y-83331051D03*
X204311051Y-103331051D03*
X197311051Y-124331051D03*
X197311051Y-122331051D03*
X104311051Y-81831051D03*
X144311051Y-118331051D03*
X102811051Y-81831051D03*
X193261051Y-87581051D03*
X204311051Y-101331051D03*
X148311051Y-116331051D03*
X112811051Y-81831051D03*
X112811051Y-83331051D03*
X161311051Y-118331051D03*
X110865000Y-93785000D03*
X171311051Y-126331051D03*
X136311051Y-102331051D03*
X89711051Y-112681051D03*
X193311051Y-128331051D03*
X202311051Y-107331051D03*
X189311051Y-103331051D03*
X163911051Y-121131051D03*
X146311051Y-116331051D03*
X110865000Y-86785000D03*
X159311051Y-126331051D03*
X200311051Y-101331051D03*
X161311051Y-116331051D03*
X208311051Y-101331051D03*
X146311051Y-122331051D03*
X89311051Y-88331051D03*
X142311051Y-116331051D03*
X98298550Y-104141051D03*
X152311051Y-126331051D03*
X191311051Y-97331051D03*
X148911051Y-110531051D03*
X193311051Y-124331051D03*
X148311051Y-122331051D03*
X183311051Y-103331051D03*
X179911051Y-111731051D03*
X177311051Y-120331051D03*
X94911051Y-104731051D03*
X136311051Y-98331051D03*
X223561051Y-116081051D03*
X150311051Y-120331051D03*
X85311051Y-88331051D03*
X92597712Y-95110516D03*
X150311051Y-126331051D03*
X84311051Y-88331051D03*
X203311051Y-126331051D03*
X157311051Y-126331051D03*
X136311051Y-104331051D03*
X140311051Y-112331051D03*
X169311051Y-126331051D03*
X191311051Y-120331051D03*
X105811051Y-81831051D03*
X185465000Y-120485000D03*
X198311051Y-99331051D03*
X193311051Y-126331051D03*
X163311051Y-118331051D03*
X110865000Y-89785000D03*
X181561051Y-87531051D03*
X147311051Y-109131051D03*
X202311051Y-101331051D03*
X187311051Y-128331051D03*
X173311051Y-128331051D03*
X110865000Y-92785000D03*
X100298551Y-102941050D03*
X187311051Y-99331051D03*
X152311051Y-122331051D03*
X191311051Y-103331051D03*
X154311051Y-126331051D03*
X175311051Y-124331051D03*
X154311051Y-120331051D03*
X110811051Y-81831051D03*
X202311051Y-103331051D03*
X136311051Y-110331051D03*
X193311051Y-120331051D03*
X102811051Y-83331051D03*
X216311051Y-101331051D03*
X196311051Y-107331051D03*
X161311051Y-128331051D03*
X200311051Y-107331051D03*
X152311051Y-116331051D03*
X198311051Y-105331051D03*
X155311051Y-107731051D03*
X212311051Y-103331051D03*
X198311051Y-107331051D03*
X183465000Y-120485000D03*
X96911051Y-99131051D03*
X76065000Y-112885000D03*
X148311051Y-118331051D03*
X191311051Y-99331051D03*
X152111051Y-109131051D03*
X154311051Y-128331051D03*
X90311051Y-88331051D03*
X163236051Y-90001765D03*
X156711051Y-110531051D03*
X136311051Y-112331051D03*
X110865000Y-91838949D03*
X87311051Y-88331051D03*
X179111051Y-115531051D03*
X103661051Y-118731051D03*
X169311051Y-128331051D03*
X150311051Y-124331051D03*
X83311051Y-88331051D03*
X110865000Y-94785000D03*
X189311051Y-101331051D03*
X213311051Y-93031051D03*
X146311051Y-120331051D03*
X101311051Y-81831051D03*
X181311051Y-99331051D03*
X136311051Y-100331051D03*
X152111051Y-107731051D03*
X175511051Y-111931051D03*
X198311051Y-103331051D03*
X171311051Y-128331051D03*
X196311051Y-109331051D03*
X195311051Y-128331051D03*
X86311051Y-88331051D03*
X201311051Y-128331051D03*
X150311051Y-118331051D03*
X214311051Y-103331051D03*
X189311051Y-120331051D03*
X206311051Y-101331051D03*
X200311051Y-111331051D03*
X161311051Y-126331051D03*
X150511051Y-109131051D03*
X154311051Y-118331051D03*
X153711051Y-110531051D03*
X148911051Y-109131051D03*
X164311051Y-107431051D03*
X196311051Y-101331051D03*
X191311051Y-101331051D03*
X205111051Y-95731051D03*
%TO.N,+3V3*%
X168114294Y-90500000D03*
X168114294Y-89331051D03*
%TO.N,VDD*%
X226970000Y-92931051D03*
%TO.N,/LED_1*%
X170911051Y-110131051D03*
%TO.N,/LED_2*%
X169711051Y-110131051D03*
%TO.N,/SDA*%
X165635742Y-103600294D03*
%TO.N,/SCL*%
X166311051Y-102931051D03*
%TO.N,/EN*%
X107118551Y-84731051D03*
X173873704Y-108243704D03*
%TO.N,/PF0*%
X176561141Y-110480961D03*
X175035835Y-111006267D03*
%TO.N,Net-(J11-CC1)*%
X221415000Y-94481051D03*
%TD*%
D25*
%TO.N,GND*%
X76065000Y-112885000D02*
X81865000Y-112885000D01*
D26*
%TO.N,+3V3*%
X168114294Y-89331051D02*
X168114294Y-91331051D01*
X168114294Y-91331051D02*
X168114294Y-94127808D01*
X168185062Y-89260283D02*
X168114294Y-89331051D01*
X168114294Y-94127808D02*
X165212199Y-97029903D01*
X168185062Y-82965612D02*
X168185062Y-89260283D01*
D27*
%TO.N,VDD*%
X226045000Y-92006051D02*
X226970000Y-92931051D01*
X225290000Y-92006051D02*
X226045000Y-92006051D01*
D28*
%TO.N,/LED_1*%
X223578949Y-129881051D02*
X225100000Y-128360000D01*
X161097447Y-112606051D02*
X156161051Y-117542447D01*
X158297447Y-129881051D02*
X223578949Y-129881051D01*
X170911051Y-110131051D02*
X168436051Y-112606051D01*
X168436051Y-112606051D02*
X161097447Y-112606051D01*
X156161051Y-127744655D02*
X158297447Y-129881051D01*
X156161051Y-117542447D02*
X156161051Y-127744655D01*
%TO.N,/LED_2*%
X155711051Y-117356051D02*
X155711051Y-127931051D01*
X169711051Y-110131051D02*
X167686051Y-112156051D01*
X160911051Y-112156051D02*
X155711051Y-117356051D01*
X167686051Y-112156051D02*
X160911051Y-112156051D01*
X158111051Y-130331051D02*
X226668949Y-130331051D01*
X226668949Y-130331051D02*
X228000000Y-129000000D01*
X155711051Y-127931051D02*
X158111051Y-130331051D01*
%TO.N,/SDA*%
X165311051Y-102531051D02*
X162111051Y-99331051D01*
X165311051Y-103275603D02*
X165311051Y-102531051D01*
X162111051Y-99331051D02*
X162111051Y-83959624D01*
X162111051Y-83959624D02*
X163105063Y-82965612D01*
X165635742Y-103600294D02*
X165311051Y-103275603D01*
%TO.N,/SCL*%
X162561051Y-96309158D02*
X162561051Y-84681051D01*
X166311051Y-102931051D02*
X164911051Y-101531051D01*
X162561051Y-84681051D02*
X163101490Y-84140612D01*
X163101490Y-84140612D02*
X164470062Y-84140612D01*
X164470062Y-84140612D02*
X165645062Y-82965612D01*
X164911051Y-98659158D02*
X162561051Y-96309158D01*
X164911051Y-101531051D02*
X164911051Y-98659158D01*
%TO.N,/EN*%
X173148857Y-108968551D02*
X173873704Y-108243704D01*
X135311051Y-86831051D02*
X135311051Y-104931051D01*
X133211051Y-84731051D02*
X135311051Y-86831051D01*
X165136051Y-111706051D02*
X167873551Y-108968551D01*
X142086051Y-111706051D02*
X165136051Y-111706051D01*
X135311051Y-104931051D02*
X142086051Y-111706051D01*
X107118551Y-84731051D02*
X133211051Y-84731051D01*
X167873551Y-108968551D02*
X173148857Y-108968551D01*
%TO.N,/CO3_1*%
X143900171Y-92100171D02*
X141130000Y-89330000D01*
X143900171Y-96958609D02*
X143900171Y-92100171D01*
X143125171Y-97733609D02*
X143900171Y-96958609D01*
X141130000Y-89330000D02*
X141130000Y-86775000D01*
%TO.N,/CO3_2*%
X137200000Y-88200000D02*
X137200000Y-85625000D01*
X143125171Y-95183609D02*
X143125171Y-94125171D01*
X137200000Y-85625000D02*
X138590000Y-84235000D01*
X143125171Y-94125171D02*
X137200000Y-88200000D01*
%TO.N,/CO0_3*%
X152125171Y-92583609D02*
X153830000Y-90878780D01*
X153830000Y-90878780D02*
X153830000Y-86775000D01*
%TO.N,/CO1_2*%
X147625000Y-85360000D02*
X148750000Y-84235000D01*
X149125171Y-95183609D02*
X147625000Y-93683438D01*
X147625000Y-93683438D02*
X147625000Y-85360000D01*
%TO.N,/CO0_2*%
X152125171Y-95183609D02*
X154955000Y-92353780D01*
X154955000Y-92353780D02*
X154955000Y-85360000D01*
X154955000Y-85360000D02*
X153830000Y-84235000D01*
%TO.N,/CO0_1*%
X156370000Y-93488780D02*
X156370000Y-86775000D01*
X152125171Y-97733609D02*
X156370000Y-93488780D01*
%TO.N,/CO3_3*%
X143125171Y-92583609D02*
X143125171Y-91890857D01*
X143125171Y-91890857D02*
X138590000Y-87355686D01*
X138590000Y-87355686D02*
X138590000Y-86775000D01*
%TO.N,/CO1_1*%
X149900000Y-88165000D02*
X151290000Y-86775000D01*
X149125171Y-97733609D02*
X149900000Y-96958780D01*
X149900000Y-96958780D02*
X149900000Y-88165000D01*
%TO.N,/CO1_3*%
X149125171Y-92583609D02*
X149500000Y-92208780D01*
X149500000Y-87525000D02*
X148750000Y-86775000D01*
X149500000Y-92208780D02*
X149500000Y-87525000D01*
%TO.N,/PF0*%
X175035835Y-111006267D02*
X176035835Y-111006267D01*
X176035835Y-111006267D02*
X176561141Y-110480961D01*
%TO.N,/CO3_0*%
X144300171Y-99108609D02*
X144300171Y-91934485D01*
X142255000Y-85360000D02*
X141130000Y-84235000D01*
X143125171Y-100283609D02*
X144300171Y-99108609D01*
X142255000Y-89889314D02*
X142255000Y-85360000D01*
X144300171Y-91934485D02*
X142255000Y-89889314D01*
%TO.N,/CO0_0*%
X152125171Y-100283609D02*
X157495000Y-94913780D01*
X157495000Y-94913780D02*
X157495000Y-85360000D01*
X157495000Y-85360000D02*
X156370000Y-84235000D01*
%TO.N,/CO1_0*%
X152415000Y-85360000D02*
X151290000Y-84235000D01*
X149125171Y-100283609D02*
X150300000Y-99108780D01*
X152415000Y-87835000D02*
X152415000Y-85360000D01*
X150300000Y-99108780D02*
X150300000Y-89950000D01*
X150300000Y-89950000D02*
X152415000Y-87835000D01*
%TO.N,Net-(J11-CC1)*%
X223940000Y-95406050D02*
X222339999Y-95406050D01*
X222339999Y-95406050D02*
X221415000Y-94481051D01*
%TD*%
%TA.AperFunction,Conductor*%
%TO.N,GND*%
G36*
X91311051Y-125331051D02*
G01*
X91311050Y-125331052D01*
X91311049Y-125331052D01*
X89311051Y-127331050D01*
X89311051Y-130850500D01*
X89291366Y-130917539D01*
X89238562Y-130963294D01*
X89187051Y-130974500D01*
X67004067Y-130974500D01*
X66995957Y-130974235D01*
X66750379Y-130958139D01*
X66734298Y-130956021D01*
X66496935Y-130908806D01*
X66481268Y-130904608D01*
X66252088Y-130826812D01*
X66237102Y-130820605D01*
X66236917Y-130820514D01*
X66227681Y-130815959D01*
X66020039Y-130713561D01*
X66005992Y-130705451D01*
X65804758Y-130570991D01*
X65791890Y-130561117D01*
X65609928Y-130401540D01*
X65598459Y-130390071D01*
X65515688Y-130295689D01*
X65438879Y-130208106D01*
X65429008Y-130195241D01*
X65383893Y-130127722D01*
X65294548Y-129994007D01*
X65286438Y-129979960D01*
X65229773Y-129865055D01*
X65179391Y-129762890D01*
X65173187Y-129747911D01*
X65095391Y-129518731D01*
X65091193Y-129503064D01*
X65068006Y-129386494D01*
X65043976Y-129265690D01*
X65041861Y-129249632D01*
X65025765Y-129004043D01*
X65025500Y-128995933D01*
X65025500Y-128870098D01*
X65349499Y-128870098D01*
X65349499Y-129129903D01*
X65390139Y-129386494D01*
X65470421Y-129633577D01*
X65528678Y-129747911D01*
X65588365Y-129865052D01*
X65741068Y-130075230D01*
X65924770Y-130258932D01*
X66134948Y-130411635D01*
X66268760Y-130479816D01*
X66366422Y-130529578D01*
X66366424Y-130529578D01*
X66366427Y-130529580D01*
X66613506Y-130609861D01*
X66745705Y-130630798D01*
X66870097Y-130650501D01*
X66870102Y-130650501D01*
X67129901Y-130650501D01*
X67243297Y-130632540D01*
X67386492Y-130609861D01*
X67633571Y-130529580D01*
X67865050Y-130411635D01*
X67926778Y-130366786D01*
X67992583Y-130343307D01*
X68060637Y-130359132D01*
X68087344Y-130379424D01*
X68187737Y-130479817D01*
X68340477Y-130575790D01*
X68510744Y-130635369D01*
X68510749Y-130635370D01*
X68601245Y-130645566D01*
X68645039Y-130650500D01*
X68645042Y-130650501D01*
X68645045Y-130650501D01*
X70434956Y-130650501D01*
X70434957Y-130650500D01*
X70502103Y-130642935D01*
X70569248Y-130635370D01*
X70569251Y-130635369D01*
X70569254Y-130635369D01*
X70739521Y-130575790D01*
X70892261Y-130479817D01*
X71019815Y-130352263D01*
X71115788Y-130199523D01*
X71175367Y-130029256D01*
X71190499Y-129894955D01*
X71190499Y-128105047D01*
X71175367Y-127970746D01*
X71115788Y-127800479D01*
X71019815Y-127647739D01*
X70892261Y-127520185D01*
X70892259Y-127520184D01*
X70739522Y-127424212D01*
X70569253Y-127364632D01*
X70569248Y-127364631D01*
X70434959Y-127349501D01*
X70434953Y-127349501D01*
X68645045Y-127349501D01*
X68645038Y-127349501D01*
X68510749Y-127364631D01*
X68510744Y-127364632D01*
X68340475Y-127424212D01*
X68187738Y-127520184D01*
X68087344Y-127620578D01*
X68026021Y-127654062D01*
X67956329Y-127649078D01*
X67926778Y-127633214D01*
X67865053Y-127588369D01*
X67865052Y-127588368D01*
X67865050Y-127588367D01*
X67792763Y-127551535D01*
X67633575Y-127470423D01*
X67386492Y-127390141D01*
X67129901Y-127349501D01*
X67129896Y-127349501D01*
X66870102Y-127349501D01*
X66870097Y-127349501D01*
X66613505Y-127390141D01*
X66366422Y-127470423D01*
X66134944Y-127588369D01*
X65924773Y-127741067D01*
X65924767Y-127741072D01*
X65741070Y-127924769D01*
X65741065Y-127924775D01*
X65588367Y-128134946D01*
X65470421Y-128366424D01*
X65390139Y-128613507D01*
X65349499Y-128870098D01*
X65025500Y-128870098D01*
X65025500Y-118455051D01*
X65045185Y-118388012D01*
X65097989Y-118342257D01*
X65149500Y-118331051D01*
X79311051Y-118331051D01*
X81274734Y-116367368D01*
X81311052Y-116331051D01*
X91311051Y-116331051D01*
X91311051Y-125331051D01*
G37*
%TD.AperFunction*%
%TD*%
%TA.AperFunction,Conductor*%
%TO.N,GND*%
G36*
X112311052Y-125207052D02*
G01*
X112291367Y-125274091D01*
X112238563Y-125319846D01*
X112187052Y-125331052D01*
X91311050Y-125331052D01*
X91311051Y-125331051D01*
X91311051Y-116331051D01*
X81311052Y-116331051D01*
X81311051Y-86331051D01*
X112311053Y-86331051D01*
X112311052Y-125207052D01*
G37*
%TD.AperFunction*%
%TD*%
%TA.AperFunction,Conductor*%
%TO.N,GND*%
G36*
X135311051Y-84331051D02*
G01*
X112311051Y-84331051D01*
X112311051Y-80025500D01*
X135311051Y-80025500D01*
X135311051Y-84331051D01*
G37*
%TD.AperFunction*%
%TD*%
%TA.AperFunction,Conductor*%
%TO.N,GND*%
G36*
X69074074Y-81807006D02*
G01*
X69039999Y-81934173D01*
X69039999Y-82065825D01*
X69074074Y-82192992D01*
X69106987Y-82249999D01*
X67433011Y-82249999D01*
X67465924Y-82192992D01*
X67499999Y-82065825D01*
X67499999Y-81934173D01*
X67465924Y-81807006D01*
X67433011Y-81749999D01*
X69106987Y-81749999D01*
X69074074Y-81807006D01*
G37*
%TD.AperFunction*%
%TA.AperFunction,Conductor*%
G36*
X112311051Y-84331051D02*
G01*
X112311052Y-84331051D01*
X112311052Y-84331551D01*
X112291367Y-84398590D01*
X112238563Y-84444345D01*
X112187052Y-84455551D01*
X107666744Y-84455551D01*
X107599705Y-84435866D01*
X107564586Y-84399036D01*
X107564006Y-84399482D01*
X107559863Y-84394082D01*
X107559359Y-84393554D01*
X107559060Y-84393036D01*
X107456566Y-84290542D01*
X107456564Y-84290541D01*
X107456562Y-84290539D01*
X107331039Y-84218068D01*
X107331040Y-84218068D01*
X107319557Y-84214991D01*
X107191026Y-84180551D01*
X107046076Y-84180551D01*
X106917544Y-84214991D01*
X106906062Y-84218068D01*
X106780539Y-84290539D01*
X106780533Y-84290544D01*
X106678044Y-84393033D01*
X106678039Y-84393039D01*
X106605568Y-84518562D01*
X106605567Y-84518566D01*
X106568051Y-84658576D01*
X106568051Y-84803526D01*
X106605567Y-84943536D01*
X106605568Y-84943539D01*
X106678039Y-85069062D01*
X106678041Y-85069064D01*
X106678042Y-85069066D01*
X106780536Y-85171560D01*
X106780537Y-85171561D01*
X106780539Y-85171562D01*
X106906062Y-85244033D01*
X106906063Y-85244033D01*
X106906066Y-85244035D01*
X107046076Y-85281551D01*
X107046079Y-85281551D01*
X107191023Y-85281551D01*
X107191026Y-85281551D01*
X107331036Y-85244035D01*
X107456566Y-85171560D01*
X107559060Y-85069066D01*
X107559359Y-85068547D01*
X107559725Y-85068198D01*
X107564006Y-85062620D01*
X107564876Y-85063287D01*
X107609927Y-85020334D01*
X107666744Y-85006551D01*
X112187052Y-85006551D01*
X112254091Y-85026236D01*
X112299846Y-85079040D01*
X112311052Y-85130551D01*
X112311053Y-86331051D01*
X81311051Y-86331051D01*
X81311051Y-88331051D01*
X79311051Y-86331051D01*
X65149500Y-86331051D01*
X65082461Y-86311366D01*
X65036706Y-86258562D01*
X65025500Y-86207051D01*
X65025500Y-82004066D01*
X65025765Y-81995957D01*
X65038149Y-81807006D01*
X65041861Y-81750378D01*
X65041911Y-81749999D01*
X65672768Y-81749999D01*
X66566987Y-81749999D01*
X66534074Y-81807006D01*
X66499999Y-81934173D01*
X66499999Y-82065825D01*
X66534074Y-82192992D01*
X66566987Y-82249999D01*
X65672768Y-82249999D01*
X65683241Y-82316125D01*
X65683241Y-82316128D01*
X65748903Y-82518216D01*
X65845378Y-82707556D01*
X65970271Y-82879458D01*
X65970275Y-82879463D01*
X66120534Y-83029722D01*
X66120539Y-83029726D01*
X66292441Y-83154619D01*
X66481781Y-83251094D01*
X66683870Y-83316756D01*
X66749999Y-83327230D01*
X66749999Y-82433011D01*
X66807006Y-82465924D01*
X66934173Y-82499999D01*
X67065825Y-82499999D01*
X67192992Y-82465924D01*
X67249999Y-82433011D01*
X67249999Y-83327229D01*
X67316125Y-83316756D01*
X67316128Y-83316756D01*
X67518216Y-83251094D01*
X67707556Y-83154619D01*
X67879457Y-83029727D01*
X67993520Y-82915664D01*
X68054843Y-82882179D01*
X68124535Y-82887163D01*
X68180469Y-82929034D01*
X68197384Y-82960012D01*
X68246644Y-83092085D01*
X68246648Y-83092092D01*
X68332808Y-83207186D01*
X68332811Y-83207189D01*
X68447905Y-83293349D01*
X68447912Y-83293353D01*
X68582619Y-83343595D01*
X68582626Y-83343597D01*
X68642154Y-83349998D01*
X68642171Y-83349999D01*
X69289999Y-83349999D01*
X69289999Y-82433011D01*
X69347006Y-82465924D01*
X69474173Y-82499999D01*
X69605825Y-82499999D01*
X69732992Y-82465924D01*
X69789999Y-82433011D01*
X69789999Y-83349999D01*
X70437827Y-83349999D01*
X70437843Y-83349998D01*
X70497371Y-83343597D01*
X70497378Y-83343595D01*
X70632085Y-83293353D01*
X70632092Y-83293349D01*
X70747186Y-83207189D01*
X70747189Y-83207186D01*
X70833349Y-83092092D01*
X70833353Y-83092085D01*
X70883595Y-82957378D01*
X70883597Y-82957371D01*
X70889998Y-82897843D01*
X70889999Y-82897826D01*
X70889999Y-82249999D01*
X69973011Y-82249999D01*
X70005924Y-82192992D01*
X70039999Y-82065825D01*
X70039999Y-81934173D01*
X70005924Y-81807006D01*
X69973011Y-81749999D01*
X70889999Y-81749999D01*
X70889999Y-81102171D01*
X70889998Y-81102154D01*
X70883597Y-81042626D01*
X70883595Y-81042619D01*
X70833353Y-80907912D01*
X70833349Y-80907905D01*
X70747189Y-80792811D01*
X70747186Y-80792808D01*
X70632092Y-80706648D01*
X70632085Y-80706644D01*
X70497378Y-80656402D01*
X70497371Y-80656400D01*
X70437843Y-80649999D01*
X69789999Y-80649999D01*
X69789999Y-81566987D01*
X69732992Y-81534074D01*
X69605825Y-81499999D01*
X69474173Y-81499999D01*
X69347006Y-81534074D01*
X69289999Y-81566987D01*
X69289999Y-80649999D01*
X68642154Y-80649999D01*
X68582626Y-80656400D01*
X68582619Y-80656402D01*
X68447912Y-80706644D01*
X68447905Y-80706648D01*
X68332811Y-80792808D01*
X68332808Y-80792811D01*
X68246648Y-80907905D01*
X68246645Y-80907910D01*
X68197384Y-81039986D01*
X68155512Y-81095919D01*
X68090048Y-81120336D01*
X68021775Y-81105484D01*
X67993521Y-81084333D01*
X67879463Y-80970275D01*
X67879458Y-80970271D01*
X67707556Y-80845378D01*
X67518214Y-80748902D01*
X67316123Y-80683240D01*
X67249999Y-80672767D01*
X67249999Y-81566987D01*
X67192992Y-81534074D01*
X67065825Y-81499999D01*
X66934173Y-81499999D01*
X66807006Y-81534074D01*
X66749999Y-81566987D01*
X66749999Y-80672767D01*
X66749998Y-80672767D01*
X66683874Y-80683240D01*
X66481783Y-80748902D01*
X66292441Y-80845378D01*
X66120539Y-80970271D01*
X66120534Y-80970275D01*
X65970275Y-81120534D01*
X65970271Y-81120539D01*
X65845378Y-81292441D01*
X65748903Y-81481781D01*
X65683241Y-81683869D01*
X65683241Y-81683872D01*
X65672768Y-81749999D01*
X65041911Y-81749999D01*
X65043976Y-81734311D01*
X65091193Y-81496933D01*
X65095391Y-81481268D01*
X65159489Y-81292441D01*
X65173189Y-81252080D01*
X65179388Y-81237114D01*
X65286441Y-81020033D01*
X65294544Y-81005998D01*
X65429016Y-80804746D01*
X65438873Y-80791900D01*
X65598464Y-80609922D01*
X65609922Y-80598464D01*
X65791900Y-80438873D01*
X65804746Y-80429016D01*
X66005998Y-80294544D01*
X66020033Y-80286441D01*
X66237114Y-80179388D01*
X66252080Y-80173189D01*
X66415302Y-80117783D01*
X66481268Y-80095391D01*
X66496935Y-80091193D01*
X66734311Y-80043976D01*
X66750367Y-80041861D01*
X66975757Y-80027088D01*
X66995958Y-80025765D01*
X67004067Y-80025500D01*
X112311051Y-80025500D01*
X112311051Y-84331051D01*
G37*
%TD.AperFunction*%
%TD*%
%TA.AperFunction,Conductor*%
%TO.N,GND*%
G36*
X164542235Y-99598490D02*
G01*
X164570199Y-99604365D01*
X164619956Y-99653416D01*
X164635551Y-99713619D01*
X164635551Y-101166573D01*
X164615866Y-101233612D01*
X164563062Y-101279367D01*
X164493904Y-101289311D01*
X164430348Y-101260286D01*
X164423870Y-101254254D01*
X163541831Y-100372215D01*
X163508346Y-100310892D01*
X163513330Y-100241200D01*
X163555202Y-100185267D01*
X163610114Y-100162061D01*
X163732274Y-100142712D01*
X163732277Y-100142712D01*
X163934364Y-100077050D01*
X164123701Y-99980577D01*
X164177863Y-99941225D01*
X164177864Y-99941225D01*
X163545556Y-99308917D01*
X163609140Y-99291880D01*
X163723154Y-99226054D01*
X163816246Y-99132962D01*
X163882072Y-99018948D01*
X163899109Y-98955364D01*
X164542235Y-99598490D01*
G37*
%TD.AperFunction*%
%TA.AperFunction,Conductor*%
G36*
X228004043Y-80025765D02*
G01*
X228249632Y-80041861D01*
X228265690Y-80043976D01*
X228469394Y-80084495D01*
X228503064Y-80091193D01*
X228518731Y-80095391D01*
X228687510Y-80152683D01*
X228747913Y-80173188D01*
X228762890Y-80179391D01*
X228970539Y-80281792D01*
X228979960Y-80286438D01*
X228994007Y-80294548D01*
X229033528Y-80320955D01*
X229195245Y-80429011D01*
X229208106Y-80438879D01*
X229320036Y-80537039D01*
X229390071Y-80598459D01*
X229401540Y-80609928D01*
X229561117Y-80791890D01*
X229570991Y-80804758D01*
X229705451Y-81005992D01*
X229713561Y-81020039D01*
X229820605Y-81237102D01*
X229826812Y-81252088D01*
X229904608Y-81481268D01*
X229908806Y-81496935D01*
X229956021Y-81734298D01*
X229958139Y-81750379D01*
X229973501Y-81984765D01*
X229974235Y-81995956D01*
X229974500Y-82004066D01*
X229974500Y-128995933D01*
X229974235Y-129004043D01*
X229958139Y-129249620D01*
X229956021Y-129265701D01*
X229908806Y-129503064D01*
X229904608Y-129518731D01*
X229826812Y-129747911D01*
X229820605Y-129762897D01*
X229713561Y-129979960D01*
X229705451Y-129994007D01*
X229570991Y-130195241D01*
X229561117Y-130208109D01*
X229401540Y-130390071D01*
X229390071Y-130401540D01*
X229208109Y-130561117D01*
X229195241Y-130570991D01*
X228994007Y-130705451D01*
X228979960Y-130713561D01*
X228762897Y-130820605D01*
X228747911Y-130826812D01*
X228518731Y-130904608D01*
X228503064Y-130908806D01*
X228265701Y-130956021D01*
X228249620Y-130958139D01*
X228004043Y-130974235D01*
X227995933Y-130974500D01*
X135435051Y-130974500D01*
X135368012Y-130954815D01*
X135322257Y-130902011D01*
X135311051Y-130850500D01*
X135311051Y-105620028D01*
X135330736Y-105552989D01*
X135383540Y-105507234D01*
X135452698Y-105497290D01*
X135516254Y-105526315D01*
X135522732Y-105532347D01*
X141852494Y-111862109D01*
X141929993Y-111939608D01*
X142031251Y-111981551D01*
X160396573Y-111981551D01*
X160463612Y-112001236D01*
X160509367Y-112054040D01*
X160519311Y-112123198D01*
X160490286Y-112186754D01*
X160484254Y-112193232D01*
X155554993Y-117122494D01*
X155477495Y-117199991D01*
X155435551Y-117301250D01*
X155435551Y-127985853D01*
X155476414Y-128084502D01*
X155476412Y-128084502D01*
X155476417Y-128084508D01*
X155477494Y-128087109D01*
X157954993Y-130564609D01*
X157954995Y-130564611D01*
X158033308Y-130597048D01*
X158056251Y-130606551D01*
X158056253Y-130606551D01*
X226723748Y-130606551D01*
X226723749Y-130606551D01*
X226825007Y-130564608D01*
X226902506Y-130487109D01*
X226902505Y-130487109D01*
X226961074Y-130428540D01*
X227352796Y-130036819D01*
X227414119Y-130003334D01*
X227440477Y-130000500D01*
X228864822Y-130000500D01*
X228908717Y-129991768D01*
X228908717Y-129991767D01*
X228908722Y-129991767D01*
X228958504Y-129958504D01*
X228991767Y-129908722D01*
X228996161Y-129886632D01*
X229000500Y-129864822D01*
X229000500Y-128135177D01*
X228991768Y-128091282D01*
X228991767Y-128091281D01*
X228991767Y-128091278D01*
X228958504Y-128041496D01*
X228953197Y-128037950D01*
X228908724Y-128008234D01*
X228908717Y-128008231D01*
X228864822Y-127999500D01*
X228864820Y-127999500D01*
X227135180Y-127999500D01*
X227135178Y-127999500D01*
X227091282Y-128008231D01*
X227091275Y-128008234D01*
X227041496Y-128041495D01*
X227041495Y-128041496D01*
X227008234Y-128091275D01*
X227008231Y-128091282D01*
X226999500Y-128135177D01*
X226999500Y-129559522D01*
X226979815Y-129626561D01*
X226963181Y-129647203D01*
X226591153Y-130019232D01*
X226529830Y-130052717D01*
X226503472Y-130055551D01*
X226089883Y-130055551D01*
X226022844Y-130035866D01*
X225977089Y-129983062D01*
X225967145Y-129913904D01*
X225996170Y-129850348D01*
X226020992Y-129828449D01*
X226057571Y-129804006D01*
X226097782Y-129777139D01*
X226237139Y-129637782D01*
X226346632Y-129473914D01*
X226422051Y-129291835D01*
X226460500Y-129098541D01*
X226460500Y-128901459D01*
X226460500Y-128901456D01*
X226422052Y-128708170D01*
X226422051Y-128708169D01*
X226422051Y-128708165D01*
X226422049Y-128708160D01*
X226346635Y-128526092D01*
X226346628Y-128526079D01*
X226237139Y-128362218D01*
X226237136Y-128362214D01*
X226097785Y-128222863D01*
X226097781Y-128222860D01*
X225933920Y-128113371D01*
X225933907Y-128113364D01*
X225751839Y-128037950D01*
X225751829Y-128037947D01*
X225558543Y-127999500D01*
X225558541Y-127999500D01*
X225361459Y-127999500D01*
X225361457Y-127999500D01*
X225168170Y-128037947D01*
X225168160Y-128037950D01*
X225082915Y-128073259D01*
X225082903Y-128073265D01*
X225055778Y-128084501D01*
X225045200Y-128084501D01*
X224943942Y-128126443D01*
X224898481Y-128171903D01*
X224883691Y-128181785D01*
X224883679Y-128181792D01*
X224833134Y-128215566D01*
X224822220Y-128222860D01*
X224822214Y-128222864D01*
X224682864Y-128362214D01*
X224638686Y-128428329D01*
X224623266Y-128447117D01*
X223501153Y-129569232D01*
X223439830Y-129602717D01*
X223413472Y-129605551D01*
X158462925Y-129605551D01*
X158395886Y-129585866D01*
X158375244Y-129569232D01*
X156472870Y-127666858D01*
X156439385Y-127605535D01*
X156436551Y-127579177D01*
X156436551Y-117707924D01*
X156456236Y-117640885D01*
X156472870Y-117620243D01*
X161175244Y-112917870D01*
X161236567Y-112884385D01*
X161262925Y-112881551D01*
X168490850Y-112881551D01*
X168490851Y-112881551D01*
X168592109Y-112839608D01*
X168669608Y-112762109D01*
X168669607Y-112762109D01*
X168728176Y-112703540D01*
X168728175Y-112703540D01*
X170497924Y-110933792D01*
X174485335Y-110933792D01*
X174485335Y-111078742D01*
X174509476Y-111168836D01*
X174522852Y-111218755D01*
X174595323Y-111344278D01*
X174595325Y-111344280D01*
X174595326Y-111344282D01*
X174697820Y-111446776D01*
X174697821Y-111446777D01*
X174697823Y-111446778D01*
X174823346Y-111519249D01*
X174823347Y-111519249D01*
X174823350Y-111519251D01*
X174963360Y-111556767D01*
X174963363Y-111556767D01*
X175108307Y-111556767D01*
X175108310Y-111556767D01*
X175248320Y-111519251D01*
X175373850Y-111446776D01*
X175476344Y-111344282D01*
X175476643Y-111343763D01*
X175477009Y-111343414D01*
X175481290Y-111337836D01*
X175482160Y-111338503D01*
X175527211Y-111295550D01*
X175584028Y-111281767D01*
X176090634Y-111281767D01*
X176090635Y-111281767D01*
X176191893Y-111239824D01*
X176269392Y-111162325D01*
X176368317Y-111063398D01*
X176429638Y-111029915D01*
X176480513Y-111031127D01*
X176480609Y-111030400D01*
X176487373Y-111031290D01*
X176488094Y-111031307D01*
X176488666Y-111031461D01*
X176488669Y-111031461D01*
X176633613Y-111031461D01*
X176633616Y-111031461D01*
X176773626Y-110993945D01*
X176899156Y-110921470D01*
X177001650Y-110818976D01*
X177074125Y-110693446D01*
X177111641Y-110553436D01*
X177111641Y-110408486D01*
X177074125Y-110268476D01*
X177037247Y-110204602D01*
X177001652Y-110142949D01*
X177001647Y-110142943D01*
X176899158Y-110040454D01*
X176899152Y-110040449D01*
X176773629Y-109967978D01*
X176773630Y-109967978D01*
X176762147Y-109964901D01*
X176633616Y-109930461D01*
X176488666Y-109930461D01*
X176360134Y-109964901D01*
X176348652Y-109967978D01*
X176223129Y-110040449D01*
X176223123Y-110040454D01*
X176120634Y-110142943D01*
X176120629Y-110142949D01*
X176048158Y-110268472D01*
X176046691Y-110273947D01*
X176010641Y-110408486D01*
X176010641Y-110553436D01*
X176010795Y-110554014D01*
X176010783Y-110554519D01*
X176011702Y-110561492D01*
X176010614Y-110561635D01*
X176010509Y-110566010D01*
X176014704Y-110577254D01*
X176009692Y-110600292D01*
X176009131Y-110623862D01*
X176002033Y-110635505D01*
X175999854Y-110645527D01*
X175978703Y-110673782D01*
X175958040Y-110694446D01*
X175896718Y-110727933D01*
X175870357Y-110730767D01*
X175584028Y-110730767D01*
X175516989Y-110711082D01*
X175481870Y-110674252D01*
X175481290Y-110674698D01*
X175477147Y-110669298D01*
X175476643Y-110668770D01*
X175476344Y-110668252D01*
X175373850Y-110565758D01*
X175373848Y-110565757D01*
X175373846Y-110565755D01*
X175248323Y-110493284D01*
X175248324Y-110493284D01*
X175236841Y-110490207D01*
X175108310Y-110455767D01*
X174963360Y-110455767D01*
X174834828Y-110490207D01*
X174823346Y-110493284D01*
X174697823Y-110565755D01*
X174697817Y-110565760D01*
X174595328Y-110668249D01*
X174595323Y-110668255D01*
X174522852Y-110793778D01*
X174522851Y-110793782D01*
X174485335Y-110933792D01*
X170497924Y-110933792D01*
X170718228Y-110713488D01*
X170779549Y-110680005D01*
X170830423Y-110681217D01*
X170830519Y-110680490D01*
X170837283Y-110681380D01*
X170838004Y-110681397D01*
X170838576Y-110681551D01*
X170838579Y-110681551D01*
X170983523Y-110681551D01*
X170983526Y-110681551D01*
X171123536Y-110644035D01*
X171249066Y-110571560D01*
X171351560Y-110469066D01*
X171424035Y-110343536D01*
X171461551Y-110203526D01*
X171461551Y-110058576D01*
X171424035Y-109918566D01*
X171409427Y-109893265D01*
X171351562Y-109793039D01*
X171351557Y-109793033D01*
X171249068Y-109690544D01*
X171249062Y-109690539D01*
X171123539Y-109618068D01*
X171123540Y-109618068D01*
X171112057Y-109614991D01*
X170983526Y-109580551D01*
X170838576Y-109580551D01*
X170710044Y-109614991D01*
X170698562Y-109618068D01*
X170573039Y-109690539D01*
X170573033Y-109690544D01*
X170470544Y-109793033D01*
X170470542Y-109793036D01*
X170418438Y-109883282D01*
X170367870Y-109931497D01*
X170299263Y-109944719D01*
X170234398Y-109918751D01*
X170203664Y-109883282D01*
X170191983Y-109863051D01*
X170151560Y-109793036D01*
X170049066Y-109690542D01*
X170049064Y-109690541D01*
X170049062Y-109690539D01*
X169923539Y-109618068D01*
X169923540Y-109618068D01*
X169912057Y-109614991D01*
X169783526Y-109580551D01*
X169638576Y-109580551D01*
X169510044Y-109614991D01*
X169498562Y-109618068D01*
X169373039Y-109690539D01*
X169373033Y-109690544D01*
X169270544Y-109793033D01*
X169270539Y-109793039D01*
X169198068Y-109918562D01*
X169198067Y-109918566D01*
X169160551Y-110058576D01*
X169160551Y-110203526D01*
X169160704Y-110204100D01*
X169160692Y-110204602D01*
X169161612Y-110211582D01*
X169160523Y-110211725D01*
X169159042Y-110273947D01*
X169128611Y-110323873D01*
X167608255Y-111844232D01*
X167546932Y-111877717D01*
X167520574Y-111880551D01*
X165650527Y-111880551D01*
X165583488Y-111860866D01*
X165537733Y-111808062D01*
X165527789Y-111738904D01*
X165556814Y-111675348D01*
X165562846Y-111668870D01*
X166062881Y-111168836D01*
X167951348Y-109280370D01*
X168012671Y-109246885D01*
X168039029Y-109244051D01*
X173203656Y-109244051D01*
X173203657Y-109244051D01*
X173304915Y-109202108D01*
X173382414Y-109124609D01*
X173382413Y-109124609D01*
X173440982Y-109066040D01*
X173680880Y-108826141D01*
X173742201Y-108792658D01*
X173793076Y-108793869D01*
X173793172Y-108793143D01*
X173799928Y-108794032D01*
X173800654Y-108794049D01*
X173801229Y-108794204D01*
X173801231Y-108794204D01*
X173946176Y-108794204D01*
X173946179Y-108794204D01*
X174086189Y-108756688D01*
X174211719Y-108684213D01*
X174314213Y-108581719D01*
X174386688Y-108456189D01*
X174424204Y-108316179D01*
X174424204Y-108171229D01*
X174386688Y-108031219D01*
X174344333Y-107957859D01*
X174314215Y-107905692D01*
X174314210Y-107905686D01*
X174211721Y-107803197D01*
X174211715Y-107803192D01*
X174086192Y-107730721D01*
X174086193Y-107730721D01*
X174074710Y-107727644D01*
X173946179Y-107693204D01*
X173801229Y-107693204D01*
X173672697Y-107727644D01*
X173661215Y-107730721D01*
X173535692Y-107803192D01*
X173535686Y-107803197D01*
X173433197Y-107905686D01*
X173433192Y-107905692D01*
X173360721Y-108031215D01*
X173360720Y-108031219D01*
X173323204Y-108171229D01*
X173323204Y-108316179D01*
X173323358Y-108316757D01*
X173323346Y-108317262D01*
X173324265Y-108324235D01*
X173323177Y-108324378D01*
X173321694Y-108386605D01*
X173291264Y-108436527D01*
X173071059Y-108656733D01*
X173009739Y-108690217D01*
X172983380Y-108693051D01*
X167928351Y-108693051D01*
X167818751Y-108693051D01*
X167818749Y-108693051D01*
X167818747Y-108693052D01*
X167717495Y-108734990D01*
X167717493Y-108734992D01*
X165058255Y-111394232D01*
X164996932Y-111427717D01*
X164970574Y-111430551D01*
X163325835Y-111430551D01*
X163258796Y-111410866D01*
X163213041Y-111358062D01*
X163203097Y-111288904D01*
X163232122Y-111225348D01*
X163238154Y-111218870D01*
X163288187Y-111168836D01*
X163288190Y-111168833D01*
X163397683Y-111004965D01*
X163473102Y-110822886D01*
X163491990Y-110727933D01*
X163511551Y-110629594D01*
X163511551Y-110432507D01*
X163473103Y-110239221D01*
X163473102Y-110239220D01*
X163473102Y-110239216D01*
X163458318Y-110203523D01*
X163397686Y-110057143D01*
X163397679Y-110057130D01*
X163288190Y-109893269D01*
X163288187Y-109893265D01*
X163148836Y-109753914D01*
X163148832Y-109753911D01*
X162984971Y-109644422D01*
X162984958Y-109644415D01*
X162802890Y-109569001D01*
X162802880Y-109568998D01*
X162609594Y-109530551D01*
X162609592Y-109530551D01*
X162412510Y-109530551D01*
X162412508Y-109530551D01*
X162219221Y-109568998D01*
X162219211Y-109569001D01*
X162037143Y-109644415D01*
X162037130Y-109644422D01*
X161873269Y-109753911D01*
X161873265Y-109753914D01*
X161733914Y-109893265D01*
X161733911Y-109893269D01*
X161624422Y-110057130D01*
X161624415Y-110057143D01*
X161549001Y-110239211D01*
X161548998Y-110239221D01*
X161510551Y-110432507D01*
X161510551Y-110432510D01*
X161510551Y-110629592D01*
X161510551Y-110629594D01*
X161510550Y-110629594D01*
X161548998Y-110822880D01*
X161549001Y-110822890D01*
X161624415Y-111004958D01*
X161624422Y-111004971D01*
X161733911Y-111168832D01*
X161733914Y-111168836D01*
X161783948Y-111218870D01*
X161817433Y-111280193D01*
X161812449Y-111349885D01*
X161770577Y-111405818D01*
X161705113Y-111430235D01*
X161696267Y-111430551D01*
X142251528Y-111430551D01*
X142184489Y-111410866D01*
X142163847Y-111394232D01*
X139603157Y-108833542D01*
X159714498Y-108833542D01*
X159752946Y-109026828D01*
X159752949Y-109026838D01*
X159828363Y-109208906D01*
X159828370Y-109208919D01*
X159937859Y-109372780D01*
X159937862Y-109372784D01*
X160077213Y-109512135D01*
X160077217Y-109512138D01*
X160241078Y-109621627D01*
X160241091Y-109621634D01*
X160407445Y-109690539D01*
X160423164Y-109697050D01*
X160423168Y-109697050D01*
X160423169Y-109697051D01*
X160616455Y-109735499D01*
X160616458Y-109735499D01*
X160813542Y-109735499D01*
X160943581Y-109709631D01*
X161006834Y-109697050D01*
X161188913Y-109621631D01*
X161352781Y-109512138D01*
X161492138Y-109372781D01*
X161601631Y-109208913D01*
X161677050Y-109026834D01*
X161715499Y-108833540D01*
X161715499Y-108636458D01*
X161715499Y-108636455D01*
X161677051Y-108443169D01*
X161677050Y-108443168D01*
X161677050Y-108443164D01*
X161627848Y-108324378D01*
X161601634Y-108261091D01*
X161601627Y-108261078D01*
X161492138Y-108097217D01*
X161492135Y-108097213D01*
X161352784Y-107957862D01*
X161352780Y-107957859D01*
X161188919Y-107848370D01*
X161188906Y-107848363D01*
X161006838Y-107772949D01*
X161006828Y-107772946D01*
X160813542Y-107734499D01*
X160813540Y-107734499D01*
X160616458Y-107734499D01*
X160616456Y-107734499D01*
X160423169Y-107772946D01*
X160423159Y-107772949D01*
X160241091Y-107848363D01*
X160241078Y-107848370D01*
X160077217Y-107957859D01*
X160077213Y-107957862D01*
X159937862Y-108097213D01*
X159937859Y-108097217D01*
X159828370Y-108261078D01*
X159828363Y-108261091D01*
X159752949Y-108443159D01*
X159752946Y-108443169D01*
X159714499Y-108636455D01*
X159714499Y-108636458D01*
X159714499Y-108833540D01*
X159714499Y-108833542D01*
X159714498Y-108833542D01*
X139603157Y-108833542D01*
X136129213Y-105359598D01*
X145000000Y-105359598D01*
X145000000Y-105640401D01*
X145031437Y-105919412D01*
X145031439Y-105919424D01*
X145093921Y-106193178D01*
X145093922Y-106193180D01*
X145186662Y-106458217D01*
X145308492Y-106711200D01*
X145457884Y-106948956D01*
X145564187Y-107082257D01*
X146277339Y-106369104D01*
X146355864Y-106477184D01*
X146522816Y-106644136D01*
X146630893Y-106722658D01*
X145917741Y-107435810D01*
X145917741Y-107435811D01*
X146051043Y-107542115D01*
X146288799Y-107691507D01*
X146541782Y-107813337D01*
X146806819Y-107906077D01*
X146806821Y-107906078D01*
X147080575Y-107968560D01*
X147080587Y-107968562D01*
X147359598Y-107999999D01*
X147359600Y-108000000D01*
X147640400Y-108000000D01*
X147640401Y-107999999D01*
X147919412Y-107968562D01*
X147919424Y-107968560D01*
X148193178Y-107906078D01*
X148193180Y-107906077D01*
X148458217Y-107813337D01*
X148711200Y-107691507D01*
X148948956Y-107542116D01*
X149082257Y-107435810D01*
X148369105Y-106722659D01*
X148477184Y-106644136D01*
X148644136Y-106477184D01*
X148722659Y-106369106D01*
X149435810Y-107082257D01*
X149471510Y-107037491D01*
X157918447Y-107037491D01*
X157956895Y-107230777D01*
X157956898Y-107230787D01*
X158032312Y-107412855D01*
X158032319Y-107412868D01*
X158141808Y-107576729D01*
X158141811Y-107576733D01*
X158281162Y-107716084D01*
X158281166Y-107716087D01*
X158445027Y-107825576D01*
X158445040Y-107825583D01*
X158627108Y-107900997D01*
X158627113Y-107900999D01*
X158627117Y-107900999D01*
X158627118Y-107901000D01*
X158820404Y-107939448D01*
X158820407Y-107939448D01*
X159017491Y-107939448D01*
X159185254Y-107906077D01*
X159210783Y-107900999D01*
X159392862Y-107825580D01*
X159556730Y-107716087D01*
X159696087Y-107576730D01*
X159805580Y-107412862D01*
X159880999Y-107230783D01*
X159919448Y-107037489D01*
X159919448Y-106840407D01*
X159919448Y-106840404D01*
X159881000Y-106647118D01*
X159880999Y-106647117D01*
X159880999Y-106647113D01*
X159879766Y-106644136D01*
X159805583Y-106465040D01*
X159805576Y-106465027D01*
X159696087Y-106301166D01*
X159696084Y-106301162D01*
X159556733Y-106161811D01*
X159556729Y-106161808D01*
X159392868Y-106052319D01*
X159392855Y-106052312D01*
X159210787Y-105976898D01*
X159210777Y-105976895D01*
X159017491Y-105938448D01*
X159017489Y-105938448D01*
X158820407Y-105938448D01*
X158820405Y-105938448D01*
X158627118Y-105976895D01*
X158627108Y-105976898D01*
X158445040Y-106052312D01*
X158445027Y-106052319D01*
X158281166Y-106161808D01*
X158281162Y-106161811D01*
X158141811Y-106301162D01*
X158141808Y-106301166D01*
X158032319Y-106465027D01*
X158032312Y-106465040D01*
X157956898Y-106647108D01*
X157956895Y-106647118D01*
X157918448Y-106840404D01*
X157918448Y-106840407D01*
X157918448Y-107037489D01*
X157918448Y-107037491D01*
X157918447Y-107037491D01*
X149471510Y-107037491D01*
X149542116Y-106948956D01*
X149655603Y-106768343D01*
X149655604Y-106768341D01*
X149691504Y-106711205D01*
X149691505Y-106711204D01*
X149813337Y-106458217D01*
X149906077Y-106193180D01*
X149906078Y-106193178D01*
X149968560Y-105919424D01*
X149968562Y-105919412D01*
X149999999Y-105640401D01*
X150000000Y-105640399D01*
X150000000Y-105359600D01*
X149999999Y-105359598D01*
X149975772Y-105144569D01*
X149975584Y-105142897D01*
X155767368Y-105142897D01*
X155779048Y-105201620D01*
X155803575Y-105238326D01*
X155803917Y-105238837D01*
X157026957Y-106461877D01*
X157031682Y-106465034D01*
X157064173Y-106486745D01*
X157064175Y-106486746D01*
X157122897Y-106498426D01*
X157181619Y-106486746D01*
X157218837Y-106461877D01*
X158441877Y-105238837D01*
X158466746Y-105201619D01*
X158478426Y-105142897D01*
X158466746Y-105084175D01*
X158464340Y-105080575D01*
X158441880Y-105046962D01*
X158441877Y-105046957D01*
X157218837Y-103823917D01*
X157202173Y-103812782D01*
X157181620Y-103799048D01*
X157122897Y-103787368D01*
X157064173Y-103799048D01*
X157026962Y-103823913D01*
X157026954Y-103823919D01*
X155803919Y-105046954D01*
X155803913Y-105046962D01*
X155779048Y-105084173D01*
X155767368Y-105142897D01*
X149975584Y-105142897D01*
X149968562Y-105080587D01*
X149968560Y-105080575D01*
X149906078Y-104806821D01*
X149906077Y-104806819D01*
X149813337Y-104541782D01*
X149691507Y-104288799D01*
X149542115Y-104051043D01*
X149435810Y-103917741D01*
X148722658Y-104630893D01*
X148644136Y-104522816D01*
X148477184Y-104355864D01*
X148369105Y-104277340D01*
X149082257Y-103564187D01*
X148948956Y-103457884D01*
X148711200Y-103308492D01*
X148458217Y-103186662D01*
X148193180Y-103093922D01*
X148193178Y-103093921D01*
X147919424Y-103031439D01*
X147919412Y-103031437D01*
X147640401Y-103000000D01*
X147359598Y-103000000D01*
X147080587Y-103031437D01*
X147080575Y-103031439D01*
X146806821Y-103093921D01*
X146806819Y-103093922D01*
X146541782Y-103186662D01*
X146288799Y-103308492D01*
X146051043Y-103457884D01*
X145917741Y-103564187D01*
X146630894Y-104277340D01*
X146522816Y-104355864D01*
X146355864Y-104522816D01*
X146277340Y-104630894D01*
X145564187Y-103917741D01*
X145457884Y-104051043D01*
X145308492Y-104288799D01*
X145186662Y-104541782D01*
X145093922Y-104806819D01*
X145093921Y-104806821D01*
X145031439Y-105080575D01*
X145031437Y-105080587D01*
X145000000Y-105359598D01*
X136129213Y-105359598D01*
X135622870Y-104853255D01*
X135589385Y-104791932D01*
X135586551Y-104765574D01*
X135586551Y-102418057D01*
X158468516Y-102418057D01*
X158480196Y-102476780D01*
X158504723Y-102513486D01*
X158505065Y-102513997D01*
X159728105Y-103737037D01*
X159746841Y-103749556D01*
X159765321Y-103761905D01*
X159765323Y-103761906D01*
X159824045Y-103773586D01*
X159882767Y-103761906D01*
X159919985Y-103737037D01*
X161143025Y-102513997D01*
X161167894Y-102476779D01*
X161179574Y-102418057D01*
X161167894Y-102359335D01*
X161143025Y-102322117D01*
X159919985Y-101099077D01*
X159915250Y-101095913D01*
X159882768Y-101074208D01*
X159824045Y-101062528D01*
X159765321Y-101074208D01*
X159728110Y-101099073D01*
X159728102Y-101099079D01*
X158505067Y-102322114D01*
X158505061Y-102322122D01*
X158480196Y-102359333D01*
X158468516Y-102418057D01*
X135586551Y-102418057D01*
X135586551Y-86776252D01*
X135586550Y-86776249D01*
X135555415Y-86701082D01*
X135555415Y-86701081D01*
X135550011Y-86688037D01*
X135544608Y-86674992D01*
X135544607Y-86674991D01*
X135544606Y-86674989D01*
X135347370Y-86477753D01*
X135313885Y-86416430D01*
X135311051Y-86390072D01*
X135311051Y-85570200D01*
X136924500Y-85570200D01*
X136924500Y-88254800D01*
X136966443Y-88356058D01*
X136966444Y-88356059D01*
X142813352Y-94202967D01*
X142828055Y-94229894D01*
X142844648Y-94255713D01*
X142845539Y-94261913D01*
X142846837Y-94264290D01*
X142849671Y-94290648D01*
X142849671Y-94519064D01*
X142829986Y-94586103D01*
X142794561Y-94622166D01*
X142710506Y-94678329D01*
X142710498Y-94678335D01*
X142619897Y-94768936D01*
X142619894Y-94768940D01*
X142548709Y-94875475D01*
X142548704Y-94875484D01*
X142499670Y-94993864D01*
X142499668Y-94993870D01*
X142474671Y-95119537D01*
X142474671Y-95119540D01*
X142474671Y-95247678D01*
X142474671Y-95247680D01*
X142474670Y-95247680D01*
X142499668Y-95373347D01*
X142499670Y-95373353D01*
X142548704Y-95491733D01*
X142548709Y-95491742D01*
X142619894Y-95598277D01*
X142619897Y-95598281D01*
X142710498Y-95688882D01*
X142710502Y-95688885D01*
X142817037Y-95760070D01*
X142817043Y-95760073D01*
X142817044Y-95760074D01*
X142935427Y-95809110D01*
X142935431Y-95809110D01*
X142935432Y-95809111D01*
X143061099Y-95834109D01*
X143061102Y-95834109D01*
X143189242Y-95834109D01*
X143306504Y-95810783D01*
X143314915Y-95809110D01*
X143433298Y-95760074D01*
X143433302Y-95760070D01*
X143438673Y-95757201D01*
X143439466Y-95758686D01*
X143498434Y-95740210D01*
X143565818Y-95758682D01*
X143612518Y-95810652D01*
X143624671Y-95864190D01*
X143624671Y-96793130D01*
X143604986Y-96860169D01*
X143588352Y-96880811D01*
X143400267Y-97068896D01*
X143338944Y-97102381D01*
X143288394Y-97102832D01*
X143189242Y-97083109D01*
X143189240Y-97083109D01*
X143061102Y-97083109D01*
X143061100Y-97083109D01*
X142935432Y-97108106D01*
X142935426Y-97108108D01*
X142817046Y-97157142D01*
X142817037Y-97157147D01*
X142710502Y-97228332D01*
X142710498Y-97228335D01*
X142619897Y-97318936D01*
X142619894Y-97318940D01*
X142548709Y-97425475D01*
X142548704Y-97425484D01*
X142499670Y-97543864D01*
X142499668Y-97543870D01*
X142474671Y-97669537D01*
X142474671Y-97669540D01*
X142474671Y-97797678D01*
X142474671Y-97797680D01*
X142474670Y-97797680D01*
X142499668Y-97923347D01*
X142499670Y-97923353D01*
X142548704Y-98041733D01*
X142548709Y-98041742D01*
X142619894Y-98148277D01*
X142619897Y-98148281D01*
X142710498Y-98238882D01*
X142710502Y-98238885D01*
X142817037Y-98310070D01*
X142817043Y-98310073D01*
X142817044Y-98310074D01*
X142935427Y-98359110D01*
X142935431Y-98359110D01*
X142935432Y-98359111D01*
X143061099Y-98384109D01*
X143061102Y-98384109D01*
X143189242Y-98384109D01*
X143273786Y-98367291D01*
X143314915Y-98359110D01*
X143433298Y-98310074D01*
X143539840Y-98238885D01*
X143630447Y-98148278D01*
X143701636Y-98041736D01*
X143750672Y-97923353D01*
X143771384Y-97819232D01*
X143775671Y-97797680D01*
X143775671Y-97669537D01*
X143755947Y-97570384D01*
X143762174Y-97500793D01*
X143789883Y-97458511D01*
X143812992Y-97435403D01*
X143874316Y-97401919D01*
X143944007Y-97406905D01*
X143999940Y-97448778D01*
X144024355Y-97514243D01*
X144024671Y-97523086D01*
X144024671Y-98943131D01*
X144004986Y-99010170D01*
X143988352Y-99030812D01*
X143400267Y-99618896D01*
X143338944Y-99652381D01*
X143288394Y-99652832D01*
X143189242Y-99633109D01*
X143189240Y-99633109D01*
X143061102Y-99633109D01*
X143061100Y-99633109D01*
X142935432Y-99658106D01*
X142935426Y-99658108D01*
X142817046Y-99707142D01*
X142817037Y-99707147D01*
X142710502Y-99778332D01*
X142710498Y-99778335D01*
X142619897Y-99868936D01*
X142619894Y-99868940D01*
X142548709Y-99975475D01*
X142548704Y-99975484D01*
X142499670Y-100093864D01*
X142499668Y-100093870D01*
X142474671Y-100219537D01*
X142474671Y-100219540D01*
X142474671Y-100347678D01*
X142474671Y-100347680D01*
X142474670Y-100347680D01*
X142499668Y-100473347D01*
X142499670Y-100473353D01*
X142548704Y-100591733D01*
X142548709Y-100591742D01*
X142619894Y-100698277D01*
X142619897Y-100698281D01*
X142710498Y-100788882D01*
X142710502Y-100788885D01*
X142817037Y-100860070D01*
X142817043Y-100860073D01*
X142817044Y-100860074D01*
X142935427Y-100909110D01*
X142935431Y-100909110D01*
X142935432Y-100909111D01*
X143061099Y-100934109D01*
X143061102Y-100934109D01*
X143189242Y-100934109D01*
X143291161Y-100913835D01*
X143314915Y-100909110D01*
X143433298Y-100860074D01*
X143539840Y-100788885D01*
X143630447Y-100698278D01*
X143701636Y-100591736D01*
X143750672Y-100473353D01*
X143775671Y-100347680D01*
X145474670Y-100347680D01*
X145499668Y-100473347D01*
X145499670Y-100473353D01*
X145548704Y-100591733D01*
X145548709Y-100591742D01*
X145619894Y-100698277D01*
X145619897Y-100698281D01*
X145710498Y-100788882D01*
X145710502Y-100788885D01*
X145817037Y-100860070D01*
X145817043Y-100860073D01*
X145817044Y-100860074D01*
X145935427Y-100909110D01*
X145935431Y-100909110D01*
X145935432Y-100909111D01*
X146061099Y-100934109D01*
X146061102Y-100934109D01*
X146189242Y-100934109D01*
X146291161Y-100913835D01*
X146314915Y-100909110D01*
X146433298Y-100860074D01*
X146539840Y-100788885D01*
X146630447Y-100698278D01*
X146701636Y-100591736D01*
X146750672Y-100473353D01*
X146775671Y-100347678D01*
X146775671Y-100219540D01*
X146775671Y-100219537D01*
X146750673Y-100093870D01*
X146750672Y-100093869D01*
X146750672Y-100093865D01*
X146705257Y-99984224D01*
X146701637Y-99975484D01*
X146701632Y-99975475D01*
X146630447Y-99868940D01*
X146630444Y-99868936D01*
X146539843Y-99778335D01*
X146539839Y-99778332D01*
X146433304Y-99707147D01*
X146433295Y-99707142D01*
X146314915Y-99658108D01*
X146314909Y-99658106D01*
X146189242Y-99633109D01*
X146189240Y-99633109D01*
X146061102Y-99633109D01*
X146061100Y-99633109D01*
X145935432Y-99658106D01*
X145935426Y-99658108D01*
X145817046Y-99707142D01*
X145817037Y-99707147D01*
X145710502Y-99778332D01*
X145710498Y-99778335D01*
X145619897Y-99868936D01*
X145619894Y-99868940D01*
X145548709Y-99975475D01*
X145548704Y-99975484D01*
X145499670Y-100093864D01*
X145499668Y-100093870D01*
X145474671Y-100219537D01*
X145474671Y-100219540D01*
X145474671Y-100347678D01*
X145474671Y-100347680D01*
X145474670Y-100347680D01*
X143775671Y-100347680D01*
X143775671Y-100347678D01*
X143775671Y-100219540D01*
X143755826Y-100119779D01*
X143755711Y-100119165D01*
X143759114Y-100084988D01*
X143762174Y-100050792D01*
X143762581Y-100050170D01*
X143762634Y-100049639D01*
X143764336Y-100047491D01*
X143789880Y-100008513D01*
X144533728Y-99264667D01*
X144575671Y-99163409D01*
X144575671Y-97797680D01*
X145474670Y-97797680D01*
X145499668Y-97923347D01*
X145499670Y-97923353D01*
X145548704Y-98041733D01*
X145548709Y-98041742D01*
X145619894Y-98148277D01*
X145619897Y-98148281D01*
X145710498Y-98238882D01*
X145710502Y-98238885D01*
X145817037Y-98310070D01*
X145817043Y-98310073D01*
X145817044Y-98310074D01*
X145935427Y-98359110D01*
X145935431Y-98359110D01*
X145935432Y-98359111D01*
X146061099Y-98384109D01*
X146061102Y-98384109D01*
X146189242Y-98384109D01*
X146273786Y-98367291D01*
X146314915Y-98359110D01*
X146433298Y-98310074D01*
X146539840Y-98238885D01*
X146630447Y-98148278D01*
X146701636Y-98041736D01*
X146750672Y-97923353D01*
X146771384Y-97819232D01*
X146775671Y-97797680D01*
X146775671Y-97669537D01*
X146750673Y-97543870D01*
X146750672Y-97543869D01*
X146750672Y-97543865D01*
X146705816Y-97435574D01*
X146701637Y-97425484D01*
X146701632Y-97425475D01*
X146630447Y-97318940D01*
X146630444Y-97318936D01*
X146539843Y-97228335D01*
X146539839Y-97228332D01*
X146433304Y-97157147D01*
X146433295Y-97157142D01*
X146314915Y-97108108D01*
X146314909Y-97108106D01*
X146189242Y-97083109D01*
X146189240Y-97083109D01*
X146061102Y-97083109D01*
X146061100Y-97083109D01*
X145935432Y-97108106D01*
X145935426Y-97108108D01*
X145817046Y-97157142D01*
X145817037Y-97157147D01*
X145710502Y-97228332D01*
X145710498Y-97228335D01*
X145619897Y-97318936D01*
X145619894Y-97318940D01*
X145548709Y-97425475D01*
X145548704Y-97425484D01*
X145499670Y-97543864D01*
X145499668Y-97543870D01*
X145474671Y-97669537D01*
X145474671Y-97669540D01*
X145474671Y-97797678D01*
X145474671Y-97797680D01*
X145474670Y-97797680D01*
X144575671Y-97797680D01*
X144575671Y-95247680D01*
X145474670Y-95247680D01*
X145499668Y-95373347D01*
X145499670Y-95373353D01*
X145548704Y-95491733D01*
X145548709Y-95491742D01*
X145619894Y-95598277D01*
X145619897Y-95598281D01*
X145710498Y-95688882D01*
X145710502Y-95688885D01*
X145817037Y-95760070D01*
X145817043Y-95760073D01*
X145817044Y-95760074D01*
X145935427Y-95809110D01*
X145935431Y-95809110D01*
X145935432Y-95809111D01*
X146061099Y-95834109D01*
X146061102Y-95834109D01*
X146189242Y-95834109D01*
X146306504Y-95810783D01*
X146314915Y-95809110D01*
X146433298Y-95760074D01*
X146539840Y-95688885D01*
X146630447Y-95598278D01*
X146701636Y-95491736D01*
X146750672Y-95373353D01*
X146775671Y-95247678D01*
X146775671Y-95119540D01*
X146775671Y-95119537D01*
X146750673Y-94993870D01*
X146750672Y-94993869D01*
X146750672Y-94993865D01*
X146712335Y-94901312D01*
X146701637Y-94875484D01*
X146701632Y-94875475D01*
X146630447Y-94768940D01*
X146630444Y-94768936D01*
X146539843Y-94678335D01*
X146539839Y-94678332D01*
X146433304Y-94607147D01*
X146433295Y-94607142D01*
X146314915Y-94558108D01*
X146314909Y-94558106D01*
X146189242Y-94533109D01*
X146189240Y-94533109D01*
X146061102Y-94533109D01*
X146061100Y-94533109D01*
X145935432Y-94558106D01*
X145935426Y-94558108D01*
X145817046Y-94607142D01*
X145817037Y-94607147D01*
X145710502Y-94678332D01*
X145710498Y-94678335D01*
X145619897Y-94768936D01*
X145619894Y-94768940D01*
X145548709Y-94875475D01*
X145548704Y-94875484D01*
X145499670Y-94993864D01*
X145499668Y-94993870D01*
X145474671Y-95119537D01*
X145474671Y-95119540D01*
X145474671Y-95247678D01*
X145474671Y-95247680D01*
X145474670Y-95247680D01*
X144575671Y-95247680D01*
X144575671Y-92647680D01*
X145474670Y-92647680D01*
X145499668Y-92773347D01*
X145499670Y-92773353D01*
X145548704Y-92891733D01*
X145548709Y-92891742D01*
X145619894Y-92998277D01*
X145619897Y-92998281D01*
X145710498Y-93088882D01*
X145710502Y-93088885D01*
X145817037Y-93160070D01*
X145817046Y-93160075D01*
X145824989Y-93163365D01*
X145935427Y-93209110D01*
X145935431Y-93209110D01*
X145935432Y-93209111D01*
X146061099Y-93234109D01*
X146061102Y-93234109D01*
X146189242Y-93234109D01*
X146306504Y-93210783D01*
X146314915Y-93209110D01*
X146433298Y-93160074D01*
X146539840Y-93088885D01*
X146630447Y-92998278D01*
X146701636Y-92891736D01*
X146750672Y-92773353D01*
X146772650Y-92662865D01*
X146775671Y-92647680D01*
X146775671Y-92519537D01*
X146750673Y-92393870D01*
X146750672Y-92393869D01*
X146750672Y-92393865D01*
X146701636Y-92275482D01*
X146701635Y-92275481D01*
X146701632Y-92275475D01*
X146630447Y-92168940D01*
X146630444Y-92168936D01*
X146539843Y-92078335D01*
X146539839Y-92078332D01*
X146433304Y-92007147D01*
X146433295Y-92007142D01*
X146314915Y-91958108D01*
X146314909Y-91958106D01*
X146189242Y-91933109D01*
X146189240Y-91933109D01*
X146061102Y-91933109D01*
X146061100Y-91933109D01*
X145935432Y-91958106D01*
X145935426Y-91958108D01*
X145817046Y-92007142D01*
X145817037Y-92007147D01*
X145710502Y-92078332D01*
X145710498Y-92078335D01*
X145619897Y-92168936D01*
X145619894Y-92168940D01*
X145548709Y-92275475D01*
X145548704Y-92275484D01*
X145499670Y-92393864D01*
X145499668Y-92393870D01*
X145474671Y-92519537D01*
X145474671Y-92519540D01*
X145474671Y-92647678D01*
X145474671Y-92647680D01*
X145474670Y-92647680D01*
X144575671Y-92647680D01*
X144575671Y-91879685D01*
X144570257Y-91866614D01*
X144533729Y-91778427D01*
X142566819Y-89811517D01*
X142533334Y-89750194D01*
X142530500Y-89723836D01*
X142530500Y-87261826D01*
X142550185Y-87194787D01*
X142602989Y-87149032D01*
X142672147Y-87139088D01*
X142735703Y-87168113D01*
X142769061Y-87214373D01*
X142774952Y-87228597D01*
X142783367Y-87248913D01*
X142783371Y-87248920D01*
X142892860Y-87412781D01*
X142892863Y-87412785D01*
X143032214Y-87552136D01*
X143032218Y-87552139D01*
X143196079Y-87661628D01*
X143196092Y-87661635D01*
X143376982Y-87736561D01*
X143378165Y-87737051D01*
X143378169Y-87737051D01*
X143378170Y-87737052D01*
X143571456Y-87775500D01*
X143571459Y-87775500D01*
X143768543Y-87775500D01*
X143911738Y-87747016D01*
X143961835Y-87737051D01*
X144143914Y-87661632D01*
X144307782Y-87552139D01*
X144447139Y-87412782D01*
X144556632Y-87248914D01*
X144632051Y-87066835D01*
X144670500Y-86873543D01*
X145209499Y-86873543D01*
X145247947Y-87066829D01*
X145247950Y-87066839D01*
X145323364Y-87248907D01*
X145323371Y-87248920D01*
X145432860Y-87412781D01*
X145432863Y-87412785D01*
X145572214Y-87552136D01*
X145572218Y-87552139D01*
X145736079Y-87661628D01*
X145736092Y-87661635D01*
X145916982Y-87736561D01*
X145918165Y-87737051D01*
X145918169Y-87737051D01*
X145918170Y-87737052D01*
X146111456Y-87775500D01*
X146111459Y-87775500D01*
X146308543Y-87775500D01*
X146451738Y-87747016D01*
X146501835Y-87737051D01*
X146683914Y-87661632D01*
X146847782Y-87552139D01*
X146987139Y-87412782D01*
X147096632Y-87248914D01*
X147110938Y-87214373D01*
X147154779Y-87159971D01*
X147221073Y-87137905D01*
X147288772Y-87155184D01*
X147336383Y-87206320D01*
X147349500Y-87261826D01*
X147349500Y-93738238D01*
X147391443Y-93839496D01*
X147391444Y-93839497D01*
X148460458Y-94908512D01*
X148493943Y-94969835D01*
X148494394Y-95020385D01*
X148474671Y-95119537D01*
X148474671Y-95119540D01*
X148474671Y-95247678D01*
X148474671Y-95247680D01*
X148474670Y-95247680D01*
X148499668Y-95373347D01*
X148499670Y-95373353D01*
X148548704Y-95491733D01*
X148548709Y-95491742D01*
X148619894Y-95598277D01*
X148619897Y-95598281D01*
X148710498Y-95688882D01*
X148710502Y-95688885D01*
X148817037Y-95760070D01*
X148817043Y-95760073D01*
X148817044Y-95760074D01*
X148935427Y-95809110D01*
X148935431Y-95809110D01*
X148935432Y-95809111D01*
X149061099Y-95834109D01*
X149061102Y-95834109D01*
X149189242Y-95834109D01*
X149306504Y-95810783D01*
X149314915Y-95809110D01*
X149433298Y-95760074D01*
X149433302Y-95760070D01*
X149438673Y-95757201D01*
X149439493Y-95758735D01*
X149498281Y-95740325D01*
X149565662Y-95758807D01*
X149612354Y-95810783D01*
X149624500Y-95864305D01*
X149624500Y-96793301D01*
X149604815Y-96860340D01*
X149588181Y-96880982D01*
X149400267Y-97068896D01*
X149338944Y-97102381D01*
X149288394Y-97102832D01*
X149189242Y-97083109D01*
X149189240Y-97083109D01*
X149061102Y-97083109D01*
X149061100Y-97083109D01*
X148935432Y-97108106D01*
X148935426Y-97108108D01*
X148817046Y-97157142D01*
X148817037Y-97157147D01*
X148710502Y-97228332D01*
X148710498Y-97228335D01*
X148619897Y-97318936D01*
X148619894Y-97318940D01*
X148548709Y-97425475D01*
X148548704Y-97425484D01*
X148499670Y-97543864D01*
X148499668Y-97543870D01*
X148474671Y-97669537D01*
X148474671Y-97669540D01*
X148474671Y-97797678D01*
X148474671Y-97797680D01*
X148474670Y-97797680D01*
X148499668Y-97923347D01*
X148499670Y-97923353D01*
X148548704Y-98041733D01*
X148548709Y-98041742D01*
X148619894Y-98148277D01*
X148619897Y-98148281D01*
X148710498Y-98238882D01*
X148710502Y-98238885D01*
X148817037Y-98310070D01*
X148817043Y-98310073D01*
X148817044Y-98310074D01*
X148935427Y-98359110D01*
X148935431Y-98359110D01*
X148935432Y-98359111D01*
X149061099Y-98384109D01*
X149061102Y-98384109D01*
X149189242Y-98384109D01*
X149273786Y-98367291D01*
X149314915Y-98359110D01*
X149433298Y-98310074D01*
X149539840Y-98238885D01*
X149630447Y-98148278D01*
X149701636Y-98041736D01*
X149750672Y-97923353D01*
X149771384Y-97819232D01*
X149775671Y-97797680D01*
X149775671Y-97669537D01*
X149755947Y-97570384D01*
X149762174Y-97500793D01*
X149789883Y-97458511D01*
X149812821Y-97435574D01*
X149874145Y-97402090D01*
X149943836Y-97407076D01*
X149999769Y-97448949D01*
X150024184Y-97514414D01*
X150024500Y-97523257D01*
X150024500Y-98943302D01*
X150004815Y-99010341D01*
X149988181Y-99030983D01*
X149400267Y-99618896D01*
X149338944Y-99652381D01*
X149288394Y-99652832D01*
X149189242Y-99633109D01*
X149189240Y-99633109D01*
X149061102Y-99633109D01*
X149061100Y-99633109D01*
X148935432Y-99658106D01*
X148935426Y-99658108D01*
X148817046Y-99707142D01*
X148817037Y-99707147D01*
X148710502Y-99778332D01*
X148710498Y-99778335D01*
X148619897Y-99868936D01*
X148619894Y-99868940D01*
X148548709Y-99975475D01*
X148548704Y-99975484D01*
X148499670Y-100093864D01*
X148499668Y-100093870D01*
X148474671Y-100219537D01*
X148474671Y-100219540D01*
X148474671Y-100347678D01*
X148474671Y-100347680D01*
X148474670Y-100347680D01*
X148499668Y-100473347D01*
X148499670Y-100473353D01*
X148548704Y-100591733D01*
X148548709Y-100591742D01*
X148619894Y-100698277D01*
X148619897Y-100698281D01*
X148710498Y-100788882D01*
X148710502Y-100788885D01*
X148817037Y-100860070D01*
X148817043Y-100860073D01*
X148817044Y-100860074D01*
X148935427Y-100909110D01*
X148935431Y-100909110D01*
X148935432Y-100909111D01*
X149061099Y-100934109D01*
X149061102Y-100934109D01*
X149189242Y-100934109D01*
X149291161Y-100913835D01*
X149314915Y-100909110D01*
X149433298Y-100860074D01*
X149539840Y-100788885D01*
X149630447Y-100698278D01*
X149701636Y-100591736D01*
X149750672Y-100473353D01*
X149775671Y-100347678D01*
X149775671Y-100219540D01*
X149775671Y-100219537D01*
X149755947Y-100120383D01*
X149762174Y-100050792D01*
X149789880Y-100008513D01*
X150533557Y-99264839D01*
X150545841Y-99235180D01*
X150575500Y-99163580D01*
X150575500Y-90115477D01*
X150595185Y-90048438D01*
X150611819Y-90027796D01*
X151595613Y-89044002D01*
X152648558Y-87991058D01*
X152648558Y-87991056D01*
X152648560Y-87991055D01*
X152679349Y-87916720D01*
X152690500Y-87889800D01*
X152690500Y-87780200D01*
X152690500Y-87261826D01*
X152710185Y-87194787D01*
X152762989Y-87149032D01*
X152832147Y-87139088D01*
X152895703Y-87168113D01*
X152929061Y-87214373D01*
X152934952Y-87228597D01*
X152943367Y-87248913D01*
X152943371Y-87248920D01*
X153052860Y-87412781D01*
X153052863Y-87412785D01*
X153192214Y-87552136D01*
X153192218Y-87552139D01*
X153356079Y-87661628D01*
X153356091Y-87661635D01*
X153477952Y-87712110D01*
X153532356Y-87755950D01*
X153554421Y-87822244D01*
X153554500Y-87826671D01*
X153554500Y-90713302D01*
X153534815Y-90780341D01*
X153518181Y-90800983D01*
X152400267Y-91918896D01*
X152338944Y-91952381D01*
X152288394Y-91952832D01*
X152189242Y-91933109D01*
X152189240Y-91933109D01*
X152061102Y-91933109D01*
X152061100Y-91933109D01*
X151935432Y-91958106D01*
X151935426Y-91958108D01*
X151817046Y-92007142D01*
X151817037Y-92007147D01*
X151710502Y-92078332D01*
X151710498Y-92078335D01*
X151619897Y-92168936D01*
X151619894Y-92168940D01*
X151548709Y-92275475D01*
X151548704Y-92275484D01*
X151499670Y-92393864D01*
X151499668Y-92393870D01*
X151474671Y-92519537D01*
X151474671Y-92519540D01*
X151474671Y-92647678D01*
X151474671Y-92647680D01*
X151474670Y-92647680D01*
X151499668Y-92773347D01*
X151499670Y-92773353D01*
X151548704Y-92891733D01*
X151548709Y-92891742D01*
X151619894Y-92998277D01*
X151619897Y-92998281D01*
X151710498Y-93088882D01*
X151710502Y-93088885D01*
X151817037Y-93160070D01*
X151817046Y-93160075D01*
X151824989Y-93163365D01*
X151935427Y-93209110D01*
X151935431Y-93209110D01*
X151935432Y-93209111D01*
X152061099Y-93234109D01*
X152061102Y-93234109D01*
X152189242Y-93234109D01*
X152306504Y-93210783D01*
X152314915Y-93209110D01*
X152433298Y-93160074D01*
X152539840Y-93088885D01*
X152630447Y-92998278D01*
X152701636Y-92891736D01*
X152750672Y-92773353D01*
X152772650Y-92662865D01*
X152775671Y-92647680D01*
X152775671Y-92519537D01*
X152755947Y-92420383D01*
X152762174Y-92350792D01*
X152789880Y-92308513D01*
X154063557Y-91034839D01*
X154098491Y-90950500D01*
X154105500Y-90933580D01*
X154105500Y-87826671D01*
X154125185Y-87759632D01*
X154177989Y-87713877D01*
X154182048Y-87712110D01*
X154303908Y-87661635D01*
X154303911Y-87661633D01*
X154303914Y-87661632D01*
X154467782Y-87552139D01*
X154467785Y-87552136D01*
X154467819Y-87552103D01*
X154467840Y-87552091D01*
X154472492Y-87548274D01*
X154473215Y-87549156D01*
X154529142Y-87518618D01*
X154598834Y-87523602D01*
X154654767Y-87565474D01*
X154679184Y-87630938D01*
X154679500Y-87639784D01*
X154679500Y-92188302D01*
X154659815Y-92255341D01*
X154643181Y-92275983D01*
X152400267Y-94518896D01*
X152338944Y-94552381D01*
X152288394Y-94552832D01*
X152189242Y-94533109D01*
X152189240Y-94533109D01*
X152061102Y-94533109D01*
X152061100Y-94533109D01*
X151935432Y-94558106D01*
X151935426Y-94558108D01*
X151817046Y-94607142D01*
X151817037Y-94607147D01*
X151710502Y-94678332D01*
X151710498Y-94678335D01*
X151619897Y-94768936D01*
X151619894Y-94768940D01*
X151548709Y-94875475D01*
X151548704Y-94875484D01*
X151499670Y-94993864D01*
X151499668Y-94993870D01*
X151474671Y-95119537D01*
X151474671Y-95119540D01*
X151474671Y-95247678D01*
X151474671Y-95247680D01*
X151474670Y-95247680D01*
X151499668Y-95373347D01*
X151499670Y-95373353D01*
X151548704Y-95491733D01*
X151548709Y-95491742D01*
X151619894Y-95598277D01*
X151619897Y-95598281D01*
X151710498Y-95688882D01*
X151710502Y-95688885D01*
X151817037Y-95760070D01*
X151817043Y-95760073D01*
X151817044Y-95760074D01*
X151935427Y-95809110D01*
X151935431Y-95809110D01*
X151935432Y-95809111D01*
X152061099Y-95834109D01*
X152061102Y-95834109D01*
X152189242Y-95834109D01*
X152306504Y-95810783D01*
X152314915Y-95809110D01*
X152433298Y-95760074D01*
X152539840Y-95688885D01*
X152630447Y-95598278D01*
X152701636Y-95491736D01*
X152750672Y-95373353D01*
X152775671Y-95247678D01*
X152775671Y-95119540D01*
X152775671Y-95119537D01*
X152755947Y-95020383D01*
X152762174Y-94950792D01*
X152789882Y-94908512D01*
X155188558Y-92509838D01*
X155188558Y-92509836D01*
X155188560Y-92509835D01*
X155212684Y-92451591D01*
X155230500Y-92408580D01*
X155230500Y-92298980D01*
X155230500Y-87261826D01*
X155250185Y-87194787D01*
X155302989Y-87149032D01*
X155372147Y-87139088D01*
X155435703Y-87168113D01*
X155469061Y-87214373D01*
X155474952Y-87228597D01*
X155483367Y-87248913D01*
X155483371Y-87248920D01*
X155592860Y-87412781D01*
X155592863Y-87412785D01*
X155732214Y-87552136D01*
X155732218Y-87552139D01*
X155896079Y-87661628D01*
X155896091Y-87661635D01*
X156017952Y-87712110D01*
X156072356Y-87755950D01*
X156094421Y-87822244D01*
X156094500Y-87826671D01*
X156094500Y-93323302D01*
X156074815Y-93390341D01*
X156058181Y-93410983D01*
X152400267Y-97068896D01*
X152338944Y-97102381D01*
X152288394Y-97102832D01*
X152189242Y-97083109D01*
X152189240Y-97083109D01*
X152061102Y-97083109D01*
X152061100Y-97083109D01*
X151935432Y-97108106D01*
X151935426Y-97108108D01*
X151817046Y-97157142D01*
X151817037Y-97157147D01*
X151710502Y-97228332D01*
X151710498Y-97228335D01*
X151619897Y-97318936D01*
X151619894Y-97318940D01*
X151548709Y-97425475D01*
X151548704Y-97425484D01*
X151499670Y-97543864D01*
X151499668Y-97543870D01*
X151474671Y-97669537D01*
X151474671Y-97669540D01*
X151474671Y-97797678D01*
X151474671Y-97797680D01*
X151474670Y-97797680D01*
X151499668Y-97923347D01*
X151499670Y-97923353D01*
X151548704Y-98041733D01*
X151548709Y-98041742D01*
X151619894Y-98148277D01*
X151619897Y-98148281D01*
X151710498Y-98238882D01*
X151710502Y-98238885D01*
X151817037Y-98310070D01*
X151817043Y-98310073D01*
X151817044Y-98310074D01*
X151935427Y-98359110D01*
X151935431Y-98359110D01*
X151935432Y-98359111D01*
X152061099Y-98384109D01*
X152061102Y-98384109D01*
X152189242Y-98384109D01*
X152273786Y-98367291D01*
X152314915Y-98359110D01*
X152433298Y-98310074D01*
X152539840Y-98238885D01*
X152630447Y-98148278D01*
X152701636Y-98041736D01*
X152750672Y-97923353D01*
X152771384Y-97819232D01*
X152775671Y-97797680D01*
X152775671Y-97669537D01*
X152755947Y-97570383D01*
X152762174Y-97500792D01*
X152789881Y-97458512D01*
X156603558Y-93644838D01*
X156603558Y-93644836D01*
X156603560Y-93644835D01*
X156645194Y-93544318D01*
X156645500Y-93543580D01*
X156645500Y-93433980D01*
X156645500Y-87826671D01*
X156665185Y-87759632D01*
X156717989Y-87713877D01*
X156722048Y-87712110D01*
X156843908Y-87661635D01*
X156843911Y-87661633D01*
X156843914Y-87661632D01*
X157007782Y-87552139D01*
X157007785Y-87552136D01*
X157007819Y-87552103D01*
X157007840Y-87552091D01*
X157012492Y-87548274D01*
X157013215Y-87549156D01*
X157069142Y-87518618D01*
X157138834Y-87523602D01*
X157194767Y-87565474D01*
X157219184Y-87630938D01*
X157219500Y-87639784D01*
X157219500Y-94748302D01*
X157199815Y-94815341D01*
X157183181Y-94835983D01*
X152400267Y-99618896D01*
X152338944Y-99652381D01*
X152288394Y-99652832D01*
X152189242Y-99633109D01*
X152189240Y-99633109D01*
X152061102Y-99633109D01*
X152061100Y-99633109D01*
X151935432Y-99658106D01*
X151935426Y-99658108D01*
X151817046Y-99707142D01*
X151817037Y-99707147D01*
X151710502Y-99778332D01*
X151710498Y-99778335D01*
X151619897Y-99868936D01*
X151619894Y-99868940D01*
X151548709Y-99975475D01*
X151548704Y-99975484D01*
X151499670Y-100093864D01*
X151499668Y-100093870D01*
X151474671Y-100219537D01*
X151474671Y-100219540D01*
X151474671Y-100347678D01*
X151474671Y-100347680D01*
X151474670Y-100347680D01*
X151499668Y-100473347D01*
X151499670Y-100473353D01*
X151548704Y-100591733D01*
X151548709Y-100591742D01*
X151619894Y-100698277D01*
X151619897Y-100698281D01*
X151710498Y-100788882D01*
X151710502Y-100788885D01*
X151817037Y-100860070D01*
X151817043Y-100860073D01*
X151817044Y-100860074D01*
X151935427Y-100909110D01*
X151935431Y-100909110D01*
X151935432Y-100909111D01*
X152061099Y-100934109D01*
X152061102Y-100934109D01*
X152189242Y-100934109D01*
X152291161Y-100913835D01*
X152314915Y-100909110D01*
X152433298Y-100860074D01*
X152539840Y-100788885D01*
X152630447Y-100698278D01*
X152701636Y-100591736D01*
X152750672Y-100473353D01*
X152775671Y-100347678D01*
X152775671Y-100219540D01*
X152775671Y-100219537D01*
X152755947Y-100120383D01*
X152762174Y-100050792D01*
X152789881Y-100008512D01*
X157728557Y-95069838D01*
X157734061Y-95056551D01*
X157770500Y-94968580D01*
X157770500Y-85305200D01*
X157728557Y-85203942D01*
X157728557Y-85203941D01*
X157308452Y-84783836D01*
X157274967Y-84722513D01*
X157279951Y-84652821D01*
X157281572Y-84648702D01*
X157332051Y-84526835D01*
X157353512Y-84418946D01*
X157370500Y-84333543D01*
X157370500Y-84136456D01*
X157332052Y-83943170D01*
X157332051Y-83943169D01*
X157332051Y-83943165D01*
X157325630Y-83927663D01*
X157256635Y-83761092D01*
X157256628Y-83761079D01*
X157147139Y-83597218D01*
X157147136Y-83597214D01*
X157007785Y-83457863D01*
X157007781Y-83457860D01*
X156843920Y-83348371D01*
X156843907Y-83348364D01*
X156710507Y-83293109D01*
X156661839Y-83272950D01*
X156661829Y-83272947D01*
X156468543Y-83234500D01*
X156468541Y-83234500D01*
X156271459Y-83234500D01*
X156271457Y-83234500D01*
X156078170Y-83272947D01*
X156078160Y-83272950D01*
X155896092Y-83348364D01*
X155896079Y-83348371D01*
X155732218Y-83457860D01*
X155732214Y-83457863D01*
X155592863Y-83597214D01*
X155592860Y-83597218D01*
X155483371Y-83761079D01*
X155483364Y-83761092D01*
X155407950Y-83943160D01*
X155407947Y-83943170D01*
X155369500Y-84136456D01*
X155369500Y-84136459D01*
X155369500Y-84333541D01*
X155369500Y-84333543D01*
X155369499Y-84333543D01*
X155407947Y-84526829D01*
X155407950Y-84526839D01*
X155483364Y-84708907D01*
X155483371Y-84708920D01*
X155592860Y-84872781D01*
X155592863Y-84872785D01*
X155732214Y-85012136D01*
X155732218Y-85012139D01*
X155896079Y-85121628D01*
X155896092Y-85121635D01*
X156078160Y-85197049D01*
X156078165Y-85197051D01*
X156078169Y-85197051D01*
X156078170Y-85197052D01*
X156271456Y-85235500D01*
X156271459Y-85235500D01*
X156468543Y-85235500D01*
X156627202Y-85203940D01*
X156661835Y-85197051D01*
X156783703Y-85146571D01*
X156853172Y-85139103D01*
X156915651Y-85170378D01*
X156918836Y-85173452D01*
X157183181Y-85437796D01*
X157216666Y-85499119D01*
X157219500Y-85525477D01*
X157219500Y-85910216D01*
X157199815Y-85977255D01*
X157147011Y-86023010D01*
X157077853Y-86032954D01*
X157014297Y-86003929D01*
X157007819Y-85997897D01*
X157007785Y-85997863D01*
X157007781Y-85997860D01*
X156843920Y-85888371D01*
X156843907Y-85888364D01*
X156661839Y-85812950D01*
X156661829Y-85812947D01*
X156468543Y-85774500D01*
X156468541Y-85774500D01*
X156271459Y-85774500D01*
X156271457Y-85774500D01*
X156078170Y-85812947D01*
X156078160Y-85812950D01*
X155896092Y-85888364D01*
X155896079Y-85888371D01*
X155732218Y-85997860D01*
X155732214Y-85997863D01*
X155592863Y-86137214D01*
X155592860Y-86137218D01*
X155483371Y-86301079D01*
X155483364Y-86301092D01*
X155469061Y-86335625D01*
X155425220Y-86390029D01*
X155358926Y-86412094D01*
X155291227Y-86394815D01*
X155243616Y-86343678D01*
X155230500Y-86288173D01*
X155230500Y-85305201D01*
X155230500Y-85305200D01*
X155188557Y-85203942D01*
X155188557Y-85203941D01*
X154768452Y-84783836D01*
X154734967Y-84722513D01*
X154739951Y-84652821D01*
X154741572Y-84648702D01*
X154792051Y-84526835D01*
X154813512Y-84418946D01*
X154830500Y-84333543D01*
X154830500Y-84136456D01*
X154792052Y-83943170D01*
X154792051Y-83943169D01*
X154792051Y-83943165D01*
X154785630Y-83927663D01*
X154716635Y-83761092D01*
X154716628Y-83761079D01*
X154607139Y-83597218D01*
X154607136Y-83597214D01*
X154467785Y-83457863D01*
X154467781Y-83457860D01*
X154303920Y-83348371D01*
X154303907Y-83348364D01*
X154121839Y-83272950D01*
X154121829Y-83272947D01*
X153928543Y-83234500D01*
X153928541Y-83234500D01*
X153731459Y-83234500D01*
X153731457Y-83234500D01*
X153538170Y-83272947D01*
X153538160Y-83272950D01*
X153356092Y-83348364D01*
X153356079Y-83348371D01*
X153192218Y-83457860D01*
X153192214Y-83457863D01*
X153052863Y-83597214D01*
X153052860Y-83597218D01*
X152943371Y-83761079D01*
X152943364Y-83761092D01*
X152867950Y-83943160D01*
X152867947Y-83943170D01*
X152829500Y-84136456D01*
X152829500Y-84136459D01*
X152829500Y-84333541D01*
X152829500Y-84333543D01*
X152829499Y-84333543D01*
X152867947Y-84526829D01*
X152867950Y-84526839D01*
X152943364Y-84708907D01*
X152943371Y-84708920D01*
X153052860Y-84872781D01*
X153052863Y-84872785D01*
X153192214Y-85012136D01*
X153192218Y-85012139D01*
X153356079Y-85121628D01*
X153356092Y-85121635D01*
X153538160Y-85197049D01*
X153538165Y-85197051D01*
X153538169Y-85197051D01*
X153538170Y-85197052D01*
X153731456Y-85235500D01*
X153731459Y-85235500D01*
X153928543Y-85235500D01*
X154087202Y-85203940D01*
X154121835Y-85197051D01*
X154243703Y-85146571D01*
X154313172Y-85139103D01*
X154375651Y-85170378D01*
X154378836Y-85173452D01*
X154643181Y-85437796D01*
X154676666Y-85499119D01*
X154679500Y-85525477D01*
X154679500Y-85910216D01*
X154659815Y-85977255D01*
X154607011Y-86023010D01*
X154537853Y-86032954D01*
X154474297Y-86003929D01*
X154467819Y-85997897D01*
X154467785Y-85997863D01*
X154467781Y-85997860D01*
X154303920Y-85888371D01*
X154303907Y-85888364D01*
X154121839Y-85812950D01*
X154121829Y-85812947D01*
X153928543Y-85774500D01*
X153928541Y-85774500D01*
X153731459Y-85774500D01*
X153731457Y-85774500D01*
X153538170Y-85812947D01*
X153538160Y-85812950D01*
X153356092Y-85888364D01*
X153356079Y-85888371D01*
X153192218Y-85997860D01*
X153192214Y-85997863D01*
X153052863Y-86137214D01*
X153052860Y-86137218D01*
X152943371Y-86301079D01*
X152943364Y-86301092D01*
X152929061Y-86335625D01*
X152885220Y-86390029D01*
X152818926Y-86412094D01*
X152751227Y-86394815D01*
X152703616Y-86343678D01*
X152690500Y-86288173D01*
X152690500Y-85305201D01*
X152690500Y-85305200D01*
X152648557Y-85203942D01*
X152648557Y-85203941D01*
X152228452Y-84783836D01*
X152194967Y-84722513D01*
X152199951Y-84652821D01*
X152201572Y-84648702D01*
X152252051Y-84526835D01*
X152273512Y-84418946D01*
X152290500Y-84333543D01*
X152290500Y-84136456D01*
X152252052Y-83943170D01*
X152252051Y-83943169D01*
X152252051Y-83943165D01*
X152245630Y-83927663D01*
X152176635Y-83761092D01*
X152176628Y-83761079D01*
X152067139Y-83597218D01*
X152067136Y-83597214D01*
X151927785Y-83457863D01*
X151927781Y-83457860D01*
X151763920Y-83348371D01*
X151763907Y-83348364D01*
X151581839Y-83272950D01*
X151581829Y-83272947D01*
X151388543Y-83234500D01*
X151388541Y-83234500D01*
X151191459Y-83234500D01*
X151191457Y-83234500D01*
X150998170Y-83272947D01*
X150998160Y-83272950D01*
X150816092Y-83348364D01*
X150816079Y-83348371D01*
X150652218Y-83457860D01*
X150652214Y-83457863D01*
X150512863Y-83597214D01*
X150512860Y-83597218D01*
X150403371Y-83761079D01*
X150403364Y-83761092D01*
X150327950Y-83943160D01*
X150327947Y-83943170D01*
X150289500Y-84136456D01*
X150289500Y-84136459D01*
X150289500Y-84333541D01*
X150289500Y-84333543D01*
X150289499Y-84333543D01*
X150327947Y-84526829D01*
X150327950Y-84526839D01*
X150403364Y-84708907D01*
X150403371Y-84708920D01*
X150512860Y-84872781D01*
X150512863Y-84872785D01*
X150652214Y-85012136D01*
X150652218Y-85012139D01*
X150816079Y-85121628D01*
X150816092Y-85121635D01*
X150998160Y-85197049D01*
X150998165Y-85197051D01*
X150998169Y-85197051D01*
X150998170Y-85197052D01*
X151191456Y-85235500D01*
X151191459Y-85235500D01*
X151388543Y-85235500D01*
X151547202Y-85203940D01*
X151581835Y-85197051D01*
X151703703Y-85146571D01*
X151773172Y-85139103D01*
X151835651Y-85170378D01*
X151838836Y-85173452D01*
X152103181Y-85437796D01*
X152136666Y-85499119D01*
X152139500Y-85525477D01*
X152139500Y-85910216D01*
X152119815Y-85977255D01*
X152067011Y-86023010D01*
X151997853Y-86032954D01*
X151934297Y-86003929D01*
X151927819Y-85997897D01*
X151927785Y-85997863D01*
X151927781Y-85997860D01*
X151763920Y-85888371D01*
X151763907Y-85888364D01*
X151581839Y-85812950D01*
X151581829Y-85812947D01*
X151388543Y-85774500D01*
X151388541Y-85774500D01*
X151191459Y-85774500D01*
X151191457Y-85774500D01*
X150998170Y-85812947D01*
X150998160Y-85812950D01*
X150816092Y-85888364D01*
X150816079Y-85888371D01*
X150652218Y-85997860D01*
X150652214Y-85997863D01*
X150512863Y-86137214D01*
X150512860Y-86137218D01*
X150403371Y-86301079D01*
X150403364Y-86301092D01*
X150327950Y-86483160D01*
X150327947Y-86483170D01*
X150289500Y-86676456D01*
X150289500Y-86676459D01*
X150289500Y-86873541D01*
X150289500Y-86873543D01*
X150289499Y-86873543D01*
X150327947Y-87066829D01*
X150327950Y-87066839D01*
X150378427Y-87188703D01*
X150385896Y-87258173D01*
X150354620Y-87320652D01*
X150351547Y-87323836D01*
X149987181Y-87688203D01*
X149925858Y-87721688D01*
X149856167Y-87716704D01*
X149800233Y-87674833D01*
X149775816Y-87609368D01*
X149775500Y-87600522D01*
X149775500Y-87470201D01*
X149775500Y-87470200D01*
X149733557Y-87368942D01*
X149733557Y-87368941D01*
X149684732Y-87320116D01*
X149681352Y-87316109D01*
X149669292Y-87288747D01*
X149654967Y-87262513D01*
X149655352Y-87257121D01*
X149653172Y-87252174D01*
X149657818Y-87222641D01*
X149659951Y-87192821D01*
X149661572Y-87188702D01*
X149712051Y-87066835D01*
X149750500Y-86873541D01*
X149750500Y-86676459D01*
X149750500Y-86676456D01*
X149712052Y-86483170D01*
X149712051Y-86483169D01*
X149712051Y-86483165D01*
X149673473Y-86390029D01*
X149636635Y-86301092D01*
X149636628Y-86301079D01*
X149527139Y-86137218D01*
X149527136Y-86137214D01*
X149387785Y-85997863D01*
X149387781Y-85997860D01*
X149223920Y-85888371D01*
X149223907Y-85888364D01*
X149041839Y-85812950D01*
X149041829Y-85812947D01*
X148848543Y-85774500D01*
X148848541Y-85774500D01*
X148651459Y-85774500D01*
X148651457Y-85774500D01*
X148458170Y-85812947D01*
X148458160Y-85812950D01*
X148276092Y-85888364D01*
X148276079Y-85888371D01*
X148112218Y-85997860D01*
X148112214Y-85997863D01*
X148112181Y-85997897D01*
X148112159Y-85997908D01*
X148107508Y-86001726D01*
X148106784Y-86000843D01*
X148050858Y-86031382D01*
X147981166Y-86026398D01*
X147925233Y-85984526D01*
X147900816Y-85919062D01*
X147900500Y-85910216D01*
X147900500Y-85525476D01*
X147920185Y-85458437D01*
X147936815Y-85437799D01*
X148201164Y-85173449D01*
X148262485Y-85139966D01*
X148332176Y-85144950D01*
X148336266Y-85146559D01*
X148458165Y-85197051D01*
X148458169Y-85197051D01*
X148458170Y-85197052D01*
X148651456Y-85235500D01*
X148651459Y-85235500D01*
X148848543Y-85235500D01*
X149007202Y-85203940D01*
X149041835Y-85197051D01*
X149223914Y-85121632D01*
X149387782Y-85012139D01*
X149527139Y-84872782D01*
X149636632Y-84708914D01*
X149712051Y-84526835D01*
X149733512Y-84418946D01*
X149750500Y-84333543D01*
X149750500Y-84136456D01*
X149712052Y-83943170D01*
X149712051Y-83943169D01*
X149712051Y-83943165D01*
X149705630Y-83927663D01*
X149636635Y-83761092D01*
X149636628Y-83761079D01*
X149527139Y-83597218D01*
X149527136Y-83597214D01*
X149387785Y-83457863D01*
X149387781Y-83457860D01*
X149223920Y-83348371D01*
X149223907Y-83348364D01*
X149041839Y-83272950D01*
X149041829Y-83272947D01*
X148848543Y-83234500D01*
X148848541Y-83234500D01*
X148651459Y-83234500D01*
X148651457Y-83234500D01*
X148458170Y-83272947D01*
X148458160Y-83272950D01*
X148276092Y-83348364D01*
X148276079Y-83348371D01*
X148112218Y-83457860D01*
X148112214Y-83457863D01*
X147972863Y-83597214D01*
X147972860Y-83597218D01*
X147863371Y-83761079D01*
X147863364Y-83761092D01*
X147787950Y-83943160D01*
X147787947Y-83943170D01*
X147749500Y-84136456D01*
X147749500Y-84136459D01*
X147749500Y-84333541D01*
X147749500Y-84333543D01*
X147749499Y-84333543D01*
X147787947Y-84526829D01*
X147787950Y-84526839D01*
X147838427Y-84648703D01*
X147845896Y-84718173D01*
X147814620Y-84780652D01*
X147811547Y-84783836D01*
X147468942Y-85126443D01*
X147391444Y-85203940D01*
X147349500Y-85305199D01*
X147349500Y-86288173D01*
X147329815Y-86355212D01*
X147277011Y-86400967D01*
X147207853Y-86410911D01*
X147144297Y-86381886D01*
X147110939Y-86335625D01*
X147096635Y-86301092D01*
X147096628Y-86301079D01*
X146987139Y-86137218D01*
X146987136Y-86137214D01*
X146847785Y-85997863D01*
X146847781Y-85997860D01*
X146683920Y-85888371D01*
X146683907Y-85888364D01*
X146501839Y-85812950D01*
X146501829Y-85812947D01*
X146308543Y-85774500D01*
X146308541Y-85774500D01*
X146111459Y-85774500D01*
X146111457Y-85774500D01*
X145918170Y-85812947D01*
X145918160Y-85812950D01*
X145736092Y-85888364D01*
X145736079Y-85888371D01*
X145572218Y-85997860D01*
X145572214Y-85997863D01*
X145432863Y-86137214D01*
X145432860Y-86137218D01*
X145323371Y-86301079D01*
X145323364Y-86301092D01*
X145247950Y-86483160D01*
X145247947Y-86483170D01*
X145209500Y-86676456D01*
X145209500Y-86676459D01*
X145209500Y-86873541D01*
X145209500Y-86873543D01*
X145209499Y-86873543D01*
X144670500Y-86873543D01*
X144670500Y-86873541D01*
X144670500Y-86676459D01*
X144670500Y-86676456D01*
X144632052Y-86483170D01*
X144632051Y-86483169D01*
X144632051Y-86483165D01*
X144593473Y-86390029D01*
X144556635Y-86301092D01*
X144556628Y-86301079D01*
X144447139Y-86137218D01*
X144447136Y-86137214D01*
X144307785Y-85997863D01*
X144307781Y-85997860D01*
X144143920Y-85888371D01*
X144143907Y-85888364D01*
X143961839Y-85812950D01*
X143961829Y-85812947D01*
X143768543Y-85774500D01*
X143768541Y-85774500D01*
X143571459Y-85774500D01*
X143571457Y-85774500D01*
X143378170Y-85812947D01*
X143378160Y-85812950D01*
X143196092Y-85888364D01*
X143196079Y-85888371D01*
X143032218Y-85997860D01*
X143032214Y-85997863D01*
X142892863Y-86137214D01*
X142892860Y-86137218D01*
X142783371Y-86301079D01*
X142783364Y-86301092D01*
X142769061Y-86335625D01*
X142725220Y-86390029D01*
X142658926Y-86412094D01*
X142591227Y-86394815D01*
X142543616Y-86343678D01*
X142530500Y-86288173D01*
X142530500Y-85305201D01*
X142530500Y-85305200D01*
X142488557Y-85203942D01*
X142488557Y-85203941D01*
X142068452Y-84783836D01*
X142034967Y-84722513D01*
X142039951Y-84652821D01*
X142041572Y-84648702D01*
X142092051Y-84526835D01*
X142113512Y-84418946D01*
X142130500Y-84333543D01*
X142669499Y-84333543D01*
X142707947Y-84526829D01*
X142707950Y-84526839D01*
X142783364Y-84708907D01*
X142783371Y-84708920D01*
X142892860Y-84872781D01*
X142892863Y-84872785D01*
X143032214Y-85012136D01*
X143032218Y-85012139D01*
X143196079Y-85121628D01*
X143196092Y-85121635D01*
X143378160Y-85197049D01*
X143378165Y-85197051D01*
X143378169Y-85197051D01*
X143378170Y-85197052D01*
X143571456Y-85235500D01*
X143571459Y-85235500D01*
X143768543Y-85235500D01*
X143927202Y-85203940D01*
X143961835Y-85197051D01*
X144143914Y-85121632D01*
X144307782Y-85012139D01*
X144447139Y-84872782D01*
X144556632Y-84708914D01*
X144632051Y-84526835D01*
X144653512Y-84418946D01*
X144670500Y-84333543D01*
X145209499Y-84333543D01*
X145247947Y-84526829D01*
X145247950Y-84526839D01*
X145323364Y-84708907D01*
X145323371Y-84708920D01*
X145432860Y-84872781D01*
X145432863Y-84872785D01*
X145572214Y-85012136D01*
X145572218Y-85012139D01*
X145736079Y-85121628D01*
X145736092Y-85121635D01*
X145918160Y-85197049D01*
X145918165Y-85197051D01*
X145918169Y-85197051D01*
X145918170Y-85197052D01*
X146111456Y-85235500D01*
X146111459Y-85235500D01*
X146308543Y-85235500D01*
X146467202Y-85203940D01*
X146501835Y-85197051D01*
X146683914Y-85121632D01*
X146847782Y-85012139D01*
X146987139Y-84872782D01*
X147096632Y-84708914D01*
X147172051Y-84526835D01*
X147193512Y-84418946D01*
X147210500Y-84333543D01*
X147210500Y-84136456D01*
X147172052Y-83943170D01*
X147172051Y-83943169D01*
X147172051Y-83943165D01*
X147165630Y-83927663D01*
X147096635Y-83761092D01*
X147096628Y-83761079D01*
X146987139Y-83597218D01*
X146987136Y-83597214D01*
X146847785Y-83457863D01*
X146847781Y-83457860D01*
X146683920Y-83348371D01*
X146683907Y-83348364D01*
X146501839Y-83272950D01*
X146501829Y-83272947D01*
X146308543Y-83234500D01*
X146308541Y-83234500D01*
X146111459Y-83234500D01*
X146111457Y-83234500D01*
X145918170Y-83272947D01*
X145918160Y-83272950D01*
X145736092Y-83348364D01*
X145736079Y-83348371D01*
X145572218Y-83457860D01*
X145572214Y-83457863D01*
X145432863Y-83597214D01*
X145432860Y-83597218D01*
X145323371Y-83761079D01*
X145323364Y-83761092D01*
X145247950Y-83943160D01*
X145247947Y-83943170D01*
X145209500Y-84136456D01*
X145209500Y-84136459D01*
X145209500Y-84333541D01*
X145209500Y-84333543D01*
X145209499Y-84333543D01*
X144670500Y-84333543D01*
X144670500Y-84136456D01*
X144632052Y-83943170D01*
X144632051Y-83943169D01*
X144632051Y-83943165D01*
X144625630Y-83927663D01*
X144556635Y-83761092D01*
X144556628Y-83761079D01*
X144447139Y-83597218D01*
X144447136Y-83597214D01*
X144307785Y-83457863D01*
X144307781Y-83457860D01*
X144143920Y-83348371D01*
X144143907Y-83348364D01*
X143961839Y-83272950D01*
X143961829Y-83272947D01*
X143768543Y-83234500D01*
X143768541Y-83234500D01*
X143571459Y-83234500D01*
X143571457Y-83234500D01*
X143378170Y-83272947D01*
X143378160Y-83272950D01*
X143196092Y-83348364D01*
X143196079Y-83348371D01*
X143032218Y-83457860D01*
X143032214Y-83457863D01*
X142892863Y-83597214D01*
X142892860Y-83597218D01*
X142783371Y-83761079D01*
X142783364Y-83761092D01*
X142707950Y-83943160D01*
X142707947Y-83943170D01*
X142669500Y-84136456D01*
X142669500Y-84136459D01*
X142669500Y-84333541D01*
X142669500Y-84333543D01*
X142669499Y-84333543D01*
X142130500Y-84333543D01*
X142130500Y-84136456D01*
X142092052Y-83943170D01*
X142092051Y-83943169D01*
X142092051Y-83943165D01*
X142085630Y-83927663D01*
X142016635Y-83761092D01*
X142016628Y-83761079D01*
X141907139Y-83597218D01*
X141907136Y-83597214D01*
X141767785Y-83457863D01*
X141767781Y-83457860D01*
X141603920Y-83348371D01*
X141603907Y-83348364D01*
X141421839Y-83272950D01*
X141421829Y-83272947D01*
X141228543Y-83234500D01*
X141228541Y-83234500D01*
X141031459Y-83234500D01*
X141031457Y-83234500D01*
X140838170Y-83272947D01*
X140838160Y-83272950D01*
X140656092Y-83348364D01*
X140656079Y-83348371D01*
X140492218Y-83457860D01*
X140492214Y-83457863D01*
X140352863Y-83597214D01*
X140352860Y-83597218D01*
X140243371Y-83761079D01*
X140243364Y-83761092D01*
X140167950Y-83943160D01*
X140167947Y-83943170D01*
X140129500Y-84136456D01*
X140129500Y-84136459D01*
X140129500Y-84333541D01*
X140129500Y-84333543D01*
X140129499Y-84333543D01*
X140167947Y-84526829D01*
X140167950Y-84526839D01*
X140243364Y-84708907D01*
X140243371Y-84708920D01*
X140352860Y-84872781D01*
X140352863Y-84872785D01*
X140492214Y-85012136D01*
X140492218Y-85012139D01*
X140656079Y-85121628D01*
X140656092Y-85121635D01*
X140838160Y-85197049D01*
X140838165Y-85197051D01*
X140838169Y-85197051D01*
X140838170Y-85197052D01*
X141031456Y-85235500D01*
X141031459Y-85235500D01*
X141228543Y-85235500D01*
X141387202Y-85203940D01*
X141421835Y-85197051D01*
X141543703Y-85146571D01*
X141613172Y-85139103D01*
X141675651Y-85170378D01*
X141678836Y-85173452D01*
X141943181Y-85437796D01*
X141976666Y-85499119D01*
X141979500Y-85525477D01*
X141979500Y-85910216D01*
X141959815Y-85977255D01*
X141907011Y-86023010D01*
X141837853Y-86032954D01*
X141774297Y-86003929D01*
X141767819Y-85997897D01*
X141767785Y-85997863D01*
X141767781Y-85997860D01*
X141603920Y-85888371D01*
X141603907Y-85888364D01*
X141421839Y-85812950D01*
X141421829Y-85812947D01*
X141228543Y-85774500D01*
X141228541Y-85774500D01*
X141031459Y-85774500D01*
X141031457Y-85774500D01*
X140838170Y-85812947D01*
X140838160Y-85812950D01*
X140656092Y-85888364D01*
X140656079Y-85888371D01*
X140492218Y-85997860D01*
X140492214Y-85997863D01*
X140352863Y-86137214D01*
X140352860Y-86137218D01*
X140243371Y-86301079D01*
X140243364Y-86301092D01*
X140167950Y-86483160D01*
X140167947Y-86483170D01*
X140129500Y-86676456D01*
X140129500Y-86676459D01*
X140129500Y-86873541D01*
X140129500Y-86873543D01*
X140129499Y-86873543D01*
X140167947Y-87066829D01*
X140167950Y-87066839D01*
X140243364Y-87248907D01*
X140243371Y-87248920D01*
X140352860Y-87412781D01*
X140352863Y-87412785D01*
X140492214Y-87552136D01*
X140492218Y-87552139D01*
X140656079Y-87661628D01*
X140656091Y-87661635D01*
X140777952Y-87712110D01*
X140832356Y-87755950D01*
X140854421Y-87822244D01*
X140854500Y-87826671D01*
X140854500Y-88931208D01*
X140834815Y-88998247D01*
X140782011Y-89044002D01*
X140712853Y-89053946D01*
X140649297Y-89024921D01*
X140642819Y-89018889D01*
X139540649Y-87916720D01*
X139507164Y-87855397D01*
X139512148Y-87785705D01*
X139540651Y-87741355D01*
X139548497Y-87733508D01*
X139548504Y-87733504D01*
X139581767Y-87683722D01*
X139590500Y-87639820D01*
X139590500Y-85910180D01*
X139590500Y-85910177D01*
X139581768Y-85866282D01*
X139581767Y-85866281D01*
X139581767Y-85866278D01*
X139548504Y-85816496D01*
X139543197Y-85812950D01*
X139498724Y-85783234D01*
X139498717Y-85783231D01*
X139454822Y-85774500D01*
X139454820Y-85774500D01*
X137739477Y-85774500D01*
X137672438Y-85754815D01*
X137626683Y-85702011D01*
X137616739Y-85632853D01*
X137645764Y-85569297D01*
X137651796Y-85562819D01*
X137745675Y-85468940D01*
X138041164Y-85173449D01*
X138102485Y-85139966D01*
X138172176Y-85144950D01*
X138176266Y-85146559D01*
X138298165Y-85197051D01*
X138298169Y-85197051D01*
X138298170Y-85197052D01*
X138491456Y-85235500D01*
X138491459Y-85235500D01*
X138688543Y-85235500D01*
X138847202Y-85203940D01*
X138881835Y-85197051D01*
X139063914Y-85121632D01*
X139227782Y-85012139D01*
X139367139Y-84872782D01*
X139476632Y-84708914D01*
X139552051Y-84526835D01*
X139573512Y-84418946D01*
X139590500Y-84333543D01*
X139590500Y-84136456D01*
X139552052Y-83943170D01*
X139552051Y-83943169D01*
X139552051Y-83943165D01*
X139545630Y-83927663D01*
X139476635Y-83761092D01*
X139476628Y-83761079D01*
X139367139Y-83597218D01*
X139367136Y-83597214D01*
X139227785Y-83457863D01*
X139227781Y-83457860D01*
X139063920Y-83348371D01*
X139063907Y-83348364D01*
X138881839Y-83272950D01*
X138881829Y-83272947D01*
X138688543Y-83234500D01*
X138688541Y-83234500D01*
X138491459Y-83234500D01*
X138491457Y-83234500D01*
X138298170Y-83272947D01*
X138298160Y-83272950D01*
X138116092Y-83348364D01*
X138116079Y-83348371D01*
X137952218Y-83457860D01*
X137952214Y-83457863D01*
X137812863Y-83597214D01*
X137812860Y-83597218D01*
X137703371Y-83761079D01*
X137703364Y-83761092D01*
X137627950Y-83943160D01*
X137627947Y-83943170D01*
X137589500Y-84136456D01*
X137589500Y-84136459D01*
X137589500Y-84333541D01*
X137589500Y-84333543D01*
X137589499Y-84333543D01*
X137627947Y-84526829D01*
X137627950Y-84526839D01*
X137678427Y-84648703D01*
X137685896Y-84718173D01*
X137654620Y-84780652D01*
X137651547Y-84783836D01*
X137043942Y-85391443D01*
X136966444Y-85468940D01*
X136943026Y-85525476D01*
X136924500Y-85570200D01*
X135311051Y-85570200D01*
X135311051Y-84331051D01*
X135311051Y-82715612D01*
X159237831Y-82715612D01*
X160132050Y-82715612D01*
X160099137Y-82772619D01*
X160065062Y-82899786D01*
X160065062Y-83031438D01*
X160099137Y-83158605D01*
X160132050Y-83215612D01*
X159237831Y-83215612D01*
X159248304Y-83281738D01*
X159248304Y-83281741D01*
X159313966Y-83483829D01*
X159410441Y-83673169D01*
X159535334Y-83845071D01*
X159535338Y-83845076D01*
X159685597Y-83995335D01*
X159685602Y-83995339D01*
X159857504Y-84120232D01*
X160046844Y-84216707D01*
X160248933Y-84282369D01*
X160315062Y-84292843D01*
X160315062Y-83398624D01*
X160372069Y-83431537D01*
X160499236Y-83465612D01*
X160630888Y-83465612D01*
X160758055Y-83431537D01*
X160815062Y-83398624D01*
X160815062Y-84292842D01*
X160881188Y-84282369D01*
X160881191Y-84282369D01*
X161083279Y-84216707D01*
X161272619Y-84120232D01*
X161444521Y-83995339D01*
X161444526Y-83995335D01*
X161594783Y-83845078D01*
X161611232Y-83822439D01*
X161666562Y-83779773D01*
X161736176Y-83773794D01*
X161797971Y-83806399D01*
X161832328Y-83867238D01*
X161835551Y-83895324D01*
X161835551Y-99385851D01*
X161863647Y-99453679D01*
X161871116Y-99523149D01*
X161839842Y-99585628D01*
X161779753Y-99621281D01*
X161724896Y-99622751D01*
X161718637Y-99621506D01*
X161521555Y-99621506D01*
X161521553Y-99621506D01*
X161328266Y-99659953D01*
X161328256Y-99659956D01*
X161146188Y-99735370D01*
X161146175Y-99735377D01*
X160982314Y-99844866D01*
X160982310Y-99844869D01*
X160842959Y-99984220D01*
X160842956Y-99984224D01*
X160733467Y-100148085D01*
X160733460Y-100148098D01*
X160658046Y-100330166D01*
X160658043Y-100330176D01*
X160619596Y-100523462D01*
X160619596Y-100523465D01*
X160619596Y-100720547D01*
X160619596Y-100720549D01*
X160619595Y-100720549D01*
X160658043Y-100913835D01*
X160658046Y-100913845D01*
X160733460Y-101095913D01*
X160733467Y-101095926D01*
X160842956Y-101259787D01*
X160842959Y-101259791D01*
X160982310Y-101399142D01*
X160982314Y-101399145D01*
X161146175Y-101508634D01*
X161146188Y-101508641D01*
X161308655Y-101575936D01*
X161328261Y-101584057D01*
X161328265Y-101584057D01*
X161328266Y-101584058D01*
X161521552Y-101622506D01*
X161521555Y-101622506D01*
X161718639Y-101622506D01*
X161848678Y-101596638D01*
X161911931Y-101584057D01*
X162094010Y-101508638D01*
X162257878Y-101399145D01*
X162397235Y-101259788D01*
X162506728Y-101095920D01*
X162582147Y-100913841D01*
X162620596Y-100720547D01*
X162620596Y-100529573D01*
X162640281Y-100462534D01*
X162693085Y-100416779D01*
X162762243Y-100406835D01*
X162825799Y-100435860D01*
X162832277Y-100441892D01*
X164999232Y-102608847D01*
X165032717Y-102670170D01*
X165035551Y-102696528D01*
X165035551Y-103330403D01*
X165059330Y-103387809D01*
X165059330Y-103387810D01*
X165081735Y-103441900D01*
X165089204Y-103511369D01*
X165086951Y-103521438D01*
X165085242Y-103527814D01*
X165085242Y-103527819D01*
X165085242Y-103672769D01*
X165115949Y-103787368D01*
X165122759Y-103812782D01*
X165195230Y-103938305D01*
X165195232Y-103938307D01*
X165195233Y-103938309D01*
X165297727Y-104040803D01*
X165297728Y-104040804D01*
X165297730Y-104040805D01*
X165423253Y-104113276D01*
X165423254Y-104113276D01*
X165423257Y-104113278D01*
X165563267Y-104150794D01*
X165563270Y-104150794D01*
X165708214Y-104150794D01*
X165708217Y-104150794D01*
X165848227Y-104113278D01*
X165973757Y-104040803D01*
X166076251Y-103938309D01*
X166148726Y-103812779D01*
X166186242Y-103672769D01*
X166186242Y-103605551D01*
X166205927Y-103538512D01*
X166258731Y-103492757D01*
X166310242Y-103481551D01*
X166383523Y-103481551D01*
X166383526Y-103481551D01*
X166523536Y-103444035D01*
X166649066Y-103371560D01*
X166751560Y-103269066D01*
X166824035Y-103143536D01*
X166861551Y-103003526D01*
X166861551Y-102865522D01*
X224296832Y-102865522D01*
X224296832Y-103167009D01*
X224296833Y-103167025D01*
X224336185Y-103465933D01*
X224414221Y-103757167D01*
X224529597Y-104035709D01*
X224529602Y-104035720D01*
X224680344Y-104296811D01*
X224680355Y-104296827D01*
X224802947Y-104456594D01*
X224802949Y-104456594D01*
X225734257Y-103525285D01*
X225820081Y-103653729D01*
X225959369Y-103793017D01*
X226087810Y-103878839D01*
X225156502Y-104810147D01*
X225156502Y-104810148D01*
X225316270Y-104932742D01*
X225316286Y-104932753D01*
X225577377Y-105083495D01*
X225577388Y-105083500D01*
X225855930Y-105198876D01*
X226147164Y-105276912D01*
X226446072Y-105316264D01*
X226446089Y-105316266D01*
X226747575Y-105316266D01*
X226747591Y-105316264D01*
X227046499Y-105276912D01*
X227337733Y-105198876D01*
X227616275Y-105083500D01*
X227616286Y-105083495D01*
X227877377Y-104932753D01*
X227877385Y-104932747D01*
X228037160Y-104810147D01*
X227105852Y-103878839D01*
X227234295Y-103793017D01*
X227373583Y-103653729D01*
X227459405Y-103525286D01*
X228390713Y-104456594D01*
X228513313Y-104296819D01*
X228513319Y-104296811D01*
X228664061Y-104035720D01*
X228664066Y-104035709D01*
X228779442Y-103757167D01*
X228857478Y-103465933D01*
X228896830Y-103167025D01*
X228896832Y-103167009D01*
X228896832Y-102865522D01*
X228896830Y-102865506D01*
X228857478Y-102566598D01*
X228779442Y-102275364D01*
X228664066Y-101996822D01*
X228664061Y-101996811D01*
X228513319Y-101735720D01*
X228513308Y-101735704D01*
X228390713Y-101575936D01*
X227459405Y-102507244D01*
X227373583Y-102378803D01*
X227234295Y-102239515D01*
X227105851Y-102153691D01*
X228037160Y-101222383D01*
X228037160Y-101222381D01*
X227877393Y-101099789D01*
X227877377Y-101099778D01*
X227616286Y-100949036D01*
X227616275Y-100949031D01*
X227337733Y-100833655D01*
X227046499Y-100755619D01*
X226747591Y-100716267D01*
X226747575Y-100716266D01*
X226446089Y-100716266D01*
X226446072Y-100716267D01*
X226147164Y-100755619D01*
X225855930Y-100833655D01*
X225577388Y-100949031D01*
X225577377Y-100949036D01*
X225316274Y-101099786D01*
X225156502Y-101222382D01*
X225156502Y-101222383D01*
X226087811Y-102153692D01*
X225959369Y-102239515D01*
X225820081Y-102378803D01*
X225734258Y-102507245D01*
X224802949Y-101575936D01*
X224802948Y-101575936D01*
X224680352Y-101735708D01*
X224529602Y-101996811D01*
X224529597Y-101996822D01*
X224414221Y-102275364D01*
X224336185Y-102566598D01*
X224296833Y-102865506D01*
X224296832Y-102865522D01*
X166861551Y-102865522D01*
X166861551Y-102858576D01*
X166824035Y-102718566D01*
X166811311Y-102696528D01*
X166751562Y-102593039D01*
X166751557Y-102593033D01*
X166649068Y-102490544D01*
X166649062Y-102490539D01*
X166523539Y-102418068D01*
X166523540Y-102418068D01*
X166512057Y-102414991D01*
X166383526Y-102380551D01*
X166238576Y-102380551D01*
X166238574Y-102380551D01*
X166238568Y-102380552D01*
X166237991Y-102380707D01*
X166237484Y-102380694D01*
X166230520Y-102381612D01*
X166230376Y-102380525D01*
X166168141Y-102379039D01*
X166118226Y-102348611D01*
X165222870Y-101453255D01*
X165208166Y-101426327D01*
X165191574Y-101400509D01*
X165190682Y-101394308D01*
X165189385Y-101391932D01*
X165186551Y-101365574D01*
X165186551Y-98604359D01*
X165186551Y-98604358D01*
X165144608Y-98503100D01*
X165067109Y-98425601D01*
X164851269Y-98209761D01*
X164817784Y-98148438D01*
X164822768Y-98078746D01*
X164864640Y-98022813D01*
X164930104Y-97998396D01*
X164963140Y-98000462D01*
X164996367Y-98007072D01*
X165113655Y-98030403D01*
X165113658Y-98030403D01*
X165310742Y-98030403D01*
X165471648Y-97998396D01*
X165504034Y-97991954D01*
X165686113Y-97916535D01*
X165770477Y-97860165D01*
X223539437Y-97860165D01*
X223636265Y-97900273D01*
X223690669Y-97944114D01*
X223712734Y-98010408D01*
X223695455Y-98078107D01*
X223691043Y-98084624D01*
X223610426Y-98224260D01*
X223610423Y-98224267D01*
X223569500Y-98376994D01*
X223569500Y-98535108D01*
X223588056Y-98604358D01*
X223610423Y-98687834D01*
X223610426Y-98687841D01*
X223689475Y-98824760D01*
X223689479Y-98824765D01*
X223689480Y-98824767D01*
X223801284Y-98936571D01*
X223801286Y-98936572D01*
X223801290Y-98936575D01*
X223938209Y-99015624D01*
X223938216Y-99015628D01*
X224090943Y-99056551D01*
X224090945Y-99056551D01*
X225749055Y-99056551D01*
X225749057Y-99056551D01*
X225901784Y-99015628D01*
X226038716Y-98936571D01*
X226150520Y-98824767D01*
X226229577Y-98687835D01*
X226270500Y-98535108D01*
X226270500Y-98376994D01*
X227299500Y-98376994D01*
X227299500Y-98535108D01*
X227318056Y-98604358D01*
X227340423Y-98687834D01*
X227340426Y-98687841D01*
X227419475Y-98824760D01*
X227419479Y-98824765D01*
X227419480Y-98824767D01*
X227531284Y-98936571D01*
X227531286Y-98936572D01*
X227531290Y-98936575D01*
X227668209Y-99015624D01*
X227668216Y-99015628D01*
X227820943Y-99056551D01*
X227820945Y-99056551D01*
X228779055Y-99056551D01*
X228779057Y-99056551D01*
X228931784Y-99015628D01*
X229068716Y-98936571D01*
X229180520Y-98824767D01*
X229259577Y-98687835D01*
X229300500Y-98535108D01*
X229300500Y-98376994D01*
X229259577Y-98224267D01*
X229215705Y-98148277D01*
X229180524Y-98087341D01*
X229180518Y-98087333D01*
X229068717Y-97975532D01*
X229068709Y-97975526D01*
X228931790Y-97896477D01*
X228931786Y-97896475D01*
X228931784Y-97896474D01*
X228779057Y-97855551D01*
X227820943Y-97855551D01*
X227668216Y-97896474D01*
X227668209Y-97896477D01*
X227531290Y-97975526D01*
X227531282Y-97975532D01*
X227419481Y-98087333D01*
X227419475Y-98087341D01*
X227340426Y-98224260D01*
X227340423Y-98224267D01*
X227299500Y-98376994D01*
X226270500Y-98376994D01*
X226229577Y-98224267D01*
X226185705Y-98148277D01*
X226150524Y-98087341D01*
X226150518Y-98087333D01*
X226038717Y-97975532D01*
X226038709Y-97975526D01*
X225901790Y-97896477D01*
X225901786Y-97896475D01*
X225901784Y-97896474D01*
X225749057Y-97855551D01*
X225737309Y-97855551D01*
X225670270Y-97835866D01*
X225649628Y-97819232D01*
X225290000Y-97459604D01*
X224930372Y-97819232D01*
X224869049Y-97852717D01*
X224842691Y-97855551D01*
X224387309Y-97855551D01*
X224320270Y-97835866D01*
X224299628Y-97819232D01*
X223940000Y-97459604D01*
X223539437Y-97860165D01*
X165770477Y-97860165D01*
X165849981Y-97807042D01*
X165887107Y-97769916D01*
X165925354Y-97731670D01*
X165989335Y-97667688D01*
X165989338Y-97667685D01*
X166098831Y-97503817D01*
X166174250Y-97321738D01*
X166192830Y-97228332D01*
X166212699Y-97128446D01*
X166212699Y-97022328D01*
X223090000Y-97022328D01*
X223090000Y-97189773D01*
X223122663Y-97353979D01*
X223122665Y-97353987D01*
X223185883Y-97506611D01*
X223586446Y-97106051D01*
X223586446Y-97106050D01*
X223546665Y-97066269D01*
X223740000Y-97066269D01*
X223740000Y-97145833D01*
X223770448Y-97219342D01*
X223826709Y-97275603D01*
X223900218Y-97306051D01*
X223979782Y-97306051D01*
X224053291Y-97275603D01*
X224109552Y-97219342D01*
X224140000Y-97145833D01*
X224140000Y-97106051D01*
X224293553Y-97106051D01*
X224615000Y-97427497D01*
X224615001Y-97427497D01*
X224936446Y-97106052D01*
X224936446Y-97106050D01*
X224896665Y-97066269D01*
X225090000Y-97066269D01*
X225090000Y-97145833D01*
X225120448Y-97219342D01*
X225176709Y-97275603D01*
X225250218Y-97306051D01*
X225329782Y-97306051D01*
X225403291Y-97275603D01*
X225459552Y-97219342D01*
X225490000Y-97145833D01*
X225490000Y-97106050D01*
X225643553Y-97106050D01*
X225643553Y-97106051D01*
X226044114Y-97506612D01*
X226107334Y-97353987D01*
X226107336Y-97353979D01*
X226139999Y-97189773D01*
X226140000Y-97189771D01*
X226140000Y-97022330D01*
X226139999Y-97022328D01*
X226107336Y-96858122D01*
X226107334Y-96858114D01*
X226044114Y-96705488D01*
X225643553Y-97106050D01*
X225490000Y-97106050D01*
X225490000Y-97066269D01*
X225459552Y-96992760D01*
X225403291Y-96936499D01*
X225329782Y-96906051D01*
X225250218Y-96906051D01*
X225176709Y-96936499D01*
X225120448Y-96992760D01*
X225090000Y-97066269D01*
X224896665Y-97066269D01*
X224615001Y-96784604D01*
X224615000Y-96784604D01*
X224293553Y-97106051D01*
X224140000Y-97106051D01*
X224140000Y-97066269D01*
X224109552Y-96992760D01*
X224053291Y-96936499D01*
X223979782Y-96906051D01*
X223900218Y-96906051D01*
X223826709Y-96936499D01*
X223770448Y-96992760D01*
X223740000Y-97066269D01*
X223546665Y-97066269D01*
X223185884Y-96705488D01*
X223122665Y-96858113D01*
X223122662Y-96858122D01*
X223090000Y-97022328D01*
X166212699Y-97022328D01*
X166212699Y-97021775D01*
X166212699Y-96931362D01*
X166197987Y-96857406D01*
X166197395Y-96850784D01*
X166202965Y-96822776D01*
X166205511Y-96794331D01*
X166209979Y-96787511D01*
X166211025Y-96782257D01*
X166218501Y-96774508D01*
X166233218Y-96752051D01*
X168426749Y-94558521D01*
X168426754Y-94558517D01*
X168436957Y-94548313D01*
X168436959Y-94548313D01*
X168534799Y-94450473D01*
X168603982Y-94330644D01*
X168639794Y-94196991D01*
X168639794Y-93429594D01*
X177749499Y-93429594D01*
X177787947Y-93622880D01*
X177787950Y-93622890D01*
X177863364Y-93804958D01*
X177863371Y-93804971D01*
X177972860Y-93968832D01*
X177972863Y-93968836D01*
X178112214Y-94108187D01*
X178112218Y-94108190D01*
X178276079Y-94217679D01*
X178276092Y-94217686D01*
X178452240Y-94290648D01*
X178458165Y-94293102D01*
X178458169Y-94293102D01*
X178458170Y-94293103D01*
X178651456Y-94331551D01*
X178651459Y-94331551D01*
X178848543Y-94331551D01*
X179020504Y-94297345D01*
X179041835Y-94293102D01*
X179194434Y-94229894D01*
X179223907Y-94217686D01*
X179223907Y-94217685D01*
X179223914Y-94217683D01*
X179387782Y-94108190D01*
X179527139Y-93968833D01*
X179636632Y-93804965D01*
X179712051Y-93622886D01*
X179733936Y-93512863D01*
X179750500Y-93429594D01*
X180289499Y-93429594D01*
X180327947Y-93622880D01*
X180327950Y-93622890D01*
X180403364Y-93804958D01*
X180403371Y-93804971D01*
X180512860Y-93968832D01*
X180512863Y-93968836D01*
X180652214Y-94108187D01*
X180652218Y-94108190D01*
X180816079Y-94217679D01*
X180816092Y-94217686D01*
X180992240Y-94290648D01*
X180998165Y-94293102D01*
X180998169Y-94293102D01*
X180998170Y-94293103D01*
X181191456Y-94331551D01*
X181191459Y-94331551D01*
X181388543Y-94331551D01*
X181560504Y-94297345D01*
X181581835Y-94293102D01*
X181734434Y-94229894D01*
X181763907Y-94217686D01*
X181763907Y-94217685D01*
X181763914Y-94217683D01*
X181927782Y-94108190D01*
X182067139Y-93968833D01*
X182176632Y-93804965D01*
X182252051Y-93622886D01*
X182273936Y-93512863D01*
X182290500Y-93429594D01*
X182829499Y-93429594D01*
X182867947Y-93622880D01*
X182867950Y-93622890D01*
X182943364Y-93804958D01*
X182943371Y-93804971D01*
X183052860Y-93968832D01*
X183052863Y-93968836D01*
X183192214Y-94108187D01*
X183192218Y-94108190D01*
X183356079Y-94217679D01*
X183356092Y-94217686D01*
X183532240Y-94290648D01*
X183538165Y-94293102D01*
X183538169Y-94293102D01*
X183538170Y-94293103D01*
X183731456Y-94331551D01*
X183731459Y-94331551D01*
X183928543Y-94331551D01*
X184100504Y-94297345D01*
X184121835Y-94293102D01*
X184274434Y-94229894D01*
X184303907Y-94217686D01*
X184303907Y-94217685D01*
X184303914Y-94217683D01*
X184467782Y-94108190D01*
X184607139Y-93968833D01*
X184716632Y-93804965D01*
X184792051Y-93622886D01*
X184813936Y-93512863D01*
X184830500Y-93429594D01*
X185369499Y-93429594D01*
X185407947Y-93622880D01*
X185407950Y-93622890D01*
X185483364Y-93804958D01*
X185483371Y-93804971D01*
X185592860Y-93968832D01*
X185592863Y-93968836D01*
X185732214Y-94108187D01*
X185732218Y-94108190D01*
X185896079Y-94217679D01*
X185896092Y-94217686D01*
X186072240Y-94290648D01*
X186078165Y-94293102D01*
X186078169Y-94293102D01*
X186078170Y-94293103D01*
X186271456Y-94331551D01*
X186271459Y-94331551D01*
X186468543Y-94331551D01*
X186640504Y-94297345D01*
X186661835Y-94293102D01*
X186814434Y-94229894D01*
X186843907Y-94217686D01*
X186843907Y-94217685D01*
X186843914Y-94217683D01*
X187007782Y-94108190D01*
X187147139Y-93968833D01*
X187256632Y-93804965D01*
X187332051Y-93622886D01*
X187353936Y-93512863D01*
X187370500Y-93429594D01*
X187909499Y-93429594D01*
X187947947Y-93622880D01*
X187947950Y-93622890D01*
X188023364Y-93804958D01*
X188023371Y-93804971D01*
X188132860Y-93968832D01*
X188132863Y-93968836D01*
X188272214Y-94108187D01*
X188272218Y-94108190D01*
X188436079Y-94217679D01*
X188436092Y-94217686D01*
X188612240Y-94290648D01*
X188618165Y-94293102D01*
X188618169Y-94293102D01*
X188618170Y-94293103D01*
X188811456Y-94331551D01*
X188811459Y-94331551D01*
X189008543Y-94331551D01*
X189180504Y-94297345D01*
X189201835Y-94293102D01*
X189354434Y-94229894D01*
X189383907Y-94217686D01*
X189383907Y-94217685D01*
X189383914Y-94217683D01*
X189547782Y-94108190D01*
X189687139Y-93968833D01*
X189796632Y-93804965D01*
X189872051Y-93622886D01*
X189893936Y-93512863D01*
X189910500Y-93429594D01*
X190449499Y-93429594D01*
X190487947Y-93622880D01*
X190487950Y-93622890D01*
X190563364Y-93804958D01*
X190563371Y-93804971D01*
X190672860Y-93968832D01*
X190672863Y-93968836D01*
X190812214Y-94108187D01*
X190812218Y-94108190D01*
X190976079Y-94217679D01*
X190976092Y-94217686D01*
X191152240Y-94290648D01*
X191158165Y-94293102D01*
X191158169Y-94293102D01*
X191158170Y-94293103D01*
X191351456Y-94331551D01*
X191351459Y-94331551D01*
X191548543Y-94331551D01*
X191720504Y-94297345D01*
X191741835Y-94293102D01*
X191894434Y-94229894D01*
X191923907Y-94217686D01*
X191923907Y-94217685D01*
X191923914Y-94217683D01*
X192087782Y-94108190D01*
X192227139Y-93968833D01*
X192336632Y-93804965D01*
X192412051Y-93622886D01*
X192419852Y-93583666D01*
X192452236Y-93521758D01*
X192512952Y-93487184D01*
X192582721Y-93490923D01*
X192639394Y-93531789D01*
X192663942Y-93588462D01*
X192673242Y-93647178D01*
X192673242Y-93647181D01*
X192738904Y-93849268D01*
X192835379Y-94038608D01*
X192960272Y-94210510D01*
X192960276Y-94210515D01*
X193110535Y-94360774D01*
X193110540Y-94360778D01*
X193282442Y-94485671D01*
X193471782Y-94582146D01*
X193673871Y-94647808D01*
X193740000Y-94658282D01*
X193740000Y-93764063D01*
X193797007Y-93796976D01*
X193924174Y-93831051D01*
X194055826Y-93831051D01*
X194182993Y-93796976D01*
X194240000Y-93764063D01*
X194240000Y-94658281D01*
X194306126Y-94647808D01*
X194306129Y-94647808D01*
X194508217Y-94582146D01*
X194697557Y-94485671D01*
X194803670Y-94408576D01*
X220864500Y-94408576D01*
X220864500Y-94553526D01*
X220897943Y-94678335D01*
X220902017Y-94693539D01*
X220974488Y-94819062D01*
X220974490Y-94819064D01*
X220974491Y-94819066D01*
X221076985Y-94921560D01*
X221076986Y-94921561D01*
X221076988Y-94921562D01*
X221202511Y-94994033D01*
X221202512Y-94994033D01*
X221202515Y-94994035D01*
X221342525Y-95031551D01*
X221342528Y-95031551D01*
X221487472Y-95031551D01*
X221487475Y-95031551D01*
X221488041Y-95031399D01*
X221488538Y-95031410D01*
X221495532Y-95030490D01*
X221495675Y-95031580D01*
X221557889Y-95033056D01*
X221607823Y-95063489D01*
X222183940Y-95639607D01*
X222199330Y-95645981D01*
X222209033Y-95650001D01*
X222209038Y-95650002D01*
X222285199Y-95681550D01*
X223456324Y-95681550D01*
X223485764Y-95690194D01*
X223515751Y-95696718D01*
X223520766Y-95700472D01*
X223523363Y-95701235D01*
X223544005Y-95717869D01*
X223569505Y-95743369D01*
X223602990Y-95804692D01*
X223598006Y-95874384D01*
X223569506Y-95918730D01*
X223539503Y-95948733D01*
X223539500Y-95948737D01*
X223473608Y-96062863D01*
X223439500Y-96190159D01*
X223439500Y-96321942D01*
X223473608Y-96449238D01*
X223506554Y-96506301D01*
X223539500Y-96563365D01*
X223632686Y-96656551D01*
X223746814Y-96722443D01*
X223874108Y-96756551D01*
X223874110Y-96756551D01*
X224005890Y-96756551D01*
X224005892Y-96756551D01*
X224133186Y-96722443D01*
X224247314Y-96656551D01*
X224340500Y-96563365D01*
X224406392Y-96449237D01*
X224440500Y-96321943D01*
X224440500Y-96190159D01*
X224406392Y-96062865D01*
X224340500Y-95948737D01*
X224310493Y-95918730D01*
X224277009Y-95857408D01*
X224281993Y-95787716D01*
X224310493Y-95743370D01*
X224340500Y-95713364D01*
X224406392Y-95599236D01*
X224440500Y-95471942D01*
X224440500Y-95340158D01*
X224406392Y-95212864D01*
X224340500Y-95098736D01*
X224310494Y-95068730D01*
X224277010Y-95007408D01*
X224281994Y-94937716D01*
X224310494Y-94893370D01*
X224340500Y-94863365D01*
X224406392Y-94749237D01*
X224440500Y-94621943D01*
X224440500Y-94490159D01*
X224406392Y-94362865D01*
X224340500Y-94248737D01*
X224310495Y-94218732D01*
X224277010Y-94157409D01*
X224281994Y-94087717D01*
X224310495Y-94043370D01*
X224318647Y-94035218D01*
X224340500Y-94013365D01*
X224406392Y-93899237D01*
X224440500Y-93771943D01*
X224440500Y-93640159D01*
X224406392Y-93512865D01*
X224340500Y-93398737D01*
X224310495Y-93368732D01*
X224277010Y-93307409D01*
X224281994Y-93237717D01*
X224310495Y-93193370D01*
X224340500Y-93163365D01*
X224406392Y-93049237D01*
X224440500Y-92921943D01*
X224440500Y-92790159D01*
X224406392Y-92662865D01*
X224340500Y-92548737D01*
X224310493Y-92518730D01*
X224277009Y-92457408D01*
X224281993Y-92387716D01*
X224310493Y-92343370D01*
X224340500Y-92313364D01*
X224406392Y-92199236D01*
X224440500Y-92071942D01*
X224440500Y-91940159D01*
X224789500Y-91940159D01*
X224789500Y-92071942D01*
X224823608Y-92199238D01*
X224856000Y-92255341D01*
X224889500Y-92313365D01*
X224889501Y-92313366D01*
X224889502Y-92313367D01*
X224919505Y-92343370D01*
X224952990Y-92404693D01*
X224948006Y-92474385D01*
X224919505Y-92518732D01*
X224889502Y-92548734D01*
X224889500Y-92548737D01*
X224823608Y-92662863D01*
X224815462Y-92693265D01*
X224789500Y-92790159D01*
X224789500Y-92921943D01*
X224791914Y-92930952D01*
X224823608Y-93049238D01*
X224837697Y-93073640D01*
X224889500Y-93163365D01*
X224889502Y-93163367D01*
X224919505Y-93193370D01*
X224952990Y-93254693D01*
X224948006Y-93324385D01*
X224919505Y-93368732D01*
X224889502Y-93398734D01*
X224889500Y-93398737D01*
X224823608Y-93512863D01*
X224789500Y-93640159D01*
X224789500Y-93771942D01*
X224823608Y-93899238D01*
X224856554Y-93956301D01*
X224889500Y-94013365D01*
X224889502Y-94013367D01*
X224919505Y-94043370D01*
X224952990Y-94104693D01*
X224948006Y-94174385D01*
X224919505Y-94218732D01*
X224889502Y-94248734D01*
X224889500Y-94248737D01*
X224823608Y-94362863D01*
X224811360Y-94408576D01*
X224789500Y-94490159D01*
X224789500Y-94621943D01*
X224799237Y-94658281D01*
X224823608Y-94749238D01*
X224852723Y-94799665D01*
X224889500Y-94863365D01*
X224889502Y-94863367D01*
X224919505Y-94893370D01*
X224952990Y-94954693D01*
X224948006Y-95024385D01*
X224919505Y-95068732D01*
X224889502Y-95098734D01*
X224889500Y-95098737D01*
X224823608Y-95212863D01*
X224814280Y-95247678D01*
X224789500Y-95340159D01*
X224789500Y-95471943D01*
X224794805Y-95491742D01*
X224823608Y-95599238D01*
X224846914Y-95639604D01*
X224889500Y-95713365D01*
X224889501Y-95713366D01*
X224889502Y-95713367D01*
X224919505Y-95743370D01*
X224952990Y-95804693D01*
X224948006Y-95874385D01*
X224919505Y-95918732D01*
X224889502Y-95948734D01*
X224889500Y-95948737D01*
X224823608Y-96062863D01*
X224789500Y-96190159D01*
X224789500Y-96321942D01*
X224823608Y-96449238D01*
X224856554Y-96506301D01*
X224889500Y-96563365D01*
X224982686Y-96656551D01*
X225096814Y-96722443D01*
X225224108Y-96756551D01*
X225224110Y-96756551D01*
X225355890Y-96756551D01*
X225355892Y-96756551D01*
X225483186Y-96722443D01*
X225597314Y-96656551D01*
X225690500Y-96563365D01*
X225756392Y-96449237D01*
X225790500Y-96321943D01*
X225790500Y-96190159D01*
X225756392Y-96062865D01*
X225690500Y-95948737D01*
X225660494Y-95918731D01*
X225627010Y-95857409D01*
X225631994Y-95787717D01*
X225660495Y-95743370D01*
X225663655Y-95740210D01*
X225690500Y-95713365D01*
X225756392Y-95599237D01*
X225790500Y-95471943D01*
X225790500Y-95340159D01*
X225756392Y-95212865D01*
X225690500Y-95098737D01*
X225660494Y-95068731D01*
X225627010Y-95007409D01*
X225631994Y-94937717D01*
X225660495Y-94893370D01*
X225660497Y-94893368D01*
X225690500Y-94863365D01*
X225756392Y-94749237D01*
X225790500Y-94621943D01*
X225790500Y-94490159D01*
X225756392Y-94362865D01*
X225690500Y-94248737D01*
X225660495Y-94218732D01*
X225627010Y-94157409D01*
X225631994Y-94087717D01*
X225660495Y-94043370D01*
X225668647Y-94035218D01*
X225690500Y-94013365D01*
X225756392Y-93899237D01*
X225790500Y-93771943D01*
X225790500Y-93640159D01*
X225756392Y-93512865D01*
X225690500Y-93398737D01*
X225660495Y-93368732D01*
X225627010Y-93307409D01*
X225631994Y-93237717D01*
X225660495Y-93193370D01*
X225690500Y-93163365D01*
X225756392Y-93049237D01*
X225790500Y-92921943D01*
X225790500Y-92790159D01*
X225756392Y-92662865D01*
X225690500Y-92548737D01*
X225690497Y-92548734D01*
X225686928Y-92542552D01*
X225685495Y-92536649D01*
X225681521Y-92532062D01*
X225677356Y-92503099D01*
X225670455Y-92474652D01*
X225672441Y-92468913D01*
X225671577Y-92462904D01*
X225683735Y-92436281D01*
X225693307Y-92408625D01*
X225698079Y-92404871D01*
X225700602Y-92399348D01*
X225725225Y-92383523D01*
X225748228Y-92365434D01*
X225755578Y-92364017D01*
X225759380Y-92361574D01*
X225794315Y-92356551D01*
X225848456Y-92356551D01*
X225915495Y-92376236D01*
X225936137Y-92392870D01*
X226383181Y-92839914D01*
X226416666Y-92901237D01*
X226419500Y-92927595D01*
X226419500Y-93003526D01*
X226454487Y-93134097D01*
X226457017Y-93143539D01*
X226529488Y-93269062D01*
X226529490Y-93269064D01*
X226529491Y-93269066D01*
X226631985Y-93371560D01*
X226631986Y-93371561D01*
X226631988Y-93371562D01*
X226757511Y-93444033D01*
X226757512Y-93444033D01*
X226757515Y-93444035D01*
X226897525Y-93481551D01*
X226897528Y-93481551D01*
X227042472Y-93481551D01*
X227042475Y-93481551D01*
X227182485Y-93444035D01*
X227308015Y-93371560D01*
X227410509Y-93269066D01*
X227482984Y-93143536D01*
X227520500Y-93003526D01*
X227520500Y-92858576D01*
X227482984Y-92718566D01*
X227468376Y-92693265D01*
X227410511Y-92593039D01*
X227410506Y-92593033D01*
X227308017Y-92490544D01*
X227308011Y-92490539D01*
X227182488Y-92418068D01*
X227182489Y-92418068D01*
X227147247Y-92408625D01*
X227042475Y-92380551D01*
X227042472Y-92380551D01*
X226966544Y-92380551D01*
X226899505Y-92360866D01*
X226878863Y-92344232D01*
X226260213Y-91725582D01*
X226260208Y-91725578D01*
X226180290Y-91679438D01*
X226180283Y-91679435D01*
X226148501Y-91670919D01*
X226088841Y-91634554D01*
X226058313Y-91571706D01*
X226066035Y-91503692D01*
X226107334Y-91403987D01*
X226107336Y-91403979D01*
X226139999Y-91239773D01*
X226140000Y-91239771D01*
X226140000Y-91072330D01*
X226139999Y-91072328D01*
X226107336Y-90908122D01*
X226107334Y-90908114D01*
X226044114Y-90755488D01*
X225466777Y-91332828D01*
X225330373Y-91469232D01*
X225269050Y-91502717D01*
X225242692Y-91505551D01*
X225224108Y-91505551D01*
X225096812Y-91539659D01*
X224982686Y-91605551D01*
X224982683Y-91605553D01*
X224889502Y-91698734D01*
X224889500Y-91698737D01*
X224823608Y-91812863D01*
X224789500Y-91940159D01*
X224440500Y-91940159D01*
X224440500Y-91940158D01*
X224406392Y-91812864D01*
X224340500Y-91698736D01*
X224247314Y-91605550D01*
X224188695Y-91571706D01*
X224133187Y-91539658D01*
X224069539Y-91522604D01*
X224005892Y-91505550D01*
X223874108Y-91505550D01*
X223746812Y-91539658D01*
X223632686Y-91605550D01*
X223632683Y-91605552D01*
X223539502Y-91698733D01*
X223539500Y-91698736D01*
X223473608Y-91812862D01*
X223445197Y-91918896D01*
X223439500Y-91940158D01*
X223439500Y-92071942D01*
X223441213Y-92078335D01*
X223473608Y-92199237D01*
X223473609Y-92199238D01*
X223539500Y-92313364D01*
X223539501Y-92313365D01*
X223539502Y-92313366D01*
X223569505Y-92343369D01*
X223602990Y-92404692D01*
X223598006Y-92474384D01*
X223569506Y-92518730D01*
X223539503Y-92548733D01*
X223539500Y-92548737D01*
X223473608Y-92662863D01*
X223465462Y-92693265D01*
X223439500Y-92790159D01*
X223439500Y-92921943D01*
X223441914Y-92930952D01*
X223473608Y-93049238D01*
X223487697Y-93073640D01*
X223539500Y-93163365D01*
X223539502Y-93163367D01*
X223569505Y-93193370D01*
X223602990Y-93254693D01*
X223598006Y-93324385D01*
X223569505Y-93368732D01*
X223539502Y-93398734D01*
X223539500Y-93398737D01*
X223473608Y-93512863D01*
X223439500Y-93640159D01*
X223439500Y-93771942D01*
X223473608Y-93899238D01*
X223506554Y-93956301D01*
X223539500Y-94013365D01*
X223539502Y-94013367D01*
X223569505Y-94043370D01*
X223602990Y-94104693D01*
X223598006Y-94174385D01*
X223569505Y-94218732D01*
X223539502Y-94248734D01*
X223539500Y-94248737D01*
X223473608Y-94362863D01*
X223461360Y-94408576D01*
X223439500Y-94490159D01*
X223439500Y-94621943D01*
X223449237Y-94658281D01*
X223473608Y-94749238D01*
X223502723Y-94799665D01*
X223539500Y-94863365D01*
X223539502Y-94863367D01*
X223569504Y-94893369D01*
X223573841Y-94901312D01*
X223581089Y-94906738D01*
X223590325Y-94931500D01*
X223602989Y-94954692D01*
X223602343Y-94963720D01*
X223605507Y-94972202D01*
X223599890Y-94998023D01*
X223598005Y-95024384D01*
X223592186Y-95033437D01*
X223590656Y-95040475D01*
X223569506Y-95068730D01*
X223544004Y-95094231D01*
X223482684Y-95127716D01*
X223456324Y-95130550D01*
X222505477Y-95130550D01*
X222438438Y-95110865D01*
X222417796Y-95094231D01*
X221997439Y-94673875D01*
X221963954Y-94612552D01*
X221965167Y-94561678D01*
X221964439Y-94561583D01*
X221965330Y-94554809D01*
X221965347Y-94554093D01*
X221965500Y-94553526D01*
X221965500Y-94408576D01*
X221927984Y-94268566D01*
X221925515Y-94264290D01*
X221855511Y-94143039D01*
X221855506Y-94143033D01*
X221753017Y-94040544D01*
X221753011Y-94040539D01*
X221627488Y-93968068D01*
X221627489Y-93968068D01*
X221616006Y-93964991D01*
X221487475Y-93930551D01*
X221342525Y-93930551D01*
X221213993Y-93964991D01*
X221202511Y-93968068D01*
X221076988Y-94040539D01*
X221076982Y-94040544D01*
X220974493Y-94143033D01*
X220974488Y-94143039D01*
X220902017Y-94268562D01*
X220902016Y-94268566D01*
X220864500Y-94408576D01*
X194803670Y-94408576D01*
X194869459Y-94360778D01*
X194869464Y-94360774D01*
X195019723Y-94210515D01*
X195019727Y-94210510D01*
X195144620Y-94038608D01*
X195241095Y-93849268D01*
X195287569Y-93706236D01*
X195327006Y-93648561D01*
X195391365Y-93621362D01*
X195460211Y-93633276D01*
X195511687Y-93680520D01*
X195529500Y-93744554D01*
X195529500Y-94195871D01*
X195529500Y-94195873D01*
X195529499Y-94195873D01*
X195538231Y-94239768D01*
X195538234Y-94239775D01*
X195571495Y-94289554D01*
X195571496Y-94289555D01*
X195621278Y-94322818D01*
X195621281Y-94322818D01*
X195621282Y-94322819D01*
X195665177Y-94331551D01*
X195665180Y-94331551D01*
X197394822Y-94331551D01*
X197438717Y-94322819D01*
X197438717Y-94322818D01*
X197438722Y-94322818D01*
X197488504Y-94289555D01*
X197521767Y-94239773D01*
X197523732Y-94229894D01*
X197530500Y-94195873D01*
X197530500Y-92466228D01*
X197521768Y-92422333D01*
X197521767Y-92422332D01*
X197521767Y-92422329D01*
X197488504Y-92372547D01*
X197483197Y-92369001D01*
X197438724Y-92339285D01*
X197438717Y-92339282D01*
X197394822Y-92330551D01*
X197394820Y-92330551D01*
X195665180Y-92330551D01*
X195665178Y-92330551D01*
X195621282Y-92339282D01*
X195621275Y-92339285D01*
X195571496Y-92372546D01*
X195571495Y-92372547D01*
X195538234Y-92422326D01*
X195538231Y-92422333D01*
X195529500Y-92466228D01*
X195529500Y-92917547D01*
X195509815Y-92984586D01*
X195457011Y-93030341D01*
X195387853Y-93040285D01*
X195324297Y-93011260D01*
X195287569Y-92955865D01*
X195241095Y-92812833D01*
X195144620Y-92623493D01*
X195019727Y-92451591D01*
X195019723Y-92451586D01*
X194869464Y-92301327D01*
X194869459Y-92301323D01*
X194697557Y-92176430D01*
X194508215Y-92079954D01*
X194306124Y-92014292D01*
X194240000Y-92003819D01*
X194240000Y-92898039D01*
X194182993Y-92865126D01*
X194055826Y-92831051D01*
X193924174Y-92831051D01*
X193797007Y-92865126D01*
X193740000Y-92898039D01*
X193740000Y-92003819D01*
X193739999Y-92003819D01*
X193673875Y-92014292D01*
X193471784Y-92079954D01*
X193282442Y-92176430D01*
X193110540Y-92301323D01*
X193110535Y-92301327D01*
X192960276Y-92451586D01*
X192960272Y-92451591D01*
X192835379Y-92623493D01*
X192738904Y-92812833D01*
X192673242Y-93014920D01*
X192673242Y-93014921D01*
X192663942Y-93073640D01*
X192634012Y-93136774D01*
X192574700Y-93173705D01*
X192504838Y-93172707D01*
X192446605Y-93134097D01*
X192419852Y-93078432D01*
X192416094Y-93059542D01*
X192412051Y-93039216D01*
X192400471Y-93011260D01*
X192336635Y-92857143D01*
X192336628Y-92857130D01*
X192227139Y-92693269D01*
X192227136Y-92693265D01*
X192087785Y-92553914D01*
X192087781Y-92553911D01*
X191923920Y-92444422D01*
X191923907Y-92444415D01*
X191741839Y-92369001D01*
X191741829Y-92368998D01*
X191548543Y-92330551D01*
X191548541Y-92330551D01*
X191351459Y-92330551D01*
X191351457Y-92330551D01*
X191158170Y-92368998D01*
X191158160Y-92369001D01*
X190976092Y-92444415D01*
X190976079Y-92444422D01*
X190812218Y-92553911D01*
X190812214Y-92553914D01*
X190672863Y-92693265D01*
X190672860Y-92693269D01*
X190563371Y-92857130D01*
X190563364Y-92857143D01*
X190487950Y-93039211D01*
X190487947Y-93039221D01*
X190449500Y-93232507D01*
X190449500Y-93232510D01*
X190449500Y-93429592D01*
X190449500Y-93429594D01*
X190449499Y-93429594D01*
X189910500Y-93429594D01*
X189910500Y-93232507D01*
X189872052Y-93039221D01*
X189872051Y-93039220D01*
X189872051Y-93039216D01*
X189860471Y-93011260D01*
X189796635Y-92857143D01*
X189796628Y-92857130D01*
X189687139Y-92693269D01*
X189687136Y-92693265D01*
X189547785Y-92553914D01*
X189547781Y-92553911D01*
X189383920Y-92444422D01*
X189383907Y-92444415D01*
X189201839Y-92369001D01*
X189201829Y-92368998D01*
X189008543Y-92330551D01*
X189008541Y-92330551D01*
X188811459Y-92330551D01*
X188811457Y-92330551D01*
X188618170Y-92368998D01*
X188618160Y-92369001D01*
X188436092Y-92444415D01*
X188436079Y-92444422D01*
X188272218Y-92553911D01*
X188272214Y-92553914D01*
X188132863Y-92693265D01*
X188132860Y-92693269D01*
X188023371Y-92857130D01*
X188023364Y-92857143D01*
X187947950Y-93039211D01*
X187947947Y-93039221D01*
X187909500Y-93232507D01*
X187909500Y-93232510D01*
X187909500Y-93429592D01*
X187909500Y-93429594D01*
X187909499Y-93429594D01*
X187370500Y-93429594D01*
X187370500Y-93232507D01*
X187332052Y-93039221D01*
X187332051Y-93039220D01*
X187332051Y-93039216D01*
X187320471Y-93011260D01*
X187256635Y-92857143D01*
X187256628Y-92857130D01*
X187147139Y-92693269D01*
X187147136Y-92693265D01*
X187007785Y-92553914D01*
X187007781Y-92553911D01*
X186843920Y-92444422D01*
X186843907Y-92444415D01*
X186661839Y-92369001D01*
X186661829Y-92368998D01*
X186468543Y-92330551D01*
X186468541Y-92330551D01*
X186271459Y-92330551D01*
X186271457Y-92330551D01*
X186078170Y-92368998D01*
X186078160Y-92369001D01*
X185896092Y-92444415D01*
X185896079Y-92444422D01*
X185732218Y-92553911D01*
X185732214Y-92553914D01*
X185592863Y-92693265D01*
X185592860Y-92693269D01*
X185483371Y-92857130D01*
X185483364Y-92857143D01*
X185407950Y-93039211D01*
X185407947Y-93039221D01*
X185369500Y-93232507D01*
X185369500Y-93232510D01*
X185369500Y-93429592D01*
X185369500Y-93429594D01*
X185369499Y-93429594D01*
X184830500Y-93429594D01*
X184830500Y-93232507D01*
X184792052Y-93039221D01*
X184792051Y-93039220D01*
X184792051Y-93039216D01*
X184780471Y-93011260D01*
X184716635Y-92857143D01*
X184716628Y-92857130D01*
X184607139Y-92693269D01*
X184607136Y-92693265D01*
X184467785Y-92553914D01*
X184467781Y-92553911D01*
X184303920Y-92444422D01*
X184303907Y-92444415D01*
X184121839Y-92369001D01*
X184121829Y-92368998D01*
X183928543Y-92330551D01*
X183928541Y-92330551D01*
X183731459Y-92330551D01*
X183731457Y-92330551D01*
X183538170Y-92368998D01*
X183538160Y-92369001D01*
X183356092Y-92444415D01*
X183356079Y-92444422D01*
X183192218Y-92553911D01*
X183192214Y-92553914D01*
X183052863Y-92693265D01*
X183052860Y-92693269D01*
X182943371Y-92857130D01*
X182943364Y-92857143D01*
X182867950Y-93039211D01*
X182867947Y-93039221D01*
X182829500Y-93232507D01*
X182829500Y-93232510D01*
X182829500Y-93429592D01*
X182829500Y-93429594D01*
X182829499Y-93429594D01*
X182290500Y-93429594D01*
X182290500Y-93232507D01*
X182252052Y-93039221D01*
X182252051Y-93039220D01*
X182252051Y-93039216D01*
X182240471Y-93011260D01*
X182176635Y-92857143D01*
X182176628Y-92857130D01*
X182067139Y-92693269D01*
X182067136Y-92693265D01*
X181927785Y-92553914D01*
X181927781Y-92553911D01*
X181763920Y-92444422D01*
X181763907Y-92444415D01*
X181581839Y-92369001D01*
X181581829Y-92368998D01*
X181388543Y-92330551D01*
X181388541Y-92330551D01*
X181191459Y-92330551D01*
X181191457Y-92330551D01*
X180998170Y-92368998D01*
X180998160Y-92369001D01*
X180816092Y-92444415D01*
X180816079Y-92444422D01*
X180652218Y-92553911D01*
X180652214Y-92553914D01*
X180512863Y-92693265D01*
X180512860Y-92693269D01*
X180403371Y-92857130D01*
X180403364Y-92857143D01*
X180327950Y-93039211D01*
X180327947Y-93039221D01*
X180289500Y-93232507D01*
X180289500Y-93232510D01*
X180289500Y-93429592D01*
X180289500Y-93429594D01*
X180289499Y-93429594D01*
X179750500Y-93429594D01*
X179750500Y-93232507D01*
X179712052Y-93039221D01*
X179712051Y-93039220D01*
X179712051Y-93039216D01*
X179700471Y-93011260D01*
X179636635Y-92857143D01*
X179636628Y-92857130D01*
X179527139Y-92693269D01*
X179527136Y-92693265D01*
X179387785Y-92553914D01*
X179387781Y-92553911D01*
X179223920Y-92444422D01*
X179223907Y-92444415D01*
X179041839Y-92369001D01*
X179041829Y-92368998D01*
X178848543Y-92330551D01*
X178848541Y-92330551D01*
X178651459Y-92330551D01*
X178651457Y-92330551D01*
X178458170Y-92368998D01*
X178458160Y-92369001D01*
X178276092Y-92444415D01*
X178276079Y-92444422D01*
X178112218Y-92553911D01*
X178112214Y-92553914D01*
X177972863Y-92693265D01*
X177972860Y-92693269D01*
X177863371Y-92857130D01*
X177863364Y-92857143D01*
X177787950Y-93039211D01*
X177787947Y-93039221D01*
X177749500Y-93232507D01*
X177749500Y-93232510D01*
X177749500Y-93429592D01*
X177749500Y-93429594D01*
X177749499Y-93429594D01*
X168639794Y-93429594D01*
X168639794Y-91261868D01*
X168639794Y-91072328D01*
X223090000Y-91072328D01*
X223090000Y-91239773D01*
X223122663Y-91403979D01*
X223122665Y-91403987D01*
X223185883Y-91556611D01*
X223586446Y-91156051D01*
X223586446Y-91156050D01*
X223546665Y-91116269D01*
X223740000Y-91116269D01*
X223740000Y-91195833D01*
X223770448Y-91269342D01*
X223826709Y-91325603D01*
X223900218Y-91356051D01*
X223979782Y-91356051D01*
X224053291Y-91325603D01*
X224109552Y-91269342D01*
X224140000Y-91195833D01*
X224140000Y-91156051D01*
X224293553Y-91156051D01*
X224615000Y-91477497D01*
X224615001Y-91477497D01*
X224936446Y-91156052D01*
X224936446Y-91156050D01*
X224896665Y-91116269D01*
X225090000Y-91116269D01*
X225090000Y-91195833D01*
X225120448Y-91269342D01*
X225176709Y-91325603D01*
X225250218Y-91356051D01*
X225329782Y-91356051D01*
X225403291Y-91325603D01*
X225459552Y-91269342D01*
X225490000Y-91195833D01*
X225490000Y-91116269D01*
X225459552Y-91042760D01*
X225403291Y-90986499D01*
X225329782Y-90956051D01*
X225250218Y-90956051D01*
X225176709Y-90986499D01*
X225120448Y-91042760D01*
X225090000Y-91116269D01*
X224896665Y-91116269D01*
X224615001Y-90834604D01*
X224615000Y-90834604D01*
X224293553Y-91156051D01*
X224140000Y-91156051D01*
X224140000Y-91116269D01*
X224109552Y-91042760D01*
X224053291Y-90986499D01*
X223979782Y-90956051D01*
X223900218Y-90956051D01*
X223826709Y-90986499D01*
X223770448Y-91042760D01*
X223740000Y-91116269D01*
X223546665Y-91116269D01*
X223185884Y-90755488D01*
X223122665Y-90908113D01*
X223122662Y-90908122D01*
X223090000Y-91072328D01*
X168639794Y-91072328D01*
X168639794Y-90682100D01*
X168640465Y-90669218D01*
X168641482Y-90659471D01*
X168664794Y-90572475D01*
X168664794Y-90427525D01*
X168657937Y-90401935D01*
X223539437Y-90401935D01*
X223939999Y-90802497D01*
X223940000Y-90802497D01*
X224299628Y-90442870D01*
X224360951Y-90409385D01*
X224387309Y-90406551D01*
X224842691Y-90406551D01*
X224909730Y-90426236D01*
X224930372Y-90442870D01*
X225290000Y-90802497D01*
X225649628Y-90442870D01*
X225710951Y-90409385D01*
X225737309Y-90406551D01*
X225749055Y-90406551D01*
X225749057Y-90406551D01*
X225901784Y-90365628D01*
X226038716Y-90286571D01*
X226150520Y-90174767D01*
X226229577Y-90037835D01*
X226270500Y-89885108D01*
X226270500Y-89726994D01*
X227299500Y-89726994D01*
X227299500Y-89885107D01*
X227340423Y-90037834D01*
X227340426Y-90037841D01*
X227419475Y-90174760D01*
X227419479Y-90174765D01*
X227419480Y-90174767D01*
X227531284Y-90286571D01*
X227531286Y-90286572D01*
X227531290Y-90286575D01*
X227650483Y-90355390D01*
X227668216Y-90365628D01*
X227820943Y-90406551D01*
X227820945Y-90406551D01*
X228779055Y-90406551D01*
X228779057Y-90406551D01*
X228931784Y-90365628D01*
X229068716Y-90286571D01*
X229180520Y-90174767D01*
X229259577Y-90037835D01*
X229300500Y-89885108D01*
X229300500Y-89726994D01*
X229259577Y-89574267D01*
X229249932Y-89557561D01*
X229180524Y-89437341D01*
X229180518Y-89437333D01*
X229068717Y-89325532D01*
X229068709Y-89325526D01*
X228931790Y-89246477D01*
X228931786Y-89246475D01*
X228931784Y-89246474D01*
X228779057Y-89205551D01*
X227820943Y-89205551D01*
X227668216Y-89246474D01*
X227668209Y-89246477D01*
X227531290Y-89325526D01*
X227531282Y-89325532D01*
X227419481Y-89437333D01*
X227419475Y-89437341D01*
X227340426Y-89574260D01*
X227340423Y-89574267D01*
X227299500Y-89726994D01*
X226270500Y-89726994D01*
X226229577Y-89574267D01*
X226219932Y-89557561D01*
X226150524Y-89437341D01*
X226150518Y-89437333D01*
X226038717Y-89325532D01*
X226038709Y-89325526D01*
X225901790Y-89246477D01*
X225901786Y-89246475D01*
X225901784Y-89246474D01*
X225749057Y-89205551D01*
X224090943Y-89205551D01*
X223938216Y-89246474D01*
X223938209Y-89246477D01*
X223801290Y-89325526D01*
X223801282Y-89325532D01*
X223689481Y-89437333D01*
X223689475Y-89437341D01*
X223610426Y-89574260D01*
X223610423Y-89574267D01*
X223569500Y-89726994D01*
X223569500Y-89885107D01*
X223610423Y-90037834D01*
X223610426Y-90037841D01*
X223693543Y-90181806D01*
X223691517Y-90182975D01*
X223712383Y-90236961D01*
X223698339Y-90305404D01*
X223649520Y-90355390D01*
X223636265Y-90361828D01*
X223539437Y-90401935D01*
X168657937Y-90401935D01*
X168642991Y-90346158D01*
X168642208Y-90342244D01*
X168642525Y-90338645D01*
X168639794Y-90317898D01*
X168639794Y-89556890D01*
X168656408Y-89494889D01*
X168674747Y-89463124D01*
X168674746Y-89463124D01*
X168674750Y-89463119D01*
X168694246Y-89390360D01*
X168710563Y-89329466D01*
X168710563Y-89191100D01*
X168710563Y-89183505D01*
X168710562Y-89183487D01*
X168710562Y-85289064D01*
X170585551Y-85289064D01*
X170585551Y-85478037D01*
X170615110Y-85664669D01*
X170673505Y-85844387D01*
X170741205Y-85977255D01*
X170759291Y-86012750D01*
X170870361Y-86165624D01*
X171003978Y-86299241D01*
X171156852Y-86410311D01*
X171236398Y-86450841D01*
X171325214Y-86496096D01*
X171325216Y-86496096D01*
X171325219Y-86496098D01*
X171421548Y-86527397D01*
X171504932Y-86554491D01*
X171691565Y-86584051D01*
X171691570Y-86584051D01*
X171880537Y-86584051D01*
X172067169Y-86554491D01*
X172246883Y-86496098D01*
X172415250Y-86410311D01*
X172568124Y-86299241D01*
X172701741Y-86165624D01*
X172812811Y-86012750D01*
X172898598Y-85844383D01*
X172956991Y-85664669D01*
X172962030Y-85632853D01*
X172986551Y-85478037D01*
X172986551Y-85289064D01*
X172956991Y-85102432D01*
X172929897Y-85019048D01*
X172898598Y-84922719D01*
X172898596Y-84922716D01*
X172898596Y-84922714D01*
X172853341Y-84833898D01*
X172812811Y-84754352D01*
X172701741Y-84601478D01*
X172568124Y-84467861D01*
X172415250Y-84356791D01*
X172246887Y-84271005D01*
X172067169Y-84212610D01*
X171880537Y-84183051D01*
X171880532Y-84183051D01*
X171691570Y-84183051D01*
X171691565Y-84183051D01*
X171504932Y-84212610D01*
X171325214Y-84271005D01*
X171156851Y-84356791D01*
X171132933Y-84374169D01*
X171003978Y-84467861D01*
X171003976Y-84467863D01*
X171003975Y-84467863D01*
X170870363Y-84601475D01*
X170870363Y-84601476D01*
X170870361Y-84601478D01*
X170836051Y-84648702D01*
X170759291Y-84754351D01*
X170673505Y-84922714D01*
X170615110Y-85102432D01*
X170585551Y-85289064D01*
X168710562Y-85289064D01*
X168710562Y-84090112D01*
X168730247Y-84023073D01*
X168783051Y-83977318D01*
X168834562Y-83966112D01*
X169049884Y-83966112D01*
X169093779Y-83957380D01*
X169093779Y-83957379D01*
X169093784Y-83957379D01*
X169143566Y-83924116D01*
X169176829Y-83874334D01*
X169178241Y-83867238D01*
X169185562Y-83830434D01*
X169185562Y-82792543D01*
X172010551Y-82792543D01*
X172010551Y-82994558D01*
X172049958Y-83192670D01*
X172049960Y-83192678D01*
X172127263Y-83379303D01*
X172127268Y-83379313D01*
X172239492Y-83547269D01*
X172382332Y-83690109D01*
X172550288Y-83802333D01*
X172550292Y-83802335D01*
X172550295Y-83802337D01*
X172736924Y-83879642D01*
X172935043Y-83919050D01*
X172935047Y-83919051D01*
X172935048Y-83919051D01*
X173137055Y-83919051D01*
X173137056Y-83919050D01*
X173335178Y-83879642D01*
X173521807Y-83802337D01*
X173689769Y-83690109D01*
X173832609Y-83547269D01*
X173944837Y-83379307D01*
X174022142Y-83192678D01*
X174061551Y-82994554D01*
X174061551Y-82792548D01*
X174060115Y-82785330D01*
X176161051Y-82785330D01*
X176161051Y-83001771D01*
X176194908Y-83215532D01*
X176261786Y-83421365D01*
X176261787Y-83421368D01*
X176360047Y-83614211D01*
X176402880Y-83673166D01*
X176402881Y-83673167D01*
X177057170Y-83018878D01*
X177074785Y-83084614D01*
X177139953Y-83197488D01*
X177232114Y-83289649D01*
X177344988Y-83354817D01*
X177410723Y-83372431D01*
X176756433Y-84026719D01*
X176815393Y-84069556D01*
X177008233Y-84167814D01*
X177008236Y-84167815D01*
X177214069Y-84234693D01*
X177427831Y-84268551D01*
X177644271Y-84268551D01*
X177858029Y-84234694D01*
X177976113Y-84196326D01*
X178045954Y-84194331D01*
X178105787Y-84230411D01*
X178136616Y-84293112D01*
X178128652Y-84362526D01*
X178087319Y-84414574D01*
X178013978Y-84467860D01*
X177880363Y-84601475D01*
X177880363Y-84601476D01*
X177880361Y-84601478D01*
X177846051Y-84648702D01*
X177769291Y-84754351D01*
X177683505Y-84922714D01*
X177625110Y-85102432D01*
X177595551Y-85289064D01*
X177595551Y-85478037D01*
X177625110Y-85664669D01*
X177683505Y-85844387D01*
X177751205Y-85977255D01*
X177769291Y-86012750D01*
X177880361Y-86165624D01*
X178013978Y-86299241D01*
X178166852Y-86410311D01*
X178246398Y-86450841D01*
X178335214Y-86496096D01*
X178335216Y-86496096D01*
X178335219Y-86496098D01*
X178431548Y-86527397D01*
X178514932Y-86554491D01*
X178701565Y-86584051D01*
X178701570Y-86584051D01*
X178890537Y-86584051D01*
X179077169Y-86554491D01*
X179256883Y-86496098D01*
X179425250Y-86410311D01*
X179578124Y-86299241D01*
X179711741Y-86165624D01*
X179822811Y-86012750D01*
X179908598Y-85844383D01*
X179966991Y-85664669D01*
X179972030Y-85632853D01*
X179996551Y-85478037D01*
X179996551Y-85289064D01*
X182385551Y-85289064D01*
X182385551Y-85478037D01*
X182415110Y-85664669D01*
X182473505Y-85844387D01*
X182541205Y-85977255D01*
X182559291Y-86012750D01*
X182670361Y-86165624D01*
X182803978Y-86299241D01*
X182956852Y-86410311D01*
X183036398Y-86450841D01*
X183125214Y-86496096D01*
X183125216Y-86496096D01*
X183125219Y-86496098D01*
X183221548Y-86527397D01*
X183304932Y-86554491D01*
X183491565Y-86584051D01*
X183491570Y-86584051D01*
X183680537Y-86584051D01*
X183867169Y-86554491D01*
X184046883Y-86496098D01*
X184215250Y-86410311D01*
X184368124Y-86299241D01*
X184501741Y-86165624D01*
X184612811Y-86012750D01*
X184698598Y-85844383D01*
X184756991Y-85664669D01*
X184762030Y-85632853D01*
X184786551Y-85478037D01*
X184786551Y-85289064D01*
X184756991Y-85102432D01*
X184729897Y-85019048D01*
X184698598Y-84922719D01*
X184698596Y-84922716D01*
X184698596Y-84922714D01*
X184653341Y-84833898D01*
X184612811Y-84754352D01*
X184501741Y-84601478D01*
X184368124Y-84467861D01*
X184215250Y-84356791D01*
X184046887Y-84271005D01*
X183867169Y-84212610D01*
X183680537Y-84183051D01*
X183680532Y-84183051D01*
X183491570Y-84183051D01*
X183491565Y-84183051D01*
X183304932Y-84212610D01*
X183125214Y-84271005D01*
X182956851Y-84356791D01*
X182932933Y-84374169D01*
X182803978Y-84467861D01*
X182803976Y-84467863D01*
X182803975Y-84467863D01*
X182670363Y-84601475D01*
X182670363Y-84601476D01*
X182670361Y-84601478D01*
X182636051Y-84648702D01*
X182559291Y-84754351D01*
X182473505Y-84922714D01*
X182415110Y-85102432D01*
X182385551Y-85289064D01*
X179996551Y-85289064D01*
X179966991Y-85102432D01*
X179939897Y-85019048D01*
X179908598Y-84922719D01*
X179908596Y-84922716D01*
X179908596Y-84922714D01*
X179863341Y-84833898D01*
X179822811Y-84754352D01*
X179711741Y-84601478D01*
X179578124Y-84467861D01*
X179425250Y-84356791D01*
X179256887Y-84271005D01*
X179077169Y-84212610D01*
X178890537Y-84183051D01*
X178890532Y-84183051D01*
X178701570Y-84183051D01*
X178701565Y-84183051D01*
X178514931Y-84212611D01*
X178514928Y-84212611D01*
X178436195Y-84238194D01*
X178366354Y-84240189D01*
X178306521Y-84204109D01*
X178275693Y-84141408D01*
X178283658Y-84071994D01*
X178315233Y-84032233D01*
X178315667Y-84026719D01*
X177661378Y-83372431D01*
X177727114Y-83354817D01*
X177839988Y-83289649D01*
X177932149Y-83197488D01*
X177997317Y-83084614D01*
X178014930Y-83018878D01*
X178669219Y-83673167D01*
X178669219Y-83673166D01*
X178712057Y-83614207D01*
X178810314Y-83421368D01*
X178810315Y-83421365D01*
X178877193Y-83215532D01*
X178911051Y-83001771D01*
X178911051Y-82792543D01*
X183810551Y-82792543D01*
X183810551Y-82994558D01*
X183849958Y-83192670D01*
X183849960Y-83192678D01*
X183927263Y-83379303D01*
X183927268Y-83379313D01*
X184039492Y-83547269D01*
X184182332Y-83690109D01*
X184350288Y-83802333D01*
X184350292Y-83802335D01*
X184350295Y-83802337D01*
X184536924Y-83879642D01*
X184735043Y-83919050D01*
X184735047Y-83919051D01*
X184735048Y-83919051D01*
X184937055Y-83919051D01*
X184937056Y-83919050D01*
X185135178Y-83879642D01*
X185321807Y-83802337D01*
X185489769Y-83690109D01*
X185632609Y-83547269D01*
X185744837Y-83379307D01*
X185822142Y-83192678D01*
X185861551Y-82994554D01*
X185861551Y-82792548D01*
X185860115Y-82785330D01*
X187961051Y-82785330D01*
X187961051Y-83001771D01*
X187994908Y-83215532D01*
X188061786Y-83421365D01*
X188061787Y-83421368D01*
X188160047Y-83614211D01*
X188202880Y-83673166D01*
X188202881Y-83673167D01*
X188857170Y-83018878D01*
X188874785Y-83084614D01*
X188939953Y-83197488D01*
X189032114Y-83289649D01*
X189144988Y-83354817D01*
X189210723Y-83372431D01*
X188556433Y-84026719D01*
X188615393Y-84069556D01*
X188808233Y-84167814D01*
X188808236Y-84167815D01*
X189014069Y-84234693D01*
X189227831Y-84268551D01*
X189444271Y-84268551D01*
X189658029Y-84234694D01*
X189776113Y-84196326D01*
X189845954Y-84194331D01*
X189905787Y-84230411D01*
X189936616Y-84293112D01*
X189928652Y-84362526D01*
X189887319Y-84414574D01*
X189813978Y-84467860D01*
X189680363Y-84601475D01*
X189680363Y-84601476D01*
X189680361Y-84601478D01*
X189646051Y-84648702D01*
X189569291Y-84754351D01*
X189483505Y-84922714D01*
X189425110Y-85102432D01*
X189395551Y-85289064D01*
X189395551Y-85478037D01*
X189425110Y-85664669D01*
X189483505Y-85844387D01*
X189551205Y-85977255D01*
X189569291Y-86012750D01*
X189680361Y-86165624D01*
X189813978Y-86299241D01*
X189966852Y-86410311D01*
X190046398Y-86450841D01*
X190135214Y-86496096D01*
X190135216Y-86496096D01*
X190135219Y-86496098D01*
X190231548Y-86527397D01*
X190314932Y-86554491D01*
X190501565Y-86584051D01*
X190501570Y-86584051D01*
X190690537Y-86584051D01*
X190877169Y-86554491D01*
X191056883Y-86496098D01*
X191225250Y-86410311D01*
X191378124Y-86299241D01*
X191511741Y-86165624D01*
X191622811Y-86012750D01*
X191708598Y-85844383D01*
X191766991Y-85664669D01*
X191772030Y-85632853D01*
X191796551Y-85478037D01*
X191796551Y-85289064D01*
X194185551Y-85289064D01*
X194185551Y-85478037D01*
X194215110Y-85664669D01*
X194273505Y-85844387D01*
X194341205Y-85977255D01*
X194359291Y-86012750D01*
X194470361Y-86165624D01*
X194603978Y-86299241D01*
X194756852Y-86410311D01*
X194836398Y-86450841D01*
X194925214Y-86496096D01*
X194925216Y-86496096D01*
X194925219Y-86496098D01*
X195021548Y-86527397D01*
X195104932Y-86554491D01*
X195291565Y-86584051D01*
X195291570Y-86584051D01*
X195480537Y-86584051D01*
X195667169Y-86554491D01*
X195846883Y-86496098D01*
X196015250Y-86410311D01*
X196168124Y-86299241D01*
X196301741Y-86165624D01*
X196412811Y-86012750D01*
X196498598Y-85844383D01*
X196556991Y-85664669D01*
X196562030Y-85632853D01*
X196586551Y-85478037D01*
X196586551Y-85289064D01*
X196556991Y-85102432D01*
X196529897Y-85019048D01*
X196498598Y-84922719D01*
X196498596Y-84922716D01*
X196498596Y-84922714D01*
X196453341Y-84833898D01*
X196412811Y-84754352D01*
X196301741Y-84601478D01*
X196168124Y-84467861D01*
X196015250Y-84356791D01*
X195846887Y-84271005D01*
X195667169Y-84212610D01*
X195480537Y-84183051D01*
X195480532Y-84183051D01*
X195291570Y-84183051D01*
X195291565Y-84183051D01*
X195104932Y-84212610D01*
X194925214Y-84271005D01*
X194756851Y-84356791D01*
X194732933Y-84374169D01*
X194603978Y-84467861D01*
X194603976Y-84467863D01*
X194603975Y-84467863D01*
X194470363Y-84601475D01*
X194470363Y-84601476D01*
X194470361Y-84601478D01*
X194436051Y-84648702D01*
X194359291Y-84754351D01*
X194273505Y-84922714D01*
X194215110Y-85102432D01*
X194185551Y-85289064D01*
X191796551Y-85289064D01*
X191766991Y-85102432D01*
X191739897Y-85019048D01*
X191708598Y-84922719D01*
X191708596Y-84922716D01*
X191708596Y-84922714D01*
X191663341Y-84833898D01*
X191622811Y-84754352D01*
X191511741Y-84601478D01*
X191378124Y-84467861D01*
X191225250Y-84356791D01*
X191056887Y-84271005D01*
X190877169Y-84212610D01*
X190690537Y-84183051D01*
X190690532Y-84183051D01*
X190501570Y-84183051D01*
X190501565Y-84183051D01*
X190314931Y-84212611D01*
X190314928Y-84212611D01*
X190236195Y-84238194D01*
X190166354Y-84240189D01*
X190106521Y-84204109D01*
X190075693Y-84141408D01*
X190083658Y-84071994D01*
X190115233Y-84032233D01*
X190115667Y-84026719D01*
X189461378Y-83372431D01*
X189527114Y-83354817D01*
X189639988Y-83289649D01*
X189732149Y-83197488D01*
X189797317Y-83084614D01*
X189814930Y-83018878D01*
X190469219Y-83673167D01*
X190469219Y-83673166D01*
X190512057Y-83614207D01*
X190610314Y-83421368D01*
X190610315Y-83421365D01*
X190677193Y-83215532D01*
X190711051Y-83001771D01*
X190711051Y-82792543D01*
X195610551Y-82792543D01*
X195610551Y-82994558D01*
X195649958Y-83192670D01*
X195649960Y-83192678D01*
X195727263Y-83379303D01*
X195727268Y-83379313D01*
X195839492Y-83547269D01*
X195982332Y-83690109D01*
X196150288Y-83802333D01*
X196150292Y-83802335D01*
X196150295Y-83802337D01*
X196336924Y-83879642D01*
X196535043Y-83919050D01*
X196535047Y-83919051D01*
X196535048Y-83919051D01*
X196737055Y-83919051D01*
X196737056Y-83919050D01*
X196935178Y-83879642D01*
X197121807Y-83802337D01*
X197289769Y-83690109D01*
X197432609Y-83547269D01*
X197544837Y-83379307D01*
X197622142Y-83192678D01*
X197661551Y-82994554D01*
X197661551Y-82792548D01*
X197660115Y-82785330D01*
X199761051Y-82785330D01*
X199761051Y-83001771D01*
X199794908Y-83215532D01*
X199861786Y-83421365D01*
X199861787Y-83421368D01*
X199960047Y-83614211D01*
X200002880Y-83673166D01*
X200002881Y-83673167D01*
X200657170Y-83018878D01*
X200674785Y-83084614D01*
X200739953Y-83197488D01*
X200832114Y-83289649D01*
X200944988Y-83354817D01*
X201010723Y-83372431D01*
X200356433Y-84026719D01*
X200415393Y-84069556D01*
X200608233Y-84167814D01*
X200608236Y-84167815D01*
X200814069Y-84234693D01*
X201027831Y-84268551D01*
X201244271Y-84268551D01*
X201458029Y-84234694D01*
X201576113Y-84196326D01*
X201645954Y-84194331D01*
X201705787Y-84230411D01*
X201736616Y-84293112D01*
X201728652Y-84362526D01*
X201687319Y-84414574D01*
X201613978Y-84467860D01*
X201480363Y-84601475D01*
X201480363Y-84601476D01*
X201480361Y-84601478D01*
X201446051Y-84648702D01*
X201369291Y-84754351D01*
X201283505Y-84922714D01*
X201225110Y-85102432D01*
X201195551Y-85289064D01*
X201195551Y-85478037D01*
X201225110Y-85664669D01*
X201283505Y-85844387D01*
X201351205Y-85977255D01*
X201369291Y-86012750D01*
X201480361Y-86165624D01*
X201613978Y-86299241D01*
X201766852Y-86410311D01*
X201846398Y-86450841D01*
X201935214Y-86496096D01*
X201935216Y-86496096D01*
X201935219Y-86496098D01*
X202031548Y-86527397D01*
X202114932Y-86554491D01*
X202301565Y-86584051D01*
X202301570Y-86584051D01*
X202490537Y-86584051D01*
X202677169Y-86554491D01*
X202856883Y-86496098D01*
X203025250Y-86410311D01*
X203178124Y-86299241D01*
X203311741Y-86165624D01*
X203422811Y-86012750D01*
X203508598Y-85844383D01*
X203566991Y-85664669D01*
X203572030Y-85632853D01*
X203596551Y-85478037D01*
X203596551Y-85289064D01*
X203566991Y-85102432D01*
X203539897Y-85019048D01*
X203508598Y-84922719D01*
X203508596Y-84922716D01*
X203508596Y-84922714D01*
X203463341Y-84833898D01*
X203422811Y-84754352D01*
X203311741Y-84601478D01*
X203178124Y-84467861D01*
X203025250Y-84356791D01*
X202856887Y-84271005D01*
X202677169Y-84212610D01*
X202490537Y-84183051D01*
X202490532Y-84183051D01*
X202301570Y-84183051D01*
X202301565Y-84183051D01*
X202114931Y-84212611D01*
X202114928Y-84212611D01*
X202036195Y-84238194D01*
X201966354Y-84240189D01*
X201906521Y-84204109D01*
X201875693Y-84141408D01*
X201883658Y-84071994D01*
X201915233Y-84032233D01*
X201915667Y-84026719D01*
X201261378Y-83372431D01*
X201327114Y-83354817D01*
X201439988Y-83289649D01*
X201532149Y-83197488D01*
X201597317Y-83084614D01*
X201614931Y-83018878D01*
X202269219Y-83673167D01*
X202269219Y-83673166D01*
X202312057Y-83614207D01*
X202410314Y-83421368D01*
X202410315Y-83421365D01*
X202477193Y-83215532D01*
X202511051Y-83001771D01*
X202511051Y-82785330D01*
X202477193Y-82571569D01*
X202410315Y-82365736D01*
X202410314Y-82365733D01*
X202340762Y-82229231D01*
X202312056Y-82172893D01*
X202269219Y-82113934D01*
X202269219Y-82113933D01*
X201614930Y-82768222D01*
X201597317Y-82702488D01*
X201532149Y-82589614D01*
X201439988Y-82497453D01*
X201327114Y-82432285D01*
X201261377Y-82414670D01*
X201915667Y-81760381D01*
X201915667Y-81760380D01*
X201856711Y-81717547D01*
X201841899Y-81710000D01*
X224097769Y-81710000D01*
X224991988Y-81710000D01*
X224959075Y-81767007D01*
X224925000Y-81894174D01*
X224925000Y-82025826D01*
X224959075Y-82152993D01*
X224991988Y-82210000D01*
X224097769Y-82210000D01*
X224108242Y-82276126D01*
X224108242Y-82276129D01*
X224173904Y-82478217D01*
X224270379Y-82667557D01*
X224395272Y-82839459D01*
X224395276Y-82839464D01*
X224545535Y-82989723D01*
X224545540Y-82989727D01*
X224717442Y-83114620D01*
X224906782Y-83211095D01*
X225108871Y-83276757D01*
X225175000Y-83287231D01*
X225175000Y-82393012D01*
X225232007Y-82425925D01*
X225359174Y-82460000D01*
X225490826Y-82460000D01*
X225617993Y-82425925D01*
X225675000Y-82393012D01*
X225675000Y-83287230D01*
X225741126Y-83276757D01*
X225741129Y-83276757D01*
X225943217Y-83211095D01*
X226132557Y-83114620D01*
X226304459Y-82989727D01*
X226304464Y-82989723D01*
X226454723Y-82839464D01*
X226454727Y-82839459D01*
X226579620Y-82667557D01*
X226676095Y-82478217D01*
X226722569Y-82335185D01*
X226762006Y-82277510D01*
X226826365Y-82250311D01*
X226895211Y-82262225D01*
X226946687Y-82309469D01*
X226964500Y-82373503D01*
X226964500Y-82824820D01*
X226964500Y-82824822D01*
X226964499Y-82824822D01*
X226973231Y-82868717D01*
X226973234Y-82868724D01*
X226993989Y-82899786D01*
X227006496Y-82918504D01*
X227056278Y-82951767D01*
X227056281Y-82951767D01*
X227056282Y-82951768D01*
X227100177Y-82960500D01*
X227100180Y-82960500D01*
X228829822Y-82960500D01*
X228873717Y-82951768D01*
X228873717Y-82951767D01*
X228873722Y-82951767D01*
X228923504Y-82918504D01*
X228956767Y-82868722D01*
X228962588Y-82839459D01*
X228965500Y-82824822D01*
X228965500Y-81095177D01*
X228956768Y-81051282D01*
X228956767Y-81051281D01*
X228956767Y-81051278D01*
X228923504Y-81001496D01*
X228923503Y-81001495D01*
X228873724Y-80968234D01*
X228873717Y-80968231D01*
X228829822Y-80959500D01*
X228829820Y-80959500D01*
X227100180Y-80959500D01*
X227100178Y-80959500D01*
X227056282Y-80968231D01*
X227056275Y-80968234D01*
X227006496Y-81001495D01*
X227006495Y-81001496D01*
X226973234Y-81051275D01*
X226973231Y-81051282D01*
X226964500Y-81095177D01*
X226964500Y-81546496D01*
X226944815Y-81613535D01*
X226892011Y-81659290D01*
X226822853Y-81669234D01*
X226759297Y-81640209D01*
X226722569Y-81584814D01*
X226676095Y-81441782D01*
X226579620Y-81252442D01*
X226454727Y-81080540D01*
X226454723Y-81080535D01*
X226304464Y-80930276D01*
X226304459Y-80930272D01*
X226132557Y-80805379D01*
X225943215Y-80708903D01*
X225741124Y-80643241D01*
X225675000Y-80632768D01*
X225675000Y-81526988D01*
X225617993Y-81494075D01*
X225490826Y-81460000D01*
X225359174Y-81460000D01*
X225232007Y-81494075D01*
X225175000Y-81526988D01*
X225175000Y-80632768D01*
X225174999Y-80632768D01*
X225108875Y-80643241D01*
X224906784Y-80708903D01*
X224717442Y-80805379D01*
X224545540Y-80930272D01*
X224545535Y-80930276D01*
X224395276Y-81080535D01*
X224395272Y-81080540D01*
X224270379Y-81252442D01*
X224173904Y-81441782D01*
X224108242Y-81643870D01*
X224108242Y-81643873D01*
X224097769Y-81710000D01*
X201841899Y-81710000D01*
X201663868Y-81619287D01*
X201663865Y-81619286D01*
X201458032Y-81552408D01*
X201244271Y-81518551D01*
X201027831Y-81518551D01*
X200814069Y-81552408D01*
X200608236Y-81619286D01*
X200608233Y-81619287D01*
X200415397Y-81717543D01*
X200356434Y-81760381D01*
X201010724Y-82414670D01*
X200944988Y-82432285D01*
X200832114Y-82497453D01*
X200739953Y-82589614D01*
X200674785Y-82702488D01*
X200657170Y-82768223D01*
X200002881Y-82113934D01*
X199960043Y-82172897D01*
X199861787Y-82365733D01*
X199861786Y-82365736D01*
X199794908Y-82571569D01*
X199761051Y-82785330D01*
X197660115Y-82785330D01*
X197622142Y-82594424D01*
X197544837Y-82407795D01*
X197544835Y-82407792D01*
X197544833Y-82407788D01*
X197432609Y-82239832D01*
X197289769Y-82096992D01*
X197121813Y-81984768D01*
X197121803Y-81984763D01*
X197033142Y-81948038D01*
X196935178Y-81907460D01*
X196935170Y-81907458D01*
X196737058Y-81868051D01*
X196737054Y-81868051D01*
X196535048Y-81868051D01*
X196535043Y-81868051D01*
X196336931Y-81907458D01*
X196336923Y-81907460D01*
X196150298Y-81984763D01*
X196150288Y-81984768D01*
X195982332Y-82096992D01*
X195839492Y-82239832D01*
X195727268Y-82407788D01*
X195727263Y-82407798D01*
X195649960Y-82594423D01*
X195649958Y-82594431D01*
X195610551Y-82792543D01*
X190711051Y-82792543D01*
X190711051Y-82785330D01*
X190677193Y-82571569D01*
X190610315Y-82365736D01*
X190610314Y-82365733D01*
X190512056Y-82172893D01*
X190469219Y-82113934D01*
X190469219Y-82113933D01*
X189814930Y-82768222D01*
X189797317Y-82702488D01*
X189732149Y-82589614D01*
X189639988Y-82497453D01*
X189527114Y-82432285D01*
X189461377Y-82414670D01*
X190115667Y-81760381D01*
X190115666Y-81760380D01*
X190056711Y-81717547D01*
X189863868Y-81619287D01*
X189863865Y-81619286D01*
X189658032Y-81552408D01*
X189444271Y-81518551D01*
X189227831Y-81518551D01*
X189014069Y-81552408D01*
X188808236Y-81619286D01*
X188808233Y-81619287D01*
X188615397Y-81717543D01*
X188556434Y-81760381D01*
X189210724Y-82414670D01*
X189144988Y-82432285D01*
X189032114Y-82497453D01*
X188939953Y-82589614D01*
X188874785Y-82702488D01*
X188857170Y-82768223D01*
X188202881Y-82113934D01*
X188160043Y-82172897D01*
X188061787Y-82365733D01*
X188061786Y-82365736D01*
X187994908Y-82571569D01*
X187961051Y-82785330D01*
X185860115Y-82785330D01*
X185822142Y-82594424D01*
X185744837Y-82407795D01*
X185744835Y-82407792D01*
X185744833Y-82407788D01*
X185632609Y-82239832D01*
X185489769Y-82096992D01*
X185321813Y-81984768D01*
X185321803Y-81984763D01*
X185233142Y-81948038D01*
X185135178Y-81907460D01*
X185135170Y-81907458D01*
X184937058Y-81868051D01*
X184937054Y-81868051D01*
X184735048Y-81868051D01*
X184735043Y-81868051D01*
X184536931Y-81907458D01*
X184536923Y-81907460D01*
X184350298Y-81984763D01*
X184350288Y-81984768D01*
X184182332Y-82096992D01*
X184039492Y-82239832D01*
X183927268Y-82407788D01*
X183927263Y-82407798D01*
X183849960Y-82594423D01*
X183849958Y-82594431D01*
X183810551Y-82792543D01*
X178911051Y-82792543D01*
X178911051Y-82785330D01*
X178877193Y-82571569D01*
X178810315Y-82365736D01*
X178810314Y-82365733D01*
X178712056Y-82172893D01*
X178669219Y-82113934D01*
X178669219Y-82113933D01*
X178014930Y-82768222D01*
X177997317Y-82702488D01*
X177932149Y-82589614D01*
X177839988Y-82497453D01*
X177727114Y-82432285D01*
X177661377Y-82414670D01*
X178315667Y-81760381D01*
X178315666Y-81760380D01*
X178256711Y-81717547D01*
X178063868Y-81619287D01*
X178063865Y-81619286D01*
X177858032Y-81552408D01*
X177644271Y-81518551D01*
X177427831Y-81518551D01*
X177214069Y-81552408D01*
X177008236Y-81619286D01*
X177008233Y-81619287D01*
X176815397Y-81717543D01*
X176756434Y-81760381D01*
X177410724Y-82414670D01*
X177344988Y-82432285D01*
X177232114Y-82497453D01*
X177139953Y-82589614D01*
X177074785Y-82702488D01*
X177057170Y-82768223D01*
X176402881Y-82113934D01*
X176360043Y-82172897D01*
X176261787Y-82365733D01*
X176261786Y-82365736D01*
X176194908Y-82571569D01*
X176161051Y-82785330D01*
X174060115Y-82785330D01*
X174022142Y-82594424D01*
X173944837Y-82407795D01*
X173944835Y-82407792D01*
X173944833Y-82407788D01*
X173832609Y-82239832D01*
X173689769Y-82096992D01*
X173521813Y-81984768D01*
X173521803Y-81984763D01*
X173433142Y-81948038D01*
X173335178Y-81907460D01*
X173335170Y-81907458D01*
X173137058Y-81868051D01*
X173137054Y-81868051D01*
X172935048Y-81868051D01*
X172935043Y-81868051D01*
X172736931Y-81907458D01*
X172736923Y-81907460D01*
X172550298Y-81984763D01*
X172550288Y-81984768D01*
X172382332Y-82096992D01*
X172239492Y-82239832D01*
X172127268Y-82407788D01*
X172127263Y-82407798D01*
X172049960Y-82594423D01*
X172049958Y-82594431D01*
X172010551Y-82792543D01*
X169185562Y-82792543D01*
X169185562Y-82100789D01*
X169176830Y-82056894D01*
X169176829Y-82056893D01*
X169176829Y-82056890D01*
X169143566Y-82007108D01*
X169143565Y-82007107D01*
X169093786Y-81973846D01*
X169093779Y-81973843D01*
X169049884Y-81965112D01*
X169049882Y-81965112D01*
X167320242Y-81965112D01*
X167320240Y-81965112D01*
X167276344Y-81973843D01*
X167276337Y-81973846D01*
X167226558Y-82007107D01*
X167226557Y-82007108D01*
X167193296Y-82056887D01*
X167193293Y-82056894D01*
X167184562Y-82100789D01*
X167184562Y-82100792D01*
X167184562Y-83830432D01*
X167184562Y-83830434D01*
X167184561Y-83830434D01*
X167193293Y-83874329D01*
X167193296Y-83874336D01*
X167226557Y-83924115D01*
X167226558Y-83924116D01*
X167276340Y-83957379D01*
X167276343Y-83957379D01*
X167276344Y-83957380D01*
X167320239Y-83966112D01*
X167320242Y-83966112D01*
X167535562Y-83966112D01*
X167602601Y-83985797D01*
X167648356Y-84038601D01*
X167659562Y-84090112D01*
X167659562Y-88984444D01*
X167642950Y-89046443D01*
X167601310Y-89118565D01*
X167601310Y-89118566D01*
X167563794Y-89258576D01*
X167563794Y-89403526D01*
X167584569Y-89481057D01*
X167588794Y-89513151D01*
X167588794Y-90317898D01*
X167584569Y-90349991D01*
X167580379Y-90365628D01*
X167563794Y-90427525D01*
X167563794Y-90572475D01*
X167584569Y-90650006D01*
X167588794Y-90682100D01*
X167588794Y-93858776D01*
X167569109Y-93925815D01*
X167552475Y-93946457D01*
X165490050Y-96008881D01*
X165428727Y-96042366D01*
X165378177Y-96042817D01*
X165310742Y-96029403D01*
X165310740Y-96029403D01*
X165113658Y-96029403D01*
X165113656Y-96029403D01*
X164920369Y-96067850D01*
X164920359Y-96067853D01*
X164738291Y-96143267D01*
X164738278Y-96143274D01*
X164574417Y-96252763D01*
X164574413Y-96252766D01*
X164435062Y-96392117D01*
X164435059Y-96392121D01*
X164325570Y-96555982D01*
X164325563Y-96555995D01*
X164250149Y-96738063D01*
X164250146Y-96738073D01*
X164211699Y-96931359D01*
X164211699Y-97128448D01*
X164241638Y-97278960D01*
X164235411Y-97348551D01*
X164192548Y-97403729D01*
X164126658Y-97426973D01*
X164058661Y-97410905D01*
X164032340Y-97390832D01*
X162872870Y-96231362D01*
X162839385Y-96170039D01*
X162836551Y-96143681D01*
X162836551Y-84846528D01*
X162856236Y-84779489D01*
X162872870Y-84758847D01*
X163179287Y-84452431D01*
X163240610Y-84418946D01*
X163266968Y-84416112D01*
X164524861Y-84416112D01*
X164524862Y-84416112D01*
X164626120Y-84374169D01*
X164703619Y-84296670D01*
X165096226Y-83904061D01*
X165157547Y-83870578D01*
X165227238Y-83875562D01*
X165231328Y-83877171D01*
X165353227Y-83927663D01*
X165353231Y-83927663D01*
X165353232Y-83927664D01*
X165546518Y-83966112D01*
X165546521Y-83966112D01*
X165743605Y-83966112D01*
X165873644Y-83940244D01*
X165936897Y-83927663D01*
X166118976Y-83852244D01*
X166282844Y-83742751D01*
X166422201Y-83603394D01*
X166531694Y-83439526D01*
X166539217Y-83421365D01*
X166569451Y-83348371D01*
X166607113Y-83257447D01*
X166630109Y-83141841D01*
X166645562Y-83064155D01*
X166645562Y-82867068D01*
X166607114Y-82673782D01*
X166607113Y-82673781D01*
X166607113Y-82673777D01*
X166572252Y-82589614D01*
X166531697Y-82491704D01*
X166531690Y-82491691D01*
X166422201Y-82327830D01*
X166422198Y-82327826D01*
X166282847Y-82188475D01*
X166282843Y-82188472D01*
X166118982Y-82078983D01*
X166118969Y-82078976D01*
X165936901Y-82003562D01*
X165936891Y-82003559D01*
X165743605Y-81965112D01*
X165743603Y-81965112D01*
X165546521Y-81965112D01*
X165546519Y-81965112D01*
X165353232Y-82003559D01*
X165353222Y-82003562D01*
X165171154Y-82078976D01*
X165171141Y-82078983D01*
X165007280Y-82188472D01*
X165007276Y-82188475D01*
X164867925Y-82327826D01*
X164867922Y-82327830D01*
X164758433Y-82491691D01*
X164758426Y-82491704D01*
X164683012Y-82673772D01*
X164683009Y-82673782D01*
X164644562Y-82867068D01*
X164644562Y-82867071D01*
X164644562Y-83064153D01*
X164644562Y-83064155D01*
X164644561Y-83064155D01*
X164683009Y-83257441D01*
X164683012Y-83257451D01*
X164733489Y-83379315D01*
X164740958Y-83448785D01*
X164709682Y-83511264D01*
X164706610Y-83514448D01*
X164392264Y-83828794D01*
X164330943Y-83862278D01*
X164304585Y-83865112D01*
X163919847Y-83865112D01*
X163852808Y-83845427D01*
X163807053Y-83792623D01*
X163797109Y-83723465D01*
X163826134Y-83659909D01*
X163832166Y-83653431D01*
X163882199Y-83603397D01*
X163882202Y-83603394D01*
X163991695Y-83439526D01*
X163999218Y-83421365D01*
X164029452Y-83348371D01*
X164067114Y-83257447D01*
X164090110Y-83141841D01*
X164105563Y-83064155D01*
X164105563Y-82867068D01*
X164067115Y-82673782D01*
X164067114Y-82673781D01*
X164067114Y-82673777D01*
X164032253Y-82589614D01*
X163991698Y-82491704D01*
X163991691Y-82491691D01*
X163882202Y-82327830D01*
X163882199Y-82327826D01*
X163742848Y-82188475D01*
X163742844Y-82188472D01*
X163578983Y-82078983D01*
X163578970Y-82078976D01*
X163396902Y-82003562D01*
X163396892Y-82003559D01*
X163203606Y-81965112D01*
X163203604Y-81965112D01*
X163006522Y-81965112D01*
X163006520Y-81965112D01*
X162813233Y-82003559D01*
X162813223Y-82003562D01*
X162631155Y-82078976D01*
X162631142Y-82078983D01*
X162467281Y-82188472D01*
X162467277Y-82188475D01*
X162327926Y-82327826D01*
X162327923Y-82327830D01*
X162218434Y-82491691D01*
X162218427Y-82491704D01*
X162143013Y-82673772D01*
X162143010Y-82673782D01*
X162135210Y-82712997D01*
X162102825Y-82774908D01*
X162042109Y-82809482D01*
X161972339Y-82805741D01*
X161915667Y-82764875D01*
X161891120Y-82708203D01*
X161881819Y-82649484D01*
X161881819Y-82649481D01*
X161816157Y-82447394D01*
X161719682Y-82258054D01*
X161594789Y-82086152D01*
X161594785Y-82086147D01*
X161444526Y-81935888D01*
X161444521Y-81935884D01*
X161272619Y-81810991D01*
X161083277Y-81714515D01*
X160881186Y-81648853D01*
X160815062Y-81638380D01*
X160815062Y-82532600D01*
X160758055Y-82499687D01*
X160630888Y-82465612D01*
X160499236Y-82465612D01*
X160372069Y-82499687D01*
X160315062Y-82532600D01*
X160315062Y-81638380D01*
X160315061Y-81638380D01*
X160248937Y-81648853D01*
X160046846Y-81714515D01*
X159857504Y-81810991D01*
X159685602Y-81935884D01*
X159685597Y-81935888D01*
X159535338Y-82086147D01*
X159535334Y-82086152D01*
X159410441Y-82258054D01*
X159313966Y-82447394D01*
X159248304Y-82649482D01*
X159248304Y-82649485D01*
X159237831Y-82715612D01*
X135311051Y-82715612D01*
X135311051Y-80025500D01*
X227991715Y-80025500D01*
X227995933Y-80025500D01*
X228004043Y-80025765D01*
G37*
%TD.AperFunction*%
%TD*%
M02*
