%TF.GenerationSoftware,KiCad,Pcbnew,9.0.0*%
%TF.CreationDate,2025-03-11T11:24:18+01:00*%
%TF.ProjectId,CNIX V2 Control Board,434e4958-2056-4322-9043-6f6e74726f6c,rev?*%
%TF.SameCoordinates,Original*%
%TF.FileFunction,Soldermask,Top*%
%TF.FilePolarity,Negative*%
%FSLAX46Y46*%
G04 Gerber Fmt 4.6, Leading zero omitted, Abs format (unit mm)*
G04 Created by KiCad (PCBNEW 9.0.0) date 2025-03-11 11:24:18*
%MOMM*%
%LPD*%
G01*
G04 APERTURE LIST*
G04 Aperture macros list*
%AMRoundRect*
0 Rectangle with rounded corners*
0 $1 Rounding radius*
0 $2 $3 $4 $5 $6 $7 $8 $9 X,Y pos of 4 corners*
0 Add a 4 corners polygon primitive as box body*
4,1,4,$2,$3,$4,$5,$6,$7,$8,$9,$2,$3,0*
0 Add four circle primitives for the rounded corners*
1,1,$1+$1,$2,$3*
1,1,$1+$1,$4,$5*
1,1,$1+$1,$6,$7*
1,1,$1+$1,$8,$9*
0 Add four rect primitives between the rounded corners*
20,1,$1+$1,$2,$3,$4,$5,0*
20,1,$1+$1,$4,$5,$6,$7,0*
20,1,$1+$1,$6,$7,$8,$9,0*
20,1,$1+$1,$8,$9,$2,$3,0*%
%AMHorizOval*
0 Thick line with rounded ends*
0 $1 width*
0 $2 $3 position (X,Y) of the first rounded end (center of the circle)*
0 $4 $5 position (X,Y) of the second rounded end (center of the circle)*
0 Add line between two ends*
20,1,$1,$2,$3,$4,$5,0*
0 Add two circle primitives to create the rounded ends*
1,1,$1,$2,$3*
1,1,$1,$4,$5*%
%AMRotRect*
0 Rectangle, with rotation*
0 The origin of the aperture is its center*
0 $1 length*
0 $2 width*
0 $3 Rotation angle, in degrees counterclockwise*
0 Add horizontal line*
21,1,$1,$2,0,0,$3*%
G04 Aperture macros list end*
%ADD10C,1.500000*%
%ADD11C,1.000000*%
%ADD12RoundRect,0.250000X0.625000X-0.400000X0.625000X0.400000X-0.625000X0.400000X-0.625000X-0.400000X0*%
%ADD13RoundRect,0.250000X-0.475000X0.337500X-0.475000X-0.337500X0.475000X-0.337500X0.475000X0.337500X0*%
%ADD14RoundRect,0.250000X-0.337500X-0.475000X0.337500X-0.475000X0.337500X0.475000X-0.337500X0.475000X0*%
%ADD15RoundRect,0.250000X0.475000X-0.337500X0.475000X0.337500X-0.475000X0.337500X-0.475000X-0.337500X0*%
%ADD16RoundRect,0.250000X0.450000X-0.350000X0.450000X0.350000X-0.450000X0.350000X-0.450000X-0.350000X0*%
%ADD17RoundRect,0.243750X-0.243750X-0.456250X0.243750X-0.456250X0.243750X0.456250X-0.243750X0.456250X0*%
%ADD18RoundRect,0.250000X0.574524X0.097227X0.097227X0.574524X-0.574524X-0.097227X-0.097227X-0.574524X0*%
%ADD19RoundRect,0.250000X0.350000X0.450000X-0.350000X0.450000X-0.350000X-0.450000X0.350000X-0.450000X0*%
%ADD20RoundRect,0.250000X-0.574524X-0.097227X-0.097227X-0.574524X0.574524X0.097227X0.097227X0.574524X0*%
%ADD21RoundRect,0.250000X-0.350000X-0.450000X0.350000X-0.450000X0.350000X0.450000X-0.350000X0.450000X0*%
%ADD22RotRect,1.300000X1.900000X135.000000*%
%ADD23RoundRect,0.250000X-0.625000X0.400000X-0.625000X-0.400000X0.625000X-0.400000X0.625000X0.400000X0*%
%ADD24RoundRect,0.250000X-0.450000X0.350000X-0.450000X-0.350000X0.450000X-0.350000X0.450000X0.350000X0*%
%ADD25RoundRect,0.250000X0.097227X-0.574524X0.574524X-0.097227X-0.097227X0.574524X-0.574524X0.097227X0*%
%ADD26C,3.600000*%
%ADD27C,2.100000*%
%ADD28C,1.750000*%
%ADD29RoundRect,0.150000X-0.587500X-0.150000X0.587500X-0.150000X0.587500X0.150000X-0.587500X0.150000X0*%
%ADD30R,1.700000X1.700000*%
%ADD31O,1.700000X1.700000*%
%ADD32R,2.900000X5.400000*%
%ADD33RoundRect,0.112500X-0.112500X-0.237500X0.112500X-0.237500X0.112500X0.237500X-0.112500X0.237500X0*%
%ADD34RoundRect,0.250000X0.070711X-0.565685X0.565685X-0.070711X-0.070711X0.565685X-0.565685X0.070711X0*%
%ADD35RoundRect,0.250000X-0.325000X-0.450000X0.325000X-0.450000X0.325000X0.450000X-0.325000X0.450000X0*%
%ADD36RoundRect,0.250000X1.500000X1.000000X-1.500000X1.000000X-1.500000X-1.000000X1.500000X-1.000000X0*%
%ADD37RoundRect,0.250000X0.550000X-1.500000X0.550000X1.500000X-0.550000X1.500000X-0.550000X-1.500000X0*%
%ADD38RoundRect,0.150000X-0.825000X-0.150000X0.825000X-0.150000X0.825000X0.150000X-0.825000X0.150000X0*%
%ADD39RoundRect,0.150000X-0.150000X0.725000X-0.150000X-0.725000X0.150000X-0.725000X0.150000X0.725000X0*%
%ADD40RoundRect,0.250000X-1.500000X-0.900000X1.500000X-0.900000X1.500000X0.900000X-1.500000X0.900000X0*%
%ADD41RoundRect,0.250000X0.337500X0.475000X-0.337500X0.475000X-0.337500X-0.475000X0.337500X-0.475000X0*%
%ADD42RoundRect,0.243750X-0.456250X0.243750X-0.456250X-0.243750X0.456250X-0.243750X0.456250X0.243750X0*%
%ADD43RoundRect,0.075000X0.521491X-0.415425X-0.415425X0.521491X-0.521491X0.415425X0.415425X-0.521491X0*%
%ADD44RoundRect,0.075000X0.521491X0.415425X0.415425X0.521491X-0.521491X-0.415425X-0.415425X-0.521491X0*%
%ADD45RotRect,1.700000X1.700000X135.000000*%
%ADD46HorizOval,1.700000X0.000000X0.000000X0.000000X0.000000X0*%
%ADD47RoundRect,0.200000X-1.100000X-1.550000X1.100000X-1.550000X1.100000X1.550000X-1.100000X1.550000X0*%
%ADD48C,0.700000*%
%ADD49O,2.400000X0.900000*%
%ADD50O,1.700000X0.900000*%
%ADD51RoundRect,0.375000X0.375000X-0.625000X0.375000X0.625000X-0.375000X0.625000X-0.375000X-0.625000X0*%
%ADD52RoundRect,0.500000X1.400000X-0.500000X1.400000X0.500000X-1.400000X0.500000X-1.400000X-0.500000X0*%
%ADD53RotRect,1.600000X1.400000X225.000000*%
%ADD54RoundRect,0.250000X0.450000X-0.325000X0.450000X0.325000X-0.450000X0.325000X-0.450000X-0.325000X0*%
%ADD55C,4.000000*%
%ADD56RotRect,1.700000X1.700000X45.000000*%
%ADD57HorizOval,1.700000X0.000000X0.000000X0.000000X0.000000X0*%
G04 APERTURE END LIST*
D10*
%TO.C,TP20*%
X83711051Y-120731051D03*
%TD*%
D11*
%TO.C,TP14*%
X149125171Y-97733609D03*
%TD*%
D12*
%TO.C,R110*%
X84111051Y-98381052D03*
X84111051Y-95281050D03*
%TD*%
D13*
%TO.C,C106*%
X98011050Y-100493552D03*
X98011050Y-102568552D03*
%TD*%
D10*
%TO.C,TP24*%
X113111051Y-90931051D03*
%TD*%
D14*
%TO.C,C108*%
X101673550Y-120531052D03*
X103748550Y-120531052D03*
%TD*%
D15*
%TO.C,C102*%
X91111051Y-97268551D03*
X91111051Y-95193551D03*
%TD*%
D14*
%TO.C,C111*%
X86623550Y-114141050D03*
X88698550Y-114141050D03*
%TD*%
D16*
%TO.C,R7*%
X198211051Y-90331051D03*
X198211051Y-88331051D03*
%TD*%
D17*
%TO.C,D103*%
X92027500Y-84785000D03*
X93902500Y-84785000D03*
%TD*%
D15*
%TO.C,C6*%
X213311051Y-96568551D03*
X213311051Y-94493551D03*
%TD*%
D11*
%TO.C,TP13*%
X149125171Y-95183609D03*
%TD*%
D13*
%TO.C,C7*%
X202911051Y-93393551D03*
X202911051Y-95468551D03*
%TD*%
D18*
%TO.C,C3*%
X174489117Y-118169905D03*
X173021871Y-116702659D03*
%TD*%
D16*
%TO.C,R6*%
X162511051Y-123131051D03*
X162511051Y-121131051D03*
%TD*%
D15*
%TO.C,C10*%
X183011051Y-90368551D03*
X183011051Y-88293551D03*
%TD*%
D19*
%TO.C,R103*%
X97311051Y-92731051D03*
X95311051Y-92731051D03*
%TD*%
%TO.C,R15*%
X207711051Y-82931051D03*
X205711051Y-82931051D03*
%TD*%
D20*
%TO.C,C5*%
X176577428Y-113097428D03*
X178044674Y-114564674D03*
%TD*%
D15*
%TO.C,C109*%
X83911050Y-103518552D03*
X83911050Y-101443552D03*
%TD*%
D16*
%TO.C,R12*%
X201511051Y-90331051D03*
X201511051Y-88331051D03*
%TD*%
D11*
%TO.C,TP7*%
X143125171Y-100283609D03*
%TD*%
%TO.C,TP5*%
X143125171Y-95183609D03*
%TD*%
D13*
%TO.C,C107*%
X88711049Y-106493551D03*
X88711049Y-108568551D03*
%TD*%
D16*
%TO.C,R104*%
X88911051Y-97231053D03*
X88911051Y-95231053D03*
%TD*%
D21*
%TO.C,R4*%
X159711051Y-87731051D03*
X161711051Y-87731051D03*
%TD*%
D16*
%TO.C,R111*%
X74565000Y-120685000D03*
X74565000Y-118685000D03*
%TD*%
D22*
%TO.C,Y1*%
X171886965Y-119644224D03*
X167997878Y-115755137D03*
X165735137Y-118017878D03*
X169624224Y-121906965D03*
%TD*%
D19*
%TO.C,R13*%
X221415000Y-95881051D03*
X219415000Y-95881051D03*
%TD*%
D23*
%TO.C,R108*%
X95511050Y-105981050D03*
X95511050Y-109081052D03*
%TD*%
D11*
%TO.C,TP18*%
X152125171Y-97733609D03*
%TD*%
D15*
%TO.C,C11*%
X194811051Y-90368551D03*
X194811051Y-88293551D03*
%TD*%
D24*
%TO.C,R10*%
X178211051Y-88331051D03*
X178211051Y-90331051D03*
%TD*%
D16*
%TO.C,R8*%
X186411051Y-90331051D03*
X186411051Y-88331051D03*
%TD*%
D11*
%TO.C,TP9*%
X146125171Y-95183609D03*
%TD*%
D25*
%TO.C,C2*%
X187607428Y-112064674D03*
X189074674Y-110597428D03*
%TD*%
D19*
%TO.C,R16*%
X207711052Y-86331051D03*
X205711052Y-86331051D03*
%TD*%
D26*
%TO.C,H1*%
X226596832Y-103016266D03*
%TD*%
D11*
%TO.C,TP19*%
X152125171Y-100283609D03*
%TD*%
D27*
%TO.C,SW2*%
X195386051Y-85383551D03*
X202396051Y-85383551D03*
D28*
X196636051Y-82893551D03*
X201136051Y-82893551D03*
%TD*%
D29*
%TO.C,Q100*%
X87004802Y-91381051D03*
X87004802Y-93281051D03*
X88879802Y-92331051D03*
%TD*%
D10*
%TO.C,TP3*%
X97311051Y-84731051D03*
%TD*%
D11*
%TO.C,TP6*%
X143125171Y-97733609D03*
%TD*%
D30*
%TO.C,J4*%
X196530000Y-93331051D03*
D31*
X193990000Y-93331051D03*
X191450000Y-93331051D03*
X188910000Y-93331051D03*
X186370000Y-93331051D03*
X183830000Y-93331051D03*
X181290000Y-93331051D03*
X178750000Y-93331051D03*
%TD*%
D11*
%TO.C,TP15*%
X149125171Y-100283609D03*
%TD*%
D18*
%TO.C,C1*%
X168125157Y-124533865D03*
X166657911Y-123066619D03*
%TD*%
D19*
%TO.C,R14*%
X221415000Y-92931051D03*
X219415000Y-92931051D03*
%TD*%
D11*
%TO.C,TP10*%
X146125171Y-97733609D03*
%TD*%
D14*
%TO.C,C112*%
X86623550Y-116931052D03*
X88698550Y-116931052D03*
%TD*%
%TO.C,C101*%
X95273551Y-90531051D03*
X97348551Y-90531051D03*
%TD*%
D19*
%TO.C,R100*%
X97311051Y-88331051D03*
X95311051Y-88331051D03*
%TD*%
D15*
%TO.C,C9*%
X171411051Y-90368551D03*
X171411051Y-88293551D03*
%TD*%
D27*
%TO.C,SW3*%
X183586051Y-85383551D03*
X190596051Y-85383551D03*
D28*
X184836051Y-82893551D03*
X189336051Y-82893551D03*
%TD*%
D11*
%TO.C,TP8*%
X146125171Y-92583609D03*
%TD*%
D32*
%TO.C,L100*%
X108761051Y-111331052D03*
X98861049Y-111331052D03*
%TD*%
D19*
%TO.C,R5*%
X166511051Y-87731051D03*
X164511051Y-87731051D03*
%TD*%
D33*
%TO.C,D100*%
X83692300Y-93331051D03*
X84992300Y-93331051D03*
X84342300Y-91331051D03*
%TD*%
D16*
%TO.C,R9*%
X174811051Y-90331051D03*
X174811051Y-88331051D03*
%TD*%
D13*
%TO.C,C8*%
X200311051Y-93393551D03*
X200311051Y-95468551D03*
%TD*%
D34*
%TO.C,R1*%
X184603944Y-115038158D03*
X186018158Y-113623944D03*
%TD*%
D35*
%TO.C,D2*%
X209886051Y-82931051D03*
X211936049Y-82931051D03*
%TD*%
D36*
%TO.C,C100*%
X108218551Y-90831051D03*
X101718551Y-90831051D03*
%TD*%
D14*
%TO.C,C104*%
X94073550Y-97541050D03*
X96148550Y-97541050D03*
%TD*%
D37*
%TO.C,C113*%
X219500000Y-88400000D03*
X219500000Y-83000000D03*
%TD*%
D16*
%TO.C,R11*%
X189811051Y-90331051D03*
X189811051Y-88331051D03*
%TD*%
D11*
%TO.C,TP16*%
X152125171Y-92583609D03*
%TD*%
D21*
%TO.C,R113*%
X87865000Y-84785000D03*
X89865000Y-84785000D03*
%TD*%
D38*
%TO.C,U100*%
X90336051Y-99826052D03*
X90336051Y-101096052D03*
X90336051Y-102366052D03*
X90336051Y-103636052D03*
X95286051Y-103636052D03*
X95286051Y-102366052D03*
X95286051Y-101096052D03*
X95286051Y-99826052D03*
%TD*%
D11*
%TO.C,TP4*%
X143125171Y-92583609D03*
%TD*%
D39*
%TO.C,Q101*%
X95566049Y-111556052D03*
X94296050Y-111556052D03*
X93026050Y-111556052D03*
X91756051Y-111556052D03*
X91756051Y-116706052D03*
X93026050Y-116706052D03*
X94296050Y-116706052D03*
X95566049Y-116706052D03*
%TD*%
D40*
%TO.C,D101*%
X93211051Y-120531051D03*
X98611051Y-120531051D03*
%TD*%
D10*
%TO.C,TP22*%
X157511051Y-121931051D03*
%TD*%
D19*
%TO.C,R101*%
X93311051Y-90531051D03*
X91311051Y-90531051D03*
%TD*%
D21*
%TO.C,R105*%
X94111051Y-95341051D03*
X96111051Y-95341051D03*
%TD*%
D19*
%TO.C,R102*%
X93311051Y-92731051D03*
X91311051Y-92731051D03*
%TD*%
D41*
%TO.C,C12*%
X166537500Y-90000000D03*
X164462500Y-90000000D03*
%TD*%
D42*
%TO.C,D102*%
X76065000Y-114047499D03*
X76065000Y-115922501D03*
%TD*%
D10*
%TO.C,TP2*%
X191111051Y-117457343D03*
%TD*%
D43*
%TO.C,U1*%
X171309839Y-112618927D03*
X171663393Y-112265373D03*
X172016946Y-111911820D03*
X172370500Y-111558266D03*
X172724053Y-111204713D03*
X173077606Y-110851160D03*
X173431160Y-110497606D03*
X173784713Y-110144053D03*
X174138266Y-109790500D03*
X174491820Y-109436946D03*
X174845373Y-109083393D03*
X175198927Y-108729839D03*
D44*
X175198927Y-106732263D03*
X174845373Y-106378709D03*
X174491820Y-106025156D03*
X174138266Y-105671602D03*
X173784713Y-105318049D03*
X173431160Y-104964496D03*
X173077606Y-104610942D03*
X172724053Y-104257389D03*
X172370500Y-103903836D03*
X172016946Y-103550282D03*
X171663393Y-103196729D03*
X171309839Y-102843175D03*
D43*
X169312263Y-102843175D03*
X168958709Y-103196729D03*
X168605156Y-103550282D03*
X168251602Y-103903836D03*
X167898049Y-104257389D03*
X167544496Y-104610942D03*
X167190942Y-104964496D03*
X166837389Y-105318049D03*
X166483836Y-105671602D03*
X166130282Y-106025156D03*
X165776729Y-106378709D03*
X165423175Y-106732263D03*
D44*
X165423175Y-108729839D03*
X165776729Y-109083393D03*
X166130282Y-109436946D03*
X166483836Y-109790500D03*
X166837389Y-110144053D03*
X167190942Y-110497606D03*
X167544496Y-110851160D03*
X167898049Y-111204713D03*
X168251602Y-111558266D03*
X168605156Y-111911820D03*
X168958709Y-112265373D03*
X169312263Y-112618927D03*
%TD*%
D35*
%TO.C,D3*%
X209886052Y-86331051D03*
X211936050Y-86331051D03*
%TD*%
D45*
%TO.C,J6*%
X159824045Y-102418057D03*
D46*
X161620096Y-100622006D03*
X163416147Y-98825955D03*
X165212199Y-97029903D03*
%TD*%
D47*
%TO.C,BT1*%
X196811051Y-116131051D03*
X226211051Y-116131051D03*
%TD*%
D15*
%TO.C,C103*%
X86661050Y-97268551D03*
X86661050Y-95193551D03*
%TD*%
D27*
%TO.C,SW4*%
X171786051Y-85383551D03*
X178796051Y-85383551D03*
D28*
X173036051Y-82893551D03*
X177536051Y-82893551D03*
%TD*%
D48*
%TO.C,J11*%
X223940000Y-97106051D03*
X223940000Y-96256051D03*
X223940000Y-95406050D03*
X223940000Y-94556051D03*
X223940000Y-93706051D03*
X223940000Y-92856051D03*
X223940000Y-92006050D03*
X223940000Y-91156051D03*
X225290000Y-91156051D03*
X225290000Y-92006051D03*
X225290000Y-92856051D03*
X225290000Y-93706051D03*
X225290000Y-94556051D03*
X225290000Y-95406051D03*
X225290000Y-96256051D03*
X225290000Y-97106051D03*
D49*
X224920000Y-98456051D03*
D50*
X228300000Y-98456051D03*
D49*
X224920000Y-89806051D03*
D50*
X228300000Y-89806051D03*
%TD*%
D12*
%TO.C,R109*%
X86411050Y-104031053D03*
X86411050Y-100931051D03*
%TD*%
D24*
%TO.C,R106*%
X93111051Y-106531051D03*
X93111051Y-108531051D03*
%TD*%
D51*
%TO.C,U2*%
X205411051Y-97681051D03*
X207711051Y-97681050D03*
D52*
X207711051Y-91381052D03*
D51*
X210011051Y-97681051D03*
%TD*%
D16*
%TO.C,R112*%
X77915000Y-120685000D03*
X77915000Y-118685000D03*
%TD*%
D53*
%TO.C,SW1*%
X178891634Y-110568488D03*
X184548488Y-104911634D03*
X182073614Y-113750468D03*
X187730468Y-108093614D03*
%TD*%
D11*
%TO.C,TP12*%
X149125171Y-92583609D03*
%TD*%
D54*
%TO.C,D1*%
X160111051Y-123156050D03*
X160111051Y-121106052D03*
%TD*%
D14*
%TO.C,C110*%
X86623549Y-111231050D03*
X88698549Y-111231050D03*
%TD*%
D10*
%TO.C,TP23*%
X191111051Y-113931051D03*
%TD*%
D11*
%TO.C,TP11*%
X146125171Y-100283609D03*
%TD*%
D55*
%TO.C,H100*%
X147500000Y-105500000D03*
%TD*%
D10*
%TO.C,TP1*%
X170711051Y-114531051D03*
%TD*%
D36*
%TO.C,C105*%
X108261050Y-99931051D03*
X101761050Y-99931051D03*
%TD*%
D20*
%TO.C,C4*%
X174827428Y-114847428D03*
X176294674Y-116314674D03*
%TD*%
D56*
%TO.C,J1*%
X157122897Y-105142897D03*
D57*
X158918948Y-106938948D03*
X160714999Y-108734999D03*
X162511051Y-110531051D03*
%TD*%
D24*
%TO.C,R107*%
X90911049Y-106531051D03*
X90911049Y-108531051D03*
%TD*%
D11*
%TO.C,TP17*%
X152125171Y-95183609D03*
%TD*%
D30*
%TO.C,J5*%
X168185062Y-82965612D03*
D31*
X165645062Y-82965612D03*
X163105063Y-82965612D03*
X160565062Y-82965612D03*
%TD*%
D30*
%TO.C,J3*%
X138590000Y-86775000D03*
D31*
X138590000Y-84235000D03*
X141130000Y-86775000D03*
X141130000Y-84235000D03*
X143670000Y-86775000D03*
X143670000Y-84235000D03*
X146210000Y-86775000D03*
X146210000Y-84235000D03*
X148750000Y-86775000D03*
X148750000Y-84235000D03*
X151290000Y-86775000D03*
X151290000Y-84235000D03*
X153830000Y-86775000D03*
X153830000Y-84235000D03*
X156370000Y-86775000D03*
X156370000Y-84235000D03*
%TD*%
D30*
%TO.C,J10*%
X228000000Y-129000000D03*
D31*
X225460000Y-129000000D03*
%TD*%
D30*
%TO.C,J9*%
X69539999Y-81999999D03*
D31*
X66999999Y-81999999D03*
%TD*%
D30*
%TO.C,J8*%
X227965000Y-81960000D03*
D31*
X225425000Y-81960000D03*
%TD*%
D30*
%TO.C,J7*%
X69539999Y-129000001D03*
D31*
X66999999Y-129000001D03*
%TD*%
M02*
