ISO-10303-21;
HEADER;
FILE_DESCRIPTION(('FreeCAD Model'),'2;1');
FILE_NAME('Open CASCADE Shape Model','2026-01-23T14:27:23',(''),(''),
  'Open CASCADE STEP processor 7.8','FreeCAD','Unknown');
FILE_SCHEMA(('AUTOMOTIVE_DESIGN { 1 0 10303 214 1 1 1 1 }'));
ENDSEC;
DATA;
#1 = APPLICATION_PROTOCOL_DEFINITION('international standard',
  'automotive_design',2000,#2);
#2 = APPLICATION_CONTEXT(
  'core data for automotive mechanical design processes');
#3 = SHAPE_DEFINITION_REPRESENTATION(#4,#10);
#4 = PRODUCT_DEFINITION_SHAPE('','',#5);
#5 = PRODUCT_DEFINITION('design','',#6,#9);
#6 = PRODUCT_DEFINITION_FORMATION('','',#7);
#7 = PRODUCT('Buttons','Buttons','',(#8));
#8 = PRODUCT_CONTEXT('',#2,'mechanical');
#9 = PRODUCT_DEFINITION_CONTEXT('part definition',#2,'design');
#10 = SHAPE_REPRESENTATION('',(#11,#15,#42,#69),#96);
#11 = AXIS2_PLACEMENT_3D('',#12,#13,#14);
#12 = CARTESIAN_POINT('',(0.,0.,0.));
#13 = DIRECTION('',(0.,0.,1.));
#14 = DIRECTION('',(1.,0.,-0.));
#15 = SHELL_BASED_SURFACE_MODEL('',(#16));
#16 = OPEN_SHELL('',(#17));
#17 = ADVANCED_FACE('',(#18),#31,.T.);
#18 = FACE_BOUND('',#19,.F.);
#19 = EDGE_LOOP('',(#20));
#20 = ORIENTED_EDGE('',*,*,#21,.F.);
#21 = EDGE_CURVE('',#22,#22,#24,.T.);
#22 = VERTEX_POINT('',#23);
#23 = CARTESIAN_POINT('',(-173.711501,-79.943551,-20.15));
#24 = SURFACE_CURVE('',#25,(#30),.PCURVE_S1.);
#25 = CIRCLE('',#26,1.57);
#26 = AXIS2_PLACEMENT_3D('',#27,#28,#29);
#27 = CARTESIAN_POINT('',(-175.281501,-79.943551,-20.15));
#28 = DIRECTION('',(-8.8E-16,1.,-8.9E-16));
#29 = DIRECTION('',(1.,8.8E-16,1.924646799147E-16));
#30 = PCURVE('',#31,#36);
#31 = PLANE('',#32);
#32 = AXIS2_PLACEMENT_3D('',#33,#34,#35);
#33 = CARTESIAN_POINT('',(-187.081501,-79.943551,-20.15));
#34 = DIRECTION('',(5.942648679612E-16,1.,0.));
#35 = DIRECTION('',(1.,-5.942648679612E-16,0.));
#36 = DEFINITIONAL_REPRESENTATION('',(#37),#41);
#37 = CIRCLE('',#38,1.57);
#38 = AXIS2_PLACEMENT_2D('',#39,#40);
#39 = CARTESIAN_POINT('',(11.8,0.));
#40 = DIRECTION('',(1.,-1.924646799147E-16));
#41 = ( GEOMETRIC_REPRESENTATION_CONTEXT(2) 
PARAMETRIC_REPRESENTATION_CONTEXT() REPRESENTATION_CONTEXT('2D SPACE',''
  ) );
#42 = SHELL_BASED_SURFACE_MODEL('',(#43));
#43 = OPEN_SHELL('',(#44));
#44 = ADVANCED_FACE('',(#45),#58,.T.);
#45 = FACE_BOUND('',#46,.F.);
#46 = EDGE_LOOP('',(#47));
#47 = ORIENTED_EDGE('',*,*,#48,.F.);
#48 = EDGE_CURVE('',#49,#49,#51,.T.);
#49 = VERTEX_POINT('',#50);
#50 = CARTESIAN_POINT('',(-185.511501,-79.943551,-20.15));
#51 = SURFACE_CURVE('',#52,(#57),.PCURVE_S1.);
#52 = CIRCLE('',#53,1.57);
#53 = AXIS2_PLACEMENT_3D('',#54,#55,#56);
#54 = CARTESIAN_POINT('',(-187.081501,-79.943551,-20.15));
#55 = DIRECTION('',(-8.8E-16,1.,-8.9E-16));
#56 = DIRECTION('',(1.,8.8E-16,1.924646799147E-16));
#57 = PCURVE('',#58,#63);
#58 = PLANE('',#59);
#59 = AXIS2_PLACEMENT_3D('',#60,#61,#62);
#60 = CARTESIAN_POINT('',(-187.081501,-79.943551,-20.15));
#61 = DIRECTION('',(5.942648679612E-16,1.,0.));
#62 = DIRECTION('',(1.,-5.942648679612E-16,0.));
#63 = DEFINITIONAL_REPRESENTATION('',(#64),#68);
#64 = CIRCLE('',#65,1.57);
#65 = AXIS2_PLACEMENT_2D('',#66,#67);
#66 = CARTESIAN_POINT('',(-2.84217094304E-14,3.552713678801E-15));
#67 = DIRECTION('',(1.,-1.924646799147E-16));
#68 = ( GEOMETRIC_REPRESENTATION_CONTEXT(2) 
PARAMETRIC_REPRESENTATION_CONTEXT() REPRESENTATION_CONTEXT('2D SPACE',''
  ) );
#69 = SHELL_BASED_SURFACE_MODEL('',(#70));
#70 = OPEN_SHELL('',(#71));
#71 = ADVANCED_FACE('',(#72),#85,.T.);
#72 = FACE_BOUND('',#73,.F.);
#73 = EDGE_LOOP('',(#74));
#74 = ORIENTED_EDGE('',*,*,#75,.F.);
#75 = EDGE_CURVE('',#76,#76,#78,.T.);
#76 = VERTEX_POINT('',#77);
#77 = CARTESIAN_POINT('',(-197.311501,-79.943551,-20.15));
#78 = SURFACE_CURVE('',#79,(#84),.PCURVE_S1.);
#79 = CIRCLE('',#80,1.57);
#80 = AXIS2_PLACEMENT_3D('',#81,#82,#83);
#81 = CARTESIAN_POINT('',(-198.881501,-79.943551,-20.15));
#82 = DIRECTION('',(-8.8E-16,1.,-8.9E-16));
#83 = DIRECTION('',(1.,8.8E-16,1.924646799147E-16));
#84 = PCURVE('',#85,#90);
#85 = PLANE('',#86);
#86 = AXIS2_PLACEMENT_3D('',#87,#88,#89);
#87 = CARTESIAN_POINT('',(-187.081501,-79.943551,-20.15));
#88 = DIRECTION('',(5.942648679612E-16,1.,0.));
#89 = DIRECTION('',(1.,-5.942648679612E-16,0.));
#90 = DEFINITIONAL_REPRESENTATION('',(#91),#95);
#91 = CIRCLE('',#92,1.57);
#92 = AXIS2_PLACEMENT_2D('',#93,#94);
#93 = CARTESIAN_POINT('',(-11.8,3.552713678801E-15));
#94 = DIRECTION('',(1.,-1.924646799147E-16));
#95 = ( GEOMETRIC_REPRESENTATION_CONTEXT(2) 
PARAMETRIC_REPRESENTATION_CONTEXT() REPRESENTATION_CONTEXT('2D SPACE',''
  ) );
#96 = ( GEOMETRIC_REPRESENTATION_CONTEXT(3) 
GLOBAL_UNCERTAINTY_ASSIGNED_CONTEXT((#100)) GLOBAL_UNIT_ASSIGNED_CONTEXT
((#97,#98,#99)) REPRESENTATION_CONTEXT('Context #1',
  '3D Context with UNIT and UNCERTAINTY') );
#97 = ( LENGTH_UNIT() NAMED_UNIT(*) SI_UNIT(.MILLI.,.METRE.) );
#98 = ( NAMED_UNIT(*) PLANE_ANGLE_UNIT() SI_UNIT($,.RADIAN.) );
#99 = ( NAMED_UNIT(*) SI_UNIT($,.STERADIAN.) SOLID_ANGLE_UNIT() );
#100 = UNCERTAINTY_MEASURE_WITH_UNIT(LENGTH_MEASURE(1.E-07),#97,
  'distance_accuracy_value','confusion accuracy');
#101 = PRODUCT_RELATED_PRODUCT_CATEGORY('part',$,(#7));
#102 = MECHANICAL_DESIGN_GEOMETRIC_PRESENTATION_REPRESENTATION('',(#103,
    #115,#126),#96);
#103 = STYLED_ITEM('color',(#104),#17);
#104 = PRESENTATION_STYLE_ASSIGNMENT((#105,#113));
#105 = SURFACE_STYLE_USAGE(.BOTH.,#106);
#106 = SURFACE_SIDE_STYLE('',(#107,#111));
#107 = SURFACE_STYLE_FILL_AREA(#108);
#108 = FILL_AREA_STYLE('',(#109));
#109 = FILL_AREA_STYLE_COLOUR('',#110);
#110 = COLOUR_RGB('',1.,0.843137261657,0.);
#111 = SURFACE_STYLE_RENDERING_WITH_PROPERTIES(.NORMAL_SHADING.,#110,(
    #112));
#112 = SURFACE_STYLE_TRANSPARENT(0.600000023842);
#113 = CURVE_STYLE('',#114,POSITIVE_LENGTH_MEASURE(0.1),#110);
#114 = DRAUGHTING_PRE_DEFINED_CURVE_FONT('continuous');
#115 = STYLED_ITEM('color',(#116),#44);
#116 = PRESENTATION_STYLE_ASSIGNMENT((#117,#124));
#117 = SURFACE_STYLE_USAGE(.BOTH.,#118);
#118 = SURFACE_SIDE_STYLE('',(#119,#122));
#119 = SURFACE_STYLE_FILL_AREA(#120);
#120 = FILL_AREA_STYLE('',(#121));
#121 = FILL_AREA_STYLE_COLOUR('',#110);
#122 = SURFACE_STYLE_RENDERING_WITH_PROPERTIES(.NORMAL_SHADING.,#110,(
    #123));
#123 = SURFACE_STYLE_TRANSPARENT(0.600000023842);
#124 = CURVE_STYLE('',#125,POSITIVE_LENGTH_MEASURE(0.1),#110);
#125 = DRAUGHTING_PRE_DEFINED_CURVE_FONT('continuous');
#126 = STYLED_ITEM('color',(#127),#71);
#127 = PRESENTATION_STYLE_ASSIGNMENT((#128,#135));
#128 = SURFACE_STYLE_USAGE(.BOTH.,#129);
#129 = SURFACE_SIDE_STYLE('',(#130,#133));
#130 = SURFACE_STYLE_FILL_AREA(#131);
#131 = FILL_AREA_STYLE('',(#132));
#132 = FILL_AREA_STYLE_COLOUR('',#110);
#133 = SURFACE_STYLE_RENDERING_WITH_PROPERTIES(.NORMAL_SHADING.,#110,(
    #134));
#134 = SURFACE_STYLE_TRANSPARENT(0.600000023842);
#135 = CURVE_STYLE('',#136,POSITIVE_LENGTH_MEASURE(0.1),#110);
#136 = DRAUGHTING_PRE_DEFINED_CURVE_FONT('continuous');
ENDSEC;
END-ISO-10303-21;
